<?xml version="1.0" encoding="UTF-8" standalone="no"?>
<!DOCTYPE svg PUBLIC "-//W3C//DTD SVG 1.1//EN"
 "http://www.w3.org/Graphics/SVG/1.1/DTD/svg11.dtd">
<!-- Generated by graphviz version 2.42.4 (0)
 -->
<!-- Title: G Pages: 1 -->
<svg width="1243pt" height="86pt"
 viewBox="0.00 0.00 1243.00 86.00" xmlns="http://www.w3.org/2000/svg" xmlns:xlink="http://www.w3.org/1999/xlink">
<g id="graph0" class="graph" transform="scale(1 1) rotate(0) translate(18 68)">
<title>G</title>
<polygon fill="#fcfcfd" stroke="transparent" points="-18,18 -18,-68 1225,-68 1225,18 -18,18"/>
<!-- label0 -->
<g id="node1" class="node">
<title>label0</title>
<path fill="#ffffff" stroke="#7f56d9" stroke-width="2.1" d="M232,-50C232,-50 12,-50 12,-50 6,-50 0,-44 0,-38 0,-38 0,-12 0,-12 0,-6 6,0 12,0 12,0 232,0 232,0 238,0 244,-6 244,-12 244,-12 244,-38 244,-38 244,-44 238,-50 232,-50"/>
<polygon fill="#eef4ff" stroke="transparent" points="8,-25 8,-46 236,-46 236,-25 8,-25"/>
<polygon fill="none" stroke="#d0d5dd" points="8,-25 8,-46 236,-46 236,-25 8,-25"/>
<text text-anchor="start" x="55" y="-34" font-family="Menlo,Monaco,Consolas,monospace" font-weight="bold" font-size="10.00">addr:</text>
<text text-anchor="start" x="86" y="-34" font-family="Menlo,Monaco,Consolas,monospace" font-size="10.00"> 0x0x502000000010</text>
<polygon fill="#eef4ff" stroke="transparent" points="8,-4 8,-25 62,-25 62,-4 8,-4"/>
<polygon fill="none" stroke="#d0d5dd" points="8,-4 8,-25 62,-25 62,-4 8,-4"/>
<text text-anchor="start" x="13" y="-13" font-family="Menlo,Monaco,Consolas,monospace" font-weight="bold" font-size="10.00">phys:</text>
<text text-anchor="start" x="44" y="-13" font-family="Menlo,Monaco,Consolas,monospace" font-size="10.00"> 0</text>
<polygon fill="#eef4ff" stroke="transparent" points="62,-4 62,-25 116,-25 116,-4 62,-4"/>
<polygon fill="none" stroke="#d0d5dd" points="62,-4 62,-25 116,-25 116,-4 62,-4"/>
<text text-anchor="start" x="67" y="-13" font-family="Menlo,Monaco,Consolas,monospace" font-weight="bold" font-size="10.00">virt:</text>
<text text-anchor="start" x="98" y="-13" font-family="Menlo,Monaco,Consolas,monospace" font-size="10.00"> 0</text>
<polygon fill="#eef4ff" stroke="transparent" points="116,-4 116,-25 164,-25 164,-4 116,-4"/>
<polygon fill="none" stroke="#d0d5dd" points="116,-4 116,-25 164,-25 164,-4 116,-4"/>
<text text-anchor="start" x="121" y="-13" font-family="Menlo,Monaco,Consolas,monospace" font-weight="bold" font-size="10.00">val:</text>
<text text-anchor="start" x="146" y="-13" font-family="Menlo,Monaco,Consolas,monospace" font-size="10.00"> 0</text>
<polygon fill="#eef4ff" stroke="transparent" points="164,-4 164,-25 200,-25 200,-4 164,-4"/>
<polygon fill="none" stroke="#d0d5dd" points="164,-4 164,-25 200,-25 200,-4 164,-4"/>
<text text-anchor="start" x="169" y="-13" font-family="Menlo,Monaco,Consolas,monospace" font-weight="bold" font-size="10.00">n:</text>
<text text-anchor="start" x="182" y="-13" font-family="Menlo,Monaco,Consolas,monospace" font-size="10.00"> 0</text>
<polygon fill="#eef4ff" stroke="transparent" points="200,-4 200,-25 236,-25 236,-4 200,-4"/>
<polygon fill="none" stroke="#d0d5dd" points="200,-4 200,-25 236,-25 236,-4 200,-4"/>
<text text-anchor="start" x="205" y="-13" font-family="Menlo,Monaco,Consolas,monospace" font-weight="bold" font-size="10.00">p:</text>
<text text-anchor="start" x="218" y="-13" font-family="Menlo,Monaco,Consolas,monospace" font-size="10.00"> 0</text>
</g>
<!-- label1 -->
<g id="node2" class="node">
<title>label1</title>
<path fill="#ffffff" stroke="#7f56d9" stroke-width="2.1" d="M553,-50C553,-50 321,-50 321,-50 315,-50 309,-44 309,-38 309,-38 309,-12 309,-12 309,-6 315,0 321,0 321,0 553,0 553,0 559,0 565,-6 565,-12 565,-12 565,-38 565,-38 565,-44 559,-50 553,-50"/>
<polygon fill="#eef4ff" stroke="transparent" points="317,-25 317,-46 557,-46 557,-25 317,-25"/>
<polygon fill="none" stroke="#d0d5dd" points="317,-25 317,-46 557,-46 557,-25 317,-25"/>
<text text-anchor="start" x="370" y="-34" font-family="Menlo,Monaco,Consolas,monospace" font-weight="bold" font-size="10.00">addr:</text>
<text text-anchor="start" x="401" y="-34" font-family="Menlo,Monaco,Consolas,monospace" font-size="10.00"> 0x0x502000000014</text>
<polygon fill="#eef4ff" stroke="transparent" points="317,-4 317,-25 371,-25 371,-4 317,-4"/>
<polygon fill="none" stroke="#d0d5dd" points="317,-4 317,-25 371,-25 371,-4 317,-4"/>
<text text-anchor="start" x="322" y="-13" font-family="Menlo,Monaco,Consolas,monospace" font-weight="bold" font-size="10.00">phys:</text>
<text text-anchor="start" x="353" y="-13" font-family="Menlo,Monaco,Consolas,monospace" font-size="10.00"> 1</text>
<polygon fill="#eef4ff" stroke="transparent" points="371,-4 371,-25 431,-25 431,-4 371,-4"/>
<polygon fill="none" stroke="#d0d5dd" points="371,-4 371,-25 431,-25 431,-4 371,-4"/>
<text text-anchor="start" x="376" y="-13" font-family="Menlo,Monaco,Consolas,monospace" font-weight="bold" font-size="10.00">virt:</text>
<text text-anchor="start" x="407" y="-13" font-family="Menlo,Monaco,Consolas,monospace" font-size="10.00"> &#45;1</text>
<polygon fill="#eef4ff" stroke="transparent" points="431,-4 431,-25 479,-25 479,-4 431,-4"/>
<polygon fill="none" stroke="#d0d5dd" points="431,-4 431,-25 479,-25 479,-4 431,-4"/>
<text text-anchor="start" x="436" y="-13" font-family="Menlo,Monaco,Consolas,monospace" font-weight="bold" font-size="10.00">val:</text>
<text text-anchor="start" x="461" y="-13" font-family="Menlo,Monaco,Consolas,monospace" font-size="10.00"> 0</text>
<polygon fill="#eef4ff" stroke="transparent" points="479,-4 479,-25 515,-25 515,-4 479,-4"/>
<polygon fill="none" stroke="#d0d5dd" points="479,-4 479,-25 515,-25 515,-4 479,-4"/>
<text text-anchor="start" x="484" y="-13" font-family="Menlo,Monaco,Consolas,monospace" font-weight="bold" font-size="10.00">n:</text>
<text text-anchor="start" x="497" y="-13" font-family="Menlo,Monaco,Consolas,monospace" font-size="10.00"> 2</text>
<polygon fill="#eef4ff" stroke="transparent" points="515,-4 515,-25 557,-25 557,-4 515,-4"/>
<polygon fill="none" stroke="#d0d5dd" points="515,-4 515,-25 557,-25 557,-4 515,-4"/>
<text text-anchor="start" x="520" y="-13" font-family="Menlo,Monaco,Consolas,monospace" font-weight="bold" font-size="10.00">p:</text>
<text text-anchor="start" x="533" y="-13" font-family="Menlo,Monaco,Consolas,monospace" font-size="10.00"> &#45;1</text>
</g>
<!-- label0&#45;&gt;label1 -->
<g id="edge1" class="edge">
<title>label0&#45;&gt;label1</title>
<path fill="none" stroke="#dce6e3" stroke-width="1.5" stroke-dasharray="5,2" d="M244.01,-25C265.26,-25 287.43,-25 308.83,-25"/>
</g>
<!-- label2 -->
<g id="node3" class="node">
<title>label2</title>
<path fill="#ffffff" stroke="#7f56d9" stroke-width="2.1" d="M874,-50C874,-50 642,-50 642,-50 636,-50 630,-44 630,-38 630,-38 630,-12 630,-12 630,-6 636,0 642,0 642,0 874,0 874,0 880,0 886,-6 886,-12 886,-12 886,-38 886,-38 886,-44 880,-50 874,-50"/>
<polygon fill="#eef4ff" stroke="transparent" points="638,-25 638,-46 878,-46 878,-25 638,-25"/>
<polygon fill="none" stroke="#d0d5dd" points="638,-25 638,-46 878,-46 878,-25 638,-25"/>
<text text-anchor="start" x="691" y="-34" font-family="Menlo,Monaco,Consolas,monospace" font-weight="bold" font-size="10.00">addr:</text>
<text text-anchor="start" x="722" y="-34" font-family="Menlo,Monaco,Consolas,monospace" font-size="10.00"> 0x0x502000000018</text>
<polygon fill="#eef4ff" stroke="transparent" points="638,-4 638,-25 692,-25 692,-4 638,-4"/>
<polygon fill="none" stroke="#d0d5dd" points="638,-4 638,-25 692,-25 692,-4 638,-4"/>
<text text-anchor="start" x="643" y="-13" font-family="Menlo,Monaco,Consolas,monospace" font-weight="bold" font-size="10.00">phys:</text>
<text text-anchor="start" x="674" y="-13" font-family="Menlo,Monaco,Consolas,monospace" font-size="10.00"> 2</text>
<polygon fill="#eef4ff" stroke="transparent" points="692,-4 692,-25 752,-25 752,-4 692,-4"/>
<polygon fill="none" stroke="#d0d5dd" points="692,-4 692,-25 752,-25 752,-4 692,-4"/>
<text text-anchor="start" x="697" y="-13" font-family="Menlo,Monaco,Consolas,monospace" font-weight="bold" font-size="10.00">virt:</text>
<text text-anchor="start" x="728" y="-13" font-family="Menlo,Monaco,Consolas,monospace" font-size="10.00"> &#45;1</text>
<polygon fill="#eef4ff" stroke="transparent" points="752,-4 752,-25 800,-25 800,-4 752,-4"/>
<polygon fill="none" stroke="#d0d5dd" points="752,-4 752,-25 800,-25 800,-4 752,-4"/>
<text text-anchor="start" x="757" y="-13" font-family="Menlo,Monaco,Consolas,monospace" font-weight="bold" font-size="10.00">val:</text>
<text text-anchor="start" x="782" y="-13" font-family="Menlo,Monaco,Consolas,monospace" font-size="10.00"> 0</text>
<polygon fill="#eef4ff" stroke="transparent" points="800,-4 800,-25 836,-25 836,-4 800,-4"/>
<polygon fill="none" stroke="#d0d5dd" points="800,-4 800,-25 836,-25 836,-4 800,-4"/>
<text text-anchor="start" x="805" y="-13" font-family="Menlo,Monaco,Consolas,monospace" font-weight="bold" font-size="10.00">n:</text>
<text text-anchor="start" x="818" y="-13" font-family="Menlo,Monaco,Consolas,monospace" font-size="10.00"> 3</text>
<polygon fill="#eef4ff" stroke="transparent" points="836,-4 836,-25 878,-25 878,-4 836,-4"/>
<polygon fill="none" stroke="#d0d5dd" points="836,-4 836,-25 878,-25 878,-4 836,-4"/>
<text text-anchor="start" x="841" y="-13" font-family="Menlo,Monaco,Consolas,monospace" font-weight="bold" font-size="10.00">p:</text>
<text text-anchor="start" x="854" y="-13" font-family="Menlo,Monaco,Consolas,monospace" font-size="10.00"> &#45;1</text>
</g>
<!-- label1&#45;&gt;label2 -->
<g id="edge2" class="edge">
<title>label1&#45;&gt;label2</title>
<path fill="none" stroke="#dce6e3" stroke-width="1.5" stroke-dasharray="5,2" d="M565.45,-10.27C586.62,-9.91 608.58,-9.91 629.75,-10.28"/>
</g>
<!-- label1&#45;&gt;label2 -->
<g id="edge4" class="edge">
<title>label1&#45;&gt;label2</title>
<path fill="none" stroke="#a855f7" stroke-width="2" d="M565.45,-39.73C583.9,-40.04 602.93,-40.09 621.53,-39.85"/>
<polygon fill="#a855f7" stroke="#a855f7" stroke-width="2" points="629.75,-39.72 621.81,-43.44 625.76,-40.28 621.76,-40.34 621.75,-39.84 621.74,-39.34 625.74,-39.28 621.7,-36.24 629.75,-39.72 629.75,-39.72"/>
</g>
<!-- label3 -->
<g id="node4" class="node">
<title>label3</title>
<path fill="#ffffff" stroke="#7f56d9" stroke-width="2.1" d="M1195,-50C1195,-50 963,-50 963,-50 957,-50 951,-44 951,-38 951,-38 951,-12 951,-12 951,-6 957,0 963,0 963,0 1195,0 1195,0 1201,0 1207,-6 1207,-12 1207,-12 1207,-38 1207,-38 1207,-44 1201,-50 1195,-50"/>
<polygon fill="#eef4ff" stroke="transparent" points="959,-25 959,-46 1199,-46 1199,-25 959,-25"/>
<polygon fill="none" stroke="#d0d5dd" points="959,-25 959,-46 1199,-46 1199,-25 959,-25"/>
<text text-anchor="start" x="1012" y="-34" font-family="Menlo,Monaco,Consolas,monospace" font-weight="bold" font-size="10.00">addr:</text>
<text text-anchor="start" x="1043" y="-34" font-family="Menlo,Monaco,Consolas,monospace" font-size="10.00"> 0x0x50200000001c</text>
<polygon fill="#eef4ff" stroke="transparent" points="959,-4 959,-25 1013,-25 1013,-4 959,-4"/>
<polygon fill="none" stroke="#d0d5dd" points="959,-4 959,-25 1013,-25 1013,-4 959,-4"/>
<text text-anchor="start" x="964" y="-13" font-family="Menlo,Monaco,Consolas,monospace" font-weight="bold" font-size="10.00">phys:</text>
<text text-anchor="start" x="995" y="-13" font-family="Menlo,Monaco,Consolas,monospace" font-size="10.00"> 3</text>
<polygon fill="#eef4ff" stroke="transparent" points="1013,-4 1013,-25 1073,-25 1073,-4 1013,-4"/>
<polygon fill="none" stroke="#d0d5dd" points="1013,-4 1013,-25 1073,-25 1073,-4 1013,-4"/>
<text text-anchor="start" x="1018" y="-13" font-family="Menlo,Monaco,Consolas,monospace" font-weight="bold" font-size="10.00">virt:</text>
<text text-anchor="start" x="1049" y="-13" font-family="Menlo,Monaco,Consolas,monospace" font-size="10.00"> &#45;1</text>
<polygon fill="#eef4ff" stroke="transparent" points="1073,-4 1073,-25 1121,-25 1121,-4 1073,-4"/>
<polygon fill="none" stroke="#d0d5dd" points="1073,-4 1073,-25 1121,-25 1121,-4 1073,-4"/>
<text text-anchor="start" x="1078" y="-13" font-family="Menlo,Monaco,Consolas,monospace" font-weight="bold" font-size="10.00">val:</text>
<text text-anchor="start" x="1103" y="-13" font-family="Menlo,Monaco,Consolas,monospace" font-size="10.00"> 0</text>
<polygon fill="#eef4ff" stroke="transparent" points="1121,-4 1121,-25 1157,-25 1157,-4 1121,-4"/>
<polygon fill="none" stroke="#d0d5dd" points="1121,-4 1121,-25 1157,-25 1157,-4 1121,-4"/>
<text text-anchor="start" x="1126" y="-13" font-family="Menlo,Monaco,Consolas,monospace" font-weight="bold" font-size="10.00">n:</text>
<text text-anchor="start" x="1139" y="-13" font-family="Menlo,Monaco,Consolas,monospace" font-size="10.00"> 0</text>
<polygon fill="#eef4ff" stroke="transparent" points="1157,-4 1157,-25 1199,-25 1199,-4 1157,-4"/>
<polygon fill="none" stroke="#d0d5dd" points="1157,-4 1157,-25 1199,-25 1199,-4 1157,-4"/>
<text text-anchor="start" x="1162" y="-13" font-family="Menlo,Monaco,Consolas,monospace" font-weight="bold" font-size="10.00">p:</text>
<text text-anchor="start" x="1175" y="-13" font-family="Menlo,Monaco,Consolas,monospace" font-size="10.00"> &#45;1</text>
</g>
<!-- label2&#45;&gt;label3 -->
<g id="edge3" class="edge">
<title>label2&#45;&gt;label3</title>
<path fill="none" stroke="#dce6e3" stroke-width="1.5" stroke-dasharray="5,2" d="M886.45,-10.27C907.62,-9.91 929.58,-9.91 950.75,-10.28"/>
</g>
<!-- label2&#45;&gt;label3 -->
<g id="edge5" class="edge">
<title>label2&#45;&gt;label3</title>
<path fill="none" stroke="#a855f7" stroke-width="2" d="M886.45,-39.73C904.9,-40.04 923.93,-40.09 942.53,-39.85"/>
<polygon fill="#a855f7" stroke="#a855f7" stroke-width="2" points="950.75,-39.72 942.81,-43.44 946.76,-40.28 942.76,-40.34 942.75,-39.84 942.74,-39.34 946.74,-39.28 942.7,-36.24 950.75,-39.72 950.75,-39.72"/>
</g>
</g>
</svg>
