<?xml version="1.0" encoding="UTF-8" standalone="no"?>
<!DOCTYPE svg PUBLIC "-//W3C//DTD SVG 1.1//EN"
 "http://www.w3.org/Graphics/SVG/1.1/DTD/svg11.dtd">
<!-- Generated by graphviz version 2.42.4 (0)
 -->
<!-- Title: G Pages: 1 -->
<svg width="1225pt" height="86pt"
 viewBox="0.00 0.00 1225.00 86.00" xmlns="http://www.w3.org/2000/svg" xmlns:xlink="http://www.w3.org/1999/xlink">
<g id="graph0" class="graph" transform="scale(1 1) rotate(0) translate(18 68)">
<title>G</title>
<polygon fill="#fcfcfd" stroke="transparent" points="-18,18 -18,-68 1207,-68 1207,18 -18,18"/>
<!-- label0 -->
<g id="node1" class="node">
<title>label0</title>
<path fill="#ffffff" stroke="#7f56d9" stroke-width="2.1" d="M232,-50C232,-50 12,-50 12,-50 6,-50 0,-44 0,-38 0,-38 0,-12 0,-12 0,-6 6,0 12,0 12,0 232,0 232,0 238,0 244,-6 244,-12 244,-12 244,-38 244,-38 244,-44 238,-50 232,-50"/>
<polygon fill="#eef4ff" stroke="transparent" points="8,-25 8,-46 236,-46 236,-25 8,-25"/>
<polygon fill="none" stroke="#d0d5dd" points="8,-25 8,-46 236,-46 236,-25 8,-25"/>
<text text-anchor="start" x="55" y="-34" font-family="monospace" font-weight="bold" font-size="10.00">addr:</text>
<text text-anchor="start" x="86" y="-34" font-family="monospace" font-size="10.00"> 0x0x502000000010</text>
<polygon fill="#eef4ff" stroke="transparent" points="8,-4 8,-25 62,-25 62,-4 8,-4"/>
<polygon fill="none" stroke="#d0d5dd" points="8,-4 8,-25 62,-25 62,-4 8,-4"/>
<text text-anchor="start" x="13" y="-13" font-family="monospace" font-weight="bold" font-size="10.00">phys:</text>
<text text-anchor="start" x="44" y="-13" font-family="monospace" font-size="10.00"> 0</text>
<polygon fill="#eef4ff" stroke="transparent" points="62,-4 62,-25 116,-25 116,-4 62,-4"/>
<polygon fill="none" stroke="#d0d5dd" points="62,-4 62,-25 116,-25 116,-4 62,-4"/>
<text text-anchor="start" x="67" y="-13" font-family="monospace" font-weight="bold" font-size="10.00">virt:</text>
<text text-anchor="start" x="98" y="-13" font-family="monospace" font-size="10.00"> 0</text>
<polygon fill="#eef4ff" stroke="transparent" points="116,-4 116,-25 164,-25 164,-4 116,-4"/>
<polygon fill="none" stroke="#d0d5dd" points="116,-4 116,-25 164,-25 164,-4 116,-4"/>
<text text-anchor="start" x="121" y="-13" font-family="monospace" font-weight="bold" font-size="10.00">val:</text>
<text text-anchor="start" x="146" y="-13" font-family="monospace" font-size="10.00"> 0</text>
<polygon fill="#eef4ff" stroke="transparent" points="164,-4 164,-25 200,-25 200,-4 164,-4"/>
<polygon fill="none" stroke="#d0d5dd" points="164,-4 164,-25 200,-25 200,-4 164,-4"/>
<text text-anchor="start" x="169" y="-13" font-family="monospace" font-weight="bold" font-size="10.00">n:</text>
<text text-anchor="start" x="182" y="-13" font-family="monospace" font-size="10.00"> 0</text>
<polygon fill="#eef4ff" stroke="transparent" points="200,-4 200,-25 236,-25 236,-4 200,-4"/>
<polygon fill="none" stroke="#d0d5dd" points="200,-4 200,-25 236,-25 236,-4 200,-4"/>
<text text-anchor="start" x="205" y="-13" font-family="monospace" font-weight="bold" font-size="10.00">p:</text>
<text text-anchor="start" x="218" y="-13" font-family="monospace" font-size="10.00"> 0</text>
</g>
<!-- label1 -->
<g id="node2" class="node">
<title>label1</title>
<path fill="#ffffff" stroke="#7f56d9" stroke-width="2.1" d="M547,-50C547,-50 321,-50 321,-50 315,-50 309,-44 309,-38 309,-38 309,-12 309,-12 309,-6 315,0 321,0 321,0 547,0 547,0 553,0 559,-6 559,-12 559,-12 559,-38 559,-38 559,-44 553,-50 547,-50"/>
<polygon fill="#eef4ff" stroke="transparent" points="317,-25 317,-46 551,-46 551,-25 317,-25"/>
<polygon fill="none" stroke="#d0d5dd" points="317,-25 317,-46 551,-46 551,-25 317,-25"/>
<text text-anchor="start" x="367" y="-34" font-family="monospace" font-weight="bold" font-size="10.00">addr:</text>
<text text-anchor="start" x="398" y="-34" font-family="monospace" font-size="10.00"> 0x0x502000000014</text>
<polygon fill="#eef4ff" stroke="transparent" points="317,-4 317,-25 371,-25 371,-4 317,-4"/>
<polygon fill="none" stroke="#d0d5dd" points="317,-4 317,-25 371,-25 371,-4 317,-4"/>
<text text-anchor="start" x="322" y="-13" font-family="monospace" font-weight="bold" font-size="10.00">phys:</text>
<text text-anchor="start" x="353" y="-13" font-family="monospace" font-size="10.00"> 1</text>
<polygon fill="#eef4ff" stroke="transparent" points="371,-4 371,-25 425,-25 425,-4 371,-4"/>
<polygon fill="none" stroke="#d0d5dd" points="371,-4 371,-25 425,-25 425,-4 371,-4"/>
<text text-anchor="start" x="376" y="-13" font-family="monospace" font-weight="bold" font-size="10.00">virt:</text>
<text text-anchor="start" x="407" y="-13" font-family="monospace" font-size="10.00"> 0</text>
<polygon fill="#eef4ff" stroke="transparent" points="425,-4 425,-25 473,-25 473,-4 425,-4"/>
<polygon fill="none" stroke="#d0d5dd" points="425,-4 425,-25 473,-25 473,-4 425,-4"/>
<text text-anchor="start" x="430" y="-13" font-family="monospace" font-weight="bold" font-size="10.00">val:</text>
<text text-anchor="start" x="455" y="-13" font-family="monospace" font-size="10.00"> 0</text>
<polygon fill="#eef4ff" stroke="transparent" points="473,-4 473,-25 509,-25 509,-4 473,-4"/>
<polygon fill="none" stroke="#d0d5dd" points="473,-4 473,-25 509,-25 509,-4 473,-4"/>
<text text-anchor="start" x="478" y="-13" font-family="monospace" font-weight="bold" font-size="10.00">n:</text>
<text text-anchor="start" x="491" y="-13" font-family="monospace" font-size="10.00"> 2</text>
<polygon fill="#eef4ff" stroke="transparent" points="509,-4 509,-25 551,-25 551,-4 509,-4"/>
<polygon fill="none" stroke="#d0d5dd" points="509,-4 509,-25 551,-25 551,-4 509,-4"/>
<text text-anchor="start" x="514" y="-13" font-family="monospace" font-weight="bold" font-size="10.00">p:</text>
<text text-anchor="start" x="527" y="-13" font-family="monospace" font-size="10.00"> &#45;1</text>
</g>
<!-- label0&#45;&gt;label1 -->
<g id="edge1" class="edge">
<title>label0&#45;&gt;label1</title>
<path fill="none" stroke="#dce6e3" stroke-width="1.5" stroke-dasharray="5,2" d="M244.19,-25C265.41,-25 287.53,-25 308.84,-25"/>
</g>
<!-- label2 -->
<g id="node3" class="node">
<title>label2</title>
<path fill="#ffffff" stroke="#7f56d9" stroke-width="2.1" d="M862,-50C862,-50 636,-50 636,-50 630,-50 624,-44 624,-38 624,-38 624,-12 624,-12 624,-6 630,0 636,0 636,0 862,0 862,0 868,0 874,-6 874,-12 874,-12 874,-38 874,-38 874,-44 868,-50 862,-50"/>
<polygon fill="#eef4ff" stroke="transparent" points="632,-25 632,-46 866,-46 866,-25 632,-25"/>
<polygon fill="none" stroke="#d0d5dd" points="632,-25 632,-46 866,-46 866,-25 632,-25"/>
<text text-anchor="start" x="682" y="-34" font-family="monospace" font-weight="bold" font-size="10.00">addr:</text>
<text text-anchor="start" x="713" y="-34" font-family="monospace" font-size="10.00"> 0x0x502000000018</text>
<polygon fill="#eef4ff" stroke="transparent" points="632,-4 632,-25 686,-25 686,-4 632,-4"/>
<polygon fill="none" stroke="#d0d5dd" points="632,-4 632,-25 686,-25 686,-4 632,-4"/>
<text text-anchor="start" x="637" y="-13" font-family="monospace" font-weight="bold" font-size="10.00">phys:</text>
<text text-anchor="start" x="668" y="-13" font-family="monospace" font-size="10.00"> 2</text>
<polygon fill="#eef4ff" stroke="transparent" points="686,-4 686,-25 740,-25 740,-4 686,-4"/>
<polygon fill="none" stroke="#d0d5dd" points="686,-4 686,-25 740,-25 740,-4 686,-4"/>
<text text-anchor="start" x="691" y="-13" font-family="monospace" font-weight="bold" font-size="10.00">virt:</text>
<text text-anchor="start" x="722" y="-13" font-family="monospace" font-size="10.00"> 0</text>
<polygon fill="#eef4ff" stroke="transparent" points="740,-4 740,-25 788,-25 788,-4 740,-4"/>
<polygon fill="none" stroke="#d0d5dd" points="740,-4 740,-25 788,-25 788,-4 740,-4"/>
<text text-anchor="start" x="745" y="-13" font-family="monospace" font-weight="bold" font-size="10.00">val:</text>
<text text-anchor="start" x="770" y="-13" font-family="monospace" font-size="10.00"> 0</text>
<polygon fill="#eef4ff" stroke="transparent" points="788,-4 788,-25 824,-25 824,-4 788,-4"/>
<polygon fill="none" stroke="#d0d5dd" points="788,-4 788,-25 824,-25 824,-4 788,-4"/>
<text text-anchor="start" x="793" y="-13" font-family="monospace" font-weight="bold" font-size="10.00">n:</text>
<text text-anchor="start" x="806" y="-13" font-family="monospace" font-size="10.00"> 3</text>
<polygon fill="#eef4ff" stroke="transparent" points="824,-4 824,-25 866,-25 866,-4 824,-4"/>
<polygon fill="none" stroke="#d0d5dd" points="824,-4 824,-25 866,-25 866,-4 824,-4"/>
<text text-anchor="start" x="829" y="-13" font-family="monospace" font-weight="bold" font-size="10.00">p:</text>
<text text-anchor="start" x="842" y="-13" font-family="monospace" font-size="10.00"> &#45;1</text>
</g>
<!-- label1&#45;&gt;label2 -->
<g id="edge2" class="edge">
<title>label1&#45;&gt;label2</title>
<path fill="none" stroke="#dce6e3" stroke-width="1.5" stroke-dasharray="5,2" d="M559.16,-10.29C580.49,-9.9 602.66,-9.9 623.99,-10.29"/>
</g>
<!-- label1&#45;&gt;label2 -->
<g id="edge4" class="edge">
<title>label1&#45;&gt;label2</title>
<path fill="none" stroke="#a855f7" stroke-width="2" d="M559.16,-39.71C577.82,-40.05 597.13,-40.09 615.96,-39.84"/>
<polygon fill="#a855f7" stroke="#a855f7" stroke-width="2" points="623.99,-39.71 616.05,-43.44 620,-40.27 616,-40.34 616,-39.84 615.99,-39.34 619.99,-39.27 615.94,-36.24 623.99,-39.71 623.99,-39.71"/>
</g>
<!-- label3 -->
<g id="node4" class="node">
<title>label3</title>
<path fill="#ffffff" stroke="#7f56d9" stroke-width="2.1" d="M1177,-50C1177,-50 951,-50 951,-50 945,-50 939,-44 939,-38 939,-38 939,-12 939,-12 939,-6 945,0 951,0 951,0 1177,0 1177,0 1183,0 1189,-6 1189,-12 1189,-12 1189,-38 1189,-38 1189,-44 1183,-50 1177,-50"/>
<polygon fill="#eef4ff" stroke="transparent" points="947,-25 947,-46 1181,-46 1181,-25 947,-25"/>
<polygon fill="none" stroke="#d0d5dd" points="947,-25 947,-46 1181,-46 1181,-25 947,-25"/>
<text text-anchor="start" x="997" y="-34" font-family="monospace" font-weight="bold" font-size="10.00">addr:</text>
<text text-anchor="start" x="1028" y="-34" font-family="monospace" font-size="10.00"> 0x0x50200000001c</text>
<polygon fill="#eef4ff" stroke="transparent" points="947,-4 947,-25 1001,-25 1001,-4 947,-4"/>
<polygon fill="none" stroke="#d0d5dd" points="947,-4 947,-25 1001,-25 1001,-4 947,-4"/>
<text text-anchor="start" x="952" y="-13" font-family="monospace" font-weight="bold" font-size="10.00">phys:</text>
<text text-anchor="start" x="983" y="-13" font-family="monospace" font-size="10.00"> 3</text>
<polygon fill="#eef4ff" stroke="transparent" points="1001,-4 1001,-25 1055,-25 1055,-4 1001,-4"/>
<polygon fill="none" stroke="#d0d5dd" points="1001,-4 1001,-25 1055,-25 1055,-4 1001,-4"/>
<text text-anchor="start" x="1006" y="-13" font-family="monospace" font-weight="bold" font-size="10.00">virt:</text>
<text text-anchor="start" x="1037" y="-13" font-family="monospace" font-size="10.00"> 0</text>
<polygon fill="#eef4ff" stroke="transparent" points="1055,-4 1055,-25 1103,-25 1103,-4 1055,-4"/>
<polygon fill="none" stroke="#d0d5dd" points="1055,-4 1055,-25 1103,-25 1103,-4 1055,-4"/>
<text text-anchor="start" x="1060" y="-13" font-family="monospace" font-weight="bold" font-size="10.00">val:</text>
<text text-anchor="start" x="1085" y="-13" font-family="monospace" font-size="10.00"> 0</text>
<polygon fill="#eef4ff" stroke="transparent" points="1103,-4 1103,-25 1139,-25 1139,-4 1103,-4"/>
<polygon fill="none" stroke="#d0d5dd" points="1103,-4 1103,-25 1139,-25 1139,-4 1103,-4"/>
<text text-anchor="start" x="1108" y="-13" font-family="monospace" font-weight="bold" font-size="10.00">n:</text>
<text text-anchor="start" x="1121" y="-13" font-family="monospace" font-size="10.00"> 0</text>
<polygon fill="#eef4ff" stroke="transparent" points="1139,-4 1139,-25 1181,-25 1181,-4 1139,-4"/>
<polygon fill="none" stroke="#d0d5dd" points="1139,-4 1139,-25 1181,-25 1181,-4 1139,-4"/>
<text text-anchor="start" x="1144" y="-13" font-family="monospace" font-weight="bold" font-size="10.00">p:</text>
<text text-anchor="start" x="1157" y="-13" font-family="monospace" font-size="10.00"> &#45;1</text>
</g>
<!-- label2&#45;&gt;label3 -->
<g id="edge3" class="edge">
<title>label2&#45;&gt;label3</title>
<path fill="none" stroke="#dce6e3" stroke-width="1.5" stroke-dasharray="5,2" d="M874.16,-10.29C895.49,-9.9 917.66,-9.9 938.99,-10.29"/>
</g>
<!-- label2&#45;&gt;label3 -->
<g id="edge5" class="edge">
<title>label2&#45;&gt;label3</title>
<path fill="none" stroke="#a855f7" stroke-width="2" d="M874.16,-39.71C892.82,-40.05 912.13,-40.09 930.96,-39.84"/>
<polygon fill="#a855f7" stroke="#a855f7" stroke-width="2" points="938.99,-39.71 931.05,-43.44 935,-40.27 931,-40.34 931,-39.84 930.99,-39.34 934.99,-39.27 930.94,-36.24 938.99,-39.71 938.99,-39.71"/>
</g>
</g>
</svg>
