<?xml version="1.0" encoding="UTF-8" standalone="no"?>
<!DOCTYPE svg PUBLIC "-//W3C//DTD SVG 1.1//EN"
 "http://www.w3.org/Graphics/SVG/1.1/DTD/svg11.dtd">
<!-- Generated by graphviz version 2.42.4 (0)
 -->
<!-- Title: G Pages: 1 -->
<svg width="1225pt" height="96pt"
 viewBox="0.00 0.00 1225.00 96.15" xmlns="http://www.w3.org/2000/svg" xmlns:xlink="http://www.w3.org/1999/xlink">
<g id="graph0" class="graph" transform="scale(1 1) rotate(0) translate(18 78.15)">
<title>G</title>
<polygon fill="#fcfcfd" stroke="transparent" points="-18,18 -18,-78.15 1207,-78.15 1207,18 -18,18"/>
<!-- label0 -->
<g id="node1" class="node">
<title>label0</title>
<path fill="#ffffff" stroke="#7f56d9" stroke-width="2.1" d="M232,-55C232,-55 12,-55 12,-55 6,-55 0,-49 0,-43 0,-43 0,-17 0,-17 0,-11 6,-5 12,-5 12,-5 232,-5 232,-5 238,-5 244,-11 244,-17 244,-17 244,-43 244,-43 244,-49 238,-55 232,-55"/>
<polygon fill="#eef4ff" stroke="transparent" points="8,-30 8,-51 236,-51 236,-30 8,-30"/>
<polygon fill="none" stroke="#d0d5dd" points="8,-30 8,-51 236,-51 236,-30 8,-30"/>
<text text-anchor="start" x="55" y="-39" font-family="monospace" font-weight="bold" font-size="10.00">addr:</text>
<text text-anchor="start" x="86" y="-39" font-family="monospace" font-size="10.00"> 0x0x502000000010</text>
<polygon fill="#eef4ff" stroke="transparent" points="8,-9 8,-30 62,-30 62,-9 8,-9"/>
<polygon fill="none" stroke="#d0d5dd" points="8,-9 8,-30 62,-30 62,-9 8,-9"/>
<text text-anchor="start" x="13" y="-18" font-family="monospace" font-weight="bold" font-size="10.00">phys:</text>
<text text-anchor="start" x="44" y="-18" font-family="monospace" font-size="10.00"> 0</text>
<polygon fill="#eef4ff" stroke="transparent" points="62,-9 62,-30 116,-30 116,-9 62,-9"/>
<polygon fill="none" stroke="#d0d5dd" points="62,-9 62,-30 116,-30 116,-9 62,-9"/>
<text text-anchor="start" x="67" y="-18" font-family="monospace" font-weight="bold" font-size="10.00">virt:</text>
<text text-anchor="start" x="98" y="-18" font-family="monospace" font-size="10.00"> 0</text>
<polygon fill="#eef4ff" stroke="transparent" points="116,-9 116,-30 164,-30 164,-9 116,-9"/>
<polygon fill="none" stroke="#d0d5dd" points="116,-9 116,-30 164,-30 164,-9 116,-9"/>
<text text-anchor="start" x="121" y="-18" font-family="monospace" font-weight="bold" font-size="10.00">val:</text>
<text text-anchor="start" x="146" y="-18" font-family="monospace" font-size="10.00"> 0</text>
<polygon fill="#eef4ff" stroke="transparent" points="164,-9 164,-30 200,-30 200,-9 164,-9"/>
<polygon fill="none" stroke="#d0d5dd" points="164,-9 164,-30 200,-30 200,-9 164,-9"/>
<text text-anchor="start" x="169" y="-18" font-family="monospace" font-weight="bold" font-size="10.00">n:</text>
<text text-anchor="start" x="182" y="-18" font-family="monospace" font-size="10.00"> 1</text>
<polygon fill="#eef4ff" stroke="transparent" points="200,-9 200,-30 236,-30 236,-9 200,-9"/>
<polygon fill="none" stroke="#d0d5dd" points="200,-9 200,-30 236,-30 236,-9 200,-9"/>
<text text-anchor="start" x="205" y="-18" font-family="monospace" font-weight="bold" font-size="10.00">p:</text>
<text text-anchor="start" x="218" y="-18" font-family="monospace" font-size="10.00"> 1</text>
</g>
<!-- label1 -->
<g id="node2" class="node">
<title>label1</title>
<path fill="#ffffff" stroke="#ef4444" stroke-width="2.1" d="M547,-55C547,-55 321,-55 321,-55 315,-55 309,-49 309,-43 309,-43 309,-17 309,-17 309,-11 315,-5 321,-5 321,-5 547,-5 547,-5 553,-5 559,-11 559,-17 559,-17 559,-43 559,-43 559,-49 553,-55 547,-55"/>
<polygon fill="#eef4ff" stroke="transparent" points="317,-30 317,-51 551,-51 551,-30 317,-30"/>
<polygon fill="none" stroke="#d0d5dd" points="317,-30 317,-51 551,-51 551,-30 317,-30"/>
<text text-anchor="start" x="367" y="-39" font-family="monospace" font-weight="bold" font-size="10.00">addr:</text>
<text text-anchor="start" x="398" y="-39" font-family="monospace" font-size="10.00"> 0x0x502000000014</text>
<polygon fill="#eef4ff" stroke="transparent" points="317,-9 317,-30 371,-30 371,-9 317,-9"/>
<polygon fill="none" stroke="#d0d5dd" points="317,-9 317,-30 371,-30 371,-9 317,-9"/>
<text text-anchor="start" x="322" y="-18" font-family="monospace" font-weight="bold" font-size="10.00">phys:</text>
<text text-anchor="start" x="353" y="-18" font-family="monospace" font-size="10.00"> 1</text>
<polygon fill="#eef4ff" stroke="transparent" points="371,-9 371,-30 425,-30 425,-9 371,-9"/>
<polygon fill="none" stroke="#d0d5dd" points="371,-9 371,-30 425,-30 425,-9 371,-9"/>
<text text-anchor="start" x="376" y="-18" font-family="monospace" font-weight="bold" font-size="10.00">virt:</text>
<text text-anchor="start" x="407" y="-18" font-family="monospace" font-size="10.00"> 0</text>
<polygon fill="#eef4ff" stroke="transparent" points="425,-9 425,-30 479,-30 479,-9 425,-9"/>
<polygon fill="none" stroke="#d0d5dd" points="425,-9 425,-30 479,-30 479,-9 425,-9"/>
<text text-anchor="start" x="430" y="-18" font-family="monospace" font-weight="bold" font-size="10.00">val:</text>
<text text-anchor="start" x="455" y="-18" font-family="monospace" font-size="10.00"> 10</text>
<polygon fill="#eef4ff" stroke="transparent" points="479,-9 479,-30 515,-30 515,-9 479,-9"/>
<polygon fill="none" stroke="#d0d5dd" points="479,-9 479,-30 515,-30 515,-9 479,-9"/>
<text text-anchor="start" x="484" y="-18" font-family="monospace" font-weight="bold" font-size="10.00">n:</text>
<text text-anchor="start" x="497" y="-18" font-family="monospace" font-size="10.00"> 1</text>
<polygon fill="#eef4ff" stroke="transparent" points="515,-9 515,-30 551,-30 551,-9 515,-9"/>
<polygon fill="none" stroke="#d0d5dd" points="515,-9 515,-30 551,-30 551,-9 515,-9"/>
<text text-anchor="start" x="520" y="-18" font-family="monospace" font-weight="bold" font-size="10.00">p:</text>
<text text-anchor="start" x="533" y="-18" font-family="monospace" font-size="10.00"> 1</text>
</g>
<!-- label0&#45;&gt;label1 -->
<g id="edge1" class="edge">
<title>label0&#45;&gt;label1</title>
<path fill="none" stroke="#dce6e3" stroke-width="1.5" stroke-dasharray="5,2" d="M188.36,-5C241.03,1.66 314.74,1.66 367.46,-4.98"/>
</g>
<!-- label0&#45;&gt;label1 -->
<g id="edge4" class="edge">
<title>label0&#45;&gt;label1</title>
<path fill="none" stroke="#22c55e" stroke-width="1.9" d="M244.19,-30C262.76,-30 282.01,-30 300.81,-30"/>
<polygon fill="#22c55e" stroke="#22c55e" stroke-width="1.9" points="308.84,-30 300.84,-33.6 304.84,-30.45 300.84,-30.45 300.84,-30 300.84,-29.55 304.84,-29.55 300.84,-26.4 308.84,-30 308.84,-30"/>
</g>
<!-- label0&#45;&gt;label1 -->
<g id="edge5" class="edge">
<title>label0&#45;&gt;label1</title>
<path fill="none" stroke="#ef4444" stroke-width="1.9" d="M188.36,-55C238.36,-61.32 307.31,-61.65 359.27,-55.99"/>
<polygon fill="#ef4444" stroke="#ef4444" stroke-width="1.9" points="367.46,-55.03 359.93,-59.53 363.54,-55.94 359.57,-56.41 359.51,-55.96 359.46,-55.51 363.43,-55.05 359.09,-52.38 367.46,-55.03 367.46,-55.03"/>
</g>
<!-- label2 -->
<g id="node3" class="node">
<title>label2</title>
<path fill="#ffffff" stroke="#7f56d9" stroke-width="2.1" d="M862,-55C862,-55 636,-55 636,-55 630,-55 624,-49 624,-43 624,-43 624,-17 624,-17 624,-11 630,-5 636,-5 636,-5 862,-5 862,-5 868,-5 874,-11 874,-17 874,-17 874,-43 874,-43 874,-49 868,-55 862,-55"/>
<polygon fill="#eef4ff" stroke="transparent" points="632,-30 632,-51 866,-51 866,-30 632,-30"/>
<polygon fill="none" stroke="#d0d5dd" points="632,-30 632,-51 866,-51 866,-30 632,-30"/>
<text text-anchor="start" x="682" y="-39" font-family="monospace" font-weight="bold" font-size="10.00">addr:</text>
<text text-anchor="start" x="713" y="-39" font-family="monospace" font-size="10.00"> 0x0x502000000018</text>
<polygon fill="#eef4ff" stroke="transparent" points="632,-9 632,-30 686,-30 686,-9 632,-9"/>
<polygon fill="none" stroke="#d0d5dd" points="632,-9 632,-30 686,-30 686,-9 632,-9"/>
<text text-anchor="start" x="637" y="-18" font-family="monospace" font-weight="bold" font-size="10.00">phys:</text>
<text text-anchor="start" x="668" y="-18" font-family="monospace" font-size="10.00"> 2</text>
<polygon fill="#eef4ff" stroke="transparent" points="686,-9 686,-30 740,-30 740,-9 686,-9"/>
<polygon fill="none" stroke="#d0d5dd" points="686,-9 686,-30 740,-30 740,-9 686,-9"/>
<text text-anchor="start" x="691" y="-18" font-family="monospace" font-weight="bold" font-size="10.00">virt:</text>
<text text-anchor="start" x="722" y="-18" font-family="monospace" font-size="10.00"> 0</text>
<polygon fill="#eef4ff" stroke="transparent" points="740,-9 740,-30 788,-30 788,-9 740,-9"/>
<polygon fill="none" stroke="#d0d5dd" points="740,-9 740,-30 788,-30 788,-9 740,-9"/>
<text text-anchor="start" x="745" y="-18" font-family="monospace" font-weight="bold" font-size="10.00">val:</text>
<text text-anchor="start" x="770" y="-18" font-family="monospace" font-size="10.00"> 0</text>
<polygon fill="#eef4ff" stroke="transparent" points="788,-9 788,-30 824,-30 824,-9 788,-9"/>
<polygon fill="none" stroke="#d0d5dd" points="788,-9 788,-30 824,-30 824,-9 788,-9"/>
<text text-anchor="start" x="793" y="-18" font-family="monospace" font-weight="bold" font-size="10.00">n:</text>
<text text-anchor="start" x="806" y="-18" font-family="monospace" font-size="10.00"> 3</text>
<polygon fill="#eef4ff" stroke="transparent" points="824,-9 824,-30 866,-30 866,-9 824,-9"/>
<polygon fill="none" stroke="#d0d5dd" points="824,-9 824,-30 866,-30 866,-9 824,-9"/>
<text text-anchor="start" x="829" y="-18" font-family="monospace" font-weight="bold" font-size="10.00">p:</text>
<text text-anchor="start" x="842" y="-18" font-family="monospace" font-size="10.00"> &#45;1</text>
</g>
<!-- label1&#45;&gt;label2 -->
<g id="edge2" class="edge">
<title>label1&#45;&gt;label2</title>
<path fill="none" stroke="#dce6e3" stroke-width="1.5" stroke-dasharray="5,2" d="M559.16,-30C580.49,-30 602.66,-30 623.99,-30"/>
</g>
<!-- label3 -->
<g id="node4" class="node">
<title>label3</title>
<path fill="#ffffff" stroke="#7f56d9" stroke-width="2.1" d="M1177,-55C1177,-55 951,-55 951,-55 945,-55 939,-49 939,-43 939,-43 939,-17 939,-17 939,-11 945,-5 951,-5 951,-5 1177,-5 1177,-5 1183,-5 1189,-11 1189,-17 1189,-17 1189,-43 1189,-43 1189,-49 1183,-55 1177,-55"/>
<polygon fill="#eef4ff" stroke="transparent" points="947,-30 947,-51 1181,-51 1181,-30 947,-30"/>
<polygon fill="none" stroke="#d0d5dd" points="947,-30 947,-51 1181,-51 1181,-30 947,-30"/>
<text text-anchor="start" x="997" y="-39" font-family="monospace" font-weight="bold" font-size="10.00">addr:</text>
<text text-anchor="start" x="1028" y="-39" font-family="monospace" font-size="10.00"> 0x0x50200000001c</text>
<polygon fill="#eef4ff" stroke="transparent" points="947,-9 947,-30 1001,-30 1001,-9 947,-9"/>
<polygon fill="none" stroke="#d0d5dd" points="947,-9 947,-30 1001,-30 1001,-9 947,-9"/>
<text text-anchor="start" x="952" y="-18" font-family="monospace" font-weight="bold" font-size="10.00">phys:</text>
<text text-anchor="start" x="983" y="-18" font-family="monospace" font-size="10.00"> 3</text>
<polygon fill="#eef4ff" stroke="transparent" points="1001,-9 1001,-30 1055,-30 1055,-9 1001,-9"/>
<polygon fill="none" stroke="#d0d5dd" points="1001,-9 1001,-30 1055,-30 1055,-9 1001,-9"/>
<text text-anchor="start" x="1006" y="-18" font-family="monospace" font-weight="bold" font-size="10.00">virt:</text>
<text text-anchor="start" x="1037" y="-18" font-family="monospace" font-size="10.00"> 0</text>
<polygon fill="#eef4ff" stroke="transparent" points="1055,-9 1055,-30 1103,-30 1103,-9 1055,-9"/>
<polygon fill="none" stroke="#d0d5dd" points="1055,-9 1055,-30 1103,-30 1103,-9 1055,-9"/>
<text text-anchor="start" x="1060" y="-18" font-family="monospace" font-weight="bold" font-size="10.00">val:</text>
<text text-anchor="start" x="1085" y="-18" font-family="monospace" font-size="10.00"> 0</text>
<polygon fill="#eef4ff" stroke="transparent" points="1103,-9 1103,-30 1139,-30 1139,-9 1103,-9"/>
<polygon fill="none" stroke="#d0d5dd" points="1103,-9 1103,-30 1139,-30 1139,-9 1103,-9"/>
<text text-anchor="start" x="1108" y="-18" font-family="monospace" font-weight="bold" font-size="10.00">n:</text>
<text text-anchor="start" x="1121" y="-18" font-family="monospace" font-size="10.00"> 0</text>
<polygon fill="#eef4ff" stroke="transparent" points="1139,-9 1139,-30 1181,-30 1181,-9 1139,-9"/>
<polygon fill="none" stroke="#d0d5dd" points="1139,-9 1139,-30 1181,-30 1181,-9 1139,-9"/>
<text text-anchor="start" x="1144" y="-18" font-family="monospace" font-weight="bold" font-size="10.00">p:</text>
<text text-anchor="start" x="1157" y="-18" font-family="monospace" font-size="10.00"> &#45;1</text>
</g>
<!-- label2&#45;&gt;label3 -->
<g id="edge3" class="edge">
<title>label2&#45;&gt;label3</title>
<path fill="none" stroke="#dce6e3" stroke-width="1.5" stroke-dasharray="5,2" d="M874.16,-15.29C895.49,-14.91 917.66,-14.91 938.99,-15.29"/>
</g>
<!-- label2&#45;&gt;label3 -->
<g id="edge6" class="edge">
<title>label2&#45;&gt;label3</title>
<path fill="none" stroke="#a855f7" stroke-width="2" d="M874.16,-44.72C892.82,-45.05 912.13,-45.09 930.96,-44.84"/>
<polygon fill="#a855f7" stroke="#a855f7" stroke-width="2" points="938.99,-44.71 931.05,-48.44 935,-45.28 931,-45.34 931,-44.84 930.99,-44.34 934.99,-44.28 930.94,-41.24 938.99,-44.71 938.99,-44.71"/>
</g>
</g>
</svg>
