<?xml version="1.0" encoding="UTF-8" standalone="no"?>
<!DOCTYPE svg PUBLIC "-//W3C//DTD SVG 1.1//EN"
 "http://www.w3.org/Graphics/SVG/1.1/DTD/svg11.dtd">
<!-- Generated by graphviz version 2.42.4 (0)
 -->
<!-- Title: G Pages: 1 -->
<svg width="1237pt" height="96pt"
 viewBox="0.00 0.00 1237.00 96.15" xmlns="http://www.w3.org/2000/svg" xmlns:xlink="http://www.w3.org/1999/xlink">
<g id="graph0" class="graph" transform="scale(1 1) rotate(0) translate(18 78.15)">
<title>G</title>
<polygon fill="#fcfcfd" stroke="transparent" points="-18,18 -18,-78.15 1219,-78.15 1219,18 -18,18"/>
<!-- label0 -->
<g id="node1" class="node">
<title>label0</title>
<path fill="#ffffff" stroke="#7f56d9" stroke-width="2.1" d="M232,-55C232,-55 12,-55 12,-55 6,-55 0,-49 0,-43 0,-43 0,-17 0,-17 0,-11 6,-5 12,-5 12,-5 232,-5 232,-5 238,-5 244,-11 244,-17 244,-17 244,-43 244,-43 244,-49 238,-55 232,-55"/>
<polygon fill="#eef4ff" stroke="transparent" points="8,-30 8,-51 236,-51 236,-30 8,-30"/>
<polygon fill="none" stroke="#d0d5dd" points="8,-30 8,-51 236,-51 236,-30 8,-30"/>
<text text-anchor="start" x="55" y="-39" font-family="Menlo,Monaco,Consolas,monospace" font-weight="bold" font-size="10.00">addr:</text>
<text text-anchor="start" x="86" y="-39" font-family="Menlo,Monaco,Consolas,monospace" font-size="10.00"> 0x0x502000000010</text>
<polygon fill="#eef4ff" stroke="transparent" points="8,-9 8,-30 62,-30 62,-9 8,-9"/>
<polygon fill="none" stroke="#d0d5dd" points="8,-9 8,-30 62,-30 62,-9 8,-9"/>
<text text-anchor="start" x="13" y="-18" font-family="Menlo,Monaco,Consolas,monospace" font-weight="bold" font-size="10.00">phys:</text>
<text text-anchor="start" x="44" y="-18" font-family="Menlo,Monaco,Consolas,monospace" font-size="10.00"> 0</text>
<polygon fill="#eef4ff" stroke="transparent" points="62,-9 62,-30 116,-30 116,-9 62,-9"/>
<polygon fill="none" stroke="#d0d5dd" points="62,-9 62,-30 116,-30 116,-9 62,-9"/>
<text text-anchor="start" x="67" y="-18" font-family="Menlo,Monaco,Consolas,monospace" font-weight="bold" font-size="10.00">virt:</text>
<text text-anchor="start" x="98" y="-18" font-family="Menlo,Monaco,Consolas,monospace" font-size="10.00"> 0</text>
<polygon fill="#eef4ff" stroke="transparent" points="116,-9 116,-30 164,-30 164,-9 116,-9"/>
<polygon fill="none" stroke="#d0d5dd" points="116,-9 116,-30 164,-30 164,-9 116,-9"/>
<text text-anchor="start" x="121" y="-18" font-family="Menlo,Monaco,Consolas,monospace" font-weight="bold" font-size="10.00">val:</text>
<text text-anchor="start" x="146" y="-18" font-family="Menlo,Monaco,Consolas,monospace" font-size="10.00"> 0</text>
<polygon fill="#eef4ff" stroke="transparent" points="164,-9 164,-30 200,-30 200,-9 164,-9"/>
<polygon fill="none" stroke="#d0d5dd" points="164,-9 164,-30 200,-30 200,-9 164,-9"/>
<text text-anchor="start" x="169" y="-18" font-family="Menlo,Monaco,Consolas,monospace" font-weight="bold" font-size="10.00">n:</text>
<text text-anchor="start" x="182" y="-18" font-family="Menlo,Monaco,Consolas,monospace" font-size="10.00"> 1</text>
<polygon fill="#eef4ff" stroke="transparent" points="200,-9 200,-30 236,-30 236,-9 200,-9"/>
<polygon fill="none" stroke="#d0d5dd" points="200,-9 200,-30 236,-30 236,-9 200,-9"/>
<text text-anchor="start" x="205" y="-18" font-family="Menlo,Monaco,Consolas,monospace" font-weight="bold" font-size="10.00">p:</text>
<text text-anchor="start" x="218" y="-18" font-family="Menlo,Monaco,Consolas,monospace" font-size="10.00"> 1</text>
</g>
<!-- label1 -->
<g id="node2" class="node">
<title>label1</title>
<path fill="#ffffff" stroke="#16a34a" stroke-width="2.1" d="M547,-55C547,-55 321,-55 321,-55 315,-55 309,-49 309,-43 309,-43 309,-17 309,-17 309,-11 315,-5 321,-5 321,-5 547,-5 547,-5 553,-5 559,-11 559,-17 559,-17 559,-43 559,-43 559,-49 553,-55 547,-55"/>
<polygon fill="#eef4ff" stroke="transparent" points="317,-30 317,-51 551,-51 551,-30 317,-30"/>
<polygon fill="none" stroke="#d0d5dd" points="317,-30 317,-51 551,-51 551,-30 317,-30"/>
<text text-anchor="start" x="367" y="-39" font-family="Menlo,Monaco,Consolas,monospace" font-weight="bold" font-size="10.00">addr:</text>
<text text-anchor="start" x="398" y="-39" font-family="Menlo,Monaco,Consolas,monospace" font-size="10.00"> 0x0x502000000014</text>
<polygon fill="#eef4ff" stroke="transparent" points="317,-9 317,-30 371,-30 371,-9 317,-9"/>
<polygon fill="none" stroke="#d0d5dd" points="317,-9 317,-30 371,-30 371,-9 317,-9"/>
<text text-anchor="start" x="322" y="-18" font-family="Menlo,Monaco,Consolas,monospace" font-weight="bold" font-size="10.00">phys:</text>
<text text-anchor="start" x="353" y="-18" font-family="Menlo,Monaco,Consolas,monospace" font-size="10.00"> 1</text>
<polygon fill="#eef4ff" stroke="transparent" points="371,-9 371,-30 425,-30 425,-9 371,-9"/>
<polygon fill="none" stroke="#d0d5dd" points="371,-9 371,-30 425,-30 425,-9 371,-9"/>
<text text-anchor="start" x="376" y="-18" font-family="Menlo,Monaco,Consolas,monospace" font-weight="bold" font-size="10.00">virt:</text>
<text text-anchor="start" x="407" y="-18" font-family="Menlo,Monaco,Consolas,monospace" font-size="10.00"> 1</text>
<polygon fill="#eef4ff" stroke="transparent" points="425,-9 425,-30 479,-30 479,-9 425,-9"/>
<polygon fill="none" stroke="#d0d5dd" points="425,-9 425,-30 479,-30 479,-9 425,-9"/>
<text text-anchor="start" x="430" y="-18" font-family="Menlo,Monaco,Consolas,monospace" font-weight="bold" font-size="10.00">val:</text>
<text text-anchor="start" x="455" y="-18" font-family="Menlo,Monaco,Consolas,monospace" font-size="10.00"> 10</text>
<polygon fill="#eef4ff" stroke="transparent" points="479,-9 479,-30 515,-30 515,-9 479,-9"/>
<polygon fill="none" stroke="#d0d5dd" points="479,-9 479,-30 515,-30 515,-9 479,-9"/>
<text text-anchor="start" x="484" y="-18" font-family="Menlo,Monaco,Consolas,monospace" font-weight="bold" font-size="10.00">n:</text>
<text text-anchor="start" x="497" y="-18" font-family="Menlo,Monaco,Consolas,monospace" font-size="10.00"> 0</text>
<polygon fill="#eef4ff" stroke="transparent" points="515,-9 515,-30 551,-30 551,-9 515,-9"/>
<polygon fill="none" stroke="#d0d5dd" points="515,-9 515,-30 551,-30 551,-9 515,-9"/>
<text text-anchor="start" x="520" y="-18" font-family="Menlo,Monaco,Consolas,monospace" font-weight="bold" font-size="10.00">p:</text>
<text text-anchor="start" x="533" y="-18" font-family="Menlo,Monaco,Consolas,monospace" font-size="10.00"> 0</text>
</g>
<!-- label0&#45;&gt;label1 -->
<g id="edge1" class="edge">
<title>label0&#45;&gt;label1</title>
<path fill="none" stroke="#dce6e3" stroke-width="1.5" stroke-dasharray="5,2" d="M188.36,-5C241.03,1.66 314.74,1.66 367.46,-4.98"/>
</g>
<!-- label0&#45;&gt;label1 -->
<g id="edge4" class="edge">
<title>label0&#45;&gt;label1</title>
<path fill="none" stroke="#22c55e" stroke-width="1.9" d="M244.19,-30C262.76,-30 282.01,-30 300.81,-30"/>
<polygon fill="#22c55e" stroke="#22c55e" stroke-width="1.9" points="308.84,-30 300.84,-33.6 304.84,-30.45 300.84,-30.45 300.84,-30 300.84,-29.55 304.84,-29.55 300.84,-26.4 308.84,-30 308.84,-30"/>
</g>
<!-- label0&#45;&gt;label1 -->
<g id="edge5" class="edge">
<title>label0&#45;&gt;label1</title>
<path fill="none" stroke="#ef4444" stroke-width="1.9" d="M188.36,-55C238.36,-61.32 307.31,-61.65 359.27,-55.99"/>
<polygon fill="#ef4444" stroke="#ef4444" stroke-width="1.9" points="367.46,-55.03 359.93,-59.53 363.54,-55.94 359.57,-56.41 359.51,-55.96 359.46,-55.51 363.43,-55.05 359.09,-52.38 367.46,-55.03 367.46,-55.03"/>
</g>
<!-- label2 -->
<g id="node3" class="node">
<title>label2</title>
<path fill="#ffffff" stroke="#7f56d9" stroke-width="2.1" d="M868,-55C868,-55 636,-55 636,-55 630,-55 624,-49 624,-43 624,-43 624,-17 624,-17 624,-11 630,-5 636,-5 636,-5 868,-5 868,-5 874,-5 880,-11 880,-17 880,-17 880,-43 880,-43 880,-49 874,-55 868,-55"/>
<polygon fill="#eef4ff" stroke="transparent" points="632,-30 632,-51 872,-51 872,-30 632,-30"/>
<polygon fill="none" stroke="#d0d5dd" points="632,-30 632,-51 872,-51 872,-30 632,-30"/>
<text text-anchor="start" x="685" y="-39" font-family="Menlo,Monaco,Consolas,monospace" font-weight="bold" font-size="10.00">addr:</text>
<text text-anchor="start" x="716" y="-39" font-family="Menlo,Monaco,Consolas,monospace" font-size="10.00"> 0x0x502000000018</text>
<polygon fill="#eef4ff" stroke="transparent" points="632,-9 632,-30 686,-30 686,-9 632,-9"/>
<polygon fill="none" stroke="#d0d5dd" points="632,-9 632,-30 686,-30 686,-9 632,-9"/>
<text text-anchor="start" x="637" y="-18" font-family="Menlo,Monaco,Consolas,monospace" font-weight="bold" font-size="10.00">phys:</text>
<text text-anchor="start" x="668" y="-18" font-family="Menlo,Monaco,Consolas,monospace" font-size="10.00"> 2</text>
<polygon fill="#eef4ff" stroke="transparent" points="686,-9 686,-30 746,-30 746,-9 686,-9"/>
<polygon fill="none" stroke="#d0d5dd" points="686,-9 686,-30 746,-30 746,-9 686,-9"/>
<text text-anchor="start" x="691" y="-18" font-family="Menlo,Monaco,Consolas,monospace" font-weight="bold" font-size="10.00">virt:</text>
<text text-anchor="start" x="722" y="-18" font-family="Menlo,Monaco,Consolas,monospace" font-size="10.00"> &#45;1</text>
<polygon fill="#eef4ff" stroke="transparent" points="746,-9 746,-30 794,-30 794,-9 746,-9"/>
<polygon fill="none" stroke="#d0d5dd" points="746,-9 746,-30 794,-30 794,-9 746,-9"/>
<text text-anchor="start" x="751" y="-18" font-family="Menlo,Monaco,Consolas,monospace" font-weight="bold" font-size="10.00">val:</text>
<text text-anchor="start" x="776" y="-18" font-family="Menlo,Monaco,Consolas,monospace" font-size="10.00"> 0</text>
<polygon fill="#eef4ff" stroke="transparent" points="794,-9 794,-30 830,-30 830,-9 794,-9"/>
<polygon fill="none" stroke="#d0d5dd" points="794,-9 794,-30 830,-30 830,-9 794,-9"/>
<text text-anchor="start" x="799" y="-18" font-family="Menlo,Monaco,Consolas,monospace" font-weight="bold" font-size="10.00">n:</text>
<text text-anchor="start" x="812" y="-18" font-family="Menlo,Monaco,Consolas,monospace" font-size="10.00"> 3</text>
<polygon fill="#eef4ff" stroke="transparent" points="830,-9 830,-30 872,-30 872,-9 830,-9"/>
<polygon fill="none" stroke="#d0d5dd" points="830,-9 830,-30 872,-30 872,-9 830,-9"/>
<text text-anchor="start" x="835" y="-18" font-family="Menlo,Monaco,Consolas,monospace" font-weight="bold" font-size="10.00">p:</text>
<text text-anchor="start" x="848" y="-18" font-family="Menlo,Monaco,Consolas,monospace" font-size="10.00"> &#45;1</text>
</g>
<!-- label1&#45;&gt;label2 -->
<g id="edge2" class="edge">
<title>label1&#45;&gt;label2</title>
<path fill="none" stroke="#dce6e3" stroke-width="1.5" stroke-dasharray="5,2" d="M559.44,-30C580.6,-30 602.59,-30 623.82,-30"/>
</g>
<!-- label3 -->
<g id="node4" class="node">
<title>label3</title>
<path fill="#ffffff" stroke="#7f56d9" stroke-width="2.1" d="M1189,-55C1189,-55 957,-55 957,-55 951,-55 945,-49 945,-43 945,-43 945,-17 945,-17 945,-11 951,-5 957,-5 957,-5 1189,-5 1189,-5 1195,-5 1201,-11 1201,-17 1201,-17 1201,-43 1201,-43 1201,-49 1195,-55 1189,-55"/>
<polygon fill="#eef4ff" stroke="transparent" points="953,-30 953,-51 1193,-51 1193,-30 953,-30"/>
<polygon fill="none" stroke="#d0d5dd" points="953,-30 953,-51 1193,-51 1193,-30 953,-30"/>
<text text-anchor="start" x="1006" y="-39" font-family="Menlo,Monaco,Consolas,monospace" font-weight="bold" font-size="10.00">addr:</text>
<text text-anchor="start" x="1037" y="-39" font-family="Menlo,Monaco,Consolas,monospace" font-size="10.00"> 0x0x50200000001c</text>
<polygon fill="#eef4ff" stroke="transparent" points="953,-9 953,-30 1007,-30 1007,-9 953,-9"/>
<polygon fill="none" stroke="#d0d5dd" points="953,-9 953,-30 1007,-30 1007,-9 953,-9"/>
<text text-anchor="start" x="958" y="-18" font-family="Menlo,Monaco,Consolas,monospace" font-weight="bold" font-size="10.00">phys:</text>
<text text-anchor="start" x="989" y="-18" font-family="Menlo,Monaco,Consolas,monospace" font-size="10.00"> 3</text>
<polygon fill="#eef4ff" stroke="transparent" points="1007,-9 1007,-30 1067,-30 1067,-9 1007,-9"/>
<polygon fill="none" stroke="#d0d5dd" points="1007,-9 1007,-30 1067,-30 1067,-9 1007,-9"/>
<text text-anchor="start" x="1012" y="-18" font-family="Menlo,Monaco,Consolas,monospace" font-weight="bold" font-size="10.00">virt:</text>
<text text-anchor="start" x="1043" y="-18" font-family="Menlo,Monaco,Consolas,monospace" font-size="10.00"> &#45;1</text>
<polygon fill="#eef4ff" stroke="transparent" points="1067,-9 1067,-30 1115,-30 1115,-9 1067,-9"/>
<polygon fill="none" stroke="#d0d5dd" points="1067,-9 1067,-30 1115,-30 1115,-9 1067,-9"/>
<text text-anchor="start" x="1072" y="-18" font-family="Menlo,Monaco,Consolas,monospace" font-weight="bold" font-size="10.00">val:</text>
<text text-anchor="start" x="1097" y="-18" font-family="Menlo,Monaco,Consolas,monospace" font-size="10.00"> 0</text>
<polygon fill="#eef4ff" stroke="transparent" points="1115,-9 1115,-30 1151,-30 1151,-9 1115,-9"/>
<polygon fill="none" stroke="#d0d5dd" points="1115,-9 1115,-30 1151,-30 1151,-9 1115,-9"/>
<text text-anchor="start" x="1120" y="-18" font-family="Menlo,Monaco,Consolas,monospace" font-weight="bold" font-size="10.00">n:</text>
<text text-anchor="start" x="1133" y="-18" font-family="Menlo,Monaco,Consolas,monospace" font-size="10.00"> 0</text>
<polygon fill="#eef4ff" stroke="transparent" points="1151,-9 1151,-30 1193,-30 1193,-9 1151,-9"/>
<polygon fill="none" stroke="#d0d5dd" points="1151,-9 1151,-30 1193,-30 1193,-9 1151,-9"/>
<text text-anchor="start" x="1156" y="-18" font-family="Menlo,Monaco,Consolas,monospace" font-weight="bold" font-size="10.00">p:</text>
<text text-anchor="start" x="1169" y="-18" font-family="Menlo,Monaco,Consolas,monospace" font-size="10.00"> &#45;1</text>
</g>
<!-- label2&#45;&gt;label3 -->
<g id="edge3" class="edge">
<title>label2&#45;&gt;label3</title>
<path fill="none" stroke="#dce6e3" stroke-width="1.5" stroke-dasharray="5,2" d="M880.45,-15.28C901.62,-14.91 923.58,-14.91 944.75,-15.28"/>
</g>
<!-- label2&#45;&gt;label3 -->
<g id="edge6" class="edge">
<title>label2&#45;&gt;label3</title>
<path fill="none" stroke="#a855f7" stroke-width="2" d="M880.45,-44.73C898.9,-45.05 917.93,-45.09 936.53,-44.85"/>
<polygon fill="#a855f7" stroke="#a855f7" stroke-width="2" points="944.75,-44.73 936.81,-48.45 940.76,-45.29 936.76,-45.35 936.75,-44.85 936.74,-44.35 940.74,-44.29 936.7,-41.25 944.75,-44.73 944.75,-44.73"/>
</g>
</g>
</svg>
