<?xml version="1.0" encoding="UTF-8" standalone="no"?>
<!DOCTYPE svg PUBLIC "-//W3C//DTD SVG 1.1//EN"
 "http://www.w3.org/Graphics/SVG/1.1/DTD/svg11.dtd">
<!-- Generated by graphviz version 2.42.4 (0)
 -->
<!-- Title: G Pages: 1 -->
<svg width="2485pt" height="441pt"
 viewBox="0.00 0.00 2485.00 441.26" xmlns="http://www.w3.org/2000/svg" xmlns:xlink="http://www.w3.org/1999/xlink">
<g id="graph0" class="graph" transform="scale(1 1) rotate(0) translate(18 423.26)">
<title>G</title>
<polygon fill="#fcfcfd" stroke="transparent" points="-18,18 -18,-423.26 2467,-423.26 2467,18 -18,18"/>
<!-- label0 -->
<g id="node1" class="node">
<title>label0</title>
<path fill="#ffffff" stroke="#7f56d9" stroke-width="2.1" d="M232,-315C232,-315 12,-315 12,-315 6,-315 0,-309 0,-303 0,-303 0,-277 0,-277 0,-271 6,-265 12,-265 12,-265 232,-265 232,-265 238,-265 244,-271 244,-277 244,-277 244,-303 244,-303 244,-309 238,-315 232,-315"/>
<polygon fill="#eef4ff" stroke="transparent" points="8,-290 8,-311 236,-311 236,-290 8,-290"/>
<polygon fill="none" stroke="#d0d5dd" points="8,-290 8,-311 236,-311 236,-290 8,-290"/>
<text text-anchor="start" x="55" y="-299" font-family="monospace" font-weight="bold" font-size="10.00">addr:</text>
<text text-anchor="start" x="86" y="-299" font-family="monospace" font-size="10.00"> 0x0x503000000160</text>
<polygon fill="#eef4ff" stroke="transparent" points="8,-269 8,-290 62,-290 62,-269 8,-269"/>
<polygon fill="none" stroke="#d0d5dd" points="8,-269 8,-290 62,-290 62,-269 8,-269"/>
<text text-anchor="start" x="13" y="-278" font-family="monospace" font-weight="bold" font-size="10.00">phys:</text>
<text text-anchor="start" x="44" y="-278" font-family="monospace" font-size="10.00"> 0</text>
<polygon fill="#eef4ff" stroke="transparent" points="62,-269 62,-290 116,-290 116,-269 62,-269"/>
<polygon fill="none" stroke="#d0d5dd" points="62,-269 62,-290 116,-290 116,-269 62,-269"/>
<text text-anchor="start" x="67" y="-278" font-family="monospace" font-weight="bold" font-size="10.00">virt:</text>
<text text-anchor="start" x="98" y="-278" font-family="monospace" font-size="10.00"> 0</text>
<polygon fill="#eef4ff" stroke="transparent" points="116,-269 116,-290 164,-290 164,-269 116,-269"/>
<polygon fill="none" stroke="#d0d5dd" points="116,-269 116,-290 164,-290 164,-269 116,-269"/>
<text text-anchor="start" x="121" y="-278" font-family="monospace" font-weight="bold" font-size="10.00">val:</text>
<text text-anchor="start" x="146" y="-278" font-family="monospace" font-size="10.00"> 0</text>
<polygon fill="#eef4ff" stroke="transparent" points="164,-269 164,-290 200,-290 200,-269 164,-269"/>
<polygon fill="none" stroke="#d0d5dd" points="164,-269 164,-290 200,-290 200,-269 164,-269"/>
<text text-anchor="start" x="169" y="-278" font-family="monospace" font-weight="bold" font-size="10.00">n:</text>
<text text-anchor="start" x="182" y="-278" font-family="monospace" font-size="10.00"> 6</text>
<polygon fill="#eef4ff" stroke="transparent" points="200,-269 200,-290 236,-290 236,-269 200,-269"/>
<polygon fill="none" stroke="#d0d5dd" points="200,-269 200,-290 236,-290 236,-269 200,-269"/>
<text text-anchor="start" x="205" y="-278" font-family="monospace" font-weight="bold" font-size="10.00">p:</text>
<text text-anchor="start" x="218" y="-278" font-family="monospace" font-size="10.00"> 7</text>
</g>
<!-- label1 -->
<g id="node2" class="node">
<title>label1</title>
<path fill="#ffffff" stroke="#7f56d9" stroke-width="2.1" d="M547,-315C547,-315 321,-315 321,-315 315,-315 309,-309 309,-303 309,-303 309,-277 309,-277 309,-271 315,-265 321,-265 321,-265 547,-265 547,-265 553,-265 559,-271 559,-277 559,-277 559,-303 559,-303 559,-309 553,-315 547,-315"/>
<polygon fill="#eef4ff" stroke="transparent" points="317,-290 317,-311 551,-311 551,-290 317,-290"/>
<polygon fill="none" stroke="#d0d5dd" points="317,-290 317,-311 551,-311 551,-290 317,-290"/>
<text text-anchor="start" x="367" y="-299" font-family="monospace" font-weight="bold" font-size="10.00">addr:</text>
<text text-anchor="start" x="398" y="-299" font-family="monospace" font-size="10.00"> 0x0x503000000164</text>
<polygon fill="#eef4ff" stroke="transparent" points="317,-269 317,-290 371,-290 371,-269 317,-269"/>
<polygon fill="none" stroke="#d0d5dd" points="317,-269 317,-290 371,-290 371,-269 317,-269"/>
<text text-anchor="start" x="322" y="-278" font-family="monospace" font-weight="bold" font-size="10.00">phys:</text>
<text text-anchor="start" x="353" y="-278" font-family="monospace" font-size="10.00"> 1</text>
<polygon fill="#eef4ff" stroke="transparent" points="371,-269 371,-290 425,-290 425,-269 371,-269"/>
<polygon fill="none" stroke="#d0d5dd" points="371,-269 371,-290 425,-290 425,-269 371,-269"/>
<text text-anchor="start" x="376" y="-278" font-family="monospace" font-weight="bold" font-size="10.00">virt:</text>
<text text-anchor="start" x="407" y="-278" font-family="monospace" font-size="10.00"> 0</text>
<polygon fill="#eef4ff" stroke="transparent" points="425,-269 425,-290 473,-290 473,-269 425,-269"/>
<polygon fill="none" stroke="#d0d5dd" points="425,-269 425,-290 473,-290 473,-269 425,-269"/>
<text text-anchor="start" x="430" y="-278" font-family="monospace" font-weight="bold" font-size="10.00">val:</text>
<text text-anchor="start" x="455" y="-278" font-family="monospace" font-size="10.00"> 0</text>
<polygon fill="#eef4ff" stroke="transparent" points="473,-269 473,-290 509,-290 509,-269 473,-269"/>
<polygon fill="none" stroke="#d0d5dd" points="473,-269 473,-290 509,-290 509,-269 473,-269"/>
<text text-anchor="start" x="478" y="-278" font-family="monospace" font-weight="bold" font-size="10.00">n:</text>
<text text-anchor="start" x="491" y="-278" font-family="monospace" font-size="10.00"> 1</text>
<polygon fill="#eef4ff" stroke="transparent" points="509,-269 509,-290 551,-290 551,-269 509,-269"/>
<polygon fill="none" stroke="#d0d5dd" points="509,-269 509,-290 551,-290 551,-269 509,-269"/>
<text text-anchor="start" x="514" y="-278" font-family="monospace" font-weight="bold" font-size="10.00">p:</text>
<text text-anchor="start" x="527" y="-278" font-family="monospace" font-size="10.00"> &#45;1</text>
</g>
<!-- label0&#45;&gt;label1 -->
<g id="edge1" class="edge">
<title>label0&#45;&gt;label1</title>
<path fill="none" stroke="#dce6e3" stroke-width="1.5" stroke-dasharray="5,2" d="M244.19,-290C265.41,-290 287.53,-290 308.84,-290"/>
</g>
<!-- label6 -->
<g id="node7" class="node">
<title>label6</title>
<path fill="#ffffff" stroke="#ef4444" stroke-width="2.1" d="M2122,-315C2122,-315 1896,-315 1896,-315 1890,-315 1884,-309 1884,-303 1884,-303 1884,-277 1884,-277 1884,-271 1890,-265 1896,-265 1896,-265 2122,-265 2122,-265 2128,-265 2134,-271 2134,-277 2134,-277 2134,-303 2134,-303 2134,-309 2128,-315 2122,-315"/>
<polygon fill="#eef4ff" stroke="transparent" points="1892,-290 1892,-311 2126,-311 2126,-290 1892,-290"/>
<polygon fill="none" stroke="#d0d5dd" points="1892,-290 1892,-311 2126,-311 2126,-290 1892,-290"/>
<text text-anchor="start" x="1942" y="-299" font-family="monospace" font-weight="bold" font-size="10.00">addr:</text>
<text text-anchor="start" x="1973" y="-299" font-family="monospace" font-size="10.00"> 0x0x503000000178</text>
<polygon fill="#eef4ff" stroke="transparent" points="1892,-269 1892,-290 1946,-290 1946,-269 1892,-269"/>
<polygon fill="none" stroke="#d0d5dd" points="1892,-269 1892,-290 1946,-290 1946,-269 1892,-269"/>
<text text-anchor="start" x="1897" y="-278" font-family="monospace" font-weight="bold" font-size="10.00">phys:</text>
<text text-anchor="start" x="1928" y="-278" font-family="monospace" font-size="10.00"> 6</text>
<polygon fill="#eef4ff" stroke="transparent" points="1946,-269 1946,-290 2000,-290 2000,-269 1946,-269"/>
<polygon fill="none" stroke="#d0d5dd" points="1946,-269 1946,-290 2000,-290 2000,-269 1946,-269"/>
<text text-anchor="start" x="1951" y="-278" font-family="monospace" font-weight="bold" font-size="10.00">virt:</text>
<text text-anchor="start" x="1982" y="-278" font-family="monospace" font-size="10.00"> 0</text>
<polygon fill="#eef4ff" stroke="transparent" points="2000,-269 2000,-290 2054,-290 2054,-269 2000,-269"/>
<polygon fill="none" stroke="#d0d5dd" points="2000,-269 2000,-290 2054,-290 2054,-269 2000,-269"/>
<text text-anchor="start" x="2005" y="-278" font-family="monospace" font-weight="bold" font-size="10.00">val:</text>
<text text-anchor="start" x="2030" y="-278" font-family="monospace" font-size="10.00"> 10</text>
<polygon fill="#eef4ff" stroke="transparent" points="2054,-269 2054,-290 2090,-290 2090,-269 2054,-269"/>
<polygon fill="none" stroke="#d0d5dd" points="2054,-269 2054,-290 2090,-290 2090,-269 2054,-269"/>
<text text-anchor="start" x="2059" y="-278" font-family="monospace" font-weight="bold" font-size="10.00">n:</text>
<text text-anchor="start" x="2072" y="-278" font-family="monospace" font-size="10.00"> 2</text>
<polygon fill="#eef4ff" stroke="transparent" points="2090,-269 2090,-290 2126,-290 2126,-269 2090,-269"/>
<polygon fill="none" stroke="#d0d5dd" points="2090,-269 2090,-290 2126,-290 2126,-269 2090,-269"/>
<text text-anchor="start" x="2095" y="-278" font-family="monospace" font-weight="bold" font-size="10.00">p:</text>
<text text-anchor="start" x="2108" y="-278" font-family="monospace" font-size="10.00"> 7</text>
</g>
<!-- label0&#45;&gt;label6 -->
<g id="edge8" class="edge">
<title>label0&#45;&gt;label6</title>
<path fill="none" stroke="#22c55e" stroke-width="1.9" d="M166.06,-264.91C265.2,-209.59 518.71,-82 748,-82 748,-82 748,-82 1380,-82 1604.88,-82 1853.14,-203.68 1957.46,-260.9"/>
<polygon fill="#22c55e" stroke="#22c55e" stroke-width="1.9" points="1964.72,-264.91 1955.97,-264.2 1961,-263.37 1957.5,-261.44 1957.71,-261.05 1957.93,-260.65 1961.43,-262.58 1959.45,-257.89 1964.72,-264.91 1964.72,-264.91"/>
</g>
<!-- label7 -->
<g id="node8" class="node">
<title>label7</title>
<path fill="#ffffff" stroke="#ef4444" stroke-width="2.1" d="M2437,-315C2437,-315 2211,-315 2211,-315 2205,-315 2199,-309 2199,-303 2199,-303 2199,-277 2199,-277 2199,-271 2205,-265 2211,-265 2211,-265 2437,-265 2437,-265 2443,-265 2449,-271 2449,-277 2449,-277 2449,-303 2449,-303 2449,-309 2443,-315 2437,-315"/>
<polygon fill="#eef4ff" stroke="transparent" points="2207,-290 2207,-311 2441,-311 2441,-290 2207,-290"/>
<polygon fill="none" stroke="#d0d5dd" points="2207,-290 2207,-311 2441,-311 2441,-290 2207,-290"/>
<text text-anchor="start" x="2257" y="-299" font-family="monospace" font-weight="bold" font-size="10.00">addr:</text>
<text text-anchor="start" x="2288" y="-299" font-family="monospace" font-size="10.00"> 0x0x50300000017c</text>
<polygon fill="#eef4ff" stroke="transparent" points="2207,-269 2207,-290 2261,-290 2261,-269 2207,-269"/>
<polygon fill="none" stroke="#d0d5dd" points="2207,-269 2207,-290 2261,-290 2261,-269 2207,-269"/>
<text text-anchor="start" x="2212" y="-278" font-family="monospace" font-weight="bold" font-size="10.00">phys:</text>
<text text-anchor="start" x="2243" y="-278" font-family="monospace" font-size="10.00"> 7</text>
<polygon fill="#eef4ff" stroke="transparent" points="2261,-269 2261,-290 2315,-290 2315,-269 2261,-269"/>
<polygon fill="none" stroke="#d0d5dd" points="2261,-269 2261,-290 2315,-290 2315,-269 2261,-269"/>
<text text-anchor="start" x="2266" y="-278" font-family="monospace" font-weight="bold" font-size="10.00">virt:</text>
<text text-anchor="start" x="2297" y="-278" font-family="monospace" font-size="10.00"> 0</text>
<polygon fill="#eef4ff" stroke="transparent" points="2315,-269 2315,-290 2369,-290 2369,-269 2315,-269"/>
<polygon fill="none" stroke="#d0d5dd" points="2315,-269 2315,-290 2369,-290 2369,-269 2315,-269"/>
<text text-anchor="start" x="2320" y="-278" font-family="monospace" font-weight="bold" font-size="10.00">val:</text>
<text text-anchor="start" x="2345" y="-278" font-family="monospace" font-size="10.00"> 35</text>
<polygon fill="#eef4ff" stroke="transparent" points="2369,-269 2369,-290 2405,-290 2405,-269 2369,-269"/>
<polygon fill="none" stroke="#d0d5dd" points="2369,-269 2369,-290 2405,-290 2405,-269 2369,-269"/>
<text text-anchor="start" x="2374" y="-278" font-family="monospace" font-weight="bold" font-size="10.00">n:</text>
<text text-anchor="start" x="2387" y="-278" font-family="monospace" font-size="10.00"> 6</text>
<polygon fill="#eef4ff" stroke="transparent" points="2405,-269 2405,-290 2441,-290 2441,-269 2405,-269"/>
<polygon fill="none" stroke="#d0d5dd" points="2405,-269 2405,-290 2441,-290 2441,-269 2405,-269"/>
<text text-anchor="start" x="2410" y="-278" font-family="monospace" font-weight="bold" font-size="10.00">p:</text>
<text text-anchor="start" x="2423" y="-278" font-family="monospace" font-size="10.00"> 3</text>
</g>
<!-- label0&#45;&gt;label7 -->
<g id="edge14" class="edge">
<title>label0&#45;&gt;label7</title>
<path fill="none" stroke="#ef4444" stroke-width="1.9" d="M139.75,-264.92C168.93,-223.31 233.28,-140.4 309,-98 483.43,-0.33 548.09,0 748,0 748,0 748,0 1695,0 1940.69,0 2194.78,-185.22 2286.92,-259.61"/>
<polygon fill="#ef4444" stroke="#ef4444" stroke-width="1.9" points="2293.27,-264.77 2284.79,-262.52 2289.88,-262.6 2286.78,-260.08 2287.06,-259.73 2287.34,-259.38 2290.45,-261.9 2289.33,-256.93 2293.27,-264.77 2293.27,-264.77"/>
</g>
<!-- label1&#45;&gt;label1 -->
<g id="edge20" class="edge">
<title>label1&#45;&gt;label1</title>
<path fill="none" stroke="#a855f7" stroke-width="2" d="M383.39,-315.01C363.81,-334.75 380.68,-355 434,-355 481.49,-355 500.06,-338.94 489.73,-321.48"/>
<polygon fill="#a855f7" stroke="#a855f7" stroke-width="2" points="484.61,-315.01 492.4,-319.06 487.49,-317.84 489.97,-320.98 489.58,-321.29 489.18,-321.6 486.7,-318.46 486.75,-323.52 484.61,-315.01 484.61,-315.01"/>
</g>
<!-- label2 -->
<g id="node3" class="node">
<title>label2</title>
<path fill="#ffffff" stroke="#ef4444" stroke-width="2.1" d="M862,-315C862,-315 636,-315 636,-315 630,-315 624,-309 624,-303 624,-303 624,-277 624,-277 624,-271 630,-265 636,-265 636,-265 862,-265 862,-265 868,-265 874,-271 874,-277 874,-277 874,-303 874,-303 874,-309 868,-315 862,-315"/>
<polygon fill="#eef4ff" stroke="transparent" points="632,-290 632,-311 866,-311 866,-290 632,-290"/>
<polygon fill="none" stroke="#d0d5dd" points="632,-290 632,-311 866,-311 866,-290 632,-290"/>
<text text-anchor="start" x="682" y="-299" font-family="monospace" font-weight="bold" font-size="10.00">addr:</text>
<text text-anchor="start" x="713" y="-299" font-family="monospace" font-size="10.00"> 0x0x503000000168</text>
<polygon fill="#eef4ff" stroke="transparent" points="632,-269 632,-290 686,-290 686,-269 632,-269"/>
<polygon fill="none" stroke="#d0d5dd" points="632,-269 632,-290 686,-290 686,-269 632,-269"/>
<text text-anchor="start" x="637" y="-278" font-family="monospace" font-weight="bold" font-size="10.00">phys:</text>
<text text-anchor="start" x="668" y="-278" font-family="monospace" font-size="10.00"> 2</text>
<polygon fill="#eef4ff" stroke="transparent" points="686,-269 686,-290 740,-290 740,-269 686,-269"/>
<polygon fill="none" stroke="#d0d5dd" points="686,-269 686,-290 740,-290 740,-269 686,-269"/>
<text text-anchor="start" x="691" y="-278" font-family="monospace" font-weight="bold" font-size="10.00">virt:</text>
<text text-anchor="start" x="722" y="-278" font-family="monospace" font-size="10.00"> 0</text>
<polygon fill="#eef4ff" stroke="transparent" points="740,-269 740,-290 794,-290 794,-269 740,-269"/>
<polygon fill="none" stroke="#d0d5dd" points="740,-269 740,-290 794,-290 794,-269 740,-269"/>
<text text-anchor="start" x="745" y="-278" font-family="monospace" font-weight="bold" font-size="10.00">val:</text>
<text text-anchor="start" x="770" y="-278" font-family="monospace" font-size="10.00"> 20</text>
<polygon fill="#eef4ff" stroke="transparent" points="794,-269 794,-290 830,-290 830,-269 794,-269"/>
<polygon fill="none" stroke="#d0d5dd" points="794,-269 794,-290 830,-290 830,-269 794,-269"/>
<text text-anchor="start" x="799" y="-278" font-family="monospace" font-weight="bold" font-size="10.00">n:</text>
<text text-anchor="start" x="812" y="-278" font-family="monospace" font-size="10.00"> 3</text>
<polygon fill="#eef4ff" stroke="transparent" points="830,-269 830,-290 866,-290 866,-269 830,-269"/>
<polygon fill="none" stroke="#d0d5dd" points="830,-269 830,-290 866,-290 866,-269 830,-269"/>
<text text-anchor="start" x="835" y="-278" font-family="monospace" font-weight="bold" font-size="10.00">p:</text>
<text text-anchor="start" x="848" y="-278" font-family="monospace" font-size="10.00"> 6</text>
</g>
<!-- label1&#45;&gt;label2 -->
<g id="edge2" class="edge">
<title>label1&#45;&gt;label2</title>
<path fill="none" stroke="#dce6e3" stroke-width="1.5" stroke-dasharray="5,2" d="M559.16,-290C580.49,-290 602.66,-290 623.99,-290"/>
</g>
<!-- label3 -->
<g id="node4" class="node">
<title>label3</title>
<path fill="#ffffff" stroke="#ef4444" stroke-width="2.1" d="M1177,-315C1177,-315 951,-315 951,-315 945,-315 939,-309 939,-303 939,-303 939,-277 939,-277 939,-271 945,-265 951,-265 951,-265 1177,-265 1177,-265 1183,-265 1189,-271 1189,-277 1189,-277 1189,-303 1189,-303 1189,-309 1183,-315 1177,-315"/>
<polygon fill="#eef4ff" stroke="transparent" points="947,-290 947,-311 1181,-311 1181,-290 947,-290"/>
<polygon fill="none" stroke="#d0d5dd" points="947,-290 947,-311 1181,-311 1181,-290 947,-290"/>
<text text-anchor="start" x="997" y="-299" font-family="monospace" font-weight="bold" font-size="10.00">addr:</text>
<text text-anchor="start" x="1028" y="-299" font-family="monospace" font-size="10.00"> 0x0x50300000016c</text>
<polygon fill="#eef4ff" stroke="transparent" points="947,-269 947,-290 1001,-290 1001,-269 947,-269"/>
<polygon fill="none" stroke="#d0d5dd" points="947,-269 947,-290 1001,-290 1001,-269 947,-269"/>
<text text-anchor="start" x="952" y="-278" font-family="monospace" font-weight="bold" font-size="10.00">phys:</text>
<text text-anchor="start" x="983" y="-278" font-family="monospace" font-size="10.00"> 3</text>
<polygon fill="#eef4ff" stroke="transparent" points="1001,-269 1001,-290 1055,-290 1055,-269 1001,-269"/>
<polygon fill="none" stroke="#d0d5dd" points="1001,-269 1001,-290 1055,-290 1055,-269 1001,-269"/>
<text text-anchor="start" x="1006" y="-278" font-family="monospace" font-weight="bold" font-size="10.00">virt:</text>
<text text-anchor="start" x="1037" y="-278" font-family="monospace" font-size="10.00"> 0</text>
<polygon fill="#eef4ff" stroke="transparent" points="1055,-269 1055,-290 1109,-290 1109,-269 1055,-269"/>
<polygon fill="none" stroke="#d0d5dd" points="1055,-269 1055,-290 1109,-290 1109,-269 1055,-269"/>
<text text-anchor="start" x="1060" y="-278" font-family="monospace" font-weight="bold" font-size="10.00">val:</text>
<text text-anchor="start" x="1085" y="-278" font-family="monospace" font-size="10.00"> 30</text>
<polygon fill="#eef4ff" stroke="transparent" points="1109,-269 1109,-290 1145,-290 1145,-269 1109,-269"/>
<polygon fill="none" stroke="#d0d5dd" points="1109,-269 1109,-290 1145,-290 1145,-269 1109,-269"/>
<text text-anchor="start" x="1114" y="-278" font-family="monospace" font-weight="bold" font-size="10.00">n:</text>
<text text-anchor="start" x="1127" y="-278" font-family="monospace" font-size="10.00"> 7</text>
<polygon fill="#eef4ff" stroke="transparent" points="1145,-269 1145,-290 1181,-290 1181,-269 1145,-269"/>
<polygon fill="none" stroke="#d0d5dd" points="1145,-269 1145,-290 1181,-290 1181,-269 1145,-269"/>
<text text-anchor="start" x="1150" y="-278" font-family="monospace" font-weight="bold" font-size="10.00">p:</text>
<text text-anchor="start" x="1163" y="-278" font-family="monospace" font-size="10.00"> 2</text>
</g>
<!-- label2&#45;&gt;label3 -->
<g id="edge3" class="edge">
<title>label2&#45;&gt;label3</title>
<path fill="none" stroke="#dce6e3" stroke-width="1.5" stroke-dasharray="5,2" d="M816,-265C869.18,-258.34 943.6,-258.33 996.82,-264.98"/>
</g>
<!-- label2&#45;&gt;label3 -->
<g id="edge9" class="edge">
<title>label2&#45;&gt;label3</title>
<path fill="none" stroke="#22c55e" stroke-width="1.9" d="M874.16,-290C892.82,-290 912.13,-290 930.96,-290"/>
<polygon fill="#22c55e" stroke="#22c55e" stroke-width="1.9" points="938.99,-290 930.99,-293.6 934.99,-290.45 930.99,-290.45 930.99,-290 930.99,-289.55 934.99,-289.55 930.99,-286.4 938.99,-290 938.99,-290"/>
</g>
<!-- label2&#45;&gt;label6 -->
<g id="edge15" class="edge">
<title>label2&#45;&gt;label6</title>
<path fill="none" stroke="#ef4444" stroke-width="1.9" d="M783.37,-264.95C820.81,-248.41 883.56,-231.51 939,-225 1327.44,-179.39 1430.56,-179.39 1819,-225 1870.76,-231.08 1928.89,-246.21 1966.84,-261.65"/>
<polygon fill="#ef4444" stroke="#ef4444" stroke-width="1.9" points="1974.63,-264.95 1965.86,-265.14 1970.77,-263.8 1967.08,-262.24 1967.26,-261.83 1967.44,-261.41 1971.12,-262.97 1968.66,-258.51 1974.63,-264.95 1974.63,-264.95"/>
</g>
<!-- label3&#45;&gt;label2 -->
<g id="edge16" class="edge">
<title>label3&#45;&gt;label2</title>
<path fill="none" stroke="#ef4444" stroke-width="1.9" d="M996.82,-315.02C946.3,-321.33 876.68,-321.64 824.26,-315.96"/>
<polygon fill="#ef4444" stroke="#ef4444" stroke-width="1.9" points="816,-315 824.36,-312.35 820.02,-315.02 824,-315.48 823.94,-315.93 823.89,-316.37 819.92,-315.91 823.53,-319.5 816,-315 816,-315"/>
</g>
<!-- label4 -->
<g id="node5" class="node">
<title>label4</title>
<path fill="#ffffff" stroke="#ef4444" stroke-width="2.1" d="M1492,-315C1492,-315 1266,-315 1266,-315 1260,-315 1254,-309 1254,-303 1254,-303 1254,-277 1254,-277 1254,-271 1260,-265 1266,-265 1266,-265 1492,-265 1492,-265 1498,-265 1504,-271 1504,-277 1504,-277 1504,-303 1504,-303 1504,-309 1498,-315 1492,-315"/>
<polygon fill="#eef4ff" stroke="transparent" points="1262,-290 1262,-311 1496,-311 1496,-290 1262,-290"/>
<polygon fill="none" stroke="#d0d5dd" points="1262,-290 1262,-311 1496,-311 1496,-290 1262,-290"/>
<text text-anchor="start" x="1312" y="-299" font-family="monospace" font-weight="bold" font-size="10.00">addr:</text>
<text text-anchor="start" x="1343" y="-299" font-family="monospace" font-size="10.00"> 0x0x503000000170</text>
<polygon fill="#eef4ff" stroke="transparent" points="1262,-269 1262,-290 1316,-290 1316,-269 1262,-269"/>
<polygon fill="none" stroke="#d0d5dd" points="1262,-269 1262,-290 1316,-290 1316,-269 1262,-269"/>
<text text-anchor="start" x="1267" y="-278" font-family="monospace" font-weight="bold" font-size="10.00">phys:</text>
<text text-anchor="start" x="1298" y="-278" font-family="monospace" font-size="10.00"> 4</text>
<polygon fill="#eef4ff" stroke="transparent" points="1316,-269 1316,-290 1370,-290 1370,-269 1316,-269"/>
<polygon fill="none" stroke="#d0d5dd" points="1316,-269 1316,-290 1370,-290 1370,-269 1316,-269"/>
<text text-anchor="start" x="1321" y="-278" font-family="monospace" font-weight="bold" font-size="10.00">virt:</text>
<text text-anchor="start" x="1352" y="-278" font-family="monospace" font-size="10.00"> 0</text>
<polygon fill="#eef4ff" stroke="transparent" points="1370,-269 1370,-290 1424,-290 1424,-269 1370,-269"/>
<polygon fill="none" stroke="#d0d5dd" points="1370,-269 1370,-290 1424,-290 1424,-269 1370,-269"/>
<text text-anchor="start" x="1375" y="-278" font-family="monospace" font-weight="bold" font-size="10.00">val:</text>
<text text-anchor="start" x="1400" y="-278" font-family="monospace" font-size="10.00"> 40</text>
<polygon fill="#eef4ff" stroke="transparent" points="1424,-269 1424,-290 1460,-290 1460,-269 1424,-269"/>
<polygon fill="none" stroke="#d0d5dd" points="1424,-269 1424,-290 1460,-290 1460,-269 1424,-269"/>
<text text-anchor="start" x="1429" y="-278" font-family="monospace" font-weight="bold" font-size="10.00">n:</text>
<text text-anchor="start" x="1442" y="-278" font-family="monospace" font-size="10.00"> 5</text>
<polygon fill="#eef4ff" stroke="transparent" points="1460,-269 1460,-290 1496,-290 1496,-269 1460,-269"/>
<polygon fill="none" stroke="#d0d5dd" points="1460,-269 1460,-290 1496,-290 1496,-269 1460,-269"/>
<text text-anchor="start" x="1465" y="-278" font-family="monospace" font-weight="bold" font-size="10.00">p:</text>
<text text-anchor="start" x="1478" y="-278" font-family="monospace" font-size="10.00"> 6</text>
</g>
<!-- label3&#45;&gt;label4 -->
<g id="edge4" class="edge">
<title>label3&#45;&gt;label4</title>
<path fill="none" stroke="#dce6e3" stroke-width="1.5" stroke-dasharray="5,2" d="M1189.16,-290C1210.49,-290 1232.66,-290 1253.99,-290"/>
</g>
<!-- label3&#45;&gt;label7 -->
<g id="edge10" class="edge">
<title>label3&#45;&gt;label7</title>
<path fill="none" stroke="#22c55e" stroke-width="1.9" d="M1189.09,-302.15C1210.64,-306.71 1232.9,-311.33 1254,-315 1639.33,-382.02 1748.67,-382.02 2134,-315 2152.55,-311.77 2171.99,-307.82 2191.06,-303.81"/>
<polygon fill="#22c55e" stroke="#22c55e" stroke-width="1.9" points="2198.91,-302.15 2191.83,-307.32 2195.09,-303.41 2191.18,-304.24 2191.08,-303.8 2190.99,-303.36 2194.91,-302.53 2190.34,-300.28 2198.91,-302.15 2198.91,-302.15"/>
</g>
<!-- label5 -->
<g id="node6" class="node">
<title>label5</title>
<path fill="#ffffff" stroke="#ef4444" stroke-width="2.1" d="M1807,-315C1807,-315 1581,-315 1581,-315 1575,-315 1569,-309 1569,-303 1569,-303 1569,-277 1569,-277 1569,-271 1575,-265 1581,-265 1581,-265 1807,-265 1807,-265 1813,-265 1819,-271 1819,-277 1819,-277 1819,-303 1819,-303 1819,-309 1813,-315 1807,-315"/>
<polygon fill="#eef4ff" stroke="transparent" points="1577,-290 1577,-311 1811,-311 1811,-290 1577,-290"/>
<polygon fill="none" stroke="#d0d5dd" points="1577,-290 1577,-311 1811,-311 1811,-290 1577,-290"/>
<text text-anchor="start" x="1627" y="-299" font-family="monospace" font-weight="bold" font-size="10.00">addr:</text>
<text text-anchor="start" x="1658" y="-299" font-family="monospace" font-size="10.00"> 0x0x503000000174</text>
<polygon fill="#eef4ff" stroke="transparent" points="1577,-269 1577,-290 1631,-290 1631,-269 1577,-269"/>
<polygon fill="none" stroke="#d0d5dd" points="1577,-269 1577,-290 1631,-290 1631,-269 1577,-269"/>
<text text-anchor="start" x="1582" y="-278" font-family="monospace" font-weight="bold" font-size="10.00">phys:</text>
<text text-anchor="start" x="1613" y="-278" font-family="monospace" font-size="10.00"> 5</text>
<polygon fill="#eef4ff" stroke="transparent" points="1631,-269 1631,-290 1685,-290 1685,-269 1631,-269"/>
<polygon fill="none" stroke="#d0d5dd" points="1631,-269 1631,-290 1685,-290 1685,-269 1631,-269"/>
<text text-anchor="start" x="1636" y="-278" font-family="monospace" font-weight="bold" font-size="10.00">virt:</text>
<text text-anchor="start" x="1667" y="-278" font-family="monospace" font-size="10.00"> 0</text>
<polygon fill="#eef4ff" stroke="transparent" points="1685,-269 1685,-290 1739,-290 1739,-269 1685,-269"/>
<polygon fill="none" stroke="#d0d5dd" points="1685,-269 1685,-290 1739,-290 1739,-269 1685,-269"/>
<text text-anchor="start" x="1690" y="-278" font-family="monospace" font-weight="bold" font-size="10.00">val:</text>
<text text-anchor="start" x="1715" y="-278" font-family="monospace" font-size="10.00"> 50</text>
<polygon fill="#eef4ff" stroke="transparent" points="1739,-269 1739,-290 1775,-290 1775,-269 1739,-269"/>
<polygon fill="none" stroke="#d0d5dd" points="1739,-269 1739,-290 1775,-290 1775,-269 1739,-269"/>
<text text-anchor="start" x="1744" y="-278" font-family="monospace" font-weight="bold" font-size="10.00">n:</text>
<text text-anchor="start" x="1757" y="-278" font-family="monospace" font-size="10.00"> 6</text>
<polygon fill="#eef4ff" stroke="transparent" points="1775,-269 1775,-290 1811,-290 1811,-269 1775,-269"/>
<polygon fill="none" stroke="#d0d5dd" points="1775,-269 1775,-290 1811,-290 1811,-269 1775,-269"/>
<text text-anchor="start" x="1780" y="-278" font-family="monospace" font-weight="bold" font-size="10.00">p:</text>
<text text-anchor="start" x="1793" y="-278" font-family="monospace" font-size="10.00"> 4</text>
</g>
<!-- label4&#45;&gt;label5 -->
<g id="edge5" class="edge">
<title>label4&#45;&gt;label5</title>
<path fill="none" stroke="#dce6e3" stroke-width="1.5" stroke-dasharray="5,2" d="M1446,-265C1499.18,-258.34 1573.6,-258.33 1626.82,-264.98"/>
</g>
<!-- label4&#45;&gt;label5 -->
<g id="edge11" class="edge">
<title>label4&#45;&gt;label5</title>
<path fill="none" stroke="#22c55e" stroke-width="1.9" d="M1504.16,-290C1522.82,-290 1542.13,-290 1560.96,-290"/>
<polygon fill="#22c55e" stroke="#22c55e" stroke-width="1.9" points="1568.99,-290 1560.99,-293.6 1564.99,-290.45 1560.99,-290.45 1560.99,-290 1560.99,-289.55 1564.99,-289.55 1560.99,-286.4 1568.99,-290 1568.99,-290"/>
</g>
<!-- label4&#45;&gt;label6 -->
<g id="edge17" class="edge">
<title>label4&#45;&gt;label6</title>
<path fill="none" stroke="#ef4444" stroke-width="1.9" d="M1466.27,-315.03C1498.25,-323.11 1535,-331.01 1569,-335 1679.35,-347.96 1708.65,-347.96 1819,-335 1850.21,-331.34 1883.74,-324.38 1913.77,-317.01"/>
<polygon fill="#ef4444" stroke="#ef4444" stroke-width="1.9" points="1921.73,-315.03 1914.83,-320.45 1917.95,-316.43 1914.07,-317.4 1913.96,-316.96 1913.85,-316.52 1917.74,-315.56 1913.09,-313.47 1921.73,-315.03 1921.73,-315.03"/>
</g>
<!-- label5&#45;&gt;label4 -->
<g id="edge18" class="edge">
<title>label5&#45;&gt;label4</title>
<path fill="none" stroke="#ef4444" stroke-width="1.9" d="M1626.82,-315.02C1576.3,-321.33 1506.68,-321.64 1454.26,-315.96"/>
<polygon fill="#ef4444" stroke="#ef4444" stroke-width="1.9" points="1446,-315 1454.36,-312.35 1450.02,-315.02 1454,-315.48 1453.94,-315.93 1453.89,-316.37 1449.92,-315.91 1453.53,-319.5 1446,-315 1446,-315"/>
</g>
<!-- label5&#45;&gt;label6 -->
<g id="edge6" class="edge">
<title>label5&#45;&gt;label6</title>
<path fill="none" stroke="#dce6e3" stroke-width="1.5" stroke-dasharray="5,2" d="M1819.16,-275.29C1840.49,-274.9 1862.66,-274.9 1883.99,-275.29"/>
</g>
<!-- label5&#45;&gt;label6 -->
<g id="edge12" class="edge">
<title>label5&#45;&gt;label6</title>
<path fill="none" stroke="#22c55e" stroke-width="1.9" d="M1819.16,-304.71C1837.82,-305.05 1857.13,-305.09 1875.96,-304.84"/>
<polygon fill="#22c55e" stroke="#22c55e" stroke-width="1.9" points="1883.99,-304.71 1876.05,-308.44 1880,-305.22 1876,-305.29 1876,-304.84 1875.99,-304.39 1879.99,-304.32 1875.94,-301.24 1883.99,-304.71 1883.99,-304.71"/>
</g>
<!-- label6&#45;&gt;label2 -->
<g id="edge13" class="edge">
<title>label6&#45;&gt;label2</title>
<path fill="none" stroke="#22c55e" stroke-width="1.9" d="M1883.95,-275.81C1862.44,-271.49 1840.19,-267.49 1819,-265 1430.56,-219.39 1327.44,-219.39 939,-265 920.46,-267.18 901.1,-270.52 882.15,-274.21"/>
<polygon fill="#22c55e" stroke="#22c55e" stroke-width="1.9" points="874.05,-275.81 881.2,-270.73 877.89,-274.59 881.81,-273.82 881.9,-274.26 881.99,-274.7 878.06,-275.48 882.6,-277.79 874.05,-275.81 874.05,-275.81"/>
</g>
<!-- label6&#45;&gt;label7 -->
<g id="edge7" class="edge">
<title>label6&#45;&gt;label7</title>
<path fill="none" stroke="#dce6e3" stroke-width="1.5" stroke-dasharray="5,2" d="M2134.16,-290C2155.49,-290 2177.66,-290 2198.99,-290"/>
</g>
<!-- label7&#45;&gt;label3 -->
<g id="edge19" class="edge">
<title>label7&#45;&gt;label3</title>
<path fill="none" stroke="#ef4444" stroke-width="1.9" d="M2286.69,-315.03C2248.84,-330.2 2187.67,-345.67 2134,-355 1748.67,-422.02 1639.33,-422.02 1254,-355 1203.9,-346.29 1147.25,-332.23 1109.15,-318.06"/>
<polygon fill="#ef4444" stroke="#ef4444" stroke-width="1.9" points="1101.31,-315.03 1110.07,-314.55 1105.2,-316.05 1108.94,-317.49 1108.77,-317.91 1108.61,-318.33 1104.88,-316.89 1107.48,-321.27 1101.31,-315.03 1101.31,-315.03"/>
</g>
</g>
</svg>
