<?xml version="1.0" encoding="UTF-8" standalone="no"?>
<!DOCTYPE svg PUBLIC "-//W3C//DTD SVG 1.1//EN"
 "http://www.w3.org/Graphics/SVG/1.1/DTD/svg11.dtd">
<!-- Generated by graphviz version 2.42.4 (0)
 -->
<!-- Title: G Pages: 1 -->
<svg width="2485pt" height="629pt"
 viewBox="0.00 0.00 2485.00 629.20" xmlns="http://www.w3.org/2000/svg" xmlns:xlink="http://www.w3.org/1999/xlink">
<g id="graph0" class="graph" transform="scale(1 1) rotate(0) translate(18 611.2)">
<title>G</title>
<polygon fill="#fcfcfd" stroke="transparent" points="-18,18 -18,-611.2 2467,-611.2 2467,18 -18,18"/>
<!-- label0 -->
<g id="node1" class="node">
<title>label0</title>
<path fill="#ffffff" stroke="#7f56d9" stroke-width="2.1" d="M232,-124.2C232,-124.2 12,-124.2 12,-124.2 6,-124.2 0,-118.2 0,-112.2 0,-112.2 0,-86.2 0,-86.2 0,-80.2 6,-74.2 12,-74.2 12,-74.2 232,-74.2 232,-74.2 238,-74.2 244,-80.2 244,-86.2 244,-86.2 244,-112.2 244,-112.2 244,-118.2 238,-124.2 232,-124.2"/>
<polygon fill="#eef4ff" stroke="transparent" points="8,-99.2 8,-120.2 236,-120.2 236,-99.2 8,-99.2"/>
<polygon fill="none" stroke="#d0d5dd" points="8,-99.2 8,-120.2 236,-120.2 236,-99.2 8,-99.2"/>
<text text-anchor="start" x="55" y="-108.2" font-family="monospace" font-weight="bold" font-size="10.00">addr:</text>
<text text-anchor="start" x="86" y="-108.2" font-family="monospace" font-size="10.00"> 0x0x503000000160</text>
<polygon fill="#eef4ff" stroke="transparent" points="8,-78.2 8,-99.2 62,-99.2 62,-78.2 8,-78.2"/>
<polygon fill="none" stroke="#d0d5dd" points="8,-78.2 8,-99.2 62,-99.2 62,-78.2 8,-78.2"/>
<text text-anchor="start" x="13" y="-87.2" font-family="monospace" font-weight="bold" font-size="10.00">phys:</text>
<text text-anchor="start" x="44" y="-87.2" font-family="monospace" font-size="10.00"> 0</text>
<polygon fill="#eef4ff" stroke="transparent" points="62,-78.2 62,-99.2 116,-99.2 116,-78.2 62,-78.2"/>
<polygon fill="none" stroke="#d0d5dd" points="62,-78.2 62,-99.2 116,-99.2 116,-78.2 62,-78.2"/>
<text text-anchor="start" x="67" y="-87.2" font-family="monospace" font-weight="bold" font-size="10.00">virt:</text>
<text text-anchor="start" x="98" y="-87.2" font-family="monospace" font-size="10.00"> 0</text>
<polygon fill="#eef4ff" stroke="transparent" points="116,-78.2 116,-99.2 164,-99.2 164,-78.2 116,-78.2"/>
<polygon fill="none" stroke="#d0d5dd" points="116,-78.2 116,-99.2 164,-99.2 164,-78.2 116,-78.2"/>
<text text-anchor="start" x="121" y="-87.2" font-family="monospace" font-weight="bold" font-size="10.00">val:</text>
<text text-anchor="start" x="146" y="-87.2" font-family="monospace" font-size="10.00"> 0</text>
<polygon fill="#eef4ff" stroke="transparent" points="164,-78.2 164,-99.2 200,-99.2 200,-78.2 164,-78.2"/>
<polygon fill="none" stroke="#d0d5dd" points="164,-78.2 164,-99.2 200,-99.2 200,-78.2 164,-78.2"/>
<text text-anchor="start" x="169" y="-87.2" font-family="monospace" font-weight="bold" font-size="10.00">n:</text>
<text text-anchor="start" x="182" y="-87.2" font-family="monospace" font-size="10.00"> 6</text>
<polygon fill="#eef4ff" stroke="transparent" points="200,-78.2 200,-99.2 236,-99.2 236,-78.2 200,-78.2"/>
<polygon fill="none" stroke="#d0d5dd" points="200,-78.2 200,-99.2 236,-99.2 236,-78.2 200,-78.2"/>
<text text-anchor="start" x="205" y="-87.2" font-family="monospace" font-weight="bold" font-size="10.00">p:</text>
<text text-anchor="start" x="218" y="-87.2" font-family="monospace" font-size="10.00"> 7</text>
</g>
<!-- label1 -->
<g id="node2" class="node">
<title>label1</title>
<path fill="#ffffff" stroke="#ef4444" stroke-width="2.1" d="M547,-124.2C547,-124.2 321,-124.2 321,-124.2 315,-124.2 309,-118.2 309,-112.2 309,-112.2 309,-86.2 309,-86.2 309,-80.2 315,-74.2 321,-74.2 321,-74.2 547,-74.2 547,-74.2 553,-74.2 559,-80.2 559,-86.2 559,-86.2 559,-112.2 559,-112.2 559,-118.2 553,-124.2 547,-124.2"/>
<polygon fill="#eef4ff" stroke="transparent" points="317,-99.2 317,-120.2 551,-120.2 551,-99.2 317,-99.2"/>
<polygon fill="none" stroke="#d0d5dd" points="317,-99.2 317,-120.2 551,-120.2 551,-99.2 317,-99.2"/>
<text text-anchor="start" x="367" y="-108.2" font-family="monospace" font-weight="bold" font-size="10.00">addr:</text>
<text text-anchor="start" x="398" y="-108.2" font-family="monospace" font-size="10.00"> 0x0x503000000164</text>
<polygon fill="#eef4ff" stroke="transparent" points="317,-78.2 317,-99.2 371,-99.2 371,-78.2 317,-78.2"/>
<polygon fill="none" stroke="#d0d5dd" points="317,-78.2 317,-99.2 371,-99.2 371,-78.2 317,-78.2"/>
<text text-anchor="start" x="322" y="-87.2" font-family="monospace" font-weight="bold" font-size="10.00">phys:</text>
<text text-anchor="start" x="353" y="-87.2" font-family="monospace" font-size="10.00"> 1</text>
<polygon fill="#eef4ff" stroke="transparent" points="371,-78.2 371,-99.2 425,-99.2 425,-78.2 371,-78.2"/>
<polygon fill="none" stroke="#d0d5dd" points="371,-78.2 371,-99.2 425,-99.2 425,-78.2 371,-78.2"/>
<text text-anchor="start" x="376" y="-87.2" font-family="monospace" font-weight="bold" font-size="10.00">virt:</text>
<text text-anchor="start" x="407" y="-87.2" font-family="monospace" font-size="10.00"> 0</text>
<polygon fill="#eef4ff" stroke="transparent" points="425,-78.2 425,-99.2 479,-99.2 479,-78.2 425,-78.2"/>
<polygon fill="none" stroke="#d0d5dd" points="425,-78.2 425,-99.2 479,-99.2 479,-78.2 425,-78.2"/>
<text text-anchor="start" x="430" y="-87.2" font-family="monospace" font-weight="bold" font-size="10.00">val:</text>
<text text-anchor="start" x="455" y="-87.2" font-family="monospace" font-size="10.00"> 60</text>
<polygon fill="#eef4ff" stroke="transparent" points="479,-78.2 479,-99.2 515,-99.2 515,-78.2 479,-78.2"/>
<polygon fill="none" stroke="#d0d5dd" points="479,-78.2 479,-99.2 515,-99.2 515,-78.2 479,-78.2"/>
<text text-anchor="start" x="484" y="-87.2" font-family="monospace" font-weight="bold" font-size="10.00">n:</text>
<text text-anchor="start" x="497" y="-87.2" font-family="monospace" font-size="10.00"> 6</text>
<polygon fill="#eef4ff" stroke="transparent" points="515,-78.2 515,-99.2 551,-99.2 551,-78.2 515,-78.2"/>
<polygon fill="none" stroke="#d0d5dd" points="515,-78.2 515,-99.2 551,-99.2 551,-78.2 515,-78.2"/>
<text text-anchor="start" x="520" y="-87.2" font-family="monospace" font-weight="bold" font-size="10.00">p:</text>
<text text-anchor="start" x="533" y="-87.2" font-family="monospace" font-size="10.00"> 5</text>
</g>
<!-- label0&#45;&gt;label1 -->
<g id="edge1" class="edge">
<title>label0&#45;&gt;label1</title>
<path fill="none" stroke="#dce6e3" stroke-width="1.5" stroke-dasharray="5,2" d="M244.19,-99.2C265.41,-99.2 287.53,-99.2 308.84,-99.2"/>
</g>
<!-- label6 -->
<g id="node7" class="node">
<title>label6</title>
<path fill="#ffffff" stroke="#ef4444" stroke-width="2.1" d="M2122,-124.2C2122,-124.2 1896,-124.2 1896,-124.2 1890,-124.2 1884,-118.2 1884,-112.2 1884,-112.2 1884,-86.2 1884,-86.2 1884,-80.2 1890,-74.2 1896,-74.2 1896,-74.2 2122,-74.2 2122,-74.2 2128,-74.2 2134,-80.2 2134,-86.2 2134,-86.2 2134,-112.2 2134,-112.2 2134,-118.2 2128,-124.2 2122,-124.2"/>
<polygon fill="#eef4ff" stroke="transparent" points="1892,-99.2 1892,-120.2 2126,-120.2 2126,-99.2 1892,-99.2"/>
<polygon fill="none" stroke="#d0d5dd" points="1892,-99.2 1892,-120.2 2126,-120.2 2126,-99.2 1892,-99.2"/>
<text text-anchor="start" x="1942" y="-108.2" font-family="monospace" font-weight="bold" font-size="10.00">addr:</text>
<text text-anchor="start" x="1973" y="-108.2" font-family="monospace" font-size="10.00"> 0x0x503000000178</text>
<polygon fill="#eef4ff" stroke="transparent" points="1892,-78.2 1892,-99.2 1946,-99.2 1946,-78.2 1892,-78.2"/>
<polygon fill="none" stroke="#d0d5dd" points="1892,-78.2 1892,-99.2 1946,-99.2 1946,-78.2 1892,-78.2"/>
<text text-anchor="start" x="1897" y="-87.2" font-family="monospace" font-weight="bold" font-size="10.00">phys:</text>
<text text-anchor="start" x="1928" y="-87.2" font-family="monospace" font-size="10.00"> 6</text>
<polygon fill="#eef4ff" stroke="transparent" points="1946,-78.2 1946,-99.2 2000,-99.2 2000,-78.2 1946,-78.2"/>
<polygon fill="none" stroke="#d0d5dd" points="1946,-78.2 1946,-99.2 2000,-99.2 2000,-78.2 1946,-78.2"/>
<text text-anchor="start" x="1951" y="-87.2" font-family="monospace" font-weight="bold" font-size="10.00">virt:</text>
<text text-anchor="start" x="1982" y="-87.2" font-family="monospace" font-size="10.00"> 0</text>
<polygon fill="#eef4ff" stroke="transparent" points="2000,-78.2 2000,-99.2 2054,-99.2 2054,-78.2 2000,-78.2"/>
<polygon fill="none" stroke="#d0d5dd" points="2000,-78.2 2000,-99.2 2054,-99.2 2054,-78.2 2000,-78.2"/>
<text text-anchor="start" x="2005" y="-87.2" font-family="monospace" font-weight="bold" font-size="10.00">val:</text>
<text text-anchor="start" x="2030" y="-87.2" font-family="monospace" font-size="10.00"> 10</text>
<polygon fill="#eef4ff" stroke="transparent" points="2054,-78.2 2054,-99.2 2090,-99.2 2090,-78.2 2054,-78.2"/>
<polygon fill="none" stroke="#d0d5dd" points="2054,-78.2 2054,-99.2 2090,-99.2 2090,-78.2 2054,-78.2"/>
<text text-anchor="start" x="2059" y="-87.2" font-family="monospace" font-weight="bold" font-size="10.00">n:</text>
<text text-anchor="start" x="2072" y="-87.2" font-family="monospace" font-size="10.00"> 2</text>
<polygon fill="#eef4ff" stroke="transparent" points="2090,-78.2 2090,-99.2 2126,-99.2 2126,-78.2 2090,-78.2"/>
<polygon fill="none" stroke="#d0d5dd" points="2090,-78.2 2090,-99.2 2126,-99.2 2126,-78.2 2090,-78.2"/>
<text text-anchor="start" x="2095" y="-87.2" font-family="monospace" font-weight="bold" font-size="10.00">p:</text>
<text text-anchor="start" x="2108" y="-87.2" font-family="monospace" font-size="10.00"> 1</text>
</g>
<!-- label0&#45;&gt;label6 -->
<g id="edge8" class="edge">
<title>label0&#45;&gt;label6</title>
<path fill="none" stroke="#22c55e" stroke-width="1.9" d="M141.98,-124.36C211.83,-213.81 465.33,-511.2 748,-511.2 748,-511.2 748,-511.2 1380,-511.2 1585.9,-511.2 1653.52,-485.72 1819,-363.2 1904.24,-300.1 1966.27,-187.15 1993.17,-131.71"/>
<polygon fill="#22c55e" stroke="#22c55e" stroke-width="1.9" points="1996.73,-124.28 1996.52,-133.05 1995.41,-128.08 1993.68,-131.69 1993.27,-131.49 1992.87,-131.3 1994.6,-127.69 1990.03,-129.94 1996.73,-124.28 1996.73,-124.28"/>
</g>
<!-- label7 -->
<g id="node8" class="node">
<title>label7</title>
<path fill="#ffffff" stroke="#ef4444" stroke-width="2.1" d="M2437,-124.2C2437,-124.2 2211,-124.2 2211,-124.2 2205,-124.2 2199,-118.2 2199,-112.2 2199,-112.2 2199,-86.2 2199,-86.2 2199,-80.2 2205,-74.2 2211,-74.2 2211,-74.2 2437,-74.2 2437,-74.2 2443,-74.2 2449,-80.2 2449,-86.2 2449,-86.2 2449,-112.2 2449,-112.2 2449,-118.2 2443,-124.2 2437,-124.2"/>
<polygon fill="#eef4ff" stroke="transparent" points="2207,-99.2 2207,-120.2 2441,-120.2 2441,-99.2 2207,-99.2"/>
<polygon fill="none" stroke="#d0d5dd" points="2207,-99.2 2207,-120.2 2441,-120.2 2441,-99.2 2207,-99.2"/>
<text text-anchor="start" x="2257" y="-108.2" font-family="monospace" font-weight="bold" font-size="10.00">addr:</text>
<text text-anchor="start" x="2288" y="-108.2" font-family="monospace" font-size="10.00"> 0x0x50300000017c</text>
<polygon fill="#eef4ff" stroke="transparent" points="2207,-78.2 2207,-99.2 2261,-99.2 2261,-78.2 2207,-78.2"/>
<polygon fill="none" stroke="#d0d5dd" points="2207,-78.2 2207,-99.2 2261,-99.2 2261,-78.2 2207,-78.2"/>
<text text-anchor="start" x="2212" y="-87.2" font-family="monospace" font-weight="bold" font-size="10.00">phys:</text>
<text text-anchor="start" x="2243" y="-87.2" font-family="monospace" font-size="10.00"> 7</text>
<polygon fill="#eef4ff" stroke="transparent" points="2261,-78.2 2261,-99.2 2315,-99.2 2315,-78.2 2261,-78.2"/>
<polygon fill="none" stroke="#d0d5dd" points="2261,-78.2 2261,-99.2 2315,-99.2 2315,-78.2 2261,-78.2"/>
<text text-anchor="start" x="2266" y="-87.2" font-family="monospace" font-weight="bold" font-size="10.00">virt:</text>
<text text-anchor="start" x="2297" y="-87.2" font-family="monospace" font-size="10.00"> 0</text>
<polygon fill="#eef4ff" stroke="transparent" points="2315,-78.2 2315,-99.2 2369,-99.2 2369,-78.2 2315,-78.2"/>
<polygon fill="none" stroke="#d0d5dd" points="2315,-78.2 2315,-99.2 2369,-99.2 2369,-78.2 2315,-78.2"/>
<text text-anchor="start" x="2320" y="-87.2" font-family="monospace" font-weight="bold" font-size="10.00">val:</text>
<text text-anchor="start" x="2345" y="-87.2" font-family="monospace" font-size="10.00"> 35</text>
<polygon fill="#eef4ff" stroke="transparent" points="2369,-78.2 2369,-99.2 2405,-99.2 2405,-78.2 2369,-78.2"/>
<polygon fill="none" stroke="#d0d5dd" points="2369,-78.2 2369,-99.2 2405,-99.2 2405,-78.2 2369,-78.2"/>
<text text-anchor="start" x="2374" y="-87.2" font-family="monospace" font-weight="bold" font-size="10.00">n:</text>
<text text-anchor="start" x="2387" y="-87.2" font-family="monospace" font-size="10.00"> 6</text>
<polygon fill="#eef4ff" stroke="transparent" points="2405,-78.2 2405,-99.2 2441,-99.2 2441,-78.2 2405,-78.2"/>
<polygon fill="none" stroke="#d0d5dd" points="2405,-78.2 2405,-99.2 2441,-99.2 2441,-78.2 2405,-78.2"/>
<text text-anchor="start" x="2410" y="-87.2" font-family="monospace" font-weight="bold" font-size="10.00">p:</text>
<text text-anchor="start" x="2423" y="-87.2" font-family="monospace" font-size="10.00"> 3</text>
</g>
<!-- label0&#45;&gt;label7 -->
<g id="edge15" class="edge">
<title>label0&#45;&gt;label7</title>
<path fill="none" stroke="#ef4444" stroke-width="1.9" d="M131.27,-124.42C151.91,-183.62 211.14,-332.85 309,-417.2 468.22,-554.45 537.79,-593.2 748,-593.2 748,-593.2 748,-593.2 1695,-593.2 1994.98,-593.2 2236.28,-240.7 2303.98,-131.23"/>
<polygon fill="#ef4444" stroke="#ef4444" stroke-width="1.9" points="2308.18,-124.38 2307.07,-133.08 2306.48,-128.03 2304.38,-131.43 2304,-131.2 2303.62,-130.96 2305.71,-127.55 2300.93,-129.32 2308.18,-124.38 2308.18,-124.38"/>
</g>
<!-- label2 -->
<g id="node3" class="node">
<title>label2</title>
<path fill="#ffffff" stroke="#ef4444" stroke-width="2.1" d="M862,-124.2C862,-124.2 636,-124.2 636,-124.2 630,-124.2 624,-118.2 624,-112.2 624,-112.2 624,-86.2 624,-86.2 624,-80.2 630,-74.2 636,-74.2 636,-74.2 862,-74.2 862,-74.2 868,-74.2 874,-80.2 874,-86.2 874,-86.2 874,-112.2 874,-112.2 874,-118.2 868,-124.2 862,-124.2"/>
<polygon fill="#eef4ff" stroke="transparent" points="632,-99.2 632,-120.2 866,-120.2 866,-99.2 632,-99.2"/>
<polygon fill="none" stroke="#d0d5dd" points="632,-99.2 632,-120.2 866,-120.2 866,-99.2 632,-99.2"/>
<text text-anchor="start" x="682" y="-108.2" font-family="monospace" font-weight="bold" font-size="10.00">addr:</text>
<text text-anchor="start" x="713" y="-108.2" font-family="monospace" font-size="10.00"> 0x0x503000000168</text>
<polygon fill="#eef4ff" stroke="transparent" points="632,-78.2 632,-99.2 686,-99.2 686,-78.2 632,-78.2"/>
<polygon fill="none" stroke="#d0d5dd" points="632,-78.2 632,-99.2 686,-99.2 686,-78.2 632,-78.2"/>
<text text-anchor="start" x="637" y="-87.2" font-family="monospace" font-weight="bold" font-size="10.00">phys:</text>
<text text-anchor="start" x="668" y="-87.2" font-family="monospace" font-size="10.00"> 2</text>
<polygon fill="#eef4ff" stroke="transparent" points="686,-78.2 686,-99.2 740,-99.2 740,-78.2 686,-78.2"/>
<polygon fill="none" stroke="#d0d5dd" points="686,-78.2 686,-99.2 740,-99.2 740,-78.2 686,-78.2"/>
<text text-anchor="start" x="691" y="-87.2" font-family="monospace" font-weight="bold" font-size="10.00">virt:</text>
<text text-anchor="start" x="722" y="-87.2" font-family="monospace" font-size="10.00"> 0</text>
<polygon fill="#eef4ff" stroke="transparent" points="740,-78.2 740,-99.2 794,-99.2 794,-78.2 740,-78.2"/>
<polygon fill="none" stroke="#d0d5dd" points="740,-78.2 740,-99.2 794,-99.2 794,-78.2 740,-78.2"/>
<text text-anchor="start" x="745" y="-87.2" font-family="monospace" font-weight="bold" font-size="10.00">val:</text>
<text text-anchor="start" x="770" y="-87.2" font-family="monospace" font-size="10.00"> 20</text>
<polygon fill="#eef4ff" stroke="transparent" points="794,-78.2 794,-99.2 830,-99.2 830,-78.2 794,-78.2"/>
<polygon fill="none" stroke="#d0d5dd" points="794,-78.2 794,-99.2 830,-99.2 830,-78.2 794,-78.2"/>
<text text-anchor="start" x="799" y="-87.2" font-family="monospace" font-weight="bold" font-size="10.00">n:</text>
<text text-anchor="start" x="812" y="-87.2" font-family="monospace" font-size="10.00"> 3</text>
<polygon fill="#eef4ff" stroke="transparent" points="830,-78.2 830,-99.2 866,-99.2 866,-78.2 830,-78.2"/>
<polygon fill="none" stroke="#d0d5dd" points="830,-78.2 830,-99.2 866,-99.2 866,-78.2 830,-78.2"/>
<text text-anchor="start" x="835" y="-87.2" font-family="monospace" font-weight="bold" font-size="10.00">p:</text>
<text text-anchor="start" x="848" y="-87.2" font-family="monospace" font-size="10.00"> 6</text>
</g>
<!-- label1&#45;&gt;label2 -->
<g id="edge2" class="edge">
<title>label1&#45;&gt;label2</title>
<path fill="none" stroke="#dce6e3" stroke-width="1.5" stroke-dasharray="5,2" d="M559.16,-99.2C580.49,-99.2 602.66,-99.2 623.99,-99.2"/>
</g>
<!-- label5 -->
<g id="node6" class="node">
<title>label5</title>
<path fill="#ffffff" stroke="#ef4444" stroke-width="2.1" d="M1807,-124.2C1807,-124.2 1581,-124.2 1581,-124.2 1575,-124.2 1569,-118.2 1569,-112.2 1569,-112.2 1569,-86.2 1569,-86.2 1569,-80.2 1575,-74.2 1581,-74.2 1581,-74.2 1807,-74.2 1807,-74.2 1813,-74.2 1819,-80.2 1819,-86.2 1819,-86.2 1819,-112.2 1819,-112.2 1819,-118.2 1813,-124.2 1807,-124.2"/>
<polygon fill="#eef4ff" stroke="transparent" points="1577,-99.2 1577,-120.2 1811,-120.2 1811,-99.2 1577,-99.2"/>
<polygon fill="none" stroke="#d0d5dd" points="1577,-99.2 1577,-120.2 1811,-120.2 1811,-99.2 1577,-99.2"/>
<text text-anchor="start" x="1627" y="-108.2" font-family="monospace" font-weight="bold" font-size="10.00">addr:</text>
<text text-anchor="start" x="1658" y="-108.2" font-family="monospace" font-size="10.00"> 0x0x503000000174</text>
<polygon fill="#eef4ff" stroke="transparent" points="1577,-78.2 1577,-99.2 1631,-99.2 1631,-78.2 1577,-78.2"/>
<polygon fill="none" stroke="#d0d5dd" points="1577,-78.2 1577,-99.2 1631,-99.2 1631,-78.2 1577,-78.2"/>
<text text-anchor="start" x="1582" y="-87.2" font-family="monospace" font-weight="bold" font-size="10.00">phys:</text>
<text text-anchor="start" x="1613" y="-87.2" font-family="monospace" font-size="10.00"> 5</text>
<polygon fill="#eef4ff" stroke="transparent" points="1631,-78.2 1631,-99.2 1685,-99.2 1685,-78.2 1631,-78.2"/>
<polygon fill="none" stroke="#d0d5dd" points="1631,-78.2 1631,-99.2 1685,-99.2 1685,-78.2 1631,-78.2"/>
<text text-anchor="start" x="1636" y="-87.2" font-family="monospace" font-weight="bold" font-size="10.00">virt:</text>
<text text-anchor="start" x="1667" y="-87.2" font-family="monospace" font-size="10.00"> 0</text>
<polygon fill="#eef4ff" stroke="transparent" points="1685,-78.2 1685,-99.2 1739,-99.2 1739,-78.2 1685,-78.2"/>
<polygon fill="none" stroke="#d0d5dd" points="1685,-78.2 1685,-99.2 1739,-99.2 1739,-78.2 1685,-78.2"/>
<text text-anchor="start" x="1690" y="-87.2" font-family="monospace" font-weight="bold" font-size="10.00">val:</text>
<text text-anchor="start" x="1715" y="-87.2" font-family="monospace" font-size="10.00"> 50</text>
<polygon fill="#eef4ff" stroke="transparent" points="1739,-78.2 1739,-99.2 1775,-99.2 1775,-78.2 1739,-78.2"/>
<polygon fill="none" stroke="#d0d5dd" points="1739,-78.2 1739,-99.2 1775,-99.2 1775,-78.2 1739,-78.2"/>
<text text-anchor="start" x="1744" y="-87.2" font-family="monospace" font-weight="bold" font-size="10.00">n:</text>
<text text-anchor="start" x="1757" y="-87.2" font-family="monospace" font-size="10.00"> 1</text>
<polygon fill="#eef4ff" stroke="transparent" points="1775,-78.2 1775,-99.2 1811,-99.2 1811,-78.2 1775,-78.2"/>
<polygon fill="none" stroke="#d0d5dd" points="1775,-78.2 1775,-99.2 1811,-99.2 1811,-78.2 1775,-78.2"/>
<text text-anchor="start" x="1780" y="-87.2" font-family="monospace" font-weight="bold" font-size="10.00">p:</text>
<text text-anchor="start" x="1793" y="-87.2" font-family="monospace" font-size="10.00"> 4</text>
</g>
<!-- label1&#45;&gt;label5 -->
<g id="edge16" class="edge">
<title>label1&#45;&gt;label5</title>
<path fill="none" stroke="#ef4444" stroke-width="1.9" d="M468.37,-74.15C505.81,-57.61 568.56,-40.71 624,-34.2 1012.44,11.4 1115.56,11.4 1504,-34.2 1555.76,-40.28 1613.89,-55.42 1651.84,-70.86"/>
<polygon fill="#ef4444" stroke="#ef4444" stroke-width="1.9" points="1659.63,-74.15 1650.86,-74.35 1655.77,-73.01 1652.08,-71.45 1652.26,-71.03 1652.44,-70.62 1656.12,-72.18 1653.66,-67.72 1659.63,-74.15 1659.63,-74.15"/>
</g>
<!-- label1&#45;&gt;label6 -->
<g id="edge9" class="edge">
<title>label1&#45;&gt;label6</title>
<path fill="none" stroke="#22c55e" stroke-width="1.9" d="M473.91,-124.33C567.76,-195.71 817.09,-389.2 1063,-389.2 1063,-389.2 1063,-389.2 1380,-389.2 1620.39,-389.2 1864.04,-204.31 1962.54,-129.32"/>
<polygon fill="#22c55e" stroke="#22c55e" stroke-width="1.9" points="1969.09,-124.33 1964.91,-132.04 1966.18,-127.11 1963,-129.53 1962.73,-129.17 1962.46,-128.81 1965.64,-126.39 1960.55,-126.31 1969.09,-124.33 1969.09,-124.33"/>
</g>
<!-- label3 -->
<g id="node4" class="node">
<title>label3</title>
<path fill="#ffffff" stroke="#ef4444" stroke-width="2.1" d="M1177,-124.2C1177,-124.2 951,-124.2 951,-124.2 945,-124.2 939,-118.2 939,-112.2 939,-112.2 939,-86.2 939,-86.2 939,-80.2 945,-74.2 951,-74.2 951,-74.2 1177,-74.2 1177,-74.2 1183,-74.2 1189,-80.2 1189,-86.2 1189,-86.2 1189,-112.2 1189,-112.2 1189,-118.2 1183,-124.2 1177,-124.2"/>
<polygon fill="#eef4ff" stroke="transparent" points="947,-99.2 947,-120.2 1181,-120.2 1181,-99.2 947,-99.2"/>
<polygon fill="none" stroke="#d0d5dd" points="947,-99.2 947,-120.2 1181,-120.2 1181,-99.2 947,-99.2"/>
<text text-anchor="start" x="997" y="-108.2" font-family="monospace" font-weight="bold" font-size="10.00">addr:</text>
<text text-anchor="start" x="1028" y="-108.2" font-family="monospace" font-size="10.00"> 0x0x50300000016c</text>
<polygon fill="#eef4ff" stroke="transparent" points="947,-78.2 947,-99.2 1001,-99.2 1001,-78.2 947,-78.2"/>
<polygon fill="none" stroke="#d0d5dd" points="947,-78.2 947,-99.2 1001,-99.2 1001,-78.2 947,-78.2"/>
<text text-anchor="start" x="952" y="-87.2" font-family="monospace" font-weight="bold" font-size="10.00">phys:</text>
<text text-anchor="start" x="983" y="-87.2" font-family="monospace" font-size="10.00"> 3</text>
<polygon fill="#eef4ff" stroke="transparent" points="1001,-78.2 1001,-99.2 1055,-99.2 1055,-78.2 1001,-78.2"/>
<polygon fill="none" stroke="#d0d5dd" points="1001,-78.2 1001,-99.2 1055,-99.2 1055,-78.2 1001,-78.2"/>
<text text-anchor="start" x="1006" y="-87.2" font-family="monospace" font-weight="bold" font-size="10.00">virt:</text>
<text text-anchor="start" x="1037" y="-87.2" font-family="monospace" font-size="10.00"> 0</text>
<polygon fill="#eef4ff" stroke="transparent" points="1055,-78.2 1055,-99.2 1109,-99.2 1109,-78.2 1055,-78.2"/>
<polygon fill="none" stroke="#d0d5dd" points="1055,-78.2 1055,-99.2 1109,-99.2 1109,-78.2 1055,-78.2"/>
<text text-anchor="start" x="1060" y="-87.2" font-family="monospace" font-weight="bold" font-size="10.00">val:</text>
<text text-anchor="start" x="1085" y="-87.2" font-family="monospace" font-size="10.00"> 30</text>
<polygon fill="#eef4ff" stroke="transparent" points="1109,-78.2 1109,-99.2 1145,-99.2 1145,-78.2 1109,-78.2"/>
<polygon fill="none" stroke="#d0d5dd" points="1109,-78.2 1109,-99.2 1145,-99.2 1145,-78.2 1109,-78.2"/>
<text text-anchor="start" x="1114" y="-87.2" font-family="monospace" font-weight="bold" font-size="10.00">n:</text>
<text text-anchor="start" x="1127" y="-87.2" font-family="monospace" font-size="10.00"> 7</text>
<polygon fill="#eef4ff" stroke="transparent" points="1145,-78.2 1145,-99.2 1181,-99.2 1181,-78.2 1145,-78.2"/>
<polygon fill="none" stroke="#d0d5dd" points="1145,-78.2 1145,-99.2 1181,-99.2 1181,-78.2 1145,-78.2"/>
<text text-anchor="start" x="1150" y="-87.2" font-family="monospace" font-weight="bold" font-size="10.00">p:</text>
<text text-anchor="start" x="1163" y="-87.2" font-family="monospace" font-size="10.00"> 2</text>
</g>
<!-- label2&#45;&gt;label3 -->
<g id="edge3" class="edge">
<title>label2&#45;&gt;label3</title>
<path fill="none" stroke="#dce6e3" stroke-width="1.5" stroke-dasharray="5,2" d="M816,-74.2C869.18,-67.55 943.6,-67.54 996.82,-74.18"/>
</g>
<!-- label2&#45;&gt;label3 -->
<g id="edge10" class="edge">
<title>label2&#45;&gt;label3</title>
<path fill="none" stroke="#22c55e" stroke-width="1.9" d="M874.16,-99.2C892.82,-99.2 912.13,-99.2 930.96,-99.2"/>
<polygon fill="#22c55e" stroke="#22c55e" stroke-width="1.9" points="938.99,-99.2 930.99,-102.8 934.99,-99.65 930.99,-99.65 930.99,-99.2 930.99,-98.75 934.99,-98.75 930.99,-95.6 938.99,-99.2 938.99,-99.2"/>
</g>
<!-- label2&#45;&gt;label6 -->
<g id="edge17" class="edge">
<title>label2&#45;&gt;label6</title>
<path fill="none" stroke="#ef4444" stroke-width="1.9" d="M874.02,-117.75C1074.67,-155.6 1482.03,-227.58 1819,-159.2 1852.16,-152.48 1886.72,-139.73 1917.08,-127.38"/>
<polygon fill="#ef4444" stroke="#ef4444" stroke-width="1.9" points="1924.71,-124.26 1918.67,-130.62 1921.18,-126.19 1917.48,-127.71 1917.31,-127.29 1917.14,-126.88 1920.84,-125.36 1915.94,-123.96 1924.71,-124.26 1924.71,-124.26"/>
</g>
<!-- label3&#45;&gt;label2 -->
<g id="edge18" class="edge">
<title>label3&#45;&gt;label2</title>
<path fill="none" stroke="#ef4444" stroke-width="1.9" d="M996.82,-124.23C946.3,-130.53 876.68,-130.85 824.26,-125.17"/>
<polygon fill="#ef4444" stroke="#ef4444" stroke-width="1.9" points="816,-124.21 824.36,-121.56 820.02,-124.22 824,-124.68 823.94,-125.13 823.89,-125.58 819.92,-125.12 823.53,-128.71 816,-124.21 816,-124.21"/>
</g>
<!-- label4 -->
<g id="node5" class="node">
<title>label4</title>
<path fill="#ffffff" stroke="#ef4444" stroke-width="2.1" d="M1492,-124.2C1492,-124.2 1266,-124.2 1266,-124.2 1260,-124.2 1254,-118.2 1254,-112.2 1254,-112.2 1254,-86.2 1254,-86.2 1254,-80.2 1260,-74.2 1266,-74.2 1266,-74.2 1492,-74.2 1492,-74.2 1498,-74.2 1504,-80.2 1504,-86.2 1504,-86.2 1504,-112.2 1504,-112.2 1504,-118.2 1498,-124.2 1492,-124.2"/>
<polygon fill="#eef4ff" stroke="transparent" points="1262,-99.2 1262,-120.2 1496,-120.2 1496,-99.2 1262,-99.2"/>
<polygon fill="none" stroke="#d0d5dd" points="1262,-99.2 1262,-120.2 1496,-120.2 1496,-99.2 1262,-99.2"/>
<text text-anchor="start" x="1312" y="-108.2" font-family="monospace" font-weight="bold" font-size="10.00">addr:</text>
<text text-anchor="start" x="1343" y="-108.2" font-family="monospace" font-size="10.00"> 0x0x503000000170</text>
<polygon fill="#eef4ff" stroke="transparent" points="1262,-78.2 1262,-99.2 1316,-99.2 1316,-78.2 1262,-78.2"/>
<polygon fill="none" stroke="#d0d5dd" points="1262,-78.2 1262,-99.2 1316,-99.2 1316,-78.2 1262,-78.2"/>
<text text-anchor="start" x="1267" y="-87.2" font-family="monospace" font-weight="bold" font-size="10.00">phys:</text>
<text text-anchor="start" x="1298" y="-87.2" font-family="monospace" font-size="10.00"> 4</text>
<polygon fill="#eef4ff" stroke="transparent" points="1316,-78.2 1316,-99.2 1370,-99.2 1370,-78.2 1316,-78.2"/>
<polygon fill="none" stroke="#d0d5dd" points="1316,-78.2 1316,-99.2 1370,-99.2 1370,-78.2 1316,-78.2"/>
<text text-anchor="start" x="1321" y="-87.2" font-family="monospace" font-weight="bold" font-size="10.00">virt:</text>
<text text-anchor="start" x="1352" y="-87.2" font-family="monospace" font-size="10.00"> 0</text>
<polygon fill="#eef4ff" stroke="transparent" points="1370,-78.2 1370,-99.2 1424,-99.2 1424,-78.2 1370,-78.2"/>
<polygon fill="none" stroke="#d0d5dd" points="1370,-78.2 1370,-99.2 1424,-99.2 1424,-78.2 1370,-78.2"/>
<text text-anchor="start" x="1375" y="-87.2" font-family="monospace" font-weight="bold" font-size="10.00">val:</text>
<text text-anchor="start" x="1400" y="-87.2" font-family="monospace" font-size="10.00"> 40</text>
<polygon fill="#eef4ff" stroke="transparent" points="1424,-78.2 1424,-99.2 1460,-99.2 1460,-78.2 1424,-78.2"/>
<polygon fill="none" stroke="#d0d5dd" points="1424,-78.2 1424,-99.2 1460,-99.2 1460,-78.2 1424,-78.2"/>
<text text-anchor="start" x="1429" y="-87.2" font-family="monospace" font-weight="bold" font-size="10.00">n:</text>
<text text-anchor="start" x="1442" y="-87.2" font-family="monospace" font-size="10.00"> 5</text>
<polygon fill="#eef4ff" stroke="transparent" points="1460,-78.2 1460,-99.2 1496,-99.2 1496,-78.2 1460,-78.2"/>
<polygon fill="none" stroke="#d0d5dd" points="1460,-78.2 1460,-99.2 1496,-99.2 1496,-78.2 1460,-78.2"/>
<text text-anchor="start" x="1465" y="-87.2" font-family="monospace" font-weight="bold" font-size="10.00">p:</text>
<text text-anchor="start" x="1478" y="-87.2" font-family="monospace" font-size="10.00"> 6</text>
</g>
<!-- label3&#45;&gt;label4 -->
<g id="edge4" class="edge">
<title>label3&#45;&gt;label4</title>
<path fill="none" stroke="#dce6e3" stroke-width="1.5" stroke-dasharray="5,2" d="M1189.16,-99.2C1210.49,-99.2 1232.66,-99.2 1253.99,-99.2"/>
</g>
<!-- label3&#45;&gt;label7 -->
<g id="edge11" class="edge">
<title>label3&#45;&gt;label7</title>
<path fill="none" stroke="#22c55e" stroke-width="1.9" d="M1098.37,-74.15C1135.81,-57.61 1198.56,-40.71 1254,-34.2 1642.44,11.4 1745.56,11.4 2134,-34.2 2185.76,-40.28 2243.89,-55.42 2281.84,-70.86"/>
<polygon fill="#22c55e" stroke="#22c55e" stroke-width="1.9" points="2289.63,-74.15 2280.86,-74.35 2285.77,-73.01 2282.08,-71.45 2282.26,-71.03 2282.44,-70.62 2286.12,-72.18 2283.66,-67.72 2289.63,-74.15 2289.63,-74.15"/>
</g>
<!-- label4&#45;&gt;label5 -->
<g id="edge5" class="edge">
<title>label4&#45;&gt;label5</title>
<path fill="none" stroke="#dce6e3" stroke-width="1.5" stroke-dasharray="5,2" d="M1446,-74.2C1499.18,-67.55 1573.6,-67.54 1626.82,-74.18"/>
</g>
<!-- label4&#45;&gt;label5 -->
<g id="edge12" class="edge">
<title>label4&#45;&gt;label5</title>
<path fill="none" stroke="#22c55e" stroke-width="1.9" d="M1504.16,-99.2C1522.82,-99.2 1542.13,-99.2 1560.96,-99.2"/>
<polygon fill="#22c55e" stroke="#22c55e" stroke-width="1.9" points="1568.99,-99.2 1560.99,-102.8 1564.99,-99.65 1560.99,-99.65 1560.99,-99.2 1560.99,-98.75 1564.99,-98.75 1560.99,-95.6 1568.99,-99.2 1568.99,-99.2"/>
</g>
<!-- label4&#45;&gt;label6 -->
<g id="edge19" class="edge">
<title>label4&#45;&gt;label6</title>
<path fill="none" stroke="#ef4444" stroke-width="1.9" d="M1466.27,-124.23C1498.25,-132.31 1535,-140.21 1569,-144.2 1679.35,-157.16 1708.65,-157.16 1819,-144.2 1850.21,-140.54 1883.74,-133.58 1913.77,-126.21"/>
<polygon fill="#ef4444" stroke="#ef4444" stroke-width="1.9" points="1921.73,-124.23 1914.83,-129.66 1917.95,-125.63 1914.07,-126.6 1913.96,-126.16 1913.85,-125.73 1917.74,-124.76 1913.09,-122.67 1921.73,-124.23 1921.73,-124.23"/>
</g>
<!-- label5&#45;&gt;label1 -->
<g id="edge13" class="edge">
<title>label5&#45;&gt;label1</title>
<path fill="none" stroke="#22c55e" stroke-width="1.9" d="M1568.95,-85.02C1547.44,-80.7 1525.19,-76.69 1504,-74.2 1115.56,-28.6 1012.44,-28.6 624,-74.2 605.46,-76.38 586.1,-79.72 567.15,-83.41"/>
<polygon fill="#22c55e" stroke="#22c55e" stroke-width="1.9" points="559.05,-85.02 566.2,-79.93 562.89,-83.8 566.81,-83.02 566.9,-83.46 566.99,-83.9 563.06,-84.68 567.6,-86.99 559.05,-85.02 559.05,-85.02"/>
</g>
<!-- label5&#45;&gt;label4 -->
<g id="edge20" class="edge">
<title>label5&#45;&gt;label4</title>
<path fill="none" stroke="#ef4444" stroke-width="1.9" d="M1626.82,-124.23C1576.3,-130.53 1506.68,-130.85 1454.26,-125.17"/>
<polygon fill="#ef4444" stroke="#ef4444" stroke-width="1.9" points="1446,-124.21 1454.36,-121.56 1450.02,-124.22 1454,-124.68 1453.94,-125.13 1453.89,-125.58 1449.92,-125.12 1453.53,-128.71 1446,-124.21 1446,-124.21"/>
</g>
<!-- label5&#45;&gt;label6 -->
<g id="edge6" class="edge">
<title>label5&#45;&gt;label6</title>
<path fill="none" stroke="#dce6e3" stroke-width="1.5" stroke-dasharray="5,2" d="M1819.16,-99.2C1840.49,-99.2 1862.66,-99.2 1883.99,-99.2"/>
</g>
<!-- label6&#45;&gt;label1 -->
<g id="edge21" class="edge">
<title>label6&#45;&gt;label1</title>
<path fill="none" stroke="#ef4444" stroke-width="1.9" d="M1989.12,-124.24C1916.56,-202.34 1646.28,-429.2 1380,-429.2 1063,-429.2 1063,-429.2 1063,-429.2 803.22,-429.2 539.64,-213.28 459.54,-130.22"/>
<polygon fill="#ef4444" stroke="#ef4444" stroke-width="1.9" points="453.88,-124.24 461.99,-127.57 456.95,-126.83 459.7,-129.74 459.38,-130.05 459.05,-130.36 456.3,-127.45 456.76,-132.52 453.88,-124.24 453.88,-124.24"/>
</g>
<!-- label6&#45;&gt;label2 -->
<g id="edge14" class="edge">
<title>label6&#45;&gt;label2</title>
<path fill="none" stroke="#22c55e" stroke-width="1.9" d="M1986.53,-124.32C1952.4,-150.74 1883.08,-186.2 1819,-199.2 1446.23,-274.85 987.31,-178.72 817.39,-126.7"/>
<polygon fill="#22c55e" stroke="#22c55e" stroke-width="1.9" points="809.52,-124.26 818.23,-123.19 813.48,-125.01 817.3,-126.2 817.16,-126.63 817.03,-127.06 813.21,-125.87 816.1,-130.07 809.52,-124.26 809.52,-124.26"/>
</g>
<!-- label6&#45;&gt;label7 -->
<g id="edge7" class="edge">
<title>label6&#45;&gt;label7</title>
<path fill="none" stroke="#dce6e3" stroke-width="1.5" stroke-dasharray="5,2" d="M2134.16,-99.2C2155.49,-99.2 2177.66,-99.2 2198.99,-99.2"/>
</g>
<!-- label7&#45;&gt;label3 -->
<g id="edge22" class="edge">
<title>label7&#45;&gt;label3</title>
<path fill="none" stroke="#ef4444" stroke-width="1.9" d="M2198.95,-85.02C2177.44,-80.7 2155.19,-76.69 2134,-74.2 1745.56,-28.6 1642.44,-28.6 1254,-74.2 1235.46,-76.38 1216.1,-79.72 1197.15,-83.41"/>
<polygon fill="#ef4444" stroke="#ef4444" stroke-width="1.9" points="1189.05,-85.02 1196.2,-79.93 1192.89,-83.8 1196.81,-83.02 1196.9,-83.46 1196.99,-83.9 1193.06,-84.68 1197.6,-86.99 1189.05,-85.02 1189.05,-85.02"/>
</g>
</g>
</svg>
