<?xml version="1.0" encoding="UTF-8" standalone="no"?>
<!DOCTYPE svg PUBLIC "-//W3C//DTD SVG 1.1//EN"
 "http://www.w3.org/Graphics/SVG/1.1/DTD/svg11.dtd">
<!-- Generated by graphviz version 2.42.4 (0)
 -->
<!-- Title: G Pages: 1 -->
<svg width="4138pt" height="609pt"
 viewBox="0.00 0.00 4138.00 609.11" xmlns="http://www.w3.org/2000/svg" xmlns:xlink="http://www.w3.org/1999/xlink">
<g id="graph0" class="graph" transform="scale(1 1) rotate(0) translate(18 591.11)">
<title>G</title>
<polygon fill="#fcfcfd" stroke="transparent" points="-18,18 -18,-591.11 4120,-591.11 4120,18 -18,18"/>
<!-- label0 -->
<g id="node1" class="node">
<title>label0</title>
<path fill="#ffffff" stroke="#7f56d9" stroke-width="2.1" d="M232,-315.11C232,-315.11 12,-315.11 12,-315.11 6,-315.11 0,-309.11 0,-303.11 0,-303.11 0,-277.11 0,-277.11 0,-271.11 6,-265.11 12,-265.11 12,-265.11 232,-265.11 232,-265.11 238,-265.11 244,-271.11 244,-277.11 244,-277.11 244,-303.11 244,-303.11 244,-309.11 238,-315.11 232,-315.11"/>
<polygon fill="#eef4ff" stroke="transparent" points="8,-290.11 8,-311.11 236,-311.11 236,-290.11 8,-290.11"/>
<polygon fill="none" stroke="#d0d5dd" points="8,-290.11 8,-311.11 236,-311.11 236,-290.11 8,-290.11"/>
<text text-anchor="start" x="55" y="-299.11" font-family="monospace" font-weight="bold" font-size="10.00">addr:</text>
<text text-anchor="start" x="86" y="-299.11" font-family="monospace" font-size="10.00"> 0x0x506000000260</text>
<polygon fill="#eef4ff" stroke="transparent" points="8,-269.11 8,-290.11 62,-290.11 62,-269.11 8,-269.11"/>
<polygon fill="none" stroke="#d0d5dd" points="8,-269.11 8,-290.11 62,-290.11 62,-269.11 8,-269.11"/>
<text text-anchor="start" x="13" y="-278.11" font-family="monospace" font-weight="bold" font-size="10.00">phys:</text>
<text text-anchor="start" x="44" y="-278.11" font-family="monospace" font-size="10.00"> 0</text>
<polygon fill="#eef4ff" stroke="transparent" points="62,-269.11 62,-290.11 116,-290.11 116,-269.11 62,-269.11"/>
<polygon fill="none" stroke="#d0d5dd" points="62,-269.11 62,-290.11 116,-290.11 116,-269.11 62,-269.11"/>
<text text-anchor="start" x="67" y="-278.11" font-family="monospace" font-weight="bold" font-size="10.00">virt:</text>
<text text-anchor="start" x="98" y="-278.11" font-family="monospace" font-size="10.00"> 0</text>
<polygon fill="#eef4ff" stroke="transparent" points="116,-269.11 116,-290.11 164,-290.11 164,-269.11 116,-269.11"/>
<polygon fill="none" stroke="#d0d5dd" points="116,-269.11 116,-290.11 164,-290.11 164,-269.11 116,-269.11"/>
<text text-anchor="start" x="121" y="-278.11" font-family="monospace" font-weight="bold" font-size="10.00">val:</text>
<text text-anchor="start" x="146" y="-278.11" font-family="monospace" font-size="10.00"> 0</text>
<polygon fill="#eef4ff" stroke="transparent" points="164,-269.11 164,-290.11 200,-290.11 200,-269.11 164,-269.11"/>
<polygon fill="none" stroke="#d0d5dd" points="164,-269.11 164,-290.11 200,-290.11 200,-269.11 164,-269.11"/>
<text text-anchor="start" x="169" y="-278.11" font-family="monospace" font-weight="bold" font-size="10.00">n:</text>
<text text-anchor="start" x="182" y="-278.11" font-family="monospace" font-size="10.00"> 6</text>
<polygon fill="#eef4ff" stroke="transparent" points="200,-269.11 200,-290.11 236,-290.11 236,-269.11 200,-269.11"/>
<polygon fill="none" stroke="#d0d5dd" points="200,-269.11 200,-290.11 236,-290.11 236,-269.11 200,-269.11"/>
<text text-anchor="start" x="205" y="-278.11" font-family="monospace" font-weight="bold" font-size="10.00">p:</text>
<text text-anchor="start" x="218" y="-278.11" font-family="monospace" font-size="10.00"> 5</text>
</g>
<!-- label1 -->
<g id="node2" class="node">
<title>label1</title>
<path fill="#ffffff" stroke="#7f56d9" stroke-width="2.1" d="M553,-315.11C553,-315.11 321,-315.11 321,-315.11 315,-315.11 309,-309.11 309,-303.11 309,-303.11 309,-277.11 309,-277.11 309,-271.11 315,-265.11 321,-265.11 321,-265.11 553,-265.11 553,-265.11 559,-265.11 565,-271.11 565,-277.11 565,-277.11 565,-303.11 565,-303.11 565,-309.11 559,-315.11 553,-315.11"/>
<polygon fill="#eef4ff" stroke="transparent" points="317,-290.11 317,-311.11 557,-311.11 557,-290.11 317,-290.11"/>
<polygon fill="none" stroke="#d0d5dd" points="317,-290.11 317,-311.11 557,-311.11 557,-290.11 317,-290.11"/>
<text text-anchor="start" x="370" y="-299.11" font-family="monospace" font-weight="bold" font-size="10.00">addr:</text>
<text text-anchor="start" x="401" y="-299.11" font-family="monospace" font-size="10.00"> 0x0x506000000264</text>
<polygon fill="#eef4ff" stroke="transparent" points="317,-269.11 317,-290.11 371,-290.11 371,-269.11 317,-269.11"/>
<polygon fill="none" stroke="#d0d5dd" points="317,-269.11 317,-290.11 371,-290.11 371,-269.11 317,-269.11"/>
<text text-anchor="start" x="322" y="-278.11" font-family="monospace" font-weight="bold" font-size="10.00">phys:</text>
<text text-anchor="start" x="353" y="-278.11" font-family="monospace" font-size="10.00"> 1</text>
<polygon fill="#eef4ff" stroke="transparent" points="371,-269.11 371,-290.11 425,-290.11 425,-269.11 371,-269.11"/>
<polygon fill="none" stroke="#d0d5dd" points="371,-269.11 371,-290.11 425,-290.11 425,-269.11 371,-269.11"/>
<text text-anchor="start" x="376" y="-278.11" font-family="monospace" font-weight="bold" font-size="10.00">virt:</text>
<text text-anchor="start" x="407" y="-278.11" font-family="monospace" font-size="10.00"> 0</text>
<polygon fill="#eef4ff" stroke="transparent" points="425,-269.11 425,-290.11 473,-290.11 473,-269.11 425,-269.11"/>
<polygon fill="none" stroke="#d0d5dd" points="425,-269.11 425,-290.11 473,-290.11 473,-269.11 425,-269.11"/>
<text text-anchor="start" x="430" y="-278.11" font-family="monospace" font-weight="bold" font-size="10.00">val:</text>
<text text-anchor="start" x="455" y="-278.11" font-family="monospace" font-size="10.00"> 0</text>
<polygon fill="#eef4ff" stroke="transparent" points="473,-269.11 473,-290.11 515,-290.11 515,-269.11 473,-269.11"/>
<polygon fill="none" stroke="#d0d5dd" points="473,-269.11 473,-290.11 515,-290.11 515,-269.11 473,-269.11"/>
<text text-anchor="start" x="478" y="-278.11" font-family="monospace" font-weight="bold" font-size="10.00">n:</text>
<text text-anchor="start" x="491" y="-278.11" font-family="monospace" font-size="10.00"> 12</text>
<polygon fill="#eef4ff" stroke="transparent" points="515,-269.11 515,-290.11 557,-290.11 557,-269.11 515,-269.11"/>
<polygon fill="none" stroke="#d0d5dd" points="515,-269.11 515,-290.11 557,-290.11 557,-269.11 515,-269.11"/>
<text text-anchor="start" x="520" y="-278.11" font-family="monospace" font-weight="bold" font-size="10.00">p:</text>
<text text-anchor="start" x="533" y="-278.11" font-family="monospace" font-size="10.00"> &#45;1</text>
</g>
<!-- label0&#45;&gt;label1 -->
<g id="edge1" class="edge">
<title>label0&#45;&gt;label1</title>
<path fill="none" stroke="#dce6e3" stroke-width="1.5" stroke-dasharray="5,2" d="M244.01,-290.11C265.26,-290.11 287.43,-290.11 308.83,-290.11"/>
</g>
<!-- label5 -->
<g id="node6" class="node">
<title>label5</title>
<path fill="#ffffff" stroke="#ef4444" stroke-width="2.1" d="M3436,-315.11C3436,-315.11 3210,-315.11 3210,-315.11 3204,-315.11 3198,-309.11 3198,-303.11 3198,-303.11 3198,-277.11 3198,-277.11 3198,-271.11 3204,-265.11 3210,-265.11 3210,-265.11 3436,-265.11 3436,-265.11 3442,-265.11 3448,-271.11 3448,-277.11 3448,-277.11 3448,-303.11 3448,-303.11 3448,-309.11 3442,-315.11 3436,-315.11"/>
<polygon fill="#eef4ff" stroke="transparent" points="3206,-290.11 3206,-311.11 3440,-311.11 3440,-290.11 3206,-290.11"/>
<polygon fill="none" stroke="#d0d5dd" points="3206,-290.11 3206,-311.11 3440,-311.11 3440,-290.11 3206,-290.11"/>
<text text-anchor="start" x="3256" y="-299.11" font-family="monospace" font-weight="bold" font-size="10.00">addr:</text>
<text text-anchor="start" x="3287" y="-299.11" font-family="monospace" font-size="10.00"> 0x0x506000000274</text>
<polygon fill="#eef4ff" stroke="transparent" points="3206,-269.11 3206,-290.11 3260,-290.11 3260,-269.11 3206,-269.11"/>
<polygon fill="none" stroke="#d0d5dd" points="3206,-269.11 3206,-290.11 3260,-290.11 3260,-269.11 3206,-269.11"/>
<text text-anchor="start" x="3211" y="-278.11" font-family="monospace" font-weight="bold" font-size="10.00">phys:</text>
<text text-anchor="start" x="3242" y="-278.11" font-family="monospace" font-size="10.00"> 5</text>
<polygon fill="#eef4ff" stroke="transparent" points="3260,-269.11 3260,-290.11 3314,-290.11 3314,-269.11 3260,-269.11"/>
<polygon fill="none" stroke="#d0d5dd" points="3260,-269.11 3260,-290.11 3314,-290.11 3314,-269.11 3260,-269.11"/>
<text text-anchor="start" x="3265" y="-278.11" font-family="monospace" font-weight="bold" font-size="10.00">virt:</text>
<text text-anchor="start" x="3296" y="-278.11" font-family="monospace" font-size="10.00"> 0</text>
<polygon fill="#eef4ff" stroke="transparent" points="3314,-269.11 3314,-290.11 3368,-290.11 3368,-269.11 3314,-269.11"/>
<polygon fill="none" stroke="#d0d5dd" points="3314,-269.11 3314,-290.11 3368,-290.11 3368,-269.11 3314,-269.11"/>
<text text-anchor="start" x="3319" y="-278.11" font-family="monospace" font-weight="bold" font-size="10.00">val:</text>
<text text-anchor="start" x="3344" y="-278.11" font-family="monospace" font-size="10.00"> 50</text>
<polygon fill="#eef4ff" stroke="transparent" points="3368,-269.11 3368,-290.11 3404,-290.11 3404,-269.11 3368,-269.11"/>
<polygon fill="none" stroke="#d0d5dd" points="3368,-269.11 3368,-290.11 3404,-290.11 3404,-269.11 3368,-269.11"/>
<text text-anchor="start" x="3373" y="-278.11" font-family="monospace" font-weight="bold" font-size="10.00">n:</text>
<text text-anchor="start" x="3386" y="-278.11" font-family="monospace" font-size="10.00"> 6</text>
<polygon fill="#eef4ff" stroke="transparent" points="3404,-269.11 3404,-290.11 3440,-290.11 3440,-269.11 3404,-269.11"/>
<polygon fill="none" stroke="#d0d5dd" points="3404,-269.11 3404,-290.11 3440,-290.11 3440,-269.11 3404,-269.11"/>
<text text-anchor="start" x="3409" y="-278.11" font-family="monospace" font-weight="bold" font-size="10.00">p:</text>
<text text-anchor="start" x="3422" y="-278.11" font-family="monospace" font-size="10.00"> 4</text>
</g>
<!-- label0&#45;&gt;label5 -->
<g id="edge26" class="edge">
<title>label0&#45;&gt;label5</title>
<path fill="none" stroke="#ef4444" stroke-width="1.9" d="M166.5,-265.02C266.66,-209.69 522.73,-82.11 754,-82.11 754,-82.11 754,-82.11 2670,-82.11 2902.87,-82.11 3161.34,-204.03 3269.71,-261.18"/>
<polygon fill="#ef4444" stroke="#ef4444" stroke-width="1.9" points="3276.94,-265.02 3268.19,-264.45 3273.2,-263.54 3269.67,-261.66 3269.88,-261.27 3270.09,-260.87 3273.62,-262.74 3271.56,-258.09 3276.94,-265.02 3276.94,-265.02"/>
</g>
<!-- label6 -->
<g id="node7" class="node">
<title>label6</title>
<path fill="#ffffff" stroke="#ef4444" stroke-width="2.1" d="M3763,-315.11C3763,-315.11 3537,-315.11 3537,-315.11 3531,-315.11 3525,-309.11 3525,-303.11 3525,-303.11 3525,-277.11 3525,-277.11 3525,-271.11 3531,-265.11 3537,-265.11 3537,-265.11 3763,-265.11 3763,-265.11 3769,-265.11 3775,-271.11 3775,-277.11 3775,-277.11 3775,-303.11 3775,-303.11 3775,-309.11 3769,-315.11 3763,-315.11"/>
<polygon fill="#eef4ff" stroke="transparent" points="3533,-290.11 3533,-311.11 3767,-311.11 3767,-290.11 3533,-290.11"/>
<polygon fill="none" stroke="#d0d5dd" points="3533,-290.11 3533,-311.11 3767,-311.11 3767,-290.11 3533,-290.11"/>
<text text-anchor="start" x="3583" y="-299.11" font-family="monospace" font-weight="bold" font-size="10.00">addr:</text>
<text text-anchor="start" x="3614" y="-299.11" font-family="monospace" font-size="10.00"> 0x0x506000000278</text>
<polygon fill="#eef4ff" stroke="transparent" points="3533,-269.11 3533,-290.11 3587,-290.11 3587,-269.11 3533,-269.11"/>
<polygon fill="none" stroke="#d0d5dd" points="3533,-269.11 3533,-290.11 3587,-290.11 3587,-269.11 3533,-269.11"/>
<text text-anchor="start" x="3538" y="-278.11" font-family="monospace" font-weight="bold" font-size="10.00">phys:</text>
<text text-anchor="start" x="3569" y="-278.11" font-family="monospace" font-size="10.00"> 6</text>
<polygon fill="#eef4ff" stroke="transparent" points="3587,-269.11 3587,-290.11 3641,-290.11 3641,-269.11 3587,-269.11"/>
<polygon fill="none" stroke="#d0d5dd" points="3587,-269.11 3587,-290.11 3641,-290.11 3641,-269.11 3587,-269.11"/>
<text text-anchor="start" x="3592" y="-278.11" font-family="monospace" font-weight="bold" font-size="10.00">virt:</text>
<text text-anchor="start" x="3623" y="-278.11" font-family="monospace" font-size="10.00"> 0</text>
<polygon fill="#eef4ff" stroke="transparent" points="3641,-269.11 3641,-290.11 3695,-290.11 3695,-269.11 3641,-269.11"/>
<polygon fill="none" stroke="#d0d5dd" points="3641,-269.11 3641,-290.11 3695,-290.11 3695,-269.11 3641,-269.11"/>
<text text-anchor="start" x="3646" y="-278.11" font-family="monospace" font-weight="bold" font-size="10.00">val:</text>
<text text-anchor="start" x="3671" y="-278.11" font-family="monospace" font-size="10.00"> 10</text>
<polygon fill="#eef4ff" stroke="transparent" points="3695,-269.11 3695,-290.11 3731,-290.11 3731,-269.11 3695,-269.11"/>
<polygon fill="none" stroke="#d0d5dd" points="3695,-269.11 3695,-290.11 3731,-290.11 3731,-269.11 3695,-269.11"/>
<text text-anchor="start" x="3700" y="-278.11" font-family="monospace" font-weight="bold" font-size="10.00">n:</text>
<text text-anchor="start" x="3713" y="-278.11" font-family="monospace" font-size="10.00"> 2</text>
<polygon fill="#eef4ff" stroke="transparent" points="3731,-269.11 3731,-290.11 3767,-290.11 3767,-269.11 3731,-269.11"/>
<polygon fill="none" stroke="#d0d5dd" points="3731,-269.11 3731,-290.11 3767,-290.11 3767,-269.11 3731,-269.11"/>
<text text-anchor="start" x="3736" y="-278.11" font-family="monospace" font-weight="bold" font-size="10.00">p:</text>
<text text-anchor="start" x="3749" y="-278.11" font-family="monospace" font-size="10.00"> 5</text>
</g>
<!-- label0&#45;&gt;label6 -->
<g id="edge16" class="edge">
<title>label0&#45;&gt;label6</title>
<path fill="none" stroke="#22c55e" stroke-width="1.9" d="M139.69,-264.85C168.8,-222.96 233.02,-139.53 309,-97.11 485.74,1.58 551.58,-0.11 754,-0.11 754,-0.11 754,-0.11 2997,-0.11 3250.71,-0.11 3515.75,-185.7 3611.63,-259.94"/>
<polygon fill="#22c55e" stroke="#22c55e" stroke-width="1.9" points="3617.97,-264.88 3609.45,-262.8 3614.54,-262.77 3611.38,-260.32 3611.66,-259.96 3611.93,-259.61 3615.09,-262.06 3613.87,-257.12 3617.97,-264.88 3617.97,-264.88"/>
</g>
<!-- label2 -->
<g id="node3" class="node">
<title>label2</title>
<path fill="#ffffff" stroke="#ef4444" stroke-width="2.1" d="M868,-315.11C868,-315.11 642,-315.11 642,-315.11 636,-315.11 630,-309.11 630,-303.11 630,-303.11 630,-277.11 630,-277.11 630,-271.11 636,-265.11 642,-265.11 642,-265.11 868,-265.11 868,-265.11 874,-265.11 880,-271.11 880,-277.11 880,-277.11 880,-303.11 880,-303.11 880,-309.11 874,-315.11 868,-315.11"/>
<polygon fill="#eef4ff" stroke="transparent" points="638,-290.11 638,-311.11 872,-311.11 872,-290.11 638,-290.11"/>
<polygon fill="none" stroke="#d0d5dd" points="638,-290.11 638,-311.11 872,-311.11 872,-290.11 638,-290.11"/>
<text text-anchor="start" x="688" y="-299.11" font-family="monospace" font-weight="bold" font-size="10.00">addr:</text>
<text text-anchor="start" x="719" y="-299.11" font-family="monospace" font-size="10.00"> 0x0x506000000268</text>
<polygon fill="#eef4ff" stroke="transparent" points="638,-269.11 638,-290.11 692,-290.11 692,-269.11 638,-269.11"/>
<polygon fill="none" stroke="#d0d5dd" points="638,-269.11 638,-290.11 692,-290.11 692,-269.11 638,-269.11"/>
<text text-anchor="start" x="643" y="-278.11" font-family="monospace" font-weight="bold" font-size="10.00">phys:</text>
<text text-anchor="start" x="674" y="-278.11" font-family="monospace" font-size="10.00"> 2</text>
<polygon fill="#eef4ff" stroke="transparent" points="692,-269.11 692,-290.11 746,-290.11 746,-269.11 692,-269.11"/>
<polygon fill="none" stroke="#d0d5dd" points="692,-269.11 692,-290.11 746,-290.11 746,-269.11 692,-269.11"/>
<text text-anchor="start" x="697" y="-278.11" font-family="monospace" font-weight="bold" font-size="10.00">virt:</text>
<text text-anchor="start" x="728" y="-278.11" font-family="monospace" font-size="10.00"> 0</text>
<polygon fill="#eef4ff" stroke="transparent" points="746,-269.11 746,-290.11 800,-290.11 800,-269.11 746,-269.11"/>
<polygon fill="none" stroke="#d0d5dd" points="746,-269.11 746,-290.11 800,-290.11 800,-269.11 746,-269.11"/>
<text text-anchor="start" x="751" y="-278.11" font-family="monospace" font-weight="bold" font-size="10.00">val:</text>
<text text-anchor="start" x="776" y="-278.11" font-family="monospace" font-size="10.00"> 20</text>
<polygon fill="#eef4ff" stroke="transparent" points="800,-269.11 800,-290.11 836,-290.11 836,-269.11 800,-269.11"/>
<polygon fill="none" stroke="#d0d5dd" points="800,-269.11 800,-290.11 836,-290.11 836,-269.11 800,-269.11"/>
<text text-anchor="start" x="805" y="-278.11" font-family="monospace" font-weight="bold" font-size="10.00">n:</text>
<text text-anchor="start" x="818" y="-278.11" font-family="monospace" font-size="10.00"> 3</text>
<polygon fill="#eef4ff" stroke="transparent" points="836,-269.11 836,-290.11 872,-290.11 872,-269.11 836,-269.11"/>
<polygon fill="none" stroke="#d0d5dd" points="836,-269.11 836,-290.11 872,-290.11 872,-269.11 836,-269.11"/>
<text text-anchor="start" x="841" y="-278.11" font-family="monospace" font-weight="bold" font-size="10.00">p:</text>
<text text-anchor="start" x="854" y="-278.11" font-family="monospace" font-size="10.00"> 6</text>
</g>
<!-- label1&#45;&gt;label2 -->
<g id="edge2" class="edge">
<title>label1&#45;&gt;label2</title>
<path fill="none" stroke="#dce6e3" stroke-width="1.5" stroke-dasharray="5,2" d="M565.16,-290.11C586.52,-290.11 608.65,-290.11 629.92,-290.11"/>
</g>
<!-- label12 -->
<g id="node13" class="node">
<title>label12</title>
<path fill="#ffffff" stroke="#7f56d9" stroke-width="2.1" d="M3115,-573.11C3115,-573.11 2877,-573.11 2877,-573.11 2871,-573.11 2865,-567.11 2865,-561.11 2865,-561.11 2865,-535.11 2865,-535.11 2865,-529.11 2871,-523.11 2877,-523.11 2877,-523.11 3115,-523.11 3115,-523.11 3121,-523.11 3127,-529.11 3127,-535.11 3127,-535.11 3127,-561.11 3127,-561.11 3127,-567.11 3121,-573.11 3115,-573.11"/>
<polygon fill="#eef4ff" stroke="transparent" points="2873,-548.11 2873,-569.11 3119,-569.11 3119,-548.11 2873,-548.11"/>
<polygon fill="none" stroke="#d0d5dd" points="2873,-548.11 2873,-569.11 3119,-569.11 3119,-548.11 2873,-548.11"/>
<text text-anchor="start" x="2929" y="-557.11" font-family="monospace" font-weight="bold" font-size="10.00">addr:</text>
<text text-anchor="start" x="2960" y="-557.11" font-family="monospace" font-size="10.00"> 0x0x506000000290</text>
<polygon fill="#eef4ff" stroke="transparent" points="2873,-527.11 2873,-548.11 2933,-548.11 2933,-527.11 2873,-527.11"/>
<polygon fill="none" stroke="#d0d5dd" points="2873,-527.11 2873,-548.11 2933,-548.11 2933,-527.11 2873,-527.11"/>
<text text-anchor="start" x="2878" y="-536.11" font-family="monospace" font-weight="bold" font-size="10.00">phys:</text>
<text text-anchor="start" x="2909" y="-536.11" font-family="monospace" font-size="10.00"> 12</text>
<polygon fill="#eef4ff" stroke="transparent" points="2933,-527.11 2933,-548.11 2987,-548.11 2987,-527.11 2933,-527.11"/>
<polygon fill="none" stroke="#d0d5dd" points="2933,-527.11 2933,-548.11 2987,-548.11 2987,-527.11 2933,-527.11"/>
<text text-anchor="start" x="2938" y="-536.11" font-family="monospace" font-weight="bold" font-size="10.00">virt:</text>
<text text-anchor="start" x="2969" y="-536.11" font-family="monospace" font-size="10.00"> 0</text>
<polygon fill="#eef4ff" stroke="transparent" points="2987,-527.11 2987,-548.11 3035,-548.11 3035,-527.11 2987,-527.11"/>
<polygon fill="none" stroke="#d0d5dd" points="2987,-527.11 2987,-548.11 3035,-548.11 3035,-527.11 2987,-527.11"/>
<text text-anchor="start" x="2992" y="-536.11" font-family="monospace" font-weight="bold" font-size="10.00">val:</text>
<text text-anchor="start" x="3017" y="-536.11" font-family="monospace" font-size="10.00"> 0</text>
<polygon fill="#eef4ff" stroke="transparent" points="3035,-527.11 3035,-548.11 3077,-548.11 3077,-527.11 3035,-527.11"/>
<polygon fill="none" stroke="#d0d5dd" points="3035,-527.11 3035,-548.11 3077,-548.11 3077,-527.11 3035,-527.11"/>
<text text-anchor="start" x="3040" y="-536.11" font-family="monospace" font-weight="bold" font-size="10.00">n:</text>
<text text-anchor="start" x="3053" y="-536.11" font-family="monospace" font-size="10.00"> 13</text>
<polygon fill="#eef4ff" stroke="transparent" points="3077,-527.11 3077,-548.11 3119,-548.11 3119,-527.11 3077,-527.11"/>
<polygon fill="none" stroke="#d0d5dd" points="3077,-527.11 3077,-548.11 3119,-548.11 3119,-527.11 3077,-527.11"/>
<text text-anchor="start" x="3082" y="-536.11" font-family="monospace" font-weight="bold" font-size="10.00">p:</text>
<text text-anchor="start" x="3095" y="-536.11" font-family="monospace" font-size="10.00"> &#45;1</text>
</g>
<!-- label1&#45;&gt;label12 -->
<g id="edge36" class="edge">
<title>label1&#45;&gt;label12</title>
<path fill="none" stroke="#a855f7" stroke-width="2" d="M472.27,-315.12C564.02,-379.53 824.87,-546.11 1069,-546.11 1069,-546.11 1069,-546.11 2343,-546.11 2520.26,-546.11 2724.62,-546.85 2856.61,-547.43"/>
<polygon fill="#a855f7" stroke="#a855f7" stroke-width="2" points="2864.8,-547.47 2856.79,-551.04 2860.8,-547.95 2856.8,-547.94 2856.8,-547.44 2856.8,-546.94 2860.8,-546.95 2856.82,-543.84 2864.8,-547.47 2864.8,-547.47"/>
</g>
<!-- label3 -->
<g id="node4" class="node">
<title>label3</title>
<path fill="#ffffff" stroke="#ef4444" stroke-width="2.1" d="M1183,-315.11C1183,-315.11 957,-315.11 957,-315.11 951,-315.11 945,-309.11 945,-303.11 945,-303.11 945,-277.11 945,-277.11 945,-271.11 951,-265.11 957,-265.11 957,-265.11 1183,-265.11 1183,-265.11 1189,-265.11 1195,-271.11 1195,-277.11 1195,-277.11 1195,-303.11 1195,-303.11 1195,-309.11 1189,-315.11 1183,-315.11"/>
<polygon fill="#eef4ff" stroke="transparent" points="953,-290.11 953,-311.11 1187,-311.11 1187,-290.11 953,-290.11"/>
<polygon fill="none" stroke="#d0d5dd" points="953,-290.11 953,-311.11 1187,-311.11 1187,-290.11 953,-290.11"/>
<text text-anchor="start" x="1003" y="-299.11" font-family="monospace" font-weight="bold" font-size="10.00">addr:</text>
<text text-anchor="start" x="1034" y="-299.11" font-family="monospace" font-size="10.00"> 0x0x50600000026c</text>
<polygon fill="#eef4ff" stroke="transparent" points="953,-269.11 953,-290.11 1007,-290.11 1007,-269.11 953,-269.11"/>
<polygon fill="none" stroke="#d0d5dd" points="953,-269.11 953,-290.11 1007,-290.11 1007,-269.11 953,-269.11"/>
<text text-anchor="start" x="958" y="-278.11" font-family="monospace" font-weight="bold" font-size="10.00">phys:</text>
<text text-anchor="start" x="989" y="-278.11" font-family="monospace" font-size="10.00"> 3</text>
<polygon fill="#eef4ff" stroke="transparent" points="1007,-269.11 1007,-290.11 1061,-290.11 1061,-269.11 1007,-269.11"/>
<polygon fill="none" stroke="#d0d5dd" points="1007,-269.11 1007,-290.11 1061,-290.11 1061,-269.11 1007,-269.11"/>
<text text-anchor="start" x="1012" y="-278.11" font-family="monospace" font-weight="bold" font-size="10.00">virt:</text>
<text text-anchor="start" x="1043" y="-278.11" font-family="monospace" font-size="10.00"> 0</text>
<polygon fill="#eef4ff" stroke="transparent" points="1061,-269.11 1061,-290.11 1115,-290.11 1115,-269.11 1061,-269.11"/>
<polygon fill="none" stroke="#d0d5dd" points="1061,-269.11 1061,-290.11 1115,-290.11 1115,-269.11 1061,-269.11"/>
<text text-anchor="start" x="1066" y="-278.11" font-family="monospace" font-weight="bold" font-size="10.00">val:</text>
<text text-anchor="start" x="1091" y="-278.11" font-family="monospace" font-size="10.00"> 30</text>
<polygon fill="#eef4ff" stroke="transparent" points="1115,-269.11 1115,-290.11 1151,-290.11 1151,-269.11 1115,-269.11"/>
<polygon fill="none" stroke="#d0d5dd" points="1115,-269.11 1115,-290.11 1151,-290.11 1151,-269.11 1115,-269.11"/>
<text text-anchor="start" x="1120" y="-278.11" font-family="monospace" font-weight="bold" font-size="10.00">n:</text>
<text text-anchor="start" x="1133" y="-278.11" font-family="monospace" font-size="10.00"> 7</text>
<polygon fill="#eef4ff" stroke="transparent" points="1151,-269.11 1151,-290.11 1187,-290.11 1187,-269.11 1151,-269.11"/>
<polygon fill="none" stroke="#d0d5dd" points="1151,-269.11 1151,-290.11 1187,-290.11 1187,-269.11 1151,-269.11"/>
<text text-anchor="start" x="1156" y="-278.11" font-family="monospace" font-weight="bold" font-size="10.00">p:</text>
<text text-anchor="start" x="1169" y="-278.11" font-family="monospace" font-size="10.00"> 2</text>
</g>
<!-- label2&#45;&gt;label3 -->
<g id="edge3" class="edge">
<title>label2&#45;&gt;label3</title>
<path fill="none" stroke="#dce6e3" stroke-width="1.5" stroke-dasharray="5,2" d="M822,-265.1C875.18,-258.45 949.6,-258.44 1002.82,-265.08"/>
</g>
<!-- label2&#45;&gt;label3 -->
<g id="edge17" class="edge">
<title>label2&#45;&gt;label3</title>
<path fill="none" stroke="#22c55e" stroke-width="1.9" d="M880.16,-290.11C898.82,-290.11 918.13,-290.11 936.96,-290.11"/>
<polygon fill="#22c55e" stroke="#22c55e" stroke-width="1.9" points="944.99,-290.11 936.99,-293.71 940.99,-290.56 936.99,-290.56 936.99,-290.11 936.99,-289.66 940.99,-289.66 936.99,-286.51 944.99,-290.11 944.99,-290.11"/>
</g>
<!-- label2&#45;&gt;label6 -->
<g id="edge27" class="edge">
<title>label2&#45;&gt;label6</title>
<path fill="none" stroke="#ef4444" stroke-width="1.9" d="M805.58,-265.07C911.06,-227.04 1165.9,-164.11 1384,-164.11 1384,-164.11 1384,-164.11 2997,-164.11 3218.13,-164.11 3476.04,-224.24 3589.87,-262.47"/>
<polygon fill="#ef4444" stroke="#ef4444" stroke-width="1.9" points="3597.49,-265.07 3588.75,-265.89 3593.55,-264.2 3589.77,-262.91 3589.91,-262.48 3590.06,-262.06 3593.85,-263.35 3591.08,-259.08 3597.49,-265.07 3597.49,-265.07"/>
</g>
<!-- label3&#45;&gt;label2 -->
<g id="edge28" class="edge">
<title>label3&#45;&gt;label2</title>
<path fill="none" stroke="#ef4444" stroke-width="1.9" d="M1002.82,-315.13C952.3,-321.43 882.68,-321.75 830.26,-316.07"/>
<polygon fill="#ef4444" stroke="#ef4444" stroke-width="1.9" points="822,-315.11 830.36,-312.46 826.02,-315.12 830,-315.59 829.94,-316.03 829.89,-316.48 825.92,-316.02 829.53,-319.61 822,-315.11 822,-315.11"/>
</g>
<!-- label4 -->
<g id="node5" class="node">
<title>label4</title>
<path fill="#ffffff" stroke="#ef4444" stroke-width="2.1" d="M3112,-315.11C3112,-315.11 2880,-315.11 2880,-315.11 2874,-315.11 2868,-309.11 2868,-303.11 2868,-303.11 2868,-277.11 2868,-277.11 2868,-271.11 2874,-265.11 2880,-265.11 2880,-265.11 3112,-265.11 3112,-265.11 3118,-265.11 3124,-271.11 3124,-277.11 3124,-277.11 3124,-303.11 3124,-303.11 3124,-309.11 3118,-315.11 3112,-315.11"/>
<polygon fill="#eef4ff" stroke="transparent" points="2876,-290.11 2876,-311.11 3116,-311.11 3116,-290.11 2876,-290.11"/>
<polygon fill="none" stroke="#d0d5dd" points="2876,-290.11 2876,-311.11 3116,-311.11 3116,-290.11 2876,-290.11"/>
<text text-anchor="start" x="2929" y="-299.11" font-family="monospace" font-weight="bold" font-size="10.00">addr:</text>
<text text-anchor="start" x="2960" y="-299.11" font-family="monospace" font-size="10.00"> 0x0x506000000270</text>
<polygon fill="#eef4ff" stroke="transparent" points="2876,-269.11 2876,-290.11 2930,-290.11 2930,-269.11 2876,-269.11"/>
<polygon fill="none" stroke="#d0d5dd" points="2876,-269.11 2876,-290.11 2930,-290.11 2930,-269.11 2876,-269.11"/>
<text text-anchor="start" x="2881" y="-278.11" font-family="monospace" font-weight="bold" font-size="10.00">phys:</text>
<text text-anchor="start" x="2912" y="-278.11" font-family="monospace" font-size="10.00"> 4</text>
<polygon fill="#eef4ff" stroke="transparent" points="2930,-269.11 2930,-290.11 2984,-290.11 2984,-269.11 2930,-269.11"/>
<polygon fill="none" stroke="#d0d5dd" points="2930,-269.11 2930,-290.11 2984,-290.11 2984,-269.11 2930,-269.11"/>
<text text-anchor="start" x="2935" y="-278.11" font-family="monospace" font-weight="bold" font-size="10.00">virt:</text>
<text text-anchor="start" x="2966" y="-278.11" font-family="monospace" font-size="10.00"> 0</text>
<polygon fill="#eef4ff" stroke="transparent" points="2984,-269.11 2984,-290.11 3038,-290.11 3038,-269.11 2984,-269.11"/>
<polygon fill="none" stroke="#d0d5dd" points="2984,-269.11 2984,-290.11 3038,-290.11 3038,-269.11 2984,-269.11"/>
<text text-anchor="start" x="2989" y="-278.11" font-family="monospace" font-weight="bold" font-size="10.00">val:</text>
<text text-anchor="start" x="3014" y="-278.11" font-family="monospace" font-size="10.00"> 40</text>
<polygon fill="#eef4ff" stroke="transparent" points="3038,-269.11 3038,-290.11 3074,-290.11 3074,-269.11 3038,-269.11"/>
<polygon fill="none" stroke="#d0d5dd" points="3038,-269.11 3038,-290.11 3074,-290.11 3074,-269.11 3038,-269.11"/>
<text text-anchor="start" x="3043" y="-278.11" font-family="monospace" font-weight="bold" font-size="10.00">n:</text>
<text text-anchor="start" x="3056" y="-278.11" font-family="monospace" font-size="10.00"> 5</text>
<polygon fill="#eef4ff" stroke="transparent" points="3074,-269.11 3074,-290.11 3116,-290.11 3116,-269.11 3074,-269.11"/>
<polygon fill="none" stroke="#d0d5dd" points="3074,-269.11 3074,-290.11 3116,-290.11 3116,-269.11 3074,-269.11"/>
<text text-anchor="start" x="3079" y="-278.11" font-family="monospace" font-weight="bold" font-size="10.00">p:</text>
<text text-anchor="start" x="3092" y="-278.11" font-family="monospace" font-size="10.00"> 11</text>
</g>
<!-- label3&#45;&gt;label4 -->
<g id="edge4" class="edge">
<title>label3&#45;&gt;label4</title>
<path fill="none" stroke="#dce6e3" stroke-width="1.5" stroke-dasharray="5,2" d="M1195.22,-290.11C1321.91,-290.11 1524.15,-290.11 1699,-290.11 1699,-290.11 1699,-290.11 2343,-290.11 2525.38,-290.11 2736.47,-290.11 2867.87,-290.11"/>
</g>
<!-- label7 -->
<g id="node8" class="node">
<title>label7</title>
<path fill="#ffffff" stroke="#ef4444" stroke-width="2.1" d="M1498,-401.11C1498,-401.11 1272,-401.11 1272,-401.11 1266,-401.11 1260,-395.11 1260,-389.11 1260,-389.11 1260,-363.11 1260,-363.11 1260,-357.11 1266,-351.11 1272,-351.11 1272,-351.11 1498,-351.11 1498,-351.11 1504,-351.11 1510,-357.11 1510,-363.11 1510,-363.11 1510,-389.11 1510,-389.11 1510,-395.11 1504,-401.11 1498,-401.11"/>
<polygon fill="#eef4ff" stroke="transparent" points="1268,-376.11 1268,-397.11 1502,-397.11 1502,-376.11 1268,-376.11"/>
<polygon fill="none" stroke="#d0d5dd" points="1268,-376.11 1268,-397.11 1502,-397.11 1502,-376.11 1268,-376.11"/>
<text text-anchor="start" x="1318" y="-385.11" font-family="monospace" font-weight="bold" font-size="10.00">addr:</text>
<text text-anchor="start" x="1349" y="-385.11" font-family="monospace" font-size="10.00"> 0x0x50600000027c</text>
<polygon fill="#eef4ff" stroke="transparent" points="1268,-355.11 1268,-376.11 1322,-376.11 1322,-355.11 1268,-355.11"/>
<polygon fill="none" stroke="#d0d5dd" points="1268,-355.11 1268,-376.11 1322,-376.11 1322,-355.11 1268,-355.11"/>
<text text-anchor="start" x="1273" y="-364.11" font-family="monospace" font-weight="bold" font-size="10.00">phys:</text>
<text text-anchor="start" x="1304" y="-364.11" font-family="monospace" font-size="10.00"> 7</text>
<polygon fill="#eef4ff" stroke="transparent" points="1322,-355.11 1322,-376.11 1376,-376.11 1376,-355.11 1322,-355.11"/>
<polygon fill="none" stroke="#d0d5dd" points="1322,-355.11 1322,-376.11 1376,-376.11 1376,-355.11 1322,-355.11"/>
<text text-anchor="start" x="1327" y="-364.11" font-family="monospace" font-weight="bold" font-size="10.00">virt:</text>
<text text-anchor="start" x="1358" y="-364.11" font-family="monospace" font-size="10.00"> 0</text>
<polygon fill="#eef4ff" stroke="transparent" points="1376,-355.11 1376,-376.11 1430,-376.11 1430,-355.11 1376,-355.11"/>
<polygon fill="none" stroke="#d0d5dd" points="1376,-355.11 1376,-376.11 1430,-376.11 1430,-355.11 1376,-355.11"/>
<text text-anchor="start" x="1381" y="-364.11" font-family="monospace" font-weight="bold" font-size="10.00">val:</text>
<text text-anchor="start" x="1406" y="-364.11" font-family="monospace" font-size="10.00"> 35</text>
<polygon fill="#eef4ff" stroke="transparent" points="1430,-355.11 1430,-376.11 1466,-376.11 1466,-355.11 1430,-355.11"/>
<polygon fill="none" stroke="#d0d5dd" points="1430,-355.11 1430,-376.11 1466,-376.11 1466,-355.11 1430,-355.11"/>
<text text-anchor="start" x="1435" y="-364.11" font-family="monospace" font-weight="bold" font-size="10.00">n:</text>
<text text-anchor="start" x="1448" y="-364.11" font-family="monospace" font-size="10.00"> 8</text>
<polygon fill="#eef4ff" stroke="transparent" points="1466,-355.11 1466,-376.11 1502,-376.11 1502,-355.11 1466,-355.11"/>
<polygon fill="none" stroke="#d0d5dd" points="1466,-355.11 1466,-376.11 1502,-376.11 1502,-355.11 1466,-355.11"/>
<text text-anchor="start" x="1471" y="-364.11" font-family="monospace" font-weight="bold" font-size="10.00">p:</text>
<text text-anchor="start" x="1484" y="-364.11" font-family="monospace" font-size="10.00"> 3</text>
</g>
<!-- label3&#45;&gt;label7 -->
<g id="edge18" class="edge">
<title>label3&#45;&gt;label7</title>
<path fill="none" stroke="#22c55e" stroke-width="1.9" d="M1195.16,-309.51C1240.41,-321.12 1289.44,-335.51 1326.19,-348.27"/>
<polygon fill="#22c55e" stroke="#22c55e" stroke-width="1.9" points="1333.84,-350.97 1325.1,-351.71 1329.92,-350.06 1326.15,-348.73 1326.3,-348.31 1326.45,-347.89 1330.22,-349.22 1327.5,-344.91 1333.84,-350.97 1333.84,-350.97"/>
</g>
<!-- label4&#45;&gt;label5 -->
<g id="edge5" class="edge">
<title>label4&#45;&gt;label5</title>
<path fill="none" stroke="#dce6e3" stroke-width="1.5" stroke-dasharray="5,2" d="M3065.53,-265.1C3120.75,-258.45 3198.02,-258.44 3253.29,-265.08"/>
</g>
<!-- label4&#45;&gt;label5 -->
<g id="edge19" class="edge">
<title>label4&#45;&gt;label5</title>
<path fill="none" stroke="#22c55e" stroke-width="1.9" d="M3124.05,-290.11C3145.6,-290.11 3168.02,-290.11 3189.7,-290.11"/>
<polygon fill="#22c55e" stroke="#22c55e" stroke-width="1.9" points="3197.97,-290.11 3189.97,-293.71 3193.97,-290.56 3189.97,-290.56 3189.97,-290.11 3189.97,-289.66 3193.97,-289.66 3189.97,-286.51 3197.97,-290.11 3197.97,-290.11"/>
</g>
<!-- label11 -->
<g id="node12" class="node">
<title>label11</title>
<path fill="#ffffff" stroke="#ef4444" stroke-width="2.1" d="M2788,-401.11C2788,-401.11 2550,-401.11 2550,-401.11 2544,-401.11 2538,-395.11 2538,-389.11 2538,-389.11 2538,-363.11 2538,-363.11 2538,-357.11 2544,-351.11 2550,-351.11 2550,-351.11 2788,-351.11 2788,-351.11 2794,-351.11 2800,-357.11 2800,-363.11 2800,-363.11 2800,-389.11 2800,-389.11 2800,-395.11 2794,-401.11 2788,-401.11"/>
<polygon fill="#eef4ff" stroke="transparent" points="2546,-376.11 2546,-397.11 2792,-397.11 2792,-376.11 2546,-376.11"/>
<polygon fill="none" stroke="#d0d5dd" points="2546,-376.11 2546,-397.11 2792,-397.11 2792,-376.11 2546,-376.11"/>
<text text-anchor="start" x="2602" y="-385.11" font-family="monospace" font-weight="bold" font-size="10.00">addr:</text>
<text text-anchor="start" x="2633" y="-385.11" font-family="monospace" font-size="10.00"> 0x0x50600000028c</text>
<polygon fill="#eef4ff" stroke="transparent" points="2546,-355.11 2546,-376.11 2606,-376.11 2606,-355.11 2546,-355.11"/>
<polygon fill="none" stroke="#d0d5dd" points="2546,-355.11 2546,-376.11 2606,-376.11 2606,-355.11 2546,-355.11"/>
<text text-anchor="start" x="2551" y="-364.11" font-family="monospace" font-weight="bold" font-size="10.00">phys:</text>
<text text-anchor="start" x="2582" y="-364.11" font-family="monospace" font-size="10.00"> 11</text>
<polygon fill="#eef4ff" stroke="transparent" points="2606,-355.11 2606,-376.11 2660,-376.11 2660,-355.11 2606,-355.11"/>
<polygon fill="none" stroke="#d0d5dd" points="2606,-355.11 2606,-376.11 2660,-376.11 2660,-355.11 2606,-355.11"/>
<text text-anchor="start" x="2611" y="-364.11" font-family="monospace" font-weight="bold" font-size="10.00">virt:</text>
<text text-anchor="start" x="2642" y="-364.11" font-family="monospace" font-size="10.00"> 0</text>
<polygon fill="#eef4ff" stroke="transparent" points="2660,-355.11 2660,-376.11 2714,-376.11 2714,-355.11 2660,-355.11"/>
<polygon fill="none" stroke="#d0d5dd" points="2660,-355.11 2660,-376.11 2714,-376.11 2714,-355.11 2660,-355.11"/>
<text text-anchor="start" x="2665" y="-364.11" font-family="monospace" font-weight="bold" font-size="10.00">val:</text>
<text text-anchor="start" x="2690" y="-364.11" font-family="monospace" font-size="10.00"> 39</text>
<polygon fill="#eef4ff" stroke="transparent" points="2714,-355.11 2714,-376.11 2750,-376.11 2750,-355.11 2714,-355.11"/>
<polygon fill="none" stroke="#d0d5dd" points="2714,-355.11 2714,-376.11 2750,-376.11 2750,-355.11 2714,-355.11"/>
<text text-anchor="start" x="2719" y="-364.11" font-family="monospace" font-weight="bold" font-size="10.00">n:</text>
<text text-anchor="start" x="2732" y="-364.11" font-family="monospace" font-size="10.00"> 4</text>
<polygon fill="#eef4ff" stroke="transparent" points="2750,-355.11 2750,-376.11 2792,-376.11 2792,-355.11 2750,-355.11"/>
<polygon fill="none" stroke="#d0d5dd" points="2750,-355.11 2750,-376.11 2792,-376.11 2792,-355.11 2750,-355.11"/>
<text text-anchor="start" x="2755" y="-364.11" font-family="monospace" font-weight="bold" font-size="10.00">p:</text>
<text text-anchor="start" x="2768" y="-364.11" font-family="monospace" font-size="10.00"> 10</text>
</g>
<!-- label4&#45;&gt;label11 -->
<g id="edge29" class="edge">
<title>label4&#45;&gt;label11</title>
<path fill="none" stroke="#ef4444" stroke-width="1.9" d="M2942.99,-315.22C2906.53,-327.79 2855.97,-342.34 2808.26,-354.37"/>
<polygon fill="#ef4444" stroke="#ef4444" stroke-width="1.9" points="2800.32,-356.36 2807.2,-350.92 2804.09,-354.95 2807.97,-353.98 2808.08,-354.42 2808.19,-354.85 2804.31,-355.82 2808.95,-357.91 2800.32,-356.36 2800.32,-356.36"/>
</g>
<!-- label5&#45;&gt;label4 -->
<g id="edge30" class="edge">
<title>label5&#45;&gt;label4</title>
<path fill="none" stroke="#ef4444" stroke-width="1.9" d="M3253.29,-315.13C3200.72,-321.45 3128.24,-321.75 3073.77,-316.03"/>
<polygon fill="#ef4444" stroke="#ef4444" stroke-width="1.9" points="3065.53,-315.11 3073.88,-312.42 3069.55,-315.11 3073.53,-315.55 3073.48,-316 3073.43,-316.45 3069.45,-316 3073.07,-319.58 3065.53,-315.11 3065.53,-315.11"/>
</g>
<!-- label5&#45;&gt;label6 -->
<g id="edge6" class="edge">
<title>label5&#45;&gt;label6</title>
<path fill="none" stroke="#dce6e3" stroke-width="1.5" stroke-dasharray="5,2" d="M3448.26,-290.11C3473.35,-290.11 3499.72,-290.11 3524.81,-290.11"/>
</g>
<!-- label6&#45;&gt;label2 -->
<g id="edge20" class="edge">
<title>label6&#45;&gt;label2</title>
<path fill="none" stroke="#22c55e" stroke-width="1.9" d="M3524.98,-272.66C3394.53,-246.55 3182.78,-204.11 2997,-204.11 1384,-204.11 1384,-204.11 1384,-204.11 1210.72,-204.11 1014.24,-243.83 887.91,-270.05"/>
<polygon fill="#22c55e" stroke="#22c55e" stroke-width="1.9" points="880.07,-271.68 887.17,-266.53 883.89,-270.43 887.81,-269.62 887.9,-270.06 887.99,-270.5 884.08,-271.31 888.63,-273.58 880.07,-271.68 880.07,-271.68"/>
</g>
<!-- label6&#45;&gt;label7 -->
<g id="edge7" class="edge">
<title>label6&#45;&gt;label7</title>
<path fill="none" stroke="#dce6e3" stroke-width="1.5" stroke-dasharray="5,2" d="M3593.62,-315.12C3482.76,-362.82 3224.7,-462.11 2997,-462.11 2017,-462.11 2017,-462.11 2017,-462.11 1819.71,-462.11 1769.67,-453.14 1575,-421.11 1543.71,-415.96 1509.92,-408.52 1479.68,-401.17"/>
</g>
<!-- label7&#45;&gt;label3 -->
<g id="edge31" class="edge">
<title>label7&#45;&gt;label3</title>
<path fill="none" stroke="#ef4444" stroke-width="1.9" d="M1259.95,-356.73C1214.58,-345.09 1165.41,-330.65 1128.6,-317.87"/>
<polygon fill="#ef4444" stroke="#ef4444" stroke-width="1.9" points="1120.94,-315.16 1129.68,-314.43 1124.86,-316.07 1128.64,-317.4 1128.49,-317.83 1128.34,-318.25 1124.56,-316.92 1127.29,-321.22 1120.94,-315.16 1120.94,-315.16"/>
</g>
<!-- label8 -->
<g id="node9" class="node">
<title>label8</title>
<path fill="#ffffff" stroke="#ef4444" stroke-width="2.1" d="M1813,-401.11C1813,-401.11 1587,-401.11 1587,-401.11 1581,-401.11 1575,-395.11 1575,-389.11 1575,-389.11 1575,-363.11 1575,-363.11 1575,-357.11 1581,-351.11 1587,-351.11 1587,-351.11 1813,-351.11 1813,-351.11 1819,-351.11 1825,-357.11 1825,-363.11 1825,-363.11 1825,-389.11 1825,-389.11 1825,-395.11 1819,-401.11 1813,-401.11"/>
<polygon fill="#eef4ff" stroke="transparent" points="1583,-376.11 1583,-397.11 1817,-397.11 1817,-376.11 1583,-376.11"/>
<polygon fill="none" stroke="#d0d5dd" points="1583,-376.11 1583,-397.11 1817,-397.11 1817,-376.11 1583,-376.11"/>
<text text-anchor="start" x="1633" y="-385.11" font-family="monospace" font-weight="bold" font-size="10.00">addr:</text>
<text text-anchor="start" x="1664" y="-385.11" font-family="monospace" font-size="10.00"> 0x0x506000000280</text>
<polygon fill="#eef4ff" stroke="transparent" points="1583,-355.11 1583,-376.11 1637,-376.11 1637,-355.11 1583,-355.11"/>
<polygon fill="none" stroke="#d0d5dd" points="1583,-355.11 1583,-376.11 1637,-376.11 1637,-355.11 1583,-355.11"/>
<text text-anchor="start" x="1588" y="-364.11" font-family="monospace" font-weight="bold" font-size="10.00">phys:</text>
<text text-anchor="start" x="1619" y="-364.11" font-family="monospace" font-size="10.00"> 8</text>
<polygon fill="#eef4ff" stroke="transparent" points="1637,-355.11 1637,-376.11 1691,-376.11 1691,-355.11 1637,-355.11"/>
<polygon fill="none" stroke="#d0d5dd" points="1637,-355.11 1637,-376.11 1691,-376.11 1691,-355.11 1637,-355.11"/>
<text text-anchor="start" x="1642" y="-364.11" font-family="monospace" font-weight="bold" font-size="10.00">virt:</text>
<text text-anchor="start" x="1673" y="-364.11" font-family="monospace" font-size="10.00"> 0</text>
<polygon fill="#eef4ff" stroke="transparent" points="1691,-355.11 1691,-376.11 1745,-376.11 1745,-355.11 1691,-355.11"/>
<polygon fill="none" stroke="#d0d5dd" points="1691,-355.11 1691,-376.11 1745,-376.11 1745,-355.11 1691,-355.11"/>
<text text-anchor="start" x="1696" y="-364.11" font-family="monospace" font-weight="bold" font-size="10.00">val:</text>
<text text-anchor="start" x="1721" y="-364.11" font-family="monospace" font-size="10.00"> 36</text>
<polygon fill="#eef4ff" stroke="transparent" points="1745,-355.11 1745,-376.11 1781,-376.11 1781,-355.11 1745,-355.11"/>
<polygon fill="none" stroke="#d0d5dd" points="1745,-355.11 1745,-376.11 1781,-376.11 1781,-355.11 1745,-355.11"/>
<text text-anchor="start" x="1750" y="-364.11" font-family="monospace" font-weight="bold" font-size="10.00">n:</text>
<text text-anchor="start" x="1763" y="-364.11" font-family="monospace" font-size="10.00"> 9</text>
<polygon fill="#eef4ff" stroke="transparent" points="1781,-355.11 1781,-376.11 1817,-376.11 1817,-355.11 1781,-355.11"/>
<polygon fill="none" stroke="#d0d5dd" points="1781,-355.11 1781,-376.11 1817,-376.11 1817,-355.11 1781,-355.11"/>
<text text-anchor="start" x="1786" y="-364.11" font-family="monospace" font-weight="bold" font-size="10.00">p:</text>
<text text-anchor="start" x="1799" y="-364.11" font-family="monospace" font-size="10.00"> 7</text>
</g>
<!-- label7&#45;&gt;label8 -->
<g id="edge8" class="edge">
<title>label7&#45;&gt;label8</title>
<path fill="none" stroke="#dce6e3" stroke-width="1.5" stroke-dasharray="5,2" d="M1452,-351.1C1505.18,-344.45 1579.6,-344.44 1632.82,-351.08"/>
</g>
<!-- label7&#45;&gt;label8 -->
<g id="edge21" class="edge">
<title>label7&#45;&gt;label8</title>
<path fill="none" stroke="#22c55e" stroke-width="1.9" d="M1510.16,-376.11C1528.82,-376.11 1548.13,-376.11 1566.96,-376.11"/>
<polygon fill="#22c55e" stroke="#22c55e" stroke-width="1.9" points="1574.99,-376.11 1566.99,-379.71 1570.99,-376.56 1566.99,-376.56 1566.99,-376.11 1566.99,-375.66 1570.99,-375.66 1566.99,-372.51 1574.99,-376.11 1574.99,-376.11"/>
</g>
<!-- label8&#45;&gt;label7 -->
<g id="edge32" class="edge">
<title>label8&#45;&gt;label7</title>
<path fill="none" stroke="#ef4444" stroke-width="1.9" d="M1632.82,-401.13C1582.3,-407.43 1512.68,-407.75 1460.26,-402.07"/>
<polygon fill="#ef4444" stroke="#ef4444" stroke-width="1.9" points="1452,-401.11 1460.36,-398.46 1456.02,-401.12 1460,-401.59 1459.94,-402.03 1459.89,-402.48 1455.92,-402.02 1459.53,-405.61 1452,-401.11 1452,-401.11"/>
</g>
<!-- label9 -->
<g id="node10" class="node">
<title>label9</title>
<path fill="#ffffff" stroke="#ef4444" stroke-width="2.1" d="M2134,-401.11C2134,-401.11 1902,-401.11 1902,-401.11 1896,-401.11 1890,-395.11 1890,-389.11 1890,-389.11 1890,-363.11 1890,-363.11 1890,-357.11 1896,-351.11 1902,-351.11 1902,-351.11 2134,-351.11 2134,-351.11 2140,-351.11 2146,-357.11 2146,-363.11 2146,-363.11 2146,-389.11 2146,-389.11 2146,-395.11 2140,-401.11 2134,-401.11"/>
<polygon fill="#eef4ff" stroke="transparent" points="1898,-376.11 1898,-397.11 2138,-397.11 2138,-376.11 1898,-376.11"/>
<polygon fill="none" stroke="#d0d5dd" points="1898,-376.11 1898,-397.11 2138,-397.11 2138,-376.11 1898,-376.11"/>
<text text-anchor="start" x="1951" y="-385.11" font-family="monospace" font-weight="bold" font-size="10.00">addr:</text>
<text text-anchor="start" x="1982" y="-385.11" font-family="monospace" font-size="10.00"> 0x0x506000000284</text>
<polygon fill="#eef4ff" stroke="transparent" points="1898,-355.11 1898,-376.11 1952,-376.11 1952,-355.11 1898,-355.11"/>
<polygon fill="none" stroke="#d0d5dd" points="1898,-355.11 1898,-376.11 1952,-376.11 1952,-355.11 1898,-355.11"/>
<text text-anchor="start" x="1903" y="-364.11" font-family="monospace" font-weight="bold" font-size="10.00">phys:</text>
<text text-anchor="start" x="1934" y="-364.11" font-family="monospace" font-size="10.00"> 9</text>
<polygon fill="#eef4ff" stroke="transparent" points="1952,-355.11 1952,-376.11 2006,-376.11 2006,-355.11 1952,-355.11"/>
<polygon fill="none" stroke="#d0d5dd" points="1952,-355.11 1952,-376.11 2006,-376.11 2006,-355.11 1952,-355.11"/>
<text text-anchor="start" x="1957" y="-364.11" font-family="monospace" font-weight="bold" font-size="10.00">virt:</text>
<text text-anchor="start" x="1988" y="-364.11" font-family="monospace" font-size="10.00"> 0</text>
<polygon fill="#eef4ff" stroke="transparent" points="2006,-355.11 2006,-376.11 2060,-376.11 2060,-355.11 2006,-355.11"/>
<polygon fill="none" stroke="#d0d5dd" points="2006,-355.11 2006,-376.11 2060,-376.11 2060,-355.11 2006,-355.11"/>
<text text-anchor="start" x="2011" y="-364.11" font-family="monospace" font-weight="bold" font-size="10.00">val:</text>
<text text-anchor="start" x="2036" y="-364.11" font-family="monospace" font-size="10.00"> 37</text>
<polygon fill="#eef4ff" stroke="transparent" points="2060,-355.11 2060,-376.11 2102,-376.11 2102,-355.11 2060,-355.11"/>
<polygon fill="none" stroke="#d0d5dd" points="2060,-355.11 2060,-376.11 2102,-376.11 2102,-355.11 2060,-355.11"/>
<text text-anchor="start" x="2065" y="-364.11" font-family="monospace" font-weight="bold" font-size="10.00">n:</text>
<text text-anchor="start" x="2078" y="-364.11" font-family="monospace" font-size="10.00"> 10</text>
<polygon fill="#eef4ff" stroke="transparent" points="2102,-355.11 2102,-376.11 2138,-376.11 2138,-355.11 2102,-355.11"/>
<polygon fill="none" stroke="#d0d5dd" points="2102,-355.11 2102,-376.11 2138,-376.11 2138,-355.11 2102,-355.11"/>
<text text-anchor="start" x="2107" y="-364.11" font-family="monospace" font-weight="bold" font-size="10.00">p:</text>
<text text-anchor="start" x="2120" y="-364.11" font-family="monospace" font-size="10.00"> 8</text>
</g>
<!-- label8&#45;&gt;label9 -->
<g id="edge9" class="edge">
<title>label8&#45;&gt;label9</title>
<path fill="none" stroke="#dce6e3" stroke-width="1.5" stroke-dasharray="5,2" d="M1767.63,-351.1C1821.32,-344.45 1896.45,-344.44 1950.19,-351.08"/>
</g>
<!-- label8&#45;&gt;label9 -->
<g id="edge22" class="edge">
<title>label8&#45;&gt;label9</title>
<path fill="none" stroke="#22c55e" stroke-width="1.9" d="M1825.44,-376.11C1843.87,-376.11 1862.94,-376.11 1881.58,-376.11"/>
<polygon fill="#22c55e" stroke="#22c55e" stroke-width="1.9" points="1889.82,-376.11 1881.82,-379.71 1885.82,-376.56 1881.82,-376.56 1881.82,-376.11 1881.82,-375.66 1885.82,-375.66 1881.82,-372.51 1889.82,-376.11 1889.82,-376.11"/>
</g>
<!-- label9&#45;&gt;label8 -->
<g id="edge33" class="edge">
<title>label9&#45;&gt;label8</title>
<path fill="none" stroke="#ef4444" stroke-width="1.9" d="M1950.19,-401.13C1899.08,-407.45 1828.6,-407.75 1775.64,-402.03"/>
<polygon fill="#ef4444" stroke="#ef4444" stroke-width="1.9" points="1767.63,-401.11 1775.99,-398.45 1771.65,-401.12 1775.63,-401.58 1775.58,-402.03 1775.52,-402.47 1771.55,-402.01 1775.16,-405.6 1767.63,-401.11 1767.63,-401.11"/>
</g>
<!-- label10 -->
<g id="node11" class="node">
<title>label10</title>
<path fill="#ffffff" stroke="#ef4444" stroke-width="2.1" d="M2461,-401.11C2461,-401.11 2223,-401.11 2223,-401.11 2217,-401.11 2211,-395.11 2211,-389.11 2211,-389.11 2211,-363.11 2211,-363.11 2211,-357.11 2217,-351.11 2223,-351.11 2223,-351.11 2461,-351.11 2461,-351.11 2467,-351.11 2473,-357.11 2473,-363.11 2473,-363.11 2473,-389.11 2473,-389.11 2473,-395.11 2467,-401.11 2461,-401.11"/>
<polygon fill="#eef4ff" stroke="transparent" points="2219,-376.11 2219,-397.11 2465,-397.11 2465,-376.11 2219,-376.11"/>
<polygon fill="none" stroke="#d0d5dd" points="2219,-376.11 2219,-397.11 2465,-397.11 2465,-376.11 2219,-376.11"/>
<text text-anchor="start" x="2275" y="-385.11" font-family="monospace" font-weight="bold" font-size="10.00">addr:</text>
<text text-anchor="start" x="2306" y="-385.11" font-family="monospace" font-size="10.00"> 0x0x506000000288</text>
<polygon fill="#eef4ff" stroke="transparent" points="2219,-355.11 2219,-376.11 2279,-376.11 2279,-355.11 2219,-355.11"/>
<polygon fill="none" stroke="#d0d5dd" points="2219,-355.11 2219,-376.11 2279,-376.11 2279,-355.11 2219,-355.11"/>
<text text-anchor="start" x="2224" y="-364.11" font-family="monospace" font-weight="bold" font-size="10.00">phys:</text>
<text text-anchor="start" x="2255" y="-364.11" font-family="monospace" font-size="10.00"> 10</text>
<polygon fill="#eef4ff" stroke="transparent" points="2279,-355.11 2279,-376.11 2333,-376.11 2333,-355.11 2279,-355.11"/>
<polygon fill="none" stroke="#d0d5dd" points="2279,-355.11 2279,-376.11 2333,-376.11 2333,-355.11 2279,-355.11"/>
<text text-anchor="start" x="2284" y="-364.11" font-family="monospace" font-weight="bold" font-size="10.00">virt:</text>
<text text-anchor="start" x="2315" y="-364.11" font-family="monospace" font-size="10.00"> 0</text>
<polygon fill="#eef4ff" stroke="transparent" points="2333,-355.11 2333,-376.11 2387,-376.11 2387,-355.11 2333,-355.11"/>
<polygon fill="none" stroke="#d0d5dd" points="2333,-355.11 2333,-376.11 2387,-376.11 2387,-355.11 2333,-355.11"/>
<text text-anchor="start" x="2338" y="-364.11" font-family="monospace" font-weight="bold" font-size="10.00">val:</text>
<text text-anchor="start" x="2363" y="-364.11" font-family="monospace" font-size="10.00"> 38</text>
<polygon fill="#eef4ff" stroke="transparent" points="2387,-355.11 2387,-376.11 2429,-376.11 2429,-355.11 2387,-355.11"/>
<polygon fill="none" stroke="#d0d5dd" points="2387,-355.11 2387,-376.11 2429,-376.11 2429,-355.11 2387,-355.11"/>
<text text-anchor="start" x="2392" y="-364.11" font-family="monospace" font-weight="bold" font-size="10.00">n:</text>
<text text-anchor="start" x="2405" y="-364.11" font-family="monospace" font-size="10.00"> 11</text>
<polygon fill="#eef4ff" stroke="transparent" points="2429,-355.11 2429,-376.11 2465,-376.11 2465,-355.11 2429,-355.11"/>
<polygon fill="none" stroke="#d0d5dd" points="2429,-355.11 2429,-376.11 2465,-376.11 2465,-355.11 2429,-355.11"/>
<text text-anchor="start" x="2434" y="-364.11" font-family="monospace" font-weight="bold" font-size="10.00">p:</text>
<text text-anchor="start" x="2447" y="-364.11" font-family="monospace" font-size="10.00"> 9</text>
</g>
<!-- label9&#45;&gt;label10 -->
<g id="edge10" class="edge">
<title>label9&#45;&gt;label10</title>
<path fill="none" stroke="#dce6e3" stroke-width="1.5" stroke-dasharray="5,2" d="M2086.89,-351.1C2141.6,-344.45 2218.16,-344.44 2272.92,-351.08"/>
</g>
<!-- label9&#45;&gt;label10 -->
<g id="edge23" class="edge">
<title>label9&#45;&gt;label10</title>
<path fill="none" stroke="#22c55e" stroke-width="1.9" d="M2146.26,-376.11C2164.87,-376.11 2184.12,-376.11 2202.93,-376.11"/>
<polygon fill="#22c55e" stroke="#22c55e" stroke-width="1.9" points="2210.97,-376.11 2202.97,-379.71 2206.97,-376.56 2202.97,-376.56 2202.97,-376.11 2202.97,-375.66 2206.97,-375.66 2202.97,-372.51 2210.97,-376.11 2210.97,-376.11"/>
</g>
<!-- label10&#45;&gt;label9 -->
<g id="edge34" class="edge">
<title>label10&#45;&gt;label9</title>
<path fill="none" stroke="#ef4444" stroke-width="1.9" d="M2272.92,-401.13C2220.84,-407.45 2149.03,-407.75 2095.06,-402.03"/>
<polygon fill="#ef4444" stroke="#ef4444" stroke-width="1.9" points="2086.89,-401.11 2095.25,-398.43 2090.92,-401.11 2094.89,-401.56 2094.84,-402.01 2094.79,-402.46 2090.82,-402.01 2094.44,-405.59 2086.89,-401.11 2086.89,-401.11"/>
</g>
<!-- label10&#45;&gt;label11 -->
<g id="edge11" class="edge">
<title>label10&#45;&gt;label11</title>
<path fill="none" stroke="#dce6e3" stroke-width="1.5" stroke-dasharray="5,2" d="M2411.53,-351.1C2466.75,-344.45 2544.02,-344.44 2599.29,-351.08"/>
</g>
<!-- label10&#45;&gt;label11 -->
<g id="edge24" class="edge">
<title>label10&#45;&gt;label11</title>
<path fill="none" stroke="#22c55e" stroke-width="1.9" d="M2473.32,-376.11C2491.94,-376.11 2511.14,-376.11 2529.91,-376.11"/>
<polygon fill="#22c55e" stroke="#22c55e" stroke-width="1.9" points="2537.92,-376.11 2529.92,-379.71 2533.92,-376.56 2529.92,-376.56 2529.92,-376.11 2529.92,-375.66 2533.92,-375.66 2529.92,-372.51 2537.92,-376.11 2537.92,-376.11"/>
</g>
<!-- label11&#45;&gt;label4 -->
<g id="edge25" class="edge">
<title>label11&#45;&gt;label4</title>
<path fill="none" stroke="#22c55e" stroke-width="1.9" d="M2721.86,-351.05C2759.2,-338.16 2811.38,-323.2 2860.14,-310.99"/>
<polygon fill="#22c55e" stroke="#22c55e" stroke-width="1.9" points="2867.93,-309.05 2861.04,-314.47 2864.16,-310.45 2860.28,-311.42 2860.17,-310.98 2860.06,-310.54 2863.94,-309.58 2859.3,-307.48 2867.93,-309.05 2867.93,-309.05"/>
</g>
<!-- label11&#45;&gt;label10 -->
<g id="edge35" class="edge">
<title>label11&#45;&gt;label10</title>
<path fill="none" stroke="#ef4444" stroke-width="1.9" d="M2599.29,-401.13C2546.72,-407.45 2474.24,-407.75 2419.77,-402.03"/>
<polygon fill="#ef4444" stroke="#ef4444" stroke-width="1.9" points="2411.53,-401.11 2419.88,-398.42 2415.55,-401.11 2419.53,-401.55 2419.48,-402 2419.43,-402.45 2415.45,-402 2419.07,-405.58 2411.53,-401.11 2411.53,-401.11"/>
</g>
<!-- label11&#45;&gt;label12 -->
<g id="edge12" class="edge">
<title>label11&#45;&gt;label12</title>
<path fill="none" stroke="#dce6e3" stroke-width="1.5" stroke-dasharray="5,2" d="M2717.26,-401.12C2778.88,-433.73 2886.04,-490.44 2947.69,-523.06"/>
</g>
<!-- label13 -->
<g id="node14" class="node">
<title>label13</title>
<path fill="#ffffff" stroke="#7f56d9" stroke-width="2.1" d="M3442,-573.11C3442,-573.11 3204,-573.11 3204,-573.11 3198,-573.11 3192,-567.11 3192,-561.11 3192,-561.11 3192,-535.11 3192,-535.11 3192,-529.11 3198,-523.11 3204,-523.11 3204,-523.11 3442,-523.11 3442,-523.11 3448,-523.11 3454,-529.11 3454,-535.11 3454,-535.11 3454,-561.11 3454,-561.11 3454,-567.11 3448,-573.11 3442,-573.11"/>
<polygon fill="#eef4ff" stroke="transparent" points="3200,-548.11 3200,-569.11 3446,-569.11 3446,-548.11 3200,-548.11"/>
<polygon fill="none" stroke="#d0d5dd" points="3200,-548.11 3200,-569.11 3446,-569.11 3446,-548.11 3200,-548.11"/>
<text text-anchor="start" x="3256" y="-557.11" font-family="monospace" font-weight="bold" font-size="10.00">addr:</text>
<text text-anchor="start" x="3287" y="-557.11" font-family="monospace" font-size="10.00"> 0x0x506000000294</text>
<polygon fill="#eef4ff" stroke="transparent" points="3200,-527.11 3200,-548.11 3260,-548.11 3260,-527.11 3200,-527.11"/>
<polygon fill="none" stroke="#d0d5dd" points="3200,-527.11 3200,-548.11 3260,-548.11 3260,-527.11 3200,-527.11"/>
<text text-anchor="start" x="3205" y="-536.11" font-family="monospace" font-weight="bold" font-size="10.00">phys:</text>
<text text-anchor="start" x="3236" y="-536.11" font-family="monospace" font-size="10.00"> 13</text>
<polygon fill="#eef4ff" stroke="transparent" points="3260,-527.11 3260,-548.11 3314,-548.11 3314,-527.11 3260,-527.11"/>
<polygon fill="none" stroke="#d0d5dd" points="3260,-527.11 3260,-548.11 3314,-548.11 3314,-527.11 3260,-527.11"/>
<text text-anchor="start" x="3265" y="-536.11" font-family="monospace" font-weight="bold" font-size="10.00">virt:</text>
<text text-anchor="start" x="3296" y="-536.11" font-family="monospace" font-size="10.00"> 0</text>
<polygon fill="#eef4ff" stroke="transparent" points="3314,-527.11 3314,-548.11 3362,-548.11 3362,-527.11 3314,-527.11"/>
<polygon fill="none" stroke="#d0d5dd" points="3314,-527.11 3314,-548.11 3362,-548.11 3362,-527.11 3314,-527.11"/>
<text text-anchor="start" x="3319" y="-536.11" font-family="monospace" font-weight="bold" font-size="10.00">val:</text>
<text text-anchor="start" x="3344" y="-536.11" font-family="monospace" font-size="10.00"> 0</text>
<polygon fill="#eef4ff" stroke="transparent" points="3362,-527.11 3362,-548.11 3404,-548.11 3404,-527.11 3362,-527.11"/>
<polygon fill="none" stroke="#d0d5dd" points="3362,-527.11 3362,-548.11 3404,-548.11 3404,-527.11 3362,-527.11"/>
<text text-anchor="start" x="3367" y="-536.11" font-family="monospace" font-weight="bold" font-size="10.00">n:</text>
<text text-anchor="start" x="3380" y="-536.11" font-family="monospace" font-size="10.00"> 14</text>
<polygon fill="#eef4ff" stroke="transparent" points="3404,-527.11 3404,-548.11 3446,-548.11 3446,-527.11 3404,-527.11"/>
<polygon fill="none" stroke="#d0d5dd" points="3404,-527.11 3404,-548.11 3446,-548.11 3446,-527.11 3404,-527.11"/>
<text text-anchor="start" x="3409" y="-536.11" font-family="monospace" font-weight="bold" font-size="10.00">p:</text>
<text text-anchor="start" x="3422" y="-536.11" font-family="monospace" font-size="10.00"> &#45;1</text>
</g>
<!-- label12&#45;&gt;label13 -->
<g id="edge13" class="edge">
<title>label12&#45;&gt;label13</title>
<path fill="none" stroke="#dce6e3" stroke-width="1.5" stroke-dasharray="5,2" d="M3127.32,-533.37C3148.6,-533.02 3170.64,-533.02 3191.92,-533.37"/>
</g>
<!-- label12&#45;&gt;label13 -->
<g id="edge37" class="edge">
<title>label12&#45;&gt;label13</title>
<path fill="none" stroke="#a855f7" stroke-width="2" d="M3127.32,-562.84C3145.94,-563.15 3165.14,-563.19 3183.91,-562.95"/>
<polygon fill="#a855f7" stroke="#a855f7" stroke-width="2" points="3191.92,-562.84 3183.97,-566.55 3187.93,-563.4 3183.93,-563.45 3183.92,-562.95 3183.91,-562.45 3187.91,-562.4 3183.87,-559.35 3191.92,-562.84 3191.92,-562.84"/>
</g>
<!-- label14 -->
<g id="node15" class="node">
<title>label14</title>
<path fill="#ffffff" stroke="#7f56d9" stroke-width="2.1" d="M3769,-573.11C3769,-573.11 3531,-573.11 3531,-573.11 3525,-573.11 3519,-567.11 3519,-561.11 3519,-561.11 3519,-535.11 3519,-535.11 3519,-529.11 3525,-523.11 3531,-523.11 3531,-523.11 3769,-523.11 3769,-523.11 3775,-523.11 3781,-529.11 3781,-535.11 3781,-535.11 3781,-561.11 3781,-561.11 3781,-567.11 3775,-573.11 3769,-573.11"/>
<polygon fill="#eef4ff" stroke="transparent" points="3527,-548.11 3527,-569.11 3773,-569.11 3773,-548.11 3527,-548.11"/>
<polygon fill="none" stroke="#d0d5dd" points="3527,-548.11 3527,-569.11 3773,-569.11 3773,-548.11 3527,-548.11"/>
<text text-anchor="start" x="3583" y="-557.11" font-family="monospace" font-weight="bold" font-size="10.00">addr:</text>
<text text-anchor="start" x="3614" y="-557.11" font-family="monospace" font-size="10.00"> 0x0x506000000298</text>
<polygon fill="#eef4ff" stroke="transparent" points="3527,-527.11 3527,-548.11 3587,-548.11 3587,-527.11 3527,-527.11"/>
<polygon fill="none" stroke="#d0d5dd" points="3527,-527.11 3527,-548.11 3587,-548.11 3587,-527.11 3527,-527.11"/>
<text text-anchor="start" x="3532" y="-536.11" font-family="monospace" font-weight="bold" font-size="10.00">phys:</text>
<text text-anchor="start" x="3563" y="-536.11" font-family="monospace" font-size="10.00"> 14</text>
<polygon fill="#eef4ff" stroke="transparent" points="3587,-527.11 3587,-548.11 3641,-548.11 3641,-527.11 3587,-527.11"/>
<polygon fill="none" stroke="#d0d5dd" points="3587,-527.11 3587,-548.11 3641,-548.11 3641,-527.11 3587,-527.11"/>
<text text-anchor="start" x="3592" y="-536.11" font-family="monospace" font-weight="bold" font-size="10.00">virt:</text>
<text text-anchor="start" x="3623" y="-536.11" font-family="monospace" font-size="10.00"> 0</text>
<polygon fill="#eef4ff" stroke="transparent" points="3641,-527.11 3641,-548.11 3689,-548.11 3689,-527.11 3641,-527.11"/>
<polygon fill="none" stroke="#d0d5dd" points="3641,-527.11 3641,-548.11 3689,-548.11 3689,-527.11 3641,-527.11"/>
<text text-anchor="start" x="3646" y="-536.11" font-family="monospace" font-weight="bold" font-size="10.00">val:</text>
<text text-anchor="start" x="3671" y="-536.11" font-family="monospace" font-size="10.00"> 0</text>
<polygon fill="#eef4ff" stroke="transparent" points="3689,-527.11 3689,-548.11 3731,-548.11 3731,-527.11 3689,-527.11"/>
<polygon fill="none" stroke="#d0d5dd" points="3689,-527.11 3689,-548.11 3731,-548.11 3731,-527.11 3689,-527.11"/>
<text text-anchor="start" x="3694" y="-536.11" font-family="monospace" font-weight="bold" font-size="10.00">n:</text>
<text text-anchor="start" x="3707" y="-536.11" font-family="monospace" font-size="10.00"> 15</text>
<polygon fill="#eef4ff" stroke="transparent" points="3731,-527.11 3731,-548.11 3773,-548.11 3773,-527.11 3731,-527.11"/>
<polygon fill="none" stroke="#d0d5dd" points="3731,-527.11 3731,-548.11 3773,-548.11 3773,-527.11 3731,-527.11"/>
<text text-anchor="start" x="3736" y="-536.11" font-family="monospace" font-weight="bold" font-size="10.00">p:</text>
<text text-anchor="start" x="3749" y="-536.11" font-family="monospace" font-size="10.00"> &#45;1</text>
</g>
<!-- label13&#45;&gt;label14 -->
<g id="edge14" class="edge">
<title>label13&#45;&gt;label14</title>
<path fill="none" stroke="#dce6e3" stroke-width="1.5" stroke-dasharray="5,2" d="M3454.32,-533.37C3475.6,-533.02 3497.64,-533.02 3518.92,-533.37"/>
</g>
<!-- label13&#45;&gt;label14 -->
<g id="edge38" class="edge">
<title>label13&#45;&gt;label14</title>
<path fill="none" stroke="#a855f7" stroke-width="2" d="M3454.32,-562.84C3472.94,-563.15 3492.14,-563.19 3510.91,-562.95"/>
<polygon fill="#a855f7" stroke="#a855f7" stroke-width="2" points="3518.92,-562.84 3510.97,-566.55 3514.93,-563.4 3510.93,-563.45 3510.92,-562.95 3510.91,-562.45 3514.91,-562.4 3510.87,-559.35 3518.92,-562.84 3518.92,-562.84"/>
</g>
<!-- label15 -->
<g id="node16" class="node">
<title>label15</title>
<path fill="#ffffff" stroke="#7f56d9" stroke-width="2.1" d="M4090,-573.11C4090,-573.11 3858,-573.11 3858,-573.11 3852,-573.11 3846,-567.11 3846,-561.11 3846,-561.11 3846,-535.11 3846,-535.11 3846,-529.11 3852,-523.11 3858,-523.11 3858,-523.11 4090,-523.11 4090,-523.11 4096,-523.11 4102,-529.11 4102,-535.11 4102,-535.11 4102,-561.11 4102,-561.11 4102,-567.11 4096,-573.11 4090,-573.11"/>
<polygon fill="#eef4ff" stroke="transparent" points="3854,-548.11 3854,-569.11 4094,-569.11 4094,-548.11 3854,-548.11"/>
<polygon fill="none" stroke="#d0d5dd" points="3854,-548.11 3854,-569.11 4094,-569.11 4094,-548.11 3854,-548.11"/>
<text text-anchor="start" x="3907" y="-557.11" font-family="monospace" font-weight="bold" font-size="10.00">addr:</text>
<text text-anchor="start" x="3938" y="-557.11" font-family="monospace" font-size="10.00"> 0x0x50600000029c</text>
<polygon fill="#eef4ff" stroke="transparent" points="3854,-527.11 3854,-548.11 3914,-548.11 3914,-527.11 3854,-527.11"/>
<polygon fill="none" stroke="#d0d5dd" points="3854,-527.11 3854,-548.11 3914,-548.11 3914,-527.11 3854,-527.11"/>
<text text-anchor="start" x="3859" y="-536.11" font-family="monospace" font-weight="bold" font-size="10.00">phys:</text>
<text text-anchor="start" x="3890" y="-536.11" font-family="monospace" font-size="10.00"> 15</text>
<polygon fill="#eef4ff" stroke="transparent" points="3914,-527.11 3914,-548.11 3968,-548.11 3968,-527.11 3914,-527.11"/>
<polygon fill="none" stroke="#d0d5dd" points="3914,-527.11 3914,-548.11 3968,-548.11 3968,-527.11 3914,-527.11"/>
<text text-anchor="start" x="3919" y="-536.11" font-family="monospace" font-weight="bold" font-size="10.00">virt:</text>
<text text-anchor="start" x="3950" y="-536.11" font-family="monospace" font-size="10.00"> 0</text>
<polygon fill="#eef4ff" stroke="transparent" points="3968,-527.11 3968,-548.11 4016,-548.11 4016,-527.11 3968,-527.11"/>
<polygon fill="none" stroke="#d0d5dd" points="3968,-527.11 3968,-548.11 4016,-548.11 4016,-527.11 3968,-527.11"/>
<text text-anchor="start" x="3973" y="-536.11" font-family="monospace" font-weight="bold" font-size="10.00">val:</text>
<text text-anchor="start" x="3998" y="-536.11" font-family="monospace" font-size="10.00"> 0</text>
<polygon fill="#eef4ff" stroke="transparent" points="4016,-527.11 4016,-548.11 4052,-548.11 4052,-527.11 4016,-527.11"/>
<polygon fill="none" stroke="#d0d5dd" points="4016,-527.11 4016,-548.11 4052,-548.11 4052,-527.11 4016,-527.11"/>
<text text-anchor="start" x="4021" y="-536.11" font-family="monospace" font-weight="bold" font-size="10.00">n:</text>
<text text-anchor="start" x="4034" y="-536.11" font-family="monospace" font-size="10.00"> 0</text>
<polygon fill="#eef4ff" stroke="transparent" points="4052,-527.11 4052,-548.11 4094,-548.11 4094,-527.11 4052,-527.11"/>
<polygon fill="none" stroke="#d0d5dd" points="4052,-527.11 4052,-548.11 4094,-548.11 4094,-527.11 4052,-527.11"/>
<text text-anchor="start" x="4057" y="-536.11" font-family="monospace" font-weight="bold" font-size="10.00">p:</text>
<text text-anchor="start" x="4070" y="-536.11" font-family="monospace" font-size="10.00"> &#45;1</text>
</g>
<!-- label14&#45;&gt;label15 -->
<g id="edge15" class="edge">
<title>label14&#45;&gt;label15</title>
<path fill="none" stroke="#dce6e3" stroke-width="1.5" stroke-dasharray="5,2" d="M3781.04,-533.35C3802.42,-533.01 3824.56,-533.02 3845.87,-533.4"/>
</g>
<!-- label14&#45;&gt;label15 -->
<g id="edge39" class="edge">
<title>label14&#45;&gt;label15</title>
<path fill="none" stroke="#a855f7" stroke-width="2" d="M3781.04,-562.86C3799.75,-563.16 3819.04,-563.19 3837.84,-562.93"/>
<polygon fill="#a855f7" stroke="#a855f7" stroke-width="2" points="3845.87,-562.81 3837.93,-566.53 3841.88,-563.37 3837.88,-563.43 3837.87,-562.93 3837.86,-562.43 3841.86,-562.37 3837.82,-559.33 3845.87,-562.81 3845.87,-562.81"/>
</g>
</g>
</svg>
