<?xml version="1.0" encoding="UTF-8" standalone="no"?>
<!DOCTYPE svg PUBLIC "-//W3C//DTD SVG 1.1//EN"
 "http://www.w3.org/Graphics/SVG/1.1/DTD/svg11.dtd">
<!-- Generated by graphviz version 2.42.4 (0)
 -->
<!-- Title: G Pages: 1 -->
<svg width="1231pt" height="121pt"
 viewBox="0.00 0.00 1231.00 120.95" xmlns="http://www.w3.org/2000/svg" xmlns:xlink="http://www.w3.org/1999/xlink">
<g id="graph0" class="graph" transform="scale(1 1) rotate(0) translate(18 102.95)">
<title>G</title>
<polygon fill="#fcfcfd" stroke="transparent" points="-18,18 -18,-102.95 1213,-102.95 1213,18 -18,18"/>
<!-- label0 -->
<g id="node1" class="node">
<title>label0</title>
<path fill="#ffffff" stroke="#7f56d9" stroke-width="2.1" d="M232,-79.8C232,-79.8 12,-79.8 12,-79.8 6,-79.8 0,-73.8 0,-67.8 0,-67.8 0,-41.8 0,-41.8 0,-35.8 6,-29.8 12,-29.8 12,-29.8 232,-29.8 232,-29.8 238,-29.8 244,-35.8 244,-41.8 244,-41.8 244,-67.8 244,-67.8 244,-73.8 238,-79.8 232,-79.8"/>
<polygon fill="#eef4ff" stroke="transparent" points="8,-54.8 8,-75.8 236,-75.8 236,-54.8 8,-54.8"/>
<polygon fill="none" stroke="#d0d5dd" points="8,-54.8 8,-75.8 236,-75.8 236,-54.8 8,-54.8"/>
<text text-anchor="start" x="55" y="-63.8" font-family="Menlo,Monaco,Consolas,monospace" font-weight="bold" font-size="10.00">addr:</text>
<text text-anchor="start" x="86" y="-63.8" font-family="Menlo,Monaco,Consolas,monospace" font-size="10.00"> 0x0x502000000010</text>
<polygon fill="#eef4ff" stroke="transparent" points="8,-33.8 8,-54.8 62,-54.8 62,-33.8 8,-33.8"/>
<polygon fill="none" stroke="#d0d5dd" points="8,-33.8 8,-54.8 62,-54.8 62,-33.8 8,-33.8"/>
<text text-anchor="start" x="13" y="-42.8" font-family="Menlo,Monaco,Consolas,monospace" font-weight="bold" font-size="10.00">phys:</text>
<text text-anchor="start" x="44" y="-42.8" font-family="Menlo,Monaco,Consolas,monospace" font-size="10.00"> 0</text>
<polygon fill="#eef4ff" stroke="transparent" points="62,-33.8 62,-54.8 116,-54.8 116,-33.8 62,-33.8"/>
<polygon fill="none" stroke="#d0d5dd" points="62,-33.8 62,-54.8 116,-54.8 116,-33.8 62,-33.8"/>
<text text-anchor="start" x="67" y="-42.8" font-family="Menlo,Monaco,Consolas,monospace" font-weight="bold" font-size="10.00">virt:</text>
<text text-anchor="start" x="98" y="-42.8" font-family="Menlo,Monaco,Consolas,monospace" font-size="10.00"> 0</text>
<polygon fill="#eef4ff" stroke="transparent" points="116,-33.8 116,-54.8 164,-54.8 164,-33.8 116,-33.8"/>
<polygon fill="none" stroke="#d0d5dd" points="116,-33.8 116,-54.8 164,-54.8 164,-33.8 116,-33.8"/>
<text text-anchor="start" x="121" y="-42.8" font-family="Menlo,Monaco,Consolas,monospace" font-weight="bold" font-size="10.00">val:</text>
<text text-anchor="start" x="146" y="-42.8" font-family="Menlo,Monaco,Consolas,monospace" font-size="10.00"> 0</text>
<polygon fill="#eef4ff" stroke="transparent" points="164,-33.8 164,-54.8 200,-54.8 200,-33.8 164,-33.8"/>
<polygon fill="none" stroke="#d0d5dd" points="164,-33.8 164,-54.8 200,-54.8 200,-33.8 164,-33.8"/>
<text text-anchor="start" x="169" y="-42.8" font-family="Menlo,Monaco,Consolas,monospace" font-weight="bold" font-size="10.00">n:</text>
<text text-anchor="start" x="182" y="-42.8" font-family="Menlo,Monaco,Consolas,monospace" font-size="10.00"> 1</text>
<polygon fill="#eef4ff" stroke="transparent" points="200,-33.8 200,-54.8 236,-54.8 236,-33.8 200,-33.8"/>
<polygon fill="none" stroke="#d0d5dd" points="200,-33.8 200,-54.8 236,-54.8 236,-33.8 200,-33.8"/>
<text text-anchor="start" x="205" y="-42.8" font-family="Menlo,Monaco,Consolas,monospace" font-weight="bold" font-size="10.00">p:</text>
<text text-anchor="start" x="218" y="-42.8" font-family="Menlo,Monaco,Consolas,monospace" font-size="10.00"> 2</text>
</g>
<!-- label1 -->
<g id="node2" class="node">
<title>label1</title>
<path fill="#ffffff" stroke="#16a34a" stroke-width="2.1" d="M547,-79.8C547,-79.8 321,-79.8 321,-79.8 315,-79.8 309,-73.8 309,-67.8 309,-67.8 309,-41.8 309,-41.8 309,-35.8 315,-29.8 321,-29.8 321,-29.8 547,-29.8 547,-29.8 553,-29.8 559,-35.8 559,-41.8 559,-41.8 559,-67.8 559,-67.8 559,-73.8 553,-79.8 547,-79.8"/>
<polygon fill="#eef4ff" stroke="transparent" points="317,-54.8 317,-75.8 551,-75.8 551,-54.8 317,-54.8"/>
<polygon fill="none" stroke="#d0d5dd" points="317,-54.8 317,-75.8 551,-75.8 551,-54.8 317,-54.8"/>
<text text-anchor="start" x="367" y="-63.8" font-family="Menlo,Monaco,Consolas,monospace" font-weight="bold" font-size="10.00">addr:</text>
<text text-anchor="start" x="398" y="-63.8" font-family="Menlo,Monaco,Consolas,monospace" font-size="10.00"> 0x0x502000000014</text>
<polygon fill="#eef4ff" stroke="transparent" points="317,-33.8 317,-54.8 371,-54.8 371,-33.8 317,-33.8"/>
<polygon fill="none" stroke="#d0d5dd" points="317,-33.8 317,-54.8 371,-54.8 371,-33.8 317,-33.8"/>
<text text-anchor="start" x="322" y="-42.8" font-family="Menlo,Monaco,Consolas,monospace" font-weight="bold" font-size="10.00">phys:</text>
<text text-anchor="start" x="353" y="-42.8" font-family="Menlo,Monaco,Consolas,monospace" font-size="10.00"> 1</text>
<polygon fill="#eef4ff" stroke="transparent" points="371,-33.8 371,-54.8 425,-54.8 425,-33.8 371,-33.8"/>
<polygon fill="none" stroke="#d0d5dd" points="371,-33.8 371,-54.8 425,-54.8 425,-33.8 371,-33.8"/>
<text text-anchor="start" x="376" y="-42.8" font-family="Menlo,Monaco,Consolas,monospace" font-weight="bold" font-size="10.00">virt:</text>
<text text-anchor="start" x="407" y="-42.8" font-family="Menlo,Monaco,Consolas,monospace" font-size="10.00"> 1</text>
<polygon fill="#eef4ff" stroke="transparent" points="425,-33.8 425,-54.8 479,-54.8 479,-33.8 425,-33.8"/>
<polygon fill="none" stroke="#d0d5dd" points="425,-33.8 425,-54.8 479,-54.8 479,-33.8 425,-33.8"/>
<text text-anchor="start" x="430" y="-42.8" font-family="Menlo,Monaco,Consolas,monospace" font-weight="bold" font-size="10.00">val:</text>
<text text-anchor="start" x="455" y="-42.8" font-family="Menlo,Monaco,Consolas,monospace" font-size="10.00"> 10</text>
<polygon fill="#eef4ff" stroke="transparent" points="479,-33.8 479,-54.8 515,-54.8 515,-33.8 479,-33.8"/>
<polygon fill="none" stroke="#d0d5dd" points="479,-33.8 479,-54.8 515,-54.8 515,-33.8 479,-33.8"/>
<text text-anchor="start" x="484" y="-42.8" font-family="Menlo,Monaco,Consolas,monospace" font-weight="bold" font-size="10.00">n:</text>
<text text-anchor="start" x="497" y="-42.8" font-family="Menlo,Monaco,Consolas,monospace" font-size="10.00"> 2</text>
<polygon fill="#eef4ff" stroke="transparent" points="515,-33.8 515,-54.8 551,-54.8 551,-33.8 515,-33.8"/>
<polygon fill="none" stroke="#d0d5dd" points="515,-33.8 515,-54.8 551,-54.8 551,-33.8 515,-33.8"/>
<text text-anchor="start" x="520" y="-42.8" font-family="Menlo,Monaco,Consolas,monospace" font-weight="bold" font-size="10.00">p:</text>
<text text-anchor="start" x="533" y="-42.8" font-family="Menlo,Monaco,Consolas,monospace" font-size="10.00"> 0</text>
</g>
<!-- label0&#45;&gt;label1 -->
<g id="edge1" class="edge">
<title>label0&#45;&gt;label1</title>
<path fill="none" stroke="#dce6e3" stroke-width="1.5" stroke-dasharray="5,2" d="M244.19,-40.13C265.41,-39.72 287.53,-39.7 308.84,-40.07"/>
</g>
<!-- label0&#45;&gt;label1 -->
<g id="edge4" class="edge">
<title>label0&#45;&gt;label1</title>
<path fill="none" stroke="#22c55e" stroke-width="1.9" d="M244.19,-69.48C262.76,-69.84 282.01,-69.9 300.81,-69.66"/>
<polygon fill="#22c55e" stroke="#22c55e" stroke-width="1.9" points="308.84,-69.54 300.89,-73.26 304.84,-70.05 300.84,-70.11 300.84,-69.66 300.83,-69.21 304.83,-69.15 300.78,-66.06 308.84,-69.54 308.84,-69.54"/>
</g>
<!-- label2 -->
<g id="node3" class="node">
<title>label2</title>
<path fill="#ffffff" stroke="#16a34a" stroke-width="2.1" d="M862,-79.8C862,-79.8 636,-79.8 636,-79.8 630,-79.8 624,-73.8 624,-67.8 624,-67.8 624,-41.8 624,-41.8 624,-35.8 630,-29.8 636,-29.8 636,-29.8 862,-29.8 862,-29.8 868,-29.8 874,-35.8 874,-41.8 874,-41.8 874,-67.8 874,-67.8 874,-73.8 868,-79.8 862,-79.8"/>
<polygon fill="#eef4ff" stroke="transparent" points="632,-54.8 632,-75.8 866,-75.8 866,-54.8 632,-54.8"/>
<polygon fill="none" stroke="#d0d5dd" points="632,-54.8 632,-75.8 866,-75.8 866,-54.8 632,-54.8"/>
<text text-anchor="start" x="682" y="-63.8" font-family="Menlo,Monaco,Consolas,monospace" font-weight="bold" font-size="10.00">addr:</text>
<text text-anchor="start" x="713" y="-63.8" font-family="Menlo,Monaco,Consolas,monospace" font-size="10.00"> 0x0x502000000018</text>
<polygon fill="#eef4ff" stroke="transparent" points="632,-33.8 632,-54.8 686,-54.8 686,-33.8 632,-33.8"/>
<polygon fill="none" stroke="#d0d5dd" points="632,-33.8 632,-54.8 686,-54.8 686,-33.8 632,-33.8"/>
<text text-anchor="start" x="637" y="-42.8" font-family="Menlo,Monaco,Consolas,monospace" font-weight="bold" font-size="10.00">phys:</text>
<text text-anchor="start" x="668" y="-42.8" font-family="Menlo,Monaco,Consolas,monospace" font-size="10.00"> 2</text>
<polygon fill="#eef4ff" stroke="transparent" points="686,-33.8 686,-54.8 740,-54.8 740,-33.8 686,-33.8"/>
<polygon fill="none" stroke="#d0d5dd" points="686,-33.8 686,-54.8 740,-54.8 740,-33.8 686,-33.8"/>
<text text-anchor="start" x="691" y="-42.8" font-family="Menlo,Monaco,Consolas,monospace" font-weight="bold" font-size="10.00">virt:</text>
<text text-anchor="start" x="722" y="-42.8" font-family="Menlo,Monaco,Consolas,monospace" font-size="10.00"> 2</text>
<polygon fill="#eef4ff" stroke="transparent" points="740,-33.8 740,-54.8 794,-54.8 794,-33.8 740,-33.8"/>
<polygon fill="none" stroke="#d0d5dd" points="740,-33.8 740,-54.8 794,-54.8 794,-33.8 740,-33.8"/>
<text text-anchor="start" x="745" y="-42.8" font-family="Menlo,Monaco,Consolas,monospace" font-weight="bold" font-size="10.00">val:</text>
<text text-anchor="start" x="770" y="-42.8" font-family="Menlo,Monaco,Consolas,monospace" font-size="10.00"> 20</text>
<polygon fill="#eef4ff" stroke="transparent" points="794,-33.8 794,-54.8 830,-54.8 830,-33.8 794,-33.8"/>
<polygon fill="none" stroke="#d0d5dd" points="794,-33.8 794,-54.8 830,-54.8 830,-33.8 794,-33.8"/>
<text text-anchor="start" x="799" y="-42.8" font-family="Menlo,Monaco,Consolas,monospace" font-weight="bold" font-size="10.00">n:</text>
<text text-anchor="start" x="812" y="-42.8" font-family="Menlo,Monaco,Consolas,monospace" font-size="10.00"> 0</text>
<polygon fill="#eef4ff" stroke="transparent" points="830,-33.8 830,-54.8 866,-54.8 866,-33.8 830,-33.8"/>
<polygon fill="none" stroke="#d0d5dd" points="830,-33.8 830,-54.8 866,-54.8 866,-33.8 830,-33.8"/>
<text text-anchor="start" x="835" y="-42.8" font-family="Menlo,Monaco,Consolas,monospace" font-weight="bold" font-size="10.00">p:</text>
<text text-anchor="start" x="848" y="-42.8" font-family="Menlo,Monaco,Consolas,monospace" font-size="10.00"> 1</text>
</g>
<!-- label0&#45;&gt;label2 -->
<g id="edge6" class="edge">
<title>label0&#45;&gt;label2</title>
<path fill="none" stroke="#ef4444" stroke-width="1.9" d="M207.88,-29.78C239.34,-21.7 275.52,-13.8 309,-9.8 419.33,3.35 448.65,3.15 559,-9.8 590.21,-13.47 623.74,-20.43 653.77,-27.8"/>
<polygon fill="#ef4444" stroke="#ef4444" stroke-width="1.9" points="661.73,-29.78 653.09,-31.34 657.74,-29.25 653.85,-28.28 653.96,-27.85 654.07,-27.41 657.95,-28.38 654.83,-24.35 661.73,-29.78 661.73,-29.78"/>
</g>
<!-- label1&#45;&gt;label2 -->
<g id="edge2" class="edge">
<title>label1&#45;&gt;label2</title>
<path fill="none" stroke="#dce6e3" stroke-width="1.5" stroke-dasharray="5,2" d="M501,-29.8C554.18,-23.15 628.6,-23.14 681.82,-29.78"/>
</g>
<!-- label1&#45;&gt;label2 -->
<g id="edge5" class="edge">
<title>label1&#45;&gt;label2</title>
<path fill="none" stroke="#22c55e" stroke-width="1.9" d="M559.16,-54.8C577.82,-54.8 597.13,-54.8 615.96,-54.8"/>
<polygon fill="#22c55e" stroke="#22c55e" stroke-width="1.9" points="623.99,-54.8 615.99,-58.4 619.99,-55.25 615.99,-55.25 615.99,-54.8 615.99,-54.35 619.99,-54.35 615.99,-51.2 623.99,-54.8 623.99,-54.8"/>
</g>
<!-- label2&#45;&gt;label1 -->
<g id="edge7" class="edge">
<title>label2&#45;&gt;label1</title>
<path fill="none" stroke="#ef4444" stroke-width="1.9" d="M681.82,-79.83C631.3,-86.13 561.68,-86.45 509.26,-80.77"/>
<polygon fill="#ef4444" stroke="#ef4444" stroke-width="1.9" points="501,-79.81 509.36,-77.16 505.02,-79.82 509,-80.29 508.94,-80.73 508.89,-81.18 504.92,-80.72 508.53,-84.31 501,-79.81 501,-79.81"/>
</g>
<!-- label3 -->
<g id="node4" class="node">
<title>label3</title>
<path fill="#ffffff" stroke="#7f56d9" stroke-width="2.1" d="M1183,-79.8C1183,-79.8 951,-79.8 951,-79.8 945,-79.8 939,-73.8 939,-67.8 939,-67.8 939,-41.8 939,-41.8 939,-35.8 945,-29.8 951,-29.8 951,-29.8 1183,-29.8 1183,-29.8 1189,-29.8 1195,-35.8 1195,-41.8 1195,-41.8 1195,-67.8 1195,-67.8 1195,-73.8 1189,-79.8 1183,-79.8"/>
<polygon fill="#eef4ff" stroke="transparent" points="947,-54.8 947,-75.8 1187,-75.8 1187,-54.8 947,-54.8"/>
<polygon fill="none" stroke="#d0d5dd" points="947,-54.8 947,-75.8 1187,-75.8 1187,-54.8 947,-54.8"/>
<text text-anchor="start" x="1000" y="-63.8" font-family="Menlo,Monaco,Consolas,monospace" font-weight="bold" font-size="10.00">addr:</text>
<text text-anchor="start" x="1031" y="-63.8" font-family="Menlo,Monaco,Consolas,monospace" font-size="10.00"> 0x0x50200000001c</text>
<polygon fill="#eef4ff" stroke="transparent" points="947,-33.8 947,-54.8 1001,-54.8 1001,-33.8 947,-33.8"/>
<polygon fill="none" stroke="#d0d5dd" points="947,-33.8 947,-54.8 1001,-54.8 1001,-33.8 947,-33.8"/>
<text text-anchor="start" x="952" y="-42.8" font-family="Menlo,Monaco,Consolas,monospace" font-weight="bold" font-size="10.00">phys:</text>
<text text-anchor="start" x="983" y="-42.8" font-family="Menlo,Monaco,Consolas,monospace" font-size="10.00"> 3</text>
<polygon fill="#eef4ff" stroke="transparent" points="1001,-33.8 1001,-54.8 1061,-54.8 1061,-33.8 1001,-33.8"/>
<polygon fill="none" stroke="#d0d5dd" points="1001,-33.8 1001,-54.8 1061,-54.8 1061,-33.8 1001,-33.8"/>
<text text-anchor="start" x="1006" y="-42.8" font-family="Menlo,Monaco,Consolas,monospace" font-weight="bold" font-size="10.00">virt:</text>
<text text-anchor="start" x="1037" y="-42.8" font-family="Menlo,Monaco,Consolas,monospace" font-size="10.00"> &#45;1</text>
<polygon fill="#eef4ff" stroke="transparent" points="1061,-33.8 1061,-54.8 1109,-54.8 1109,-33.8 1061,-33.8"/>
<polygon fill="none" stroke="#d0d5dd" points="1061,-33.8 1061,-54.8 1109,-54.8 1109,-33.8 1061,-33.8"/>
<text text-anchor="start" x="1066" y="-42.8" font-family="Menlo,Monaco,Consolas,monospace" font-weight="bold" font-size="10.00">val:</text>
<text text-anchor="start" x="1091" y="-42.8" font-family="Menlo,Monaco,Consolas,monospace" font-size="10.00"> 0</text>
<polygon fill="#eef4ff" stroke="transparent" points="1109,-33.8 1109,-54.8 1145,-54.8 1145,-33.8 1109,-33.8"/>
<polygon fill="none" stroke="#d0d5dd" points="1109,-33.8 1109,-54.8 1145,-54.8 1145,-33.8 1109,-33.8"/>
<text text-anchor="start" x="1114" y="-42.8" font-family="Menlo,Monaco,Consolas,monospace" font-weight="bold" font-size="10.00">n:</text>
<text text-anchor="start" x="1127" y="-42.8" font-family="Menlo,Monaco,Consolas,monospace" font-size="10.00"> 0</text>
<polygon fill="#eef4ff" stroke="transparent" points="1145,-33.8 1145,-54.8 1187,-54.8 1187,-33.8 1145,-33.8"/>
<polygon fill="none" stroke="#d0d5dd" points="1145,-33.8 1145,-54.8 1187,-54.8 1187,-33.8 1145,-33.8"/>
<text text-anchor="start" x="1150" y="-42.8" font-family="Menlo,Monaco,Consolas,monospace" font-weight="bold" font-size="10.00">p:</text>
<text text-anchor="start" x="1163" y="-42.8" font-family="Menlo,Monaco,Consolas,monospace" font-size="10.00"> &#45;1</text>
</g>
<!-- label2&#45;&gt;label3 -->
<g id="edge3" class="edge">
<title>label2&#45;&gt;label3</title>
<path fill="none" stroke="#dce6e3" stroke-width="1.5" stroke-dasharray="5,2" d="M874.44,-54.8C895.6,-54.8 917.59,-54.8 938.82,-54.8"/>
</g>
</g>
</svg>
