<?xml version="1.0" encoding="UTF-8" standalone="no"?>
<!DOCTYPE svg PUBLIC "-//W3C//DTD SVG 1.1//EN"
 "http://www.w3.org/Graphics/SVG/1.1/DTD/svg11.dtd">
<!-- Generated by graphviz version 2.42.4 (0)
 -->
<!-- Title: G Pages: 1 -->
<svg width="1225pt" height="133pt"
 viewBox="0.00 0.00 1225.00 133.30" xmlns="http://www.w3.org/2000/svg" xmlns:xlink="http://www.w3.org/1999/xlink">
<g id="graph0" class="graph" transform="scale(1 1) rotate(0) translate(18 115.3)">
<title>G</title>
<polygon fill="#fcfcfd" stroke="transparent" points="-18,18 -18,-115.3 1207,-115.3 1207,18 -18,18"/>
<!-- label0 -->
<g id="node1" class="node">
<title>label0</title>
<path fill="#ffffff" stroke="#7f56d9" stroke-width="2.1" d="M232,-92.16C232,-92.16 12,-92.16 12,-92.16 6,-92.16 0,-86.16 0,-80.16 0,-80.16 0,-54.16 0,-54.16 0,-48.16 6,-42.16 12,-42.16 12,-42.16 232,-42.16 232,-42.16 238,-42.16 244,-48.16 244,-54.16 244,-54.16 244,-80.16 244,-80.16 244,-86.16 238,-92.16 232,-92.16"/>
<polygon fill="#eef4ff" stroke="transparent" points="8,-67.16 8,-88.16 236,-88.16 236,-67.16 8,-67.16"/>
<polygon fill="none" stroke="#d0d5dd" points="8,-67.16 8,-88.16 236,-88.16 236,-67.16 8,-67.16"/>
<text text-anchor="start" x="55" y="-76.16" font-family="Menlo,Monaco,Consolas,monospace" font-weight="bold" font-size="10.00">addr:</text>
<text text-anchor="start" x="86" y="-76.16" font-family="Menlo,Monaco,Consolas,monospace" font-size="10.00"> 0x0x502000000010</text>
<polygon fill="#eef4ff" stroke="transparent" points="8,-46.16 8,-67.16 62,-67.16 62,-46.16 8,-46.16"/>
<polygon fill="none" stroke="#d0d5dd" points="8,-46.16 8,-67.16 62,-67.16 62,-46.16 8,-46.16"/>
<text text-anchor="start" x="13" y="-55.16" font-family="Menlo,Monaco,Consolas,monospace" font-weight="bold" font-size="10.00">phys:</text>
<text text-anchor="start" x="44" y="-55.16" font-family="Menlo,Monaco,Consolas,monospace" font-size="10.00"> 0</text>
<polygon fill="#eef4ff" stroke="transparent" points="62,-46.16 62,-67.16 116,-67.16 116,-46.16 62,-46.16"/>
<polygon fill="none" stroke="#d0d5dd" points="62,-46.16 62,-67.16 116,-67.16 116,-46.16 62,-46.16"/>
<text text-anchor="start" x="67" y="-55.16" font-family="Menlo,Monaco,Consolas,monospace" font-weight="bold" font-size="10.00">virt:</text>
<text text-anchor="start" x="98" y="-55.16" font-family="Menlo,Monaco,Consolas,monospace" font-size="10.00"> 0</text>
<polygon fill="#eef4ff" stroke="transparent" points="116,-46.16 116,-67.16 164,-67.16 164,-46.16 116,-46.16"/>
<polygon fill="none" stroke="#d0d5dd" points="116,-46.16 116,-67.16 164,-67.16 164,-46.16 116,-46.16"/>
<text text-anchor="start" x="121" y="-55.16" font-family="Menlo,Monaco,Consolas,monospace" font-weight="bold" font-size="10.00">val:</text>
<text text-anchor="start" x="146" y="-55.16" font-family="Menlo,Monaco,Consolas,monospace" font-size="10.00"> 0</text>
<polygon fill="#eef4ff" stroke="transparent" points="164,-46.16 164,-67.16 200,-67.16 200,-46.16 164,-46.16"/>
<polygon fill="none" stroke="#d0d5dd" points="164,-46.16 164,-67.16 200,-67.16 200,-46.16 164,-46.16"/>
<text text-anchor="start" x="169" y="-55.16" font-family="Menlo,Monaco,Consolas,monospace" font-weight="bold" font-size="10.00">n:</text>
<text text-anchor="start" x="182" y="-55.16" font-family="Menlo,Monaco,Consolas,monospace" font-size="10.00"> 1</text>
<polygon fill="#eef4ff" stroke="transparent" points="200,-46.16 200,-67.16 236,-67.16 236,-46.16 200,-46.16"/>
<polygon fill="none" stroke="#d0d5dd" points="200,-46.16 200,-67.16 236,-67.16 236,-46.16 200,-46.16"/>
<text text-anchor="start" x="205" y="-55.16" font-family="Menlo,Monaco,Consolas,monospace" font-weight="bold" font-size="10.00">p:</text>
<text text-anchor="start" x="218" y="-55.16" font-family="Menlo,Monaco,Consolas,monospace" font-size="10.00"> 3</text>
</g>
<!-- label1 -->
<g id="node2" class="node">
<title>label1</title>
<path fill="#ffffff" stroke="#16a34a" stroke-width="2.1" d="M547,-92.16C547,-92.16 321,-92.16 321,-92.16 315,-92.16 309,-86.16 309,-80.16 309,-80.16 309,-54.16 309,-54.16 309,-48.16 315,-42.16 321,-42.16 321,-42.16 547,-42.16 547,-42.16 553,-42.16 559,-48.16 559,-54.16 559,-54.16 559,-80.16 559,-80.16 559,-86.16 553,-92.16 547,-92.16"/>
<polygon fill="#eef4ff" stroke="transparent" points="317,-67.16 317,-88.16 551,-88.16 551,-67.16 317,-67.16"/>
<polygon fill="none" stroke="#d0d5dd" points="317,-67.16 317,-88.16 551,-88.16 551,-67.16 317,-67.16"/>
<text text-anchor="start" x="367" y="-76.16" font-family="Menlo,Monaco,Consolas,monospace" font-weight="bold" font-size="10.00">addr:</text>
<text text-anchor="start" x="398" y="-76.16" font-family="Menlo,Monaco,Consolas,monospace" font-size="10.00"> 0x0x502000000014</text>
<polygon fill="#eef4ff" stroke="transparent" points="317,-46.16 317,-67.16 371,-67.16 371,-46.16 317,-46.16"/>
<polygon fill="none" stroke="#d0d5dd" points="317,-46.16 317,-67.16 371,-67.16 371,-46.16 317,-46.16"/>
<text text-anchor="start" x="322" y="-55.16" font-family="Menlo,Monaco,Consolas,monospace" font-weight="bold" font-size="10.00">phys:</text>
<text text-anchor="start" x="353" y="-55.16" font-family="Menlo,Monaco,Consolas,monospace" font-size="10.00"> 1</text>
<polygon fill="#eef4ff" stroke="transparent" points="371,-46.16 371,-67.16 425,-67.16 425,-46.16 371,-46.16"/>
<polygon fill="none" stroke="#d0d5dd" points="371,-46.16 371,-67.16 425,-67.16 425,-46.16 371,-46.16"/>
<text text-anchor="start" x="376" y="-55.16" font-family="Menlo,Monaco,Consolas,monospace" font-weight="bold" font-size="10.00">virt:</text>
<text text-anchor="start" x="407" y="-55.16" font-family="Menlo,Monaco,Consolas,monospace" font-size="10.00"> 1</text>
<polygon fill="#eef4ff" stroke="transparent" points="425,-46.16 425,-67.16 479,-67.16 479,-46.16 425,-46.16"/>
<polygon fill="none" stroke="#d0d5dd" points="425,-46.16 425,-67.16 479,-67.16 479,-46.16 425,-46.16"/>
<text text-anchor="start" x="430" y="-55.16" font-family="Menlo,Monaco,Consolas,monospace" font-weight="bold" font-size="10.00">val:</text>
<text text-anchor="start" x="455" y="-55.16" font-family="Menlo,Monaco,Consolas,monospace" font-size="10.00"> 10</text>
<polygon fill="#eef4ff" stroke="transparent" points="479,-46.16 479,-67.16 515,-67.16 515,-46.16 479,-46.16"/>
<polygon fill="none" stroke="#d0d5dd" points="479,-46.16 479,-67.16 515,-67.16 515,-46.16 479,-46.16"/>
<text text-anchor="start" x="484" y="-55.16" font-family="Menlo,Monaco,Consolas,monospace" font-weight="bold" font-size="10.00">n:</text>
<text text-anchor="start" x="497" y="-55.16" font-family="Menlo,Monaco,Consolas,monospace" font-size="10.00"> 2</text>
<polygon fill="#eef4ff" stroke="transparent" points="515,-46.16 515,-67.16 551,-67.16 551,-46.16 515,-46.16"/>
<polygon fill="none" stroke="#d0d5dd" points="515,-46.16 515,-67.16 551,-67.16 551,-46.16 515,-46.16"/>
<text text-anchor="start" x="520" y="-55.16" font-family="Menlo,Monaco,Consolas,monospace" font-weight="bold" font-size="10.00">p:</text>
<text text-anchor="start" x="533" y="-55.16" font-family="Menlo,Monaco,Consolas,monospace" font-size="10.00"> 0</text>
</g>
<!-- label0&#45;&gt;label1 -->
<g id="edge1" class="edge">
<title>label0&#45;&gt;label1</title>
<path fill="none" stroke="#dce6e3" stroke-width="1.5" stroke-dasharray="5,2" d="M244.19,-52.48C265.41,-52.07 287.53,-52.05 308.84,-52.43"/>
</g>
<!-- label0&#45;&gt;label1 -->
<g id="edge4" class="edge">
<title>label0&#45;&gt;label1</title>
<path fill="none" stroke="#22c55e" stroke-width="1.9" d="M244.19,-81.84C262.76,-82.2 282.01,-82.25 300.81,-82.01"/>
<polygon fill="#22c55e" stroke="#22c55e" stroke-width="1.9" points="308.84,-81.89 300.89,-85.61 304.84,-82.4 300.84,-82.46 300.84,-82.01 300.83,-81.56 304.83,-81.5 300.78,-78.41 308.84,-81.89 308.84,-81.89"/>
</g>
<!-- label3 -->
<g id="node4" class="node">
<title>label3</title>
<path fill="#ffffff" stroke="#16a34a" stroke-width="2.1" d="M1177,-92.16C1177,-92.16 951,-92.16 951,-92.16 945,-92.16 939,-86.16 939,-80.16 939,-80.16 939,-54.16 939,-54.16 939,-48.16 945,-42.16 951,-42.16 951,-42.16 1177,-42.16 1177,-42.16 1183,-42.16 1189,-48.16 1189,-54.16 1189,-54.16 1189,-80.16 1189,-80.16 1189,-86.16 1183,-92.16 1177,-92.16"/>
<polygon fill="#eef4ff" stroke="transparent" points="947,-67.16 947,-88.16 1181,-88.16 1181,-67.16 947,-67.16"/>
<polygon fill="none" stroke="#d0d5dd" points="947,-67.16 947,-88.16 1181,-88.16 1181,-67.16 947,-67.16"/>
<text text-anchor="start" x="997" y="-76.16" font-family="Menlo,Monaco,Consolas,monospace" font-weight="bold" font-size="10.00">addr:</text>
<text text-anchor="start" x="1028" y="-76.16" font-family="Menlo,Monaco,Consolas,monospace" font-size="10.00"> 0x0x50200000001c</text>
<polygon fill="#eef4ff" stroke="transparent" points="947,-46.16 947,-67.16 1001,-67.16 1001,-46.16 947,-46.16"/>
<polygon fill="none" stroke="#d0d5dd" points="947,-46.16 947,-67.16 1001,-67.16 1001,-46.16 947,-46.16"/>
<text text-anchor="start" x="952" y="-55.16" font-family="Menlo,Monaco,Consolas,monospace" font-weight="bold" font-size="10.00">phys:</text>
<text text-anchor="start" x="983" y="-55.16" font-family="Menlo,Monaco,Consolas,monospace" font-size="10.00"> 3</text>
<polygon fill="#eef4ff" stroke="transparent" points="1001,-46.16 1001,-67.16 1055,-67.16 1055,-46.16 1001,-46.16"/>
<polygon fill="none" stroke="#d0d5dd" points="1001,-46.16 1001,-67.16 1055,-67.16 1055,-46.16 1001,-46.16"/>
<text text-anchor="start" x="1006" y="-55.16" font-family="Menlo,Monaco,Consolas,monospace" font-weight="bold" font-size="10.00">virt:</text>
<text text-anchor="start" x="1037" y="-55.16" font-family="Menlo,Monaco,Consolas,monospace" font-size="10.00"> 3</text>
<polygon fill="#eef4ff" stroke="transparent" points="1055,-46.16 1055,-67.16 1109,-67.16 1109,-46.16 1055,-46.16"/>
<polygon fill="none" stroke="#d0d5dd" points="1055,-46.16 1055,-67.16 1109,-67.16 1109,-46.16 1055,-46.16"/>
<text text-anchor="start" x="1060" y="-55.16" font-family="Menlo,Monaco,Consolas,monospace" font-weight="bold" font-size="10.00">val:</text>
<text text-anchor="start" x="1085" y="-55.16" font-family="Menlo,Monaco,Consolas,monospace" font-size="10.00"> 30</text>
<polygon fill="#eef4ff" stroke="transparent" points="1109,-46.16 1109,-67.16 1145,-67.16 1145,-46.16 1109,-46.16"/>
<polygon fill="none" stroke="#d0d5dd" points="1109,-46.16 1109,-67.16 1145,-67.16 1145,-46.16 1109,-46.16"/>
<text text-anchor="start" x="1114" y="-55.16" font-family="Menlo,Monaco,Consolas,monospace" font-weight="bold" font-size="10.00">n:</text>
<text text-anchor="start" x="1127" y="-55.16" font-family="Menlo,Monaco,Consolas,monospace" font-size="10.00"> 0</text>
<polygon fill="#eef4ff" stroke="transparent" points="1145,-46.16 1145,-67.16 1181,-67.16 1181,-46.16 1145,-46.16"/>
<polygon fill="none" stroke="#d0d5dd" points="1145,-46.16 1145,-67.16 1181,-67.16 1181,-46.16 1145,-46.16"/>
<text text-anchor="start" x="1150" y="-55.16" font-family="Menlo,Monaco,Consolas,monospace" font-weight="bold" font-size="10.00">p:</text>
<text text-anchor="start" x="1163" y="-55.16" font-family="Menlo,Monaco,Consolas,monospace" font-size="10.00"> 2</text>
</g>
<!-- label0&#45;&gt;label3 -->
<g id="edge7" class="edge">
<title>label0&#45;&gt;label3</title>
<path fill="none" stroke="#ef4444" stroke-width="1.9" d="M207.88,-42.13C239.34,-34.05 275.52,-26.15 309,-22.16 558.34,7.57 624.6,7.12 874,-22.16 905.21,-25.82 938.74,-32.78 968.77,-40.15"/>
<polygon fill="#ef4444" stroke="#ef4444" stroke-width="1.9" points="976.73,-42.13 968.09,-43.69 972.74,-41.6 968.85,-40.64 968.96,-40.2 969.07,-39.76 972.95,-40.73 969.83,-36.71 976.73,-42.13 976.73,-42.13"/>
</g>
<!-- label2 -->
<g id="node3" class="node">
<title>label2</title>
<path fill="#ffffff" stroke="#16a34a" stroke-width="2.1" d="M862,-92.16C862,-92.16 636,-92.16 636,-92.16 630,-92.16 624,-86.16 624,-80.16 624,-80.16 624,-54.16 624,-54.16 624,-48.16 630,-42.16 636,-42.16 636,-42.16 862,-42.16 862,-42.16 868,-42.16 874,-48.16 874,-54.16 874,-54.16 874,-80.16 874,-80.16 874,-86.16 868,-92.16 862,-92.16"/>
<polygon fill="#eef4ff" stroke="transparent" points="632,-67.16 632,-88.16 866,-88.16 866,-67.16 632,-67.16"/>
<polygon fill="none" stroke="#d0d5dd" points="632,-67.16 632,-88.16 866,-88.16 866,-67.16 632,-67.16"/>
<text text-anchor="start" x="682" y="-76.16" font-family="Menlo,Monaco,Consolas,monospace" font-weight="bold" font-size="10.00">addr:</text>
<text text-anchor="start" x="713" y="-76.16" font-family="Menlo,Monaco,Consolas,monospace" font-size="10.00"> 0x0x502000000018</text>
<polygon fill="#eef4ff" stroke="transparent" points="632,-46.16 632,-67.16 686,-67.16 686,-46.16 632,-46.16"/>
<polygon fill="none" stroke="#d0d5dd" points="632,-46.16 632,-67.16 686,-67.16 686,-46.16 632,-46.16"/>
<text text-anchor="start" x="637" y="-55.16" font-family="Menlo,Monaco,Consolas,monospace" font-weight="bold" font-size="10.00">phys:</text>
<text text-anchor="start" x="668" y="-55.16" font-family="Menlo,Monaco,Consolas,monospace" font-size="10.00"> 2</text>
<polygon fill="#eef4ff" stroke="transparent" points="686,-46.16 686,-67.16 740,-67.16 740,-46.16 686,-46.16"/>
<polygon fill="none" stroke="#d0d5dd" points="686,-46.16 686,-67.16 740,-67.16 740,-46.16 686,-46.16"/>
<text text-anchor="start" x="691" y="-55.16" font-family="Menlo,Monaco,Consolas,monospace" font-weight="bold" font-size="10.00">virt:</text>
<text text-anchor="start" x="722" y="-55.16" font-family="Menlo,Monaco,Consolas,monospace" font-size="10.00"> 2</text>
<polygon fill="#eef4ff" stroke="transparent" points="740,-46.16 740,-67.16 794,-67.16 794,-46.16 740,-46.16"/>
<polygon fill="none" stroke="#d0d5dd" points="740,-46.16 740,-67.16 794,-67.16 794,-46.16 740,-46.16"/>
<text text-anchor="start" x="745" y="-55.16" font-family="Menlo,Monaco,Consolas,monospace" font-weight="bold" font-size="10.00">val:</text>
<text text-anchor="start" x="770" y="-55.16" font-family="Menlo,Monaco,Consolas,monospace" font-size="10.00"> 20</text>
<polygon fill="#eef4ff" stroke="transparent" points="794,-46.16 794,-67.16 830,-67.16 830,-46.16 794,-46.16"/>
<polygon fill="none" stroke="#d0d5dd" points="794,-46.16 794,-67.16 830,-67.16 830,-46.16 794,-46.16"/>
<text text-anchor="start" x="799" y="-55.16" font-family="Menlo,Monaco,Consolas,monospace" font-weight="bold" font-size="10.00">n:</text>
<text text-anchor="start" x="812" y="-55.16" font-family="Menlo,Monaco,Consolas,monospace" font-size="10.00"> 3</text>
<polygon fill="#eef4ff" stroke="transparent" points="830,-46.16 830,-67.16 866,-67.16 866,-46.16 830,-46.16"/>
<polygon fill="none" stroke="#d0d5dd" points="830,-46.16 830,-67.16 866,-67.16 866,-46.16 830,-46.16"/>
<text text-anchor="start" x="835" y="-55.16" font-family="Menlo,Monaco,Consolas,monospace" font-weight="bold" font-size="10.00">p:</text>
<text text-anchor="start" x="848" y="-55.16" font-family="Menlo,Monaco,Consolas,monospace" font-size="10.00"> 1</text>
</g>
<!-- label1&#45;&gt;label2 -->
<g id="edge2" class="edge">
<title>label1&#45;&gt;label2</title>
<path fill="none" stroke="#dce6e3" stroke-width="1.5" stroke-dasharray="5,2" d="M501,-42.16C554.18,-35.5 628.6,-35.49 681.82,-42.14"/>
</g>
<!-- label1&#45;&gt;label2 -->
<g id="edge5" class="edge">
<title>label1&#45;&gt;label2</title>
<path fill="none" stroke="#22c55e" stroke-width="1.9" d="M559.16,-67.16C577.82,-67.16 597.13,-67.16 615.96,-67.16"/>
<polygon fill="#22c55e" stroke="#22c55e" stroke-width="1.9" points="623.99,-67.16 615.99,-70.76 619.99,-67.61 615.99,-67.61 615.99,-67.16 615.99,-66.71 619.99,-66.71 615.99,-63.56 623.99,-67.16 623.99,-67.16"/>
</g>
<!-- label2&#45;&gt;label1 -->
<g id="edge8" class="edge">
<title>label2&#45;&gt;label1</title>
<path fill="none" stroke="#ef4444" stroke-width="1.9" d="M681.82,-92.18C631.3,-98.49 561.68,-98.8 509.26,-93.12"/>
<polygon fill="#ef4444" stroke="#ef4444" stroke-width="1.9" points="501,-92.16 509.36,-89.51 505.02,-92.18 509,-92.64 508.94,-93.09 508.89,-93.53 504.92,-93.07 508.53,-96.66 501,-92.16 501,-92.16"/>
</g>
<!-- label2&#45;&gt;label3 -->
<g id="edge3" class="edge">
<title>label2&#45;&gt;label3</title>
<path fill="none" stroke="#dce6e3" stroke-width="1.5" stroke-dasharray="5,2" d="M816,-42.16C869.18,-35.5 943.6,-35.49 996.82,-42.14"/>
</g>
<!-- label2&#45;&gt;label3 -->
<g id="edge6" class="edge">
<title>label2&#45;&gt;label3</title>
<path fill="none" stroke="#22c55e" stroke-width="1.9" d="M874.16,-67.16C892.82,-67.16 912.13,-67.16 930.96,-67.16"/>
<polygon fill="#22c55e" stroke="#22c55e" stroke-width="1.9" points="938.99,-67.16 930.99,-70.76 934.99,-67.61 930.99,-67.61 930.99,-67.16 930.99,-66.71 934.99,-66.71 930.99,-63.56 938.99,-67.16 938.99,-67.16"/>
</g>
<!-- label3&#45;&gt;label2 -->
<g id="edge9" class="edge">
<title>label3&#45;&gt;label2</title>
<path fill="none" stroke="#ef4444" stroke-width="1.9" d="M996.82,-92.18C946.3,-98.49 876.68,-98.8 824.26,-93.12"/>
<polygon fill="#ef4444" stroke="#ef4444" stroke-width="1.9" points="816,-92.16 824.36,-89.51 820.02,-92.18 824,-92.64 823.94,-93.09 823.89,-93.53 819.92,-93.07 823.53,-96.66 816,-92.16 816,-92.16"/>
</g>
</g>
</svg>
