<?xml version="1.0" encoding="UTF-8" standalone="no"?>
<!DOCTYPE svg PUBLIC "-//W3C//DTD SVG 1.1//EN"
 "http://www.w3.org/Graphics/SVG/1.1/DTD/svg11.dtd">
<!-- Generated by graphviz version 2.42.4 (0)
 -->
<!-- Title: G Pages: 1 -->
<svg width="2503pt" height="146pt"
 viewBox="0.00 0.00 2503.00 145.64" xmlns="http://www.w3.org/2000/svg" xmlns:xlink="http://www.w3.org/1999/xlink">
<g id="graph0" class="graph" transform="scale(1 1) rotate(0) translate(18 127.64)">
<title>G</title>
<polygon fill="#fcfcfd" stroke="transparent" points="-18,18 -18,-127.64 2485,-127.64 2485,18 -18,18"/>
<!-- label0 -->
<g id="node1" class="node">
<title>label0</title>
<path fill="#ffffff" stroke="#7f56d9" stroke-width="2.1" d="M232,-104.49C232,-104.49 12,-104.49 12,-104.49 6,-104.49 0,-98.49 0,-92.49 0,-92.49 0,-66.49 0,-66.49 0,-60.49 6,-54.49 12,-54.49 12,-54.49 232,-54.49 232,-54.49 238,-54.49 244,-60.49 244,-66.49 244,-66.49 244,-92.49 244,-92.49 244,-98.49 238,-104.49 232,-104.49"/>
<polygon fill="#eef4ff" stroke="transparent" points="8,-79.49 8,-100.49 236,-100.49 236,-79.49 8,-79.49"/>
<polygon fill="none" stroke="#d0d5dd" points="8,-79.49 8,-100.49 236,-100.49 236,-79.49 8,-79.49"/>
<text text-anchor="start" x="55" y="-88.49" font-family="Menlo,Monaco,Consolas,monospace" font-weight="bold" font-size="10.00">addr:</text>
<text text-anchor="start" x="86" y="-88.49" font-family="Menlo,Monaco,Consolas,monospace" font-size="10.00"> 0x0x503000000160</text>
<polygon fill="#eef4ff" stroke="transparent" points="8,-58.49 8,-79.49 62,-79.49 62,-58.49 8,-58.49"/>
<polygon fill="none" stroke="#d0d5dd" points="8,-58.49 8,-79.49 62,-79.49 62,-58.49 8,-58.49"/>
<text text-anchor="start" x="13" y="-67.49" font-family="Menlo,Monaco,Consolas,monospace" font-weight="bold" font-size="10.00">phys:</text>
<text text-anchor="start" x="44" y="-67.49" font-family="Menlo,Monaco,Consolas,monospace" font-size="10.00"> 0</text>
<polygon fill="#eef4ff" stroke="transparent" points="62,-58.49 62,-79.49 116,-79.49 116,-58.49 62,-58.49"/>
<polygon fill="none" stroke="#d0d5dd" points="62,-58.49 62,-79.49 116,-79.49 116,-58.49 62,-58.49"/>
<text text-anchor="start" x="67" y="-67.49" font-family="Menlo,Monaco,Consolas,monospace" font-weight="bold" font-size="10.00">virt:</text>
<text text-anchor="start" x="98" y="-67.49" font-family="Menlo,Monaco,Consolas,monospace" font-size="10.00"> 0</text>
<polygon fill="#eef4ff" stroke="transparent" points="116,-58.49 116,-79.49 164,-79.49 164,-58.49 116,-58.49"/>
<polygon fill="none" stroke="#d0d5dd" points="116,-58.49 116,-79.49 164,-79.49 164,-58.49 116,-58.49"/>
<text text-anchor="start" x="121" y="-67.49" font-family="Menlo,Monaco,Consolas,monospace" font-weight="bold" font-size="10.00">val:</text>
<text text-anchor="start" x="146" y="-67.49" font-family="Menlo,Monaco,Consolas,monospace" font-size="10.00"> 0</text>
<polygon fill="#eef4ff" stroke="transparent" points="164,-58.49 164,-79.49 200,-79.49 200,-58.49 164,-58.49"/>
<polygon fill="none" stroke="#d0d5dd" points="164,-58.49 164,-79.49 200,-79.49 200,-58.49 164,-58.49"/>
<text text-anchor="start" x="169" y="-67.49" font-family="Menlo,Monaco,Consolas,monospace" font-weight="bold" font-size="10.00">n:</text>
<text text-anchor="start" x="182" y="-67.49" font-family="Menlo,Monaco,Consolas,monospace" font-size="10.00"> 1</text>
<polygon fill="#eef4ff" stroke="transparent" points="200,-58.49 200,-79.49 236,-79.49 236,-58.49 200,-58.49"/>
<polygon fill="none" stroke="#d0d5dd" points="200,-58.49 200,-79.49 236,-79.49 236,-58.49 200,-58.49"/>
<text text-anchor="start" x="205" y="-67.49" font-family="Menlo,Monaco,Consolas,monospace" font-weight="bold" font-size="10.00">p:</text>
<text text-anchor="start" x="218" y="-67.49" font-family="Menlo,Monaco,Consolas,monospace" font-size="10.00"> 4</text>
</g>
<!-- label1 -->
<g id="node2" class="node">
<title>label1</title>
<path fill="#ffffff" stroke="#16a34a" stroke-width="2.1" d="M547,-104.49C547,-104.49 321,-104.49 321,-104.49 315,-104.49 309,-98.49 309,-92.49 309,-92.49 309,-66.49 309,-66.49 309,-60.49 315,-54.49 321,-54.49 321,-54.49 547,-54.49 547,-54.49 553,-54.49 559,-60.49 559,-66.49 559,-66.49 559,-92.49 559,-92.49 559,-98.49 553,-104.49 547,-104.49"/>
<polygon fill="#eef4ff" stroke="transparent" points="317,-79.49 317,-100.49 551,-100.49 551,-79.49 317,-79.49"/>
<polygon fill="none" stroke="#d0d5dd" points="317,-79.49 317,-100.49 551,-100.49 551,-79.49 317,-79.49"/>
<text text-anchor="start" x="367" y="-88.49" font-family="Menlo,Monaco,Consolas,monospace" font-weight="bold" font-size="10.00">addr:</text>
<text text-anchor="start" x="398" y="-88.49" font-family="Menlo,Monaco,Consolas,monospace" font-size="10.00"> 0x0x503000000164</text>
<polygon fill="#eef4ff" stroke="transparent" points="317,-58.49 317,-79.49 371,-79.49 371,-58.49 317,-58.49"/>
<polygon fill="none" stroke="#d0d5dd" points="317,-58.49 317,-79.49 371,-79.49 371,-58.49 317,-58.49"/>
<text text-anchor="start" x="322" y="-67.49" font-family="Menlo,Monaco,Consolas,monospace" font-weight="bold" font-size="10.00">phys:</text>
<text text-anchor="start" x="353" y="-67.49" font-family="Menlo,Monaco,Consolas,monospace" font-size="10.00"> 1</text>
<polygon fill="#eef4ff" stroke="transparent" points="371,-58.49 371,-79.49 425,-79.49 425,-58.49 371,-58.49"/>
<polygon fill="none" stroke="#d0d5dd" points="371,-58.49 371,-79.49 425,-79.49 425,-58.49 371,-58.49"/>
<text text-anchor="start" x="376" y="-67.49" font-family="Menlo,Monaco,Consolas,monospace" font-weight="bold" font-size="10.00">virt:</text>
<text text-anchor="start" x="407" y="-67.49" font-family="Menlo,Monaco,Consolas,monospace" font-size="10.00"> 1</text>
<polygon fill="#eef4ff" stroke="transparent" points="425,-58.49 425,-79.49 479,-79.49 479,-58.49 425,-58.49"/>
<polygon fill="none" stroke="#d0d5dd" points="425,-58.49 425,-79.49 479,-79.49 479,-58.49 425,-58.49"/>
<text text-anchor="start" x="430" y="-67.49" font-family="Menlo,Monaco,Consolas,monospace" font-weight="bold" font-size="10.00">val:</text>
<text text-anchor="start" x="455" y="-67.49" font-family="Menlo,Monaco,Consolas,monospace" font-size="10.00"> 10</text>
<polygon fill="#eef4ff" stroke="transparent" points="479,-58.49 479,-79.49 515,-79.49 515,-58.49 479,-58.49"/>
<polygon fill="none" stroke="#d0d5dd" points="479,-58.49 479,-79.49 515,-79.49 515,-58.49 479,-58.49"/>
<text text-anchor="start" x="484" y="-67.49" font-family="Menlo,Monaco,Consolas,monospace" font-weight="bold" font-size="10.00">n:</text>
<text text-anchor="start" x="497" y="-67.49" font-family="Menlo,Monaco,Consolas,monospace" font-size="10.00"> 2</text>
<polygon fill="#eef4ff" stroke="transparent" points="515,-58.49 515,-79.49 551,-79.49 551,-58.49 515,-58.49"/>
<polygon fill="none" stroke="#d0d5dd" points="515,-58.49 515,-79.49 551,-79.49 551,-58.49 515,-58.49"/>
<text text-anchor="start" x="520" y="-67.49" font-family="Menlo,Monaco,Consolas,monospace" font-weight="bold" font-size="10.00">p:</text>
<text text-anchor="start" x="533" y="-67.49" font-family="Menlo,Monaco,Consolas,monospace" font-size="10.00"> 0</text>
</g>
<!-- label0&#45;&gt;label1 -->
<g id="edge1" class="edge">
<title>label0&#45;&gt;label1</title>
<path fill="none" stroke="#dce6e3" stroke-width="1.5" stroke-dasharray="5,2" d="M244.19,-64.81C265.41,-64.4 287.53,-64.38 308.84,-64.76"/>
</g>
<!-- label0&#45;&gt;label1 -->
<g id="edge8" class="edge">
<title>label0&#45;&gt;label1</title>
<path fill="none" stroke="#22c55e" stroke-width="1.9" d="M244.19,-94.17C262.76,-94.53 282.01,-94.59 300.81,-94.35"/>
<polygon fill="#22c55e" stroke="#22c55e" stroke-width="1.9" points="308.84,-94.22 300.89,-97.94 304.84,-94.73 300.84,-94.8 300.84,-94.35 300.83,-93.9 304.83,-93.83 300.78,-90.75 308.84,-94.22 308.84,-94.22"/>
</g>
<!-- label4 -->
<g id="node5" class="node">
<title>label4</title>
<path fill="#ffffff" stroke="#16a34a" stroke-width="2.1" d="M1492,-104.49C1492,-104.49 1266,-104.49 1266,-104.49 1260,-104.49 1254,-98.49 1254,-92.49 1254,-92.49 1254,-66.49 1254,-66.49 1254,-60.49 1260,-54.49 1266,-54.49 1266,-54.49 1492,-54.49 1492,-54.49 1498,-54.49 1504,-60.49 1504,-66.49 1504,-66.49 1504,-92.49 1504,-92.49 1504,-98.49 1498,-104.49 1492,-104.49"/>
<polygon fill="#eef4ff" stroke="transparent" points="1262,-79.49 1262,-100.49 1496,-100.49 1496,-79.49 1262,-79.49"/>
<polygon fill="none" stroke="#d0d5dd" points="1262,-79.49 1262,-100.49 1496,-100.49 1496,-79.49 1262,-79.49"/>
<text text-anchor="start" x="1312" y="-88.49" font-family="Menlo,Monaco,Consolas,monospace" font-weight="bold" font-size="10.00">addr:</text>
<text text-anchor="start" x="1343" y="-88.49" font-family="Menlo,Monaco,Consolas,monospace" font-size="10.00"> 0x0x503000000170</text>
<polygon fill="#eef4ff" stroke="transparent" points="1262,-58.49 1262,-79.49 1316,-79.49 1316,-58.49 1262,-58.49"/>
<polygon fill="none" stroke="#d0d5dd" points="1262,-58.49 1262,-79.49 1316,-79.49 1316,-58.49 1262,-58.49"/>
<text text-anchor="start" x="1267" y="-67.49" font-family="Menlo,Monaco,Consolas,monospace" font-weight="bold" font-size="10.00">phys:</text>
<text text-anchor="start" x="1298" y="-67.49" font-family="Menlo,Monaco,Consolas,monospace" font-size="10.00"> 4</text>
<polygon fill="#eef4ff" stroke="transparent" points="1316,-58.49 1316,-79.49 1370,-79.49 1370,-58.49 1316,-58.49"/>
<polygon fill="none" stroke="#d0d5dd" points="1316,-58.49 1316,-79.49 1370,-79.49 1370,-58.49 1316,-58.49"/>
<text text-anchor="start" x="1321" y="-67.49" font-family="Menlo,Monaco,Consolas,monospace" font-weight="bold" font-size="10.00">virt:</text>
<text text-anchor="start" x="1352" y="-67.49" font-family="Menlo,Monaco,Consolas,monospace" font-size="10.00"> 4</text>
<polygon fill="#eef4ff" stroke="transparent" points="1370,-58.49 1370,-79.49 1424,-79.49 1424,-58.49 1370,-58.49"/>
<polygon fill="none" stroke="#d0d5dd" points="1370,-58.49 1370,-79.49 1424,-79.49 1424,-58.49 1370,-58.49"/>
<text text-anchor="start" x="1375" y="-67.49" font-family="Menlo,Monaco,Consolas,monospace" font-weight="bold" font-size="10.00">val:</text>
<text text-anchor="start" x="1400" y="-67.49" font-family="Menlo,Monaco,Consolas,monospace" font-size="10.00"> 40</text>
<polygon fill="#eef4ff" stroke="transparent" points="1424,-58.49 1424,-79.49 1460,-79.49 1460,-58.49 1424,-58.49"/>
<polygon fill="none" stroke="#d0d5dd" points="1424,-58.49 1424,-79.49 1460,-79.49 1460,-58.49 1424,-58.49"/>
<text text-anchor="start" x="1429" y="-67.49" font-family="Menlo,Monaco,Consolas,monospace" font-weight="bold" font-size="10.00">n:</text>
<text text-anchor="start" x="1442" y="-67.49" font-family="Menlo,Monaco,Consolas,monospace" font-size="10.00"> 0</text>
<polygon fill="#eef4ff" stroke="transparent" points="1460,-58.49 1460,-79.49 1496,-79.49 1496,-58.49 1460,-58.49"/>
<polygon fill="none" stroke="#d0d5dd" points="1460,-58.49 1460,-79.49 1496,-79.49 1496,-58.49 1460,-58.49"/>
<text text-anchor="start" x="1465" y="-67.49" font-family="Menlo,Monaco,Consolas,monospace" font-weight="bold" font-size="10.00">p:</text>
<text text-anchor="start" x="1478" y="-67.49" font-family="Menlo,Monaco,Consolas,monospace" font-size="10.00"> 3</text>
</g>
<!-- label0&#45;&gt;label4 -->
<g id="edge12" class="edge">
<title>label0&#45;&gt;label4</title>
<path fill="none" stroke="#ef4444" stroke-width="1.9" d="M207.88,-54.47C239.34,-46.38 275.52,-38.48 309,-34.49 697.36,11.82 800.56,11.11 1189,-34.49 1220.21,-38.16 1253.74,-45.11 1283.77,-52.48"/>
<polygon fill="#ef4444" stroke="#ef4444" stroke-width="1.9" points="1291.73,-54.47 1283.09,-56.02 1287.74,-53.94 1283.85,-52.97 1283.96,-52.53 1284.07,-52.09 1287.95,-53.06 1284.83,-49.04 1291.73,-54.47 1291.73,-54.47"/>
</g>
<!-- label2 -->
<g id="node3" class="node">
<title>label2</title>
<path fill="#ffffff" stroke="#16a34a" stroke-width="2.1" d="M862,-104.49C862,-104.49 636,-104.49 636,-104.49 630,-104.49 624,-98.49 624,-92.49 624,-92.49 624,-66.49 624,-66.49 624,-60.49 630,-54.49 636,-54.49 636,-54.49 862,-54.49 862,-54.49 868,-54.49 874,-60.49 874,-66.49 874,-66.49 874,-92.49 874,-92.49 874,-98.49 868,-104.49 862,-104.49"/>
<polygon fill="#eef4ff" stroke="transparent" points="632,-79.49 632,-100.49 866,-100.49 866,-79.49 632,-79.49"/>
<polygon fill="none" stroke="#d0d5dd" points="632,-79.49 632,-100.49 866,-100.49 866,-79.49 632,-79.49"/>
<text text-anchor="start" x="682" y="-88.49" font-family="Menlo,Monaco,Consolas,monospace" font-weight="bold" font-size="10.00">addr:</text>
<text text-anchor="start" x="713" y="-88.49" font-family="Menlo,Monaco,Consolas,monospace" font-size="10.00"> 0x0x503000000168</text>
<polygon fill="#eef4ff" stroke="transparent" points="632,-58.49 632,-79.49 686,-79.49 686,-58.49 632,-58.49"/>
<polygon fill="none" stroke="#d0d5dd" points="632,-58.49 632,-79.49 686,-79.49 686,-58.49 632,-58.49"/>
<text text-anchor="start" x="637" y="-67.49" font-family="Menlo,Monaco,Consolas,monospace" font-weight="bold" font-size="10.00">phys:</text>
<text text-anchor="start" x="668" y="-67.49" font-family="Menlo,Monaco,Consolas,monospace" font-size="10.00"> 2</text>
<polygon fill="#eef4ff" stroke="transparent" points="686,-58.49 686,-79.49 740,-79.49 740,-58.49 686,-58.49"/>
<polygon fill="none" stroke="#d0d5dd" points="686,-58.49 686,-79.49 740,-79.49 740,-58.49 686,-58.49"/>
<text text-anchor="start" x="691" y="-67.49" font-family="Menlo,Monaco,Consolas,monospace" font-weight="bold" font-size="10.00">virt:</text>
<text text-anchor="start" x="722" y="-67.49" font-family="Menlo,Monaco,Consolas,monospace" font-size="10.00"> 2</text>
<polygon fill="#eef4ff" stroke="transparent" points="740,-58.49 740,-79.49 794,-79.49 794,-58.49 740,-58.49"/>
<polygon fill="none" stroke="#d0d5dd" points="740,-58.49 740,-79.49 794,-79.49 794,-58.49 740,-58.49"/>
<text text-anchor="start" x="745" y="-67.49" font-family="Menlo,Monaco,Consolas,monospace" font-weight="bold" font-size="10.00">val:</text>
<text text-anchor="start" x="770" y="-67.49" font-family="Menlo,Monaco,Consolas,monospace" font-size="10.00"> 20</text>
<polygon fill="#eef4ff" stroke="transparent" points="794,-58.49 794,-79.49 830,-79.49 830,-58.49 794,-58.49"/>
<polygon fill="none" stroke="#d0d5dd" points="794,-58.49 794,-79.49 830,-79.49 830,-58.49 794,-58.49"/>
<text text-anchor="start" x="799" y="-67.49" font-family="Menlo,Monaco,Consolas,monospace" font-weight="bold" font-size="10.00">n:</text>
<text text-anchor="start" x="812" y="-67.49" font-family="Menlo,Monaco,Consolas,monospace" font-size="10.00"> 3</text>
<polygon fill="#eef4ff" stroke="transparent" points="830,-58.49 830,-79.49 866,-79.49 866,-58.49 830,-58.49"/>
<polygon fill="none" stroke="#d0d5dd" points="830,-58.49 830,-79.49 866,-79.49 866,-58.49 830,-58.49"/>
<text text-anchor="start" x="835" y="-67.49" font-family="Menlo,Monaco,Consolas,monospace" font-weight="bold" font-size="10.00">p:</text>
<text text-anchor="start" x="848" y="-67.49" font-family="Menlo,Monaco,Consolas,monospace" font-size="10.00"> 1</text>
</g>
<!-- label1&#45;&gt;label2 -->
<g id="edge2" class="edge">
<title>label1&#45;&gt;label2</title>
<path fill="none" stroke="#dce6e3" stroke-width="1.5" stroke-dasharray="5,2" d="M501,-54.49C554.18,-47.83 628.6,-47.82 681.82,-54.47"/>
</g>
<!-- label1&#45;&gt;label2 -->
<g id="edge9" class="edge">
<title>label1&#45;&gt;label2</title>
<path fill="none" stroke="#22c55e" stroke-width="1.9" d="M559.16,-79.49C577.82,-79.49 597.13,-79.49 615.96,-79.49"/>
<polygon fill="#22c55e" stroke="#22c55e" stroke-width="1.9" points="623.99,-79.49 615.99,-83.09 619.99,-79.94 615.99,-79.94 615.99,-79.49 615.99,-79.04 619.99,-79.04 615.99,-75.89 623.99,-79.49 623.99,-79.49"/>
</g>
<!-- label2&#45;&gt;label1 -->
<g id="edge13" class="edge">
<title>label2&#45;&gt;label1</title>
<path fill="none" stroke="#ef4444" stroke-width="1.9" d="M681.82,-104.51C631.3,-110.82 561.68,-111.13 509.26,-105.45"/>
<polygon fill="#ef4444" stroke="#ef4444" stroke-width="1.9" points="501,-104.49 509.36,-101.84 505.02,-104.51 509,-104.97 508.94,-105.42 508.89,-105.87 504.92,-105.4 508.53,-108.99 501,-104.49 501,-104.49"/>
</g>
<!-- label3 -->
<g id="node4" class="node">
<title>label3</title>
<path fill="#ffffff" stroke="#16a34a" stroke-width="2.1" d="M1177,-104.49C1177,-104.49 951,-104.49 951,-104.49 945,-104.49 939,-98.49 939,-92.49 939,-92.49 939,-66.49 939,-66.49 939,-60.49 945,-54.49 951,-54.49 951,-54.49 1177,-54.49 1177,-54.49 1183,-54.49 1189,-60.49 1189,-66.49 1189,-66.49 1189,-92.49 1189,-92.49 1189,-98.49 1183,-104.49 1177,-104.49"/>
<polygon fill="#eef4ff" stroke="transparent" points="947,-79.49 947,-100.49 1181,-100.49 1181,-79.49 947,-79.49"/>
<polygon fill="none" stroke="#d0d5dd" points="947,-79.49 947,-100.49 1181,-100.49 1181,-79.49 947,-79.49"/>
<text text-anchor="start" x="997" y="-88.49" font-family="Menlo,Monaco,Consolas,monospace" font-weight="bold" font-size="10.00">addr:</text>
<text text-anchor="start" x="1028" y="-88.49" font-family="Menlo,Monaco,Consolas,monospace" font-size="10.00"> 0x0x50300000016c</text>
<polygon fill="#eef4ff" stroke="transparent" points="947,-58.49 947,-79.49 1001,-79.49 1001,-58.49 947,-58.49"/>
<polygon fill="none" stroke="#d0d5dd" points="947,-58.49 947,-79.49 1001,-79.49 1001,-58.49 947,-58.49"/>
<text text-anchor="start" x="952" y="-67.49" font-family="Menlo,Monaco,Consolas,monospace" font-weight="bold" font-size="10.00">phys:</text>
<text text-anchor="start" x="983" y="-67.49" font-family="Menlo,Monaco,Consolas,monospace" font-size="10.00"> 3</text>
<polygon fill="#eef4ff" stroke="transparent" points="1001,-58.49 1001,-79.49 1055,-79.49 1055,-58.49 1001,-58.49"/>
<polygon fill="none" stroke="#d0d5dd" points="1001,-58.49 1001,-79.49 1055,-79.49 1055,-58.49 1001,-58.49"/>
<text text-anchor="start" x="1006" y="-67.49" font-family="Menlo,Monaco,Consolas,monospace" font-weight="bold" font-size="10.00">virt:</text>
<text text-anchor="start" x="1037" y="-67.49" font-family="Menlo,Monaco,Consolas,monospace" font-size="10.00"> 3</text>
<polygon fill="#eef4ff" stroke="transparent" points="1055,-58.49 1055,-79.49 1109,-79.49 1109,-58.49 1055,-58.49"/>
<polygon fill="none" stroke="#d0d5dd" points="1055,-58.49 1055,-79.49 1109,-79.49 1109,-58.49 1055,-58.49"/>
<text text-anchor="start" x="1060" y="-67.49" font-family="Menlo,Monaco,Consolas,monospace" font-weight="bold" font-size="10.00">val:</text>
<text text-anchor="start" x="1085" y="-67.49" font-family="Menlo,Monaco,Consolas,monospace" font-size="10.00"> 30</text>
<polygon fill="#eef4ff" stroke="transparent" points="1109,-58.49 1109,-79.49 1145,-79.49 1145,-58.49 1109,-58.49"/>
<polygon fill="none" stroke="#d0d5dd" points="1109,-58.49 1109,-79.49 1145,-79.49 1145,-58.49 1109,-58.49"/>
<text text-anchor="start" x="1114" y="-67.49" font-family="Menlo,Monaco,Consolas,monospace" font-weight="bold" font-size="10.00">n:</text>
<text text-anchor="start" x="1127" y="-67.49" font-family="Menlo,Monaco,Consolas,monospace" font-size="10.00"> 4</text>
<polygon fill="#eef4ff" stroke="transparent" points="1145,-58.49 1145,-79.49 1181,-79.49 1181,-58.49 1145,-58.49"/>
<polygon fill="none" stroke="#d0d5dd" points="1145,-58.49 1145,-79.49 1181,-79.49 1181,-58.49 1145,-58.49"/>
<text text-anchor="start" x="1150" y="-67.49" font-family="Menlo,Monaco,Consolas,monospace" font-weight="bold" font-size="10.00">p:</text>
<text text-anchor="start" x="1163" y="-67.49" font-family="Menlo,Monaco,Consolas,monospace" font-size="10.00"> 2</text>
</g>
<!-- label2&#45;&gt;label3 -->
<g id="edge3" class="edge">
<title>label2&#45;&gt;label3</title>
<path fill="none" stroke="#dce6e3" stroke-width="1.5" stroke-dasharray="5,2" d="M816,-54.49C869.18,-47.83 943.6,-47.82 996.82,-54.47"/>
</g>
<!-- label2&#45;&gt;label3 -->
<g id="edge10" class="edge">
<title>label2&#45;&gt;label3</title>
<path fill="none" stroke="#22c55e" stroke-width="1.9" d="M874.16,-79.49C892.82,-79.49 912.13,-79.49 930.96,-79.49"/>
<polygon fill="#22c55e" stroke="#22c55e" stroke-width="1.9" points="938.99,-79.49 930.99,-83.09 934.99,-79.94 930.99,-79.94 930.99,-79.49 930.99,-79.04 934.99,-79.04 930.99,-75.89 938.99,-79.49 938.99,-79.49"/>
</g>
<!-- label3&#45;&gt;label2 -->
<g id="edge14" class="edge">
<title>label3&#45;&gt;label2</title>
<path fill="none" stroke="#ef4444" stroke-width="1.9" d="M996.82,-104.51C946.3,-110.82 876.68,-111.13 824.26,-105.45"/>
<polygon fill="#ef4444" stroke="#ef4444" stroke-width="1.9" points="816,-104.49 824.36,-101.84 820.02,-104.51 824,-104.97 823.94,-105.42 823.89,-105.87 819.92,-105.4 823.53,-108.99 816,-104.49 816,-104.49"/>
</g>
<!-- label3&#45;&gt;label4 -->
<g id="edge4" class="edge">
<title>label3&#45;&gt;label4</title>
<path fill="none" stroke="#dce6e3" stroke-width="1.5" stroke-dasharray="5,2" d="M1131,-54.49C1184.18,-47.83 1258.6,-47.82 1311.82,-54.47"/>
</g>
<!-- label3&#45;&gt;label4 -->
<g id="edge11" class="edge">
<title>label3&#45;&gt;label4</title>
<path fill="none" stroke="#22c55e" stroke-width="1.9" d="M1189.16,-79.49C1207.82,-79.49 1227.13,-79.49 1245.96,-79.49"/>
<polygon fill="#22c55e" stroke="#22c55e" stroke-width="1.9" points="1253.99,-79.49 1245.99,-83.09 1249.99,-79.94 1245.99,-79.94 1245.99,-79.49 1245.99,-79.04 1249.99,-79.04 1245.99,-75.89 1253.99,-79.49 1253.99,-79.49"/>
</g>
<!-- label4&#45;&gt;label3 -->
<g id="edge15" class="edge">
<title>label4&#45;&gt;label3</title>
<path fill="none" stroke="#ef4444" stroke-width="1.9" d="M1311.82,-104.51C1261.3,-110.82 1191.68,-111.13 1139.26,-105.45"/>
<polygon fill="#ef4444" stroke="#ef4444" stroke-width="1.9" points="1131,-104.49 1139.36,-101.84 1135.02,-104.51 1139,-104.97 1138.94,-105.42 1138.89,-105.87 1134.92,-105.4 1138.53,-108.99 1131,-104.49 1131,-104.49"/>
</g>
<!-- label5 -->
<g id="node6" class="node">
<title>label5</title>
<path fill="#ffffff" stroke="#7f56d9" stroke-width="2.1" d="M1813,-104.49C1813,-104.49 1581,-104.49 1581,-104.49 1575,-104.49 1569,-98.49 1569,-92.49 1569,-92.49 1569,-66.49 1569,-66.49 1569,-60.49 1575,-54.49 1581,-54.49 1581,-54.49 1813,-54.49 1813,-54.49 1819,-54.49 1825,-60.49 1825,-66.49 1825,-66.49 1825,-92.49 1825,-92.49 1825,-98.49 1819,-104.49 1813,-104.49"/>
<polygon fill="#eef4ff" stroke="transparent" points="1577,-79.49 1577,-100.49 1817,-100.49 1817,-79.49 1577,-79.49"/>
<polygon fill="none" stroke="#d0d5dd" points="1577,-79.49 1577,-100.49 1817,-100.49 1817,-79.49 1577,-79.49"/>
<text text-anchor="start" x="1630" y="-88.49" font-family="Menlo,Monaco,Consolas,monospace" font-weight="bold" font-size="10.00">addr:</text>
<text text-anchor="start" x="1661" y="-88.49" font-family="Menlo,Monaco,Consolas,monospace" font-size="10.00"> 0x0x503000000174</text>
<polygon fill="#eef4ff" stroke="transparent" points="1577,-58.49 1577,-79.49 1631,-79.49 1631,-58.49 1577,-58.49"/>
<polygon fill="none" stroke="#d0d5dd" points="1577,-58.49 1577,-79.49 1631,-79.49 1631,-58.49 1577,-58.49"/>
<text text-anchor="start" x="1582" y="-67.49" font-family="Menlo,Monaco,Consolas,monospace" font-weight="bold" font-size="10.00">phys:</text>
<text text-anchor="start" x="1613" y="-67.49" font-family="Menlo,Monaco,Consolas,monospace" font-size="10.00"> 5</text>
<polygon fill="#eef4ff" stroke="transparent" points="1631,-58.49 1631,-79.49 1691,-79.49 1691,-58.49 1631,-58.49"/>
<polygon fill="none" stroke="#d0d5dd" points="1631,-58.49 1631,-79.49 1691,-79.49 1691,-58.49 1631,-58.49"/>
<text text-anchor="start" x="1636" y="-67.49" font-family="Menlo,Monaco,Consolas,monospace" font-weight="bold" font-size="10.00">virt:</text>
<text text-anchor="start" x="1667" y="-67.49" font-family="Menlo,Monaco,Consolas,monospace" font-size="10.00"> &#45;1</text>
<polygon fill="#eef4ff" stroke="transparent" points="1691,-58.49 1691,-79.49 1739,-79.49 1739,-58.49 1691,-58.49"/>
<polygon fill="none" stroke="#d0d5dd" points="1691,-58.49 1691,-79.49 1739,-79.49 1739,-58.49 1691,-58.49"/>
<text text-anchor="start" x="1696" y="-67.49" font-family="Menlo,Monaco,Consolas,monospace" font-weight="bold" font-size="10.00">val:</text>
<text text-anchor="start" x="1721" y="-67.49" font-family="Menlo,Monaco,Consolas,monospace" font-size="10.00"> 0</text>
<polygon fill="#eef4ff" stroke="transparent" points="1739,-58.49 1739,-79.49 1775,-79.49 1775,-58.49 1739,-58.49"/>
<polygon fill="none" stroke="#d0d5dd" points="1739,-58.49 1739,-79.49 1775,-79.49 1775,-58.49 1739,-58.49"/>
<text text-anchor="start" x="1744" y="-67.49" font-family="Menlo,Monaco,Consolas,monospace" font-weight="bold" font-size="10.00">n:</text>
<text text-anchor="start" x="1757" y="-67.49" font-family="Menlo,Monaco,Consolas,monospace" font-size="10.00"> 6</text>
<polygon fill="#eef4ff" stroke="transparent" points="1775,-58.49 1775,-79.49 1817,-79.49 1817,-58.49 1775,-58.49"/>
<polygon fill="none" stroke="#d0d5dd" points="1775,-58.49 1775,-79.49 1817,-79.49 1817,-58.49 1775,-58.49"/>
<text text-anchor="start" x="1780" y="-67.49" font-family="Menlo,Monaco,Consolas,monospace" font-weight="bold" font-size="10.00">p:</text>
<text text-anchor="start" x="1793" y="-67.49" font-family="Menlo,Monaco,Consolas,monospace" font-size="10.00"> &#45;1</text>
</g>
<!-- label4&#45;&gt;label5 -->
<g id="edge5" class="edge">
<title>label4&#45;&gt;label5</title>
<path fill="none" stroke="#dce6e3" stroke-width="1.5" stroke-dasharray="5,2" d="M1504.44,-79.49C1525.6,-79.49 1547.59,-79.49 1568.82,-79.49"/>
</g>
<!-- label6 -->
<g id="node7" class="node">
<title>label6</title>
<path fill="#ffffff" stroke="#7f56d9" stroke-width="2.1" d="M2134,-104.49C2134,-104.49 1902,-104.49 1902,-104.49 1896,-104.49 1890,-98.49 1890,-92.49 1890,-92.49 1890,-66.49 1890,-66.49 1890,-60.49 1896,-54.49 1902,-54.49 1902,-54.49 2134,-54.49 2134,-54.49 2140,-54.49 2146,-60.49 2146,-66.49 2146,-66.49 2146,-92.49 2146,-92.49 2146,-98.49 2140,-104.49 2134,-104.49"/>
<polygon fill="#eef4ff" stroke="transparent" points="1898,-79.49 1898,-100.49 2138,-100.49 2138,-79.49 1898,-79.49"/>
<polygon fill="none" stroke="#d0d5dd" points="1898,-79.49 1898,-100.49 2138,-100.49 2138,-79.49 1898,-79.49"/>
<text text-anchor="start" x="1951" y="-88.49" font-family="Menlo,Monaco,Consolas,monospace" font-weight="bold" font-size="10.00">addr:</text>
<text text-anchor="start" x="1982" y="-88.49" font-family="Menlo,Monaco,Consolas,monospace" font-size="10.00"> 0x0x503000000178</text>
<polygon fill="#eef4ff" stroke="transparent" points="1898,-58.49 1898,-79.49 1952,-79.49 1952,-58.49 1898,-58.49"/>
<polygon fill="none" stroke="#d0d5dd" points="1898,-58.49 1898,-79.49 1952,-79.49 1952,-58.49 1898,-58.49"/>
<text text-anchor="start" x="1903" y="-67.49" font-family="Menlo,Monaco,Consolas,monospace" font-weight="bold" font-size="10.00">phys:</text>
<text text-anchor="start" x="1934" y="-67.49" font-family="Menlo,Monaco,Consolas,monospace" font-size="10.00"> 6</text>
<polygon fill="#eef4ff" stroke="transparent" points="1952,-58.49 1952,-79.49 2012,-79.49 2012,-58.49 1952,-58.49"/>
<polygon fill="none" stroke="#d0d5dd" points="1952,-58.49 1952,-79.49 2012,-79.49 2012,-58.49 1952,-58.49"/>
<text text-anchor="start" x="1957" y="-67.49" font-family="Menlo,Monaco,Consolas,monospace" font-weight="bold" font-size="10.00">virt:</text>
<text text-anchor="start" x="1988" y="-67.49" font-family="Menlo,Monaco,Consolas,monospace" font-size="10.00"> &#45;1</text>
<polygon fill="#eef4ff" stroke="transparent" points="2012,-58.49 2012,-79.49 2060,-79.49 2060,-58.49 2012,-58.49"/>
<polygon fill="none" stroke="#d0d5dd" points="2012,-58.49 2012,-79.49 2060,-79.49 2060,-58.49 2012,-58.49"/>
<text text-anchor="start" x="2017" y="-67.49" font-family="Menlo,Monaco,Consolas,monospace" font-weight="bold" font-size="10.00">val:</text>
<text text-anchor="start" x="2042" y="-67.49" font-family="Menlo,Monaco,Consolas,monospace" font-size="10.00"> 0</text>
<polygon fill="#eef4ff" stroke="transparent" points="2060,-58.49 2060,-79.49 2096,-79.49 2096,-58.49 2060,-58.49"/>
<polygon fill="none" stroke="#d0d5dd" points="2060,-58.49 2060,-79.49 2096,-79.49 2096,-58.49 2060,-58.49"/>
<text text-anchor="start" x="2065" y="-67.49" font-family="Menlo,Monaco,Consolas,monospace" font-weight="bold" font-size="10.00">n:</text>
<text text-anchor="start" x="2078" y="-67.49" font-family="Menlo,Monaco,Consolas,monospace" font-size="10.00"> 7</text>
<polygon fill="#eef4ff" stroke="transparent" points="2096,-58.49 2096,-79.49 2138,-79.49 2138,-58.49 2096,-58.49"/>
<polygon fill="none" stroke="#d0d5dd" points="2096,-58.49 2096,-79.49 2138,-79.49 2138,-58.49 2096,-58.49"/>
<text text-anchor="start" x="2101" y="-67.49" font-family="Menlo,Monaco,Consolas,monospace" font-weight="bold" font-size="10.00">p:</text>
<text text-anchor="start" x="2114" y="-67.49" font-family="Menlo,Monaco,Consolas,monospace" font-size="10.00"> &#45;1</text>
</g>
<!-- label5&#45;&gt;label6 -->
<g id="edge6" class="edge">
<title>label5&#45;&gt;label6</title>
<path fill="none" stroke="#dce6e3" stroke-width="1.5" stroke-dasharray="5,2" d="M1825.45,-64.76C1846.62,-64.4 1868.58,-64.4 1889.75,-64.77"/>
</g>
<!-- label5&#45;&gt;label6 -->
<g id="edge16" class="edge">
<title>label5&#45;&gt;label6</title>
<path fill="none" stroke="#a855f7" stroke-width="2" d="M1825.45,-94.22C1843.9,-94.54 1862.93,-94.58 1881.53,-94.34"/>
<polygon fill="#a855f7" stroke="#a855f7" stroke-width="2" points="1889.75,-94.21 1881.81,-97.93 1885.76,-94.78 1881.76,-94.84 1881.75,-94.34 1881.74,-93.84 1885.74,-93.78 1881.7,-90.74 1889.75,-94.21 1889.75,-94.21"/>
</g>
<!-- label7 -->
<g id="node8" class="node">
<title>label7</title>
<path fill="#ffffff" stroke="#7f56d9" stroke-width="2.1" d="M2455,-104.49C2455,-104.49 2223,-104.49 2223,-104.49 2217,-104.49 2211,-98.49 2211,-92.49 2211,-92.49 2211,-66.49 2211,-66.49 2211,-60.49 2217,-54.49 2223,-54.49 2223,-54.49 2455,-54.49 2455,-54.49 2461,-54.49 2467,-60.49 2467,-66.49 2467,-66.49 2467,-92.49 2467,-92.49 2467,-98.49 2461,-104.49 2455,-104.49"/>
<polygon fill="#eef4ff" stroke="transparent" points="2219,-79.49 2219,-100.49 2459,-100.49 2459,-79.49 2219,-79.49"/>
<polygon fill="none" stroke="#d0d5dd" points="2219,-79.49 2219,-100.49 2459,-100.49 2459,-79.49 2219,-79.49"/>
<text text-anchor="start" x="2272" y="-88.49" font-family="Menlo,Monaco,Consolas,monospace" font-weight="bold" font-size="10.00">addr:</text>
<text text-anchor="start" x="2303" y="-88.49" font-family="Menlo,Monaco,Consolas,monospace" font-size="10.00"> 0x0x50300000017c</text>
<polygon fill="#eef4ff" stroke="transparent" points="2219,-58.49 2219,-79.49 2273,-79.49 2273,-58.49 2219,-58.49"/>
<polygon fill="none" stroke="#d0d5dd" points="2219,-58.49 2219,-79.49 2273,-79.49 2273,-58.49 2219,-58.49"/>
<text text-anchor="start" x="2224" y="-67.49" font-family="Menlo,Monaco,Consolas,monospace" font-weight="bold" font-size="10.00">phys:</text>
<text text-anchor="start" x="2255" y="-67.49" font-family="Menlo,Monaco,Consolas,monospace" font-size="10.00"> 7</text>
<polygon fill="#eef4ff" stroke="transparent" points="2273,-58.49 2273,-79.49 2333,-79.49 2333,-58.49 2273,-58.49"/>
<polygon fill="none" stroke="#d0d5dd" points="2273,-58.49 2273,-79.49 2333,-79.49 2333,-58.49 2273,-58.49"/>
<text text-anchor="start" x="2278" y="-67.49" font-family="Menlo,Monaco,Consolas,monospace" font-weight="bold" font-size="10.00">virt:</text>
<text text-anchor="start" x="2309" y="-67.49" font-family="Menlo,Monaco,Consolas,monospace" font-size="10.00"> &#45;1</text>
<polygon fill="#eef4ff" stroke="transparent" points="2333,-58.49 2333,-79.49 2381,-79.49 2381,-58.49 2333,-58.49"/>
<polygon fill="none" stroke="#d0d5dd" points="2333,-58.49 2333,-79.49 2381,-79.49 2381,-58.49 2333,-58.49"/>
<text text-anchor="start" x="2338" y="-67.49" font-family="Menlo,Monaco,Consolas,monospace" font-weight="bold" font-size="10.00">val:</text>
<text text-anchor="start" x="2363" y="-67.49" font-family="Menlo,Monaco,Consolas,monospace" font-size="10.00"> 0</text>
<polygon fill="#eef4ff" stroke="transparent" points="2381,-58.49 2381,-79.49 2417,-79.49 2417,-58.49 2381,-58.49"/>
<polygon fill="none" stroke="#d0d5dd" points="2381,-58.49 2381,-79.49 2417,-79.49 2417,-58.49 2381,-58.49"/>
<text text-anchor="start" x="2386" y="-67.49" font-family="Menlo,Monaco,Consolas,monospace" font-weight="bold" font-size="10.00">n:</text>
<text text-anchor="start" x="2399" y="-67.49" font-family="Menlo,Monaco,Consolas,monospace" font-size="10.00"> 0</text>
<polygon fill="#eef4ff" stroke="transparent" points="2417,-58.49 2417,-79.49 2459,-79.49 2459,-58.49 2417,-58.49"/>
<polygon fill="none" stroke="#d0d5dd" points="2417,-58.49 2417,-79.49 2459,-79.49 2459,-58.49 2417,-58.49"/>
<text text-anchor="start" x="2422" y="-67.49" font-family="Menlo,Monaco,Consolas,monospace" font-weight="bold" font-size="10.00">p:</text>
<text text-anchor="start" x="2435" y="-67.49" font-family="Menlo,Monaco,Consolas,monospace" font-size="10.00"> &#45;1</text>
</g>
<!-- label6&#45;&gt;label7 -->
<g id="edge7" class="edge">
<title>label6&#45;&gt;label7</title>
<path fill="none" stroke="#dce6e3" stroke-width="1.5" stroke-dasharray="5,2" d="M2146.45,-64.76C2167.62,-64.4 2189.58,-64.4 2210.75,-64.77"/>
</g>
<!-- label6&#45;&gt;label7 -->
<g id="edge17" class="edge">
<title>label6&#45;&gt;label7</title>
<path fill="none" stroke="#a855f7" stroke-width="2" d="M2146.45,-94.22C2164.9,-94.54 2183.93,-94.58 2202.53,-94.34"/>
<polygon fill="#a855f7" stroke="#a855f7" stroke-width="2" points="2210.75,-94.21 2202.81,-97.93 2206.76,-94.78 2202.76,-94.84 2202.75,-94.34 2202.74,-93.84 2206.74,-93.78 2202.7,-90.74 2210.75,-94.21 2210.75,-94.21"/>
</g>
</g>
</svg>
