<?xml version="1.0" encoding="UTF-8" standalone="no"?>
<!DOCTYPE svg PUBLIC "-//W3C//DTD SVG 1.1//EN"
 "http://www.w3.org/Graphics/SVG/1.1/DTD/svg11.dtd">
<!-- Generated by graphviz version 2.42.4 (0)
 -->
<!-- Title: G Pages: 1 -->
<svg width="2497pt" height="152pt"
 viewBox="0.00 0.00 2497.00 152.14" xmlns="http://www.w3.org/2000/svg" xmlns:xlink="http://www.w3.org/1999/xlink">
<g id="graph0" class="graph" transform="scale(1 1) rotate(0) translate(18 134.14)">
<title>G</title>
<polygon fill="#fcfcfd" stroke="transparent" points="-18,18 -18,-134.14 2479,-134.14 2479,18 -18,18"/>
<!-- label0 -->
<g id="node1" class="node">
<title>label0</title>
<path fill="#ffffff" stroke="#7f56d9" stroke-width="2.1" d="M232,-111C232,-111 12,-111 12,-111 6,-111 0,-105 0,-99 0,-99 0,-73 0,-73 0,-67 6,-61 12,-61 12,-61 232,-61 232,-61 238,-61 244,-67 244,-73 244,-73 244,-99 244,-99 244,-105 238,-111 232,-111"/>
<polygon fill="#eef4ff" stroke="transparent" points="8,-86 8,-107 236,-107 236,-86 8,-86"/>
<polygon fill="none" stroke="#d0d5dd" points="8,-86 8,-107 236,-107 236,-86 8,-86"/>
<text text-anchor="start" x="55" y="-95" font-family="Menlo,Monaco,Consolas,monospace" font-weight="bold" font-size="10.00">addr:</text>
<text text-anchor="start" x="86" y="-95" font-family="Menlo,Monaco,Consolas,monospace" font-size="10.00"> 0x0x503000000160</text>
<polygon fill="#eef4ff" stroke="transparent" points="8,-65 8,-86 62,-86 62,-65 8,-65"/>
<polygon fill="none" stroke="#d0d5dd" points="8,-65 8,-86 62,-86 62,-65 8,-65"/>
<text text-anchor="start" x="13" y="-74" font-family="Menlo,Monaco,Consolas,monospace" font-weight="bold" font-size="10.00">phys:</text>
<text text-anchor="start" x="44" y="-74" font-family="Menlo,Monaco,Consolas,monospace" font-size="10.00"> 0</text>
<polygon fill="#eef4ff" stroke="transparent" points="62,-65 62,-86 116,-86 116,-65 62,-65"/>
<polygon fill="none" stroke="#d0d5dd" points="62,-65 62,-86 116,-86 116,-65 62,-65"/>
<text text-anchor="start" x="67" y="-74" font-family="Menlo,Monaco,Consolas,monospace" font-weight="bold" font-size="10.00">virt:</text>
<text text-anchor="start" x="98" y="-74" font-family="Menlo,Monaco,Consolas,monospace" font-size="10.00"> 0</text>
<polygon fill="#eef4ff" stroke="transparent" points="116,-65 116,-86 164,-86 164,-65 116,-65"/>
<polygon fill="none" stroke="#d0d5dd" points="116,-65 116,-86 164,-86 164,-65 116,-65"/>
<text text-anchor="start" x="121" y="-74" font-family="Menlo,Monaco,Consolas,monospace" font-weight="bold" font-size="10.00">val:</text>
<text text-anchor="start" x="146" y="-74" font-family="Menlo,Monaco,Consolas,monospace" font-size="10.00"> 0</text>
<polygon fill="#eef4ff" stroke="transparent" points="164,-65 164,-86 200,-86 200,-65 164,-65"/>
<polygon fill="none" stroke="#d0d5dd" points="164,-65 164,-86 200,-86 200,-65 164,-65"/>
<text text-anchor="start" x="169" y="-74" font-family="Menlo,Monaco,Consolas,monospace" font-weight="bold" font-size="10.00">n:</text>
<text text-anchor="start" x="182" y="-74" font-family="Menlo,Monaco,Consolas,monospace" font-size="10.00"> 1</text>
<polygon fill="#eef4ff" stroke="transparent" points="200,-65 200,-86 236,-86 236,-65 200,-65"/>
<polygon fill="none" stroke="#d0d5dd" points="200,-65 200,-86 236,-86 236,-65 200,-65"/>
<text text-anchor="start" x="205" y="-74" font-family="Menlo,Monaco,Consolas,monospace" font-weight="bold" font-size="10.00">p:</text>
<text text-anchor="start" x="218" y="-74" font-family="Menlo,Monaco,Consolas,monospace" font-size="10.00"> 5</text>
</g>
<!-- label1 -->
<g id="node2" class="node">
<title>label1</title>
<path fill="#ffffff" stroke="#16a34a" stroke-width="2.1" d="M547,-111C547,-111 321,-111 321,-111 315,-111 309,-105 309,-99 309,-99 309,-73 309,-73 309,-67 315,-61 321,-61 321,-61 547,-61 547,-61 553,-61 559,-67 559,-73 559,-73 559,-99 559,-99 559,-105 553,-111 547,-111"/>
<polygon fill="#eef4ff" stroke="transparent" points="317,-86 317,-107 551,-107 551,-86 317,-86"/>
<polygon fill="none" stroke="#d0d5dd" points="317,-86 317,-107 551,-107 551,-86 317,-86"/>
<text text-anchor="start" x="367" y="-95" font-family="Menlo,Monaco,Consolas,monospace" font-weight="bold" font-size="10.00">addr:</text>
<text text-anchor="start" x="398" y="-95" font-family="Menlo,Monaco,Consolas,monospace" font-size="10.00"> 0x0x503000000164</text>
<polygon fill="#eef4ff" stroke="transparent" points="317,-65 317,-86 371,-86 371,-65 317,-65"/>
<polygon fill="none" stroke="#d0d5dd" points="317,-65 317,-86 371,-86 371,-65 317,-65"/>
<text text-anchor="start" x="322" y="-74" font-family="Menlo,Monaco,Consolas,monospace" font-weight="bold" font-size="10.00">phys:</text>
<text text-anchor="start" x="353" y="-74" font-family="Menlo,Monaco,Consolas,monospace" font-size="10.00"> 1</text>
<polygon fill="#eef4ff" stroke="transparent" points="371,-65 371,-86 425,-86 425,-65 371,-65"/>
<polygon fill="none" stroke="#d0d5dd" points="371,-65 371,-86 425,-86 425,-65 371,-65"/>
<text text-anchor="start" x="376" y="-74" font-family="Menlo,Monaco,Consolas,monospace" font-weight="bold" font-size="10.00">virt:</text>
<text text-anchor="start" x="407" y="-74" font-family="Menlo,Monaco,Consolas,monospace" font-size="10.00"> 1</text>
<polygon fill="#eef4ff" stroke="transparent" points="425,-65 425,-86 479,-86 479,-65 425,-65"/>
<polygon fill="none" stroke="#d0d5dd" points="425,-65 425,-86 479,-86 479,-65 425,-65"/>
<text text-anchor="start" x="430" y="-74" font-family="Menlo,Monaco,Consolas,monospace" font-weight="bold" font-size="10.00">val:</text>
<text text-anchor="start" x="455" y="-74" font-family="Menlo,Monaco,Consolas,monospace" font-size="10.00"> 10</text>
<polygon fill="#eef4ff" stroke="transparent" points="479,-65 479,-86 515,-86 515,-65 479,-65"/>
<polygon fill="none" stroke="#d0d5dd" points="479,-65 479,-86 515,-86 515,-65 479,-65"/>
<text text-anchor="start" x="484" y="-74" font-family="Menlo,Monaco,Consolas,monospace" font-weight="bold" font-size="10.00">n:</text>
<text text-anchor="start" x="497" y="-74" font-family="Menlo,Monaco,Consolas,monospace" font-size="10.00"> 2</text>
<polygon fill="#eef4ff" stroke="transparent" points="515,-65 515,-86 551,-86 551,-65 515,-65"/>
<polygon fill="none" stroke="#d0d5dd" points="515,-65 515,-86 551,-86 551,-65 515,-65"/>
<text text-anchor="start" x="520" y="-74" font-family="Menlo,Monaco,Consolas,monospace" font-weight="bold" font-size="10.00">p:</text>
<text text-anchor="start" x="533" y="-74" font-family="Menlo,Monaco,Consolas,monospace" font-size="10.00"> 0</text>
</g>
<!-- label0&#45;&gt;label1 -->
<g id="edge1" class="edge">
<title>label0&#45;&gt;label1</title>
<path fill="none" stroke="#dce6e3" stroke-width="1.5" stroke-dasharray="5,2" d="M244.19,-71.32C265.41,-70.91 287.53,-70.89 308.84,-71.27"/>
</g>
<!-- label0&#45;&gt;label1 -->
<g id="edge8" class="edge">
<title>label0&#45;&gt;label1</title>
<path fill="none" stroke="#22c55e" stroke-width="1.9" d="M244.19,-100.68C262.76,-101.04 282.01,-101.1 300.81,-100.85"/>
<polygon fill="#22c55e" stroke="#22c55e" stroke-width="1.9" points="308.84,-100.73 300.89,-104.45 304.84,-101.24 300.84,-101.3 300.84,-100.85 300.83,-100.4 304.83,-100.34 300.78,-97.25 308.84,-100.73 308.84,-100.73"/>
</g>
<!-- label5 -->
<g id="node6" class="node">
<title>label5</title>
<path fill="#ffffff" stroke="#16a34a" stroke-width="2.1" d="M1807,-111C1807,-111 1581,-111 1581,-111 1575,-111 1569,-105 1569,-99 1569,-99 1569,-73 1569,-73 1569,-67 1575,-61 1581,-61 1581,-61 1807,-61 1807,-61 1813,-61 1819,-67 1819,-73 1819,-73 1819,-99 1819,-99 1819,-105 1813,-111 1807,-111"/>
<polygon fill="#eef4ff" stroke="transparent" points="1577,-86 1577,-107 1811,-107 1811,-86 1577,-86"/>
<polygon fill="none" stroke="#d0d5dd" points="1577,-86 1577,-107 1811,-107 1811,-86 1577,-86"/>
<text text-anchor="start" x="1627" y="-95" font-family="Menlo,Monaco,Consolas,monospace" font-weight="bold" font-size="10.00">addr:</text>
<text text-anchor="start" x="1658" y="-95" font-family="Menlo,Monaco,Consolas,monospace" font-size="10.00"> 0x0x503000000174</text>
<polygon fill="#eef4ff" stroke="transparent" points="1577,-65 1577,-86 1631,-86 1631,-65 1577,-65"/>
<polygon fill="none" stroke="#d0d5dd" points="1577,-65 1577,-86 1631,-86 1631,-65 1577,-65"/>
<text text-anchor="start" x="1582" y="-74" font-family="Menlo,Monaco,Consolas,monospace" font-weight="bold" font-size="10.00">phys:</text>
<text text-anchor="start" x="1613" y="-74" font-family="Menlo,Monaco,Consolas,monospace" font-size="10.00"> 5</text>
<polygon fill="#eef4ff" stroke="transparent" points="1631,-65 1631,-86 1685,-86 1685,-65 1631,-65"/>
<polygon fill="none" stroke="#d0d5dd" points="1631,-65 1631,-86 1685,-86 1685,-65 1631,-65"/>
<text text-anchor="start" x="1636" y="-74" font-family="Menlo,Monaco,Consolas,monospace" font-weight="bold" font-size="10.00">virt:</text>
<text text-anchor="start" x="1667" y="-74" font-family="Menlo,Monaco,Consolas,monospace" font-size="10.00"> 5</text>
<polygon fill="#eef4ff" stroke="transparent" points="1685,-65 1685,-86 1739,-86 1739,-65 1685,-65"/>
<polygon fill="none" stroke="#d0d5dd" points="1685,-65 1685,-86 1739,-86 1739,-65 1685,-65"/>
<text text-anchor="start" x="1690" y="-74" font-family="Menlo,Monaco,Consolas,monospace" font-weight="bold" font-size="10.00">val:</text>
<text text-anchor="start" x="1715" y="-74" font-family="Menlo,Monaco,Consolas,monospace" font-size="10.00"> 50</text>
<polygon fill="#eef4ff" stroke="transparent" points="1739,-65 1739,-86 1775,-86 1775,-65 1739,-65"/>
<polygon fill="none" stroke="#d0d5dd" points="1739,-65 1739,-86 1775,-86 1775,-65 1739,-65"/>
<text text-anchor="start" x="1744" y="-74" font-family="Menlo,Monaco,Consolas,monospace" font-weight="bold" font-size="10.00">n:</text>
<text text-anchor="start" x="1757" y="-74" font-family="Menlo,Monaco,Consolas,monospace" font-size="10.00"> 0</text>
<polygon fill="#eef4ff" stroke="transparent" points="1775,-65 1775,-86 1811,-86 1811,-65 1775,-65"/>
<polygon fill="none" stroke="#d0d5dd" points="1775,-65 1775,-86 1811,-86 1811,-65 1775,-65"/>
<text text-anchor="start" x="1780" y="-74" font-family="Menlo,Monaco,Consolas,monospace" font-weight="bold" font-size="10.00">p:</text>
<text text-anchor="start" x="1793" y="-74" font-family="Menlo,Monaco,Consolas,monospace" font-size="10.00"> 4</text>
</g>
<!-- label0&#45;&gt;label5 -->
<g id="edge13" class="edge">
<title>label0&#45;&gt;label5</title>
<path fill="none" stroke="#ef4444" stroke-width="1.9" d="M215.18,-60.92C244.94,-53.57 278.2,-46.14 309,-41 502.29,-8.76 552.04,0 748,0 748,0 748,0 1065,0 1260.96,0 1310.65,-9.12 1504,-41 1532.6,-45.72 1563.29,-52.33 1591.44,-59.05"/>
<polygon fill="#ef4444" stroke="#ef4444" stroke-width="1.9" points="1599.32,-60.94 1590.7,-62.57 1595.32,-60.44 1591.43,-59.51 1591.54,-59.07 1591.64,-58.63 1595.53,-59.57 1592.38,-55.57 1599.32,-60.94 1599.32,-60.94"/>
</g>
<!-- label2 -->
<g id="node3" class="node">
<title>label2</title>
<path fill="#ffffff" stroke="#16a34a" stroke-width="2.1" d="M862,-111C862,-111 636,-111 636,-111 630,-111 624,-105 624,-99 624,-99 624,-73 624,-73 624,-67 630,-61 636,-61 636,-61 862,-61 862,-61 868,-61 874,-67 874,-73 874,-73 874,-99 874,-99 874,-105 868,-111 862,-111"/>
<polygon fill="#eef4ff" stroke="transparent" points="632,-86 632,-107 866,-107 866,-86 632,-86"/>
<polygon fill="none" stroke="#d0d5dd" points="632,-86 632,-107 866,-107 866,-86 632,-86"/>
<text text-anchor="start" x="682" y="-95" font-family="Menlo,Monaco,Consolas,monospace" font-weight="bold" font-size="10.00">addr:</text>
<text text-anchor="start" x="713" y="-95" font-family="Menlo,Monaco,Consolas,monospace" font-size="10.00"> 0x0x503000000168</text>
<polygon fill="#eef4ff" stroke="transparent" points="632,-65 632,-86 686,-86 686,-65 632,-65"/>
<polygon fill="none" stroke="#d0d5dd" points="632,-65 632,-86 686,-86 686,-65 632,-65"/>
<text text-anchor="start" x="637" y="-74" font-family="Menlo,Monaco,Consolas,monospace" font-weight="bold" font-size="10.00">phys:</text>
<text text-anchor="start" x="668" y="-74" font-family="Menlo,Monaco,Consolas,monospace" font-size="10.00"> 2</text>
<polygon fill="#eef4ff" stroke="transparent" points="686,-65 686,-86 740,-86 740,-65 686,-65"/>
<polygon fill="none" stroke="#d0d5dd" points="686,-65 686,-86 740,-86 740,-65 686,-65"/>
<text text-anchor="start" x="691" y="-74" font-family="Menlo,Monaco,Consolas,monospace" font-weight="bold" font-size="10.00">virt:</text>
<text text-anchor="start" x="722" y="-74" font-family="Menlo,Monaco,Consolas,monospace" font-size="10.00"> 2</text>
<polygon fill="#eef4ff" stroke="transparent" points="740,-65 740,-86 794,-86 794,-65 740,-65"/>
<polygon fill="none" stroke="#d0d5dd" points="740,-65 740,-86 794,-86 794,-65 740,-65"/>
<text text-anchor="start" x="745" y="-74" font-family="Menlo,Monaco,Consolas,monospace" font-weight="bold" font-size="10.00">val:</text>
<text text-anchor="start" x="770" y="-74" font-family="Menlo,Monaco,Consolas,monospace" font-size="10.00"> 20</text>
<polygon fill="#eef4ff" stroke="transparent" points="794,-65 794,-86 830,-86 830,-65 794,-65"/>
<polygon fill="none" stroke="#d0d5dd" points="794,-65 794,-86 830,-86 830,-65 794,-65"/>
<text text-anchor="start" x="799" y="-74" font-family="Menlo,Monaco,Consolas,monospace" font-weight="bold" font-size="10.00">n:</text>
<text text-anchor="start" x="812" y="-74" font-family="Menlo,Monaco,Consolas,monospace" font-size="10.00"> 3</text>
<polygon fill="#eef4ff" stroke="transparent" points="830,-65 830,-86 866,-86 866,-65 830,-65"/>
<polygon fill="none" stroke="#d0d5dd" points="830,-65 830,-86 866,-86 866,-65 830,-65"/>
<text text-anchor="start" x="835" y="-74" font-family="Menlo,Monaco,Consolas,monospace" font-weight="bold" font-size="10.00">p:</text>
<text text-anchor="start" x="848" y="-74" font-family="Menlo,Monaco,Consolas,monospace" font-size="10.00"> 1</text>
</g>
<!-- label1&#45;&gt;label2 -->
<g id="edge2" class="edge">
<title>label1&#45;&gt;label2</title>
<path fill="none" stroke="#dce6e3" stroke-width="1.5" stroke-dasharray="5,2" d="M501,-61C554.18,-54.34 628.6,-54.33 681.82,-60.98"/>
</g>
<!-- label1&#45;&gt;label2 -->
<g id="edge9" class="edge">
<title>label1&#45;&gt;label2</title>
<path fill="none" stroke="#22c55e" stroke-width="1.9" d="M559.16,-86C577.82,-86 597.13,-86 615.96,-86"/>
<polygon fill="#22c55e" stroke="#22c55e" stroke-width="1.9" points="623.99,-86 615.99,-89.6 619.99,-86.45 615.99,-86.45 615.99,-86 615.99,-85.55 619.99,-85.55 615.99,-82.4 623.99,-86 623.99,-86"/>
</g>
<!-- label2&#45;&gt;label1 -->
<g id="edge14" class="edge">
<title>label2&#45;&gt;label1</title>
<path fill="none" stroke="#ef4444" stroke-width="1.9" d="M681.82,-111.02C631.3,-117.33 561.68,-117.64 509.26,-111.96"/>
<polygon fill="#ef4444" stroke="#ef4444" stroke-width="1.9" points="501,-111 509.36,-108.35 505.02,-111.02 509,-111.48 508.94,-111.93 508.89,-112.37 504.92,-111.91 508.53,-115.5 501,-111 501,-111"/>
</g>
<!-- label3 -->
<g id="node4" class="node">
<title>label3</title>
<path fill="#ffffff" stroke="#16a34a" stroke-width="2.1" d="M1177,-111C1177,-111 951,-111 951,-111 945,-111 939,-105 939,-99 939,-99 939,-73 939,-73 939,-67 945,-61 951,-61 951,-61 1177,-61 1177,-61 1183,-61 1189,-67 1189,-73 1189,-73 1189,-99 1189,-99 1189,-105 1183,-111 1177,-111"/>
<polygon fill="#eef4ff" stroke="transparent" points="947,-86 947,-107 1181,-107 1181,-86 947,-86"/>
<polygon fill="none" stroke="#d0d5dd" points="947,-86 947,-107 1181,-107 1181,-86 947,-86"/>
<text text-anchor="start" x="997" y="-95" font-family="Menlo,Monaco,Consolas,monospace" font-weight="bold" font-size="10.00">addr:</text>
<text text-anchor="start" x="1028" y="-95" font-family="Menlo,Monaco,Consolas,monospace" font-size="10.00"> 0x0x50300000016c</text>
<polygon fill="#eef4ff" stroke="transparent" points="947,-65 947,-86 1001,-86 1001,-65 947,-65"/>
<polygon fill="none" stroke="#d0d5dd" points="947,-65 947,-86 1001,-86 1001,-65 947,-65"/>
<text text-anchor="start" x="952" y="-74" font-family="Menlo,Monaco,Consolas,monospace" font-weight="bold" font-size="10.00">phys:</text>
<text text-anchor="start" x="983" y="-74" font-family="Menlo,Monaco,Consolas,monospace" font-size="10.00"> 3</text>
<polygon fill="#eef4ff" stroke="transparent" points="1001,-65 1001,-86 1055,-86 1055,-65 1001,-65"/>
<polygon fill="none" stroke="#d0d5dd" points="1001,-65 1001,-86 1055,-86 1055,-65 1001,-65"/>
<text text-anchor="start" x="1006" y="-74" font-family="Menlo,Monaco,Consolas,monospace" font-weight="bold" font-size="10.00">virt:</text>
<text text-anchor="start" x="1037" y="-74" font-family="Menlo,Monaco,Consolas,monospace" font-size="10.00"> 3</text>
<polygon fill="#eef4ff" stroke="transparent" points="1055,-65 1055,-86 1109,-86 1109,-65 1055,-65"/>
<polygon fill="none" stroke="#d0d5dd" points="1055,-65 1055,-86 1109,-86 1109,-65 1055,-65"/>
<text text-anchor="start" x="1060" y="-74" font-family="Menlo,Monaco,Consolas,monospace" font-weight="bold" font-size="10.00">val:</text>
<text text-anchor="start" x="1085" y="-74" font-family="Menlo,Monaco,Consolas,monospace" font-size="10.00"> 30</text>
<polygon fill="#eef4ff" stroke="transparent" points="1109,-65 1109,-86 1145,-86 1145,-65 1109,-65"/>
<polygon fill="none" stroke="#d0d5dd" points="1109,-65 1109,-86 1145,-86 1145,-65 1109,-65"/>
<text text-anchor="start" x="1114" y="-74" font-family="Menlo,Monaco,Consolas,monospace" font-weight="bold" font-size="10.00">n:</text>
<text text-anchor="start" x="1127" y="-74" font-family="Menlo,Monaco,Consolas,monospace" font-size="10.00"> 4</text>
<polygon fill="#eef4ff" stroke="transparent" points="1145,-65 1145,-86 1181,-86 1181,-65 1145,-65"/>
<polygon fill="none" stroke="#d0d5dd" points="1145,-65 1145,-86 1181,-86 1181,-65 1145,-65"/>
<text text-anchor="start" x="1150" y="-74" font-family="Menlo,Monaco,Consolas,monospace" font-weight="bold" font-size="10.00">p:</text>
<text text-anchor="start" x="1163" y="-74" font-family="Menlo,Monaco,Consolas,monospace" font-size="10.00"> 2</text>
</g>
<!-- label2&#45;&gt;label3 -->
<g id="edge3" class="edge">
<title>label2&#45;&gt;label3</title>
<path fill="none" stroke="#dce6e3" stroke-width="1.5" stroke-dasharray="5,2" d="M816,-61C869.18,-54.34 943.6,-54.33 996.82,-60.98"/>
</g>
<!-- label2&#45;&gt;label3 -->
<g id="edge10" class="edge">
<title>label2&#45;&gt;label3</title>
<path fill="none" stroke="#22c55e" stroke-width="1.9" d="M874.16,-86C892.82,-86 912.13,-86 930.96,-86"/>
<polygon fill="#22c55e" stroke="#22c55e" stroke-width="1.9" points="938.99,-86 930.99,-89.6 934.99,-86.45 930.99,-86.45 930.99,-86 930.99,-85.55 934.99,-85.55 930.99,-82.4 938.99,-86 938.99,-86"/>
</g>
<!-- label3&#45;&gt;label2 -->
<g id="edge15" class="edge">
<title>label3&#45;&gt;label2</title>
<path fill="none" stroke="#ef4444" stroke-width="1.9" d="M996.82,-111.02C946.3,-117.33 876.68,-117.64 824.26,-111.96"/>
<polygon fill="#ef4444" stroke="#ef4444" stroke-width="1.9" points="816,-111 824.36,-108.35 820.02,-111.02 824,-111.48 823.94,-111.93 823.89,-112.37 819.92,-111.91 823.53,-115.5 816,-111 816,-111"/>
</g>
<!-- label4 -->
<g id="node5" class="node">
<title>label4</title>
<path fill="#ffffff" stroke="#16a34a" stroke-width="2.1" d="M1492,-111C1492,-111 1266,-111 1266,-111 1260,-111 1254,-105 1254,-99 1254,-99 1254,-73 1254,-73 1254,-67 1260,-61 1266,-61 1266,-61 1492,-61 1492,-61 1498,-61 1504,-67 1504,-73 1504,-73 1504,-99 1504,-99 1504,-105 1498,-111 1492,-111"/>
<polygon fill="#eef4ff" stroke="transparent" points="1262,-86 1262,-107 1496,-107 1496,-86 1262,-86"/>
<polygon fill="none" stroke="#d0d5dd" points="1262,-86 1262,-107 1496,-107 1496,-86 1262,-86"/>
<text text-anchor="start" x="1312" y="-95" font-family="Menlo,Monaco,Consolas,monospace" font-weight="bold" font-size="10.00">addr:</text>
<text text-anchor="start" x="1343" y="-95" font-family="Menlo,Monaco,Consolas,monospace" font-size="10.00"> 0x0x503000000170</text>
<polygon fill="#eef4ff" stroke="transparent" points="1262,-65 1262,-86 1316,-86 1316,-65 1262,-65"/>
<polygon fill="none" stroke="#d0d5dd" points="1262,-65 1262,-86 1316,-86 1316,-65 1262,-65"/>
<text text-anchor="start" x="1267" y="-74" font-family="Menlo,Monaco,Consolas,monospace" font-weight="bold" font-size="10.00">phys:</text>
<text text-anchor="start" x="1298" y="-74" font-family="Menlo,Monaco,Consolas,monospace" font-size="10.00"> 4</text>
<polygon fill="#eef4ff" stroke="transparent" points="1316,-65 1316,-86 1370,-86 1370,-65 1316,-65"/>
<polygon fill="none" stroke="#d0d5dd" points="1316,-65 1316,-86 1370,-86 1370,-65 1316,-65"/>
<text text-anchor="start" x="1321" y="-74" font-family="Menlo,Monaco,Consolas,monospace" font-weight="bold" font-size="10.00">virt:</text>
<text text-anchor="start" x="1352" y="-74" font-family="Menlo,Monaco,Consolas,monospace" font-size="10.00"> 4</text>
<polygon fill="#eef4ff" stroke="transparent" points="1370,-65 1370,-86 1424,-86 1424,-65 1370,-65"/>
<polygon fill="none" stroke="#d0d5dd" points="1370,-65 1370,-86 1424,-86 1424,-65 1370,-65"/>
<text text-anchor="start" x="1375" y="-74" font-family="Menlo,Monaco,Consolas,monospace" font-weight="bold" font-size="10.00">val:</text>
<text text-anchor="start" x="1400" y="-74" font-family="Menlo,Monaco,Consolas,monospace" font-size="10.00"> 40</text>
<polygon fill="#eef4ff" stroke="transparent" points="1424,-65 1424,-86 1460,-86 1460,-65 1424,-65"/>
<polygon fill="none" stroke="#d0d5dd" points="1424,-65 1424,-86 1460,-86 1460,-65 1424,-65"/>
<text text-anchor="start" x="1429" y="-74" font-family="Menlo,Monaco,Consolas,monospace" font-weight="bold" font-size="10.00">n:</text>
<text text-anchor="start" x="1442" y="-74" font-family="Menlo,Monaco,Consolas,monospace" font-size="10.00"> 5</text>
<polygon fill="#eef4ff" stroke="transparent" points="1460,-65 1460,-86 1496,-86 1496,-65 1460,-65"/>
<polygon fill="none" stroke="#d0d5dd" points="1460,-65 1460,-86 1496,-86 1496,-65 1460,-65"/>
<text text-anchor="start" x="1465" y="-74" font-family="Menlo,Monaco,Consolas,monospace" font-weight="bold" font-size="10.00">p:</text>
<text text-anchor="start" x="1478" y="-74" font-family="Menlo,Monaco,Consolas,monospace" font-size="10.00"> 3</text>
</g>
<!-- label3&#45;&gt;label4 -->
<g id="edge4" class="edge">
<title>label3&#45;&gt;label4</title>
<path fill="none" stroke="#dce6e3" stroke-width="1.5" stroke-dasharray="5,2" d="M1131,-61C1184.18,-54.34 1258.6,-54.33 1311.82,-60.98"/>
</g>
<!-- label3&#45;&gt;label4 -->
<g id="edge11" class="edge">
<title>label3&#45;&gt;label4</title>
<path fill="none" stroke="#22c55e" stroke-width="1.9" d="M1189.16,-86C1207.82,-86 1227.13,-86 1245.96,-86"/>
<polygon fill="#22c55e" stroke="#22c55e" stroke-width="1.9" points="1253.99,-86 1245.99,-89.6 1249.99,-86.45 1245.99,-86.45 1245.99,-86 1245.99,-85.55 1249.99,-85.55 1245.99,-82.4 1253.99,-86 1253.99,-86"/>
</g>
<!-- label4&#45;&gt;label3 -->
<g id="edge16" class="edge">
<title>label4&#45;&gt;label3</title>
<path fill="none" stroke="#ef4444" stroke-width="1.9" d="M1311.82,-111.02C1261.3,-117.33 1191.68,-117.64 1139.26,-111.96"/>
<polygon fill="#ef4444" stroke="#ef4444" stroke-width="1.9" points="1131,-111 1139.36,-108.35 1135.02,-111.02 1139,-111.48 1138.94,-111.93 1138.89,-112.37 1134.92,-111.91 1138.53,-115.5 1131,-111 1131,-111"/>
</g>
<!-- label4&#45;&gt;label5 -->
<g id="edge5" class="edge">
<title>label4&#45;&gt;label5</title>
<path fill="none" stroke="#dce6e3" stroke-width="1.5" stroke-dasharray="5,2" d="M1446,-61C1499.18,-54.34 1573.6,-54.33 1626.82,-60.98"/>
</g>
<!-- label4&#45;&gt;label5 -->
<g id="edge12" class="edge">
<title>label4&#45;&gt;label5</title>
<path fill="none" stroke="#22c55e" stroke-width="1.9" d="M1504.16,-86C1522.82,-86 1542.13,-86 1560.96,-86"/>
<polygon fill="#22c55e" stroke="#22c55e" stroke-width="1.9" points="1568.99,-86 1560.99,-89.6 1564.99,-86.45 1560.99,-86.45 1560.99,-86 1560.99,-85.55 1564.99,-85.55 1560.99,-82.4 1568.99,-86 1568.99,-86"/>
</g>
<!-- label5&#45;&gt;label4 -->
<g id="edge17" class="edge">
<title>label5&#45;&gt;label4</title>
<path fill="none" stroke="#ef4444" stroke-width="1.9" d="M1626.82,-111.02C1576.3,-117.33 1506.68,-117.64 1454.26,-111.96"/>
<polygon fill="#ef4444" stroke="#ef4444" stroke-width="1.9" points="1446,-111 1454.36,-108.35 1450.02,-111.02 1454,-111.48 1453.94,-111.93 1453.89,-112.37 1449.92,-111.91 1453.53,-115.5 1446,-111 1446,-111"/>
</g>
<!-- label6 -->
<g id="node7" class="node">
<title>label6</title>
<path fill="#ffffff" stroke="#7f56d9" stroke-width="2.1" d="M2128,-111C2128,-111 1896,-111 1896,-111 1890,-111 1884,-105 1884,-99 1884,-99 1884,-73 1884,-73 1884,-67 1890,-61 1896,-61 1896,-61 2128,-61 2128,-61 2134,-61 2140,-67 2140,-73 2140,-73 2140,-99 2140,-99 2140,-105 2134,-111 2128,-111"/>
<polygon fill="#eef4ff" stroke="transparent" points="1892,-86 1892,-107 2132,-107 2132,-86 1892,-86"/>
<polygon fill="none" stroke="#d0d5dd" points="1892,-86 1892,-107 2132,-107 2132,-86 1892,-86"/>
<text text-anchor="start" x="1945" y="-95" font-family="Menlo,Monaco,Consolas,monospace" font-weight="bold" font-size="10.00">addr:</text>
<text text-anchor="start" x="1976" y="-95" font-family="Menlo,Monaco,Consolas,monospace" font-size="10.00"> 0x0x503000000178</text>
<polygon fill="#eef4ff" stroke="transparent" points="1892,-65 1892,-86 1946,-86 1946,-65 1892,-65"/>
<polygon fill="none" stroke="#d0d5dd" points="1892,-65 1892,-86 1946,-86 1946,-65 1892,-65"/>
<text text-anchor="start" x="1897" y="-74" font-family="Menlo,Monaco,Consolas,monospace" font-weight="bold" font-size="10.00">phys:</text>
<text text-anchor="start" x="1928" y="-74" font-family="Menlo,Monaco,Consolas,monospace" font-size="10.00"> 6</text>
<polygon fill="#eef4ff" stroke="transparent" points="1946,-65 1946,-86 2006,-86 2006,-65 1946,-65"/>
<polygon fill="none" stroke="#d0d5dd" points="1946,-65 1946,-86 2006,-86 2006,-65 1946,-65"/>
<text text-anchor="start" x="1951" y="-74" font-family="Menlo,Monaco,Consolas,monospace" font-weight="bold" font-size="10.00">virt:</text>
<text text-anchor="start" x="1982" y="-74" font-family="Menlo,Monaco,Consolas,monospace" font-size="10.00"> &#45;1</text>
<polygon fill="#eef4ff" stroke="transparent" points="2006,-65 2006,-86 2054,-86 2054,-65 2006,-65"/>
<polygon fill="none" stroke="#d0d5dd" points="2006,-65 2006,-86 2054,-86 2054,-65 2006,-65"/>
<text text-anchor="start" x="2011" y="-74" font-family="Menlo,Monaco,Consolas,monospace" font-weight="bold" font-size="10.00">val:</text>
<text text-anchor="start" x="2036" y="-74" font-family="Menlo,Monaco,Consolas,monospace" font-size="10.00"> 0</text>
<polygon fill="#eef4ff" stroke="transparent" points="2054,-65 2054,-86 2090,-86 2090,-65 2054,-65"/>
<polygon fill="none" stroke="#d0d5dd" points="2054,-65 2054,-86 2090,-86 2090,-65 2054,-65"/>
<text text-anchor="start" x="2059" y="-74" font-family="Menlo,Monaco,Consolas,monospace" font-weight="bold" font-size="10.00">n:</text>
<text text-anchor="start" x="2072" y="-74" font-family="Menlo,Monaco,Consolas,monospace" font-size="10.00"> 7</text>
<polygon fill="#eef4ff" stroke="transparent" points="2090,-65 2090,-86 2132,-86 2132,-65 2090,-65"/>
<polygon fill="none" stroke="#d0d5dd" points="2090,-65 2090,-86 2132,-86 2132,-65 2090,-65"/>
<text text-anchor="start" x="2095" y="-74" font-family="Menlo,Monaco,Consolas,monospace" font-weight="bold" font-size="10.00">p:</text>
<text text-anchor="start" x="2108" y="-74" font-family="Menlo,Monaco,Consolas,monospace" font-size="10.00"> &#45;1</text>
</g>
<!-- label5&#45;&gt;label6 -->
<g id="edge6" class="edge">
<title>label5&#45;&gt;label6</title>
<path fill="none" stroke="#dce6e3" stroke-width="1.5" stroke-dasharray="5,2" d="M1819.44,-86C1840.6,-86 1862.59,-86 1883.82,-86"/>
</g>
<!-- label7 -->
<g id="node8" class="node">
<title>label7</title>
<path fill="#ffffff" stroke="#7f56d9" stroke-width="2.1" d="M2449,-111C2449,-111 2217,-111 2217,-111 2211,-111 2205,-105 2205,-99 2205,-99 2205,-73 2205,-73 2205,-67 2211,-61 2217,-61 2217,-61 2449,-61 2449,-61 2455,-61 2461,-67 2461,-73 2461,-73 2461,-99 2461,-99 2461,-105 2455,-111 2449,-111"/>
<polygon fill="#eef4ff" stroke="transparent" points="2213,-86 2213,-107 2453,-107 2453,-86 2213,-86"/>
<polygon fill="none" stroke="#d0d5dd" points="2213,-86 2213,-107 2453,-107 2453,-86 2213,-86"/>
<text text-anchor="start" x="2266" y="-95" font-family="Menlo,Monaco,Consolas,monospace" font-weight="bold" font-size="10.00">addr:</text>
<text text-anchor="start" x="2297" y="-95" font-family="Menlo,Monaco,Consolas,monospace" font-size="10.00"> 0x0x50300000017c</text>
<polygon fill="#eef4ff" stroke="transparent" points="2213,-65 2213,-86 2267,-86 2267,-65 2213,-65"/>
<polygon fill="none" stroke="#d0d5dd" points="2213,-65 2213,-86 2267,-86 2267,-65 2213,-65"/>
<text text-anchor="start" x="2218" y="-74" font-family="Menlo,Monaco,Consolas,monospace" font-weight="bold" font-size="10.00">phys:</text>
<text text-anchor="start" x="2249" y="-74" font-family="Menlo,Monaco,Consolas,monospace" font-size="10.00"> 7</text>
<polygon fill="#eef4ff" stroke="transparent" points="2267,-65 2267,-86 2327,-86 2327,-65 2267,-65"/>
<polygon fill="none" stroke="#d0d5dd" points="2267,-65 2267,-86 2327,-86 2327,-65 2267,-65"/>
<text text-anchor="start" x="2272" y="-74" font-family="Menlo,Monaco,Consolas,monospace" font-weight="bold" font-size="10.00">virt:</text>
<text text-anchor="start" x="2303" y="-74" font-family="Menlo,Monaco,Consolas,monospace" font-size="10.00"> &#45;1</text>
<polygon fill="#eef4ff" stroke="transparent" points="2327,-65 2327,-86 2375,-86 2375,-65 2327,-65"/>
<polygon fill="none" stroke="#d0d5dd" points="2327,-65 2327,-86 2375,-86 2375,-65 2327,-65"/>
<text text-anchor="start" x="2332" y="-74" font-family="Menlo,Monaco,Consolas,monospace" font-weight="bold" font-size="10.00">val:</text>
<text text-anchor="start" x="2357" y="-74" font-family="Menlo,Monaco,Consolas,monospace" font-size="10.00"> 0</text>
<polygon fill="#eef4ff" stroke="transparent" points="2375,-65 2375,-86 2411,-86 2411,-65 2375,-65"/>
<polygon fill="none" stroke="#d0d5dd" points="2375,-65 2375,-86 2411,-86 2411,-65 2375,-65"/>
<text text-anchor="start" x="2380" y="-74" font-family="Menlo,Monaco,Consolas,monospace" font-weight="bold" font-size="10.00">n:</text>
<text text-anchor="start" x="2393" y="-74" font-family="Menlo,Monaco,Consolas,monospace" font-size="10.00"> 0</text>
<polygon fill="#eef4ff" stroke="transparent" points="2411,-65 2411,-86 2453,-86 2453,-65 2411,-65"/>
<polygon fill="none" stroke="#d0d5dd" points="2411,-65 2411,-86 2453,-86 2453,-65 2411,-65"/>
<text text-anchor="start" x="2416" y="-74" font-family="Menlo,Monaco,Consolas,monospace" font-weight="bold" font-size="10.00">p:</text>
<text text-anchor="start" x="2429" y="-74" font-family="Menlo,Monaco,Consolas,monospace" font-size="10.00"> &#45;1</text>
</g>
<!-- label6&#45;&gt;label7 -->
<g id="edge7" class="edge">
<title>label6&#45;&gt;label7</title>
<path fill="none" stroke="#dce6e3" stroke-width="1.5" stroke-dasharray="5,2" d="M2140.45,-71.27C2161.62,-70.91 2183.58,-70.91 2204.75,-71.28"/>
</g>
<!-- label6&#45;&gt;label7 -->
<g id="edge18" class="edge">
<title>label6&#45;&gt;label7</title>
<path fill="none" stroke="#a855f7" stroke-width="2" d="M2140.45,-100.73C2158.9,-101.04 2177.93,-101.09 2196.53,-100.85"/>
<polygon fill="#a855f7" stroke="#a855f7" stroke-width="2" points="2204.75,-100.72 2196.81,-104.44 2200.76,-101.28 2196.76,-101.34 2196.75,-100.84 2196.74,-100.34 2200.74,-100.28 2196.7,-97.24 2204.75,-100.72 2204.75,-100.72"/>
</g>
</g>
</svg>
