<?xml version="1.0" encoding="UTF-8" standalone="no"?>
<!DOCTYPE svg PUBLIC "-//W3C//DTD SVG 1.1//EN"
 "http://www.w3.org/Graphics/SVG/1.1/DTD/svg11.dtd">
<!-- Generated by graphviz version 2.42.4 (0)
 -->
<!-- Title: G Pages: 1 -->
<svg width="2485pt" height="238pt"
 viewBox="0.00 0.00 2485.00 238.14" xmlns="http://www.w3.org/2000/svg" xmlns:xlink="http://www.w3.org/1999/xlink">
<g id="graph0" class="graph" transform="scale(1 1) rotate(0) translate(18 220.14)">
<title>G</title>
<polygon fill="#fcfcfd" stroke="transparent" points="-18,18 -18,-220.14 2467,-220.14 2467,18 -18,18"/>
<!-- label0 -->
<g id="node1" class="node">
<title>label0</title>
<path fill="#ffffff" stroke="#7f56d9" stroke-width="2.1" d="M232,-197C232,-197 12,-197 12,-197 6,-197 0,-191 0,-185 0,-185 0,-159 0,-159 0,-153 6,-147 12,-147 12,-147 232,-147 232,-147 238,-147 244,-153 244,-159 244,-159 244,-185 244,-185 244,-191 238,-197 232,-197"/>
<polygon fill="#eef4ff" stroke="transparent" points="8,-172 8,-193 236,-193 236,-172 8,-172"/>
<polygon fill="none" stroke="#d0d5dd" points="8,-172 8,-193 236,-193 236,-172 8,-172"/>
<text text-anchor="start" x="55" y="-181" font-family="monospace" font-weight="bold" font-size="10.00">addr:</text>
<text text-anchor="start" x="86" y="-181" font-family="monospace" font-size="10.00"> 0x0x503000000160</text>
<polygon fill="#eef4ff" stroke="transparent" points="8,-151 8,-172 62,-172 62,-151 8,-151"/>
<polygon fill="none" stroke="#d0d5dd" points="8,-151 8,-172 62,-172 62,-151 8,-151"/>
<text text-anchor="start" x="13" y="-160" font-family="monospace" font-weight="bold" font-size="10.00">phys:</text>
<text text-anchor="start" x="44" y="-160" font-family="monospace" font-size="10.00"> 0</text>
<polygon fill="#eef4ff" stroke="transparent" points="62,-151 62,-172 116,-172 116,-151 62,-151"/>
<polygon fill="none" stroke="#d0d5dd" points="62,-151 62,-172 116,-172 116,-151 62,-151"/>
<text text-anchor="start" x="67" y="-160" font-family="monospace" font-weight="bold" font-size="10.00">virt:</text>
<text text-anchor="start" x="98" y="-160" font-family="monospace" font-size="10.00"> 0</text>
<polygon fill="#eef4ff" stroke="transparent" points="116,-151 116,-172 164,-172 164,-151 116,-151"/>
<polygon fill="none" stroke="#d0d5dd" points="116,-151 116,-172 164,-172 164,-151 116,-151"/>
<text text-anchor="start" x="121" y="-160" font-family="monospace" font-weight="bold" font-size="10.00">val:</text>
<text text-anchor="start" x="146" y="-160" font-family="monospace" font-size="10.00"> 0</text>
<polygon fill="#eef4ff" stroke="transparent" points="164,-151 164,-172 200,-172 200,-151 164,-151"/>
<polygon fill="none" stroke="#d0d5dd" points="164,-151 164,-172 200,-172 200,-151 164,-151"/>
<text text-anchor="start" x="169" y="-160" font-family="monospace" font-weight="bold" font-size="10.00">n:</text>
<text text-anchor="start" x="182" y="-160" font-family="monospace" font-size="10.00"> 1</text>
<polygon fill="#eef4ff" stroke="transparent" points="200,-151 200,-172 236,-172 236,-151 200,-151"/>
<polygon fill="none" stroke="#d0d5dd" points="200,-151 200,-172 236,-172 236,-151 200,-151"/>
<text text-anchor="start" x="205" y="-160" font-family="monospace" font-weight="bold" font-size="10.00">p:</text>
<text text-anchor="start" x="218" y="-160" font-family="monospace" font-size="10.00"> 6</text>
</g>
<!-- label1 -->
<g id="node2" class="node">
<title>label1</title>
<path fill="#ffffff" stroke="#ef4444" stroke-width="2.1" d="M547,-197C547,-197 321,-197 321,-197 315,-197 309,-191 309,-185 309,-185 309,-159 309,-159 309,-153 315,-147 321,-147 321,-147 547,-147 547,-147 553,-147 559,-153 559,-159 559,-159 559,-185 559,-185 559,-191 553,-197 547,-197"/>
<polygon fill="#eef4ff" stroke="transparent" points="317,-172 317,-193 551,-193 551,-172 317,-172"/>
<polygon fill="none" stroke="#d0d5dd" points="317,-172 317,-193 551,-193 551,-172 317,-172"/>
<text text-anchor="start" x="367" y="-181" font-family="monospace" font-weight="bold" font-size="10.00">addr:</text>
<text text-anchor="start" x="398" y="-181" font-family="monospace" font-size="10.00"> 0x0x503000000164</text>
<polygon fill="#eef4ff" stroke="transparent" points="317,-151 317,-172 371,-172 371,-151 317,-151"/>
<polygon fill="none" stroke="#d0d5dd" points="317,-151 317,-172 371,-172 371,-151 317,-151"/>
<text text-anchor="start" x="322" y="-160" font-family="monospace" font-weight="bold" font-size="10.00">phys:</text>
<text text-anchor="start" x="353" y="-160" font-family="monospace" font-size="10.00"> 1</text>
<polygon fill="#eef4ff" stroke="transparent" points="371,-151 371,-172 425,-172 425,-151 371,-151"/>
<polygon fill="none" stroke="#d0d5dd" points="371,-151 371,-172 425,-172 425,-151 371,-151"/>
<text text-anchor="start" x="376" y="-160" font-family="monospace" font-weight="bold" font-size="10.00">virt:</text>
<text text-anchor="start" x="407" y="-160" font-family="monospace" font-size="10.00"> 0</text>
<polygon fill="#eef4ff" stroke="transparent" points="425,-151 425,-172 479,-172 479,-151 425,-151"/>
<polygon fill="none" stroke="#d0d5dd" points="425,-151 425,-172 479,-172 479,-151 425,-151"/>
<text text-anchor="start" x="430" y="-160" font-family="monospace" font-weight="bold" font-size="10.00">val:</text>
<text text-anchor="start" x="455" y="-160" font-family="monospace" font-size="10.00"> 10</text>
<polygon fill="#eef4ff" stroke="transparent" points="479,-151 479,-172 515,-172 515,-151 479,-151"/>
<polygon fill="none" stroke="#d0d5dd" points="479,-151 479,-172 515,-172 515,-151 479,-151"/>
<text text-anchor="start" x="484" y="-160" font-family="monospace" font-weight="bold" font-size="10.00">n:</text>
<text text-anchor="start" x="497" y="-160" font-family="monospace" font-size="10.00"> 2</text>
<polygon fill="#eef4ff" stroke="transparent" points="515,-151 515,-172 551,-172 551,-151 515,-151"/>
<polygon fill="none" stroke="#d0d5dd" points="515,-151 515,-172 551,-172 551,-151 515,-151"/>
<text text-anchor="start" x="520" y="-160" font-family="monospace" font-weight="bold" font-size="10.00">p:</text>
<text text-anchor="start" x="533" y="-160" font-family="monospace" font-size="10.00"> 6</text>
</g>
<!-- label0&#45;&gt;label1 -->
<g id="edge1" class="edge">
<title>label0&#45;&gt;label1</title>
<path fill="none" stroke="#dce6e3" stroke-width="1.5" stroke-dasharray="5,2" d="M244.19,-157.32C265.41,-156.91 287.53,-156.89 308.84,-157.27"/>
</g>
<!-- label0&#45;&gt;label1 -->
<g id="edge8" class="edge">
<title>label0&#45;&gt;label1</title>
<path fill="none" stroke="#22c55e" stroke-width="1.9" d="M244.19,-186.68C262.76,-187.04 282.01,-187.1 300.81,-186.85"/>
<polygon fill="#22c55e" stroke="#22c55e" stroke-width="1.9" points="308.84,-186.73 300.89,-190.45 304.84,-187.24 300.84,-187.3 300.84,-186.85 300.83,-186.4 304.83,-186.34 300.78,-183.25 308.84,-186.73 308.84,-186.73"/>
</g>
<!-- label6 -->
<g id="node7" class="node">
<title>label6</title>
<path fill="#ffffff" stroke="#ef4444" stroke-width="2.1" d="M2437,-197C2437,-197 2211,-197 2211,-197 2205,-197 2199,-191 2199,-185 2199,-185 2199,-159 2199,-159 2199,-153 2205,-147 2211,-147 2211,-147 2437,-147 2437,-147 2443,-147 2449,-153 2449,-159 2449,-159 2449,-185 2449,-185 2449,-191 2443,-197 2437,-197"/>
<polygon fill="#eef4ff" stroke="transparent" points="2207,-172 2207,-193 2441,-193 2441,-172 2207,-172"/>
<polygon fill="none" stroke="#d0d5dd" points="2207,-172 2207,-193 2441,-193 2441,-172 2207,-172"/>
<text text-anchor="start" x="2257" y="-181" font-family="monospace" font-weight="bold" font-size="10.00">addr:</text>
<text text-anchor="start" x="2288" y="-181" font-family="monospace" font-size="10.00"> 0x0x503000000178</text>
<polygon fill="#eef4ff" stroke="transparent" points="2207,-151 2207,-172 2261,-172 2261,-151 2207,-151"/>
<polygon fill="none" stroke="#d0d5dd" points="2207,-151 2207,-172 2261,-172 2261,-151 2207,-151"/>
<text text-anchor="start" x="2212" y="-160" font-family="monospace" font-weight="bold" font-size="10.00">phys:</text>
<text text-anchor="start" x="2243" y="-160" font-family="monospace" font-size="10.00"> 6</text>
<polygon fill="#eef4ff" stroke="transparent" points="2261,-151 2261,-172 2315,-172 2315,-151 2261,-151"/>
<polygon fill="none" stroke="#d0d5dd" points="2261,-151 2261,-172 2315,-172 2315,-151 2261,-151"/>
<text text-anchor="start" x="2266" y="-160" font-family="monospace" font-weight="bold" font-size="10.00">virt:</text>
<text text-anchor="start" x="2297" y="-160" font-family="monospace" font-size="10.00"> 0</text>
<polygon fill="#eef4ff" stroke="transparent" points="2315,-151 2315,-172 2369,-172 2369,-151 2315,-151"/>
<polygon fill="none" stroke="#d0d5dd" points="2315,-151 2315,-172 2369,-172 2369,-151 2315,-151"/>
<text text-anchor="start" x="2320" y="-160" font-family="monospace" font-weight="bold" font-size="10.00">val:</text>
<text text-anchor="start" x="2345" y="-160" font-family="monospace" font-size="10.00"> 60</text>
<polygon fill="#eef4ff" stroke="transparent" points="2369,-151 2369,-172 2405,-172 2405,-151 2369,-151"/>
<polygon fill="none" stroke="#d0d5dd" points="2369,-151 2369,-172 2405,-172 2405,-151 2369,-151"/>
<text text-anchor="start" x="2374" y="-160" font-family="monospace" font-weight="bold" font-size="10.00">n:</text>
<text text-anchor="start" x="2387" y="-160" font-family="monospace" font-size="10.00"> 1</text>
<polygon fill="#eef4ff" stroke="transparent" points="2405,-151 2405,-172 2441,-172 2441,-151 2405,-151"/>
<polygon fill="none" stroke="#d0d5dd" points="2405,-151 2405,-172 2441,-172 2441,-151 2405,-151"/>
<text text-anchor="start" x="2410" y="-160" font-family="monospace" font-weight="bold" font-size="10.00">p:</text>
<text text-anchor="start" x="2423" y="-160" font-family="monospace" font-size="10.00"> 5</text>
</g>
<!-- label0&#45;&gt;label6 -->
<g id="edge15" class="edge">
<title>label0&#45;&gt;label6</title>
<path fill="none" stroke="#ef4444" stroke-width="1.9" d="M175.98,-146.99C282.05,-99.29 529.11,0 748,0 748,0 748,0 1695,0 1894.26,0 1943.92,-31.23 2134,-91 2178.99,-105.15 2227.87,-126.26 2264.66,-143.39"/>
<polygon fill="#ef4444" stroke="#ef4444" stroke-width="1.9" points="2272.31,-146.98 2263.54,-146.84 2268.5,-145.69 2264.88,-143.99 2265.07,-143.58 2265.26,-143.17 2268.88,-144.87 2266.6,-140.32 2272.31,-146.98 2272.31,-146.98"/>
</g>
<!-- label2 -->
<g id="node3" class="node">
<title>label2</title>
<path fill="#ffffff" stroke="#ef4444" stroke-width="2.1" d="M862,-197C862,-197 636,-197 636,-197 630,-197 624,-191 624,-185 624,-185 624,-159 624,-159 624,-153 630,-147 636,-147 636,-147 862,-147 862,-147 868,-147 874,-153 874,-159 874,-159 874,-185 874,-185 874,-191 868,-197 862,-197"/>
<polygon fill="#eef4ff" stroke="transparent" points="632,-172 632,-193 866,-193 866,-172 632,-172"/>
<polygon fill="none" stroke="#d0d5dd" points="632,-172 632,-193 866,-193 866,-172 632,-172"/>
<text text-anchor="start" x="682" y="-181" font-family="monospace" font-weight="bold" font-size="10.00">addr:</text>
<text text-anchor="start" x="713" y="-181" font-family="monospace" font-size="10.00"> 0x0x503000000168</text>
<polygon fill="#eef4ff" stroke="transparent" points="632,-151 632,-172 686,-172 686,-151 632,-151"/>
<polygon fill="none" stroke="#d0d5dd" points="632,-151 632,-172 686,-172 686,-151 632,-151"/>
<text text-anchor="start" x="637" y="-160" font-family="monospace" font-weight="bold" font-size="10.00">phys:</text>
<text text-anchor="start" x="668" y="-160" font-family="monospace" font-size="10.00"> 2</text>
<polygon fill="#eef4ff" stroke="transparent" points="686,-151 686,-172 740,-172 740,-151 686,-151"/>
<polygon fill="none" stroke="#d0d5dd" points="686,-151 686,-172 740,-172 740,-151 686,-151"/>
<text text-anchor="start" x="691" y="-160" font-family="monospace" font-weight="bold" font-size="10.00">virt:</text>
<text text-anchor="start" x="722" y="-160" font-family="monospace" font-size="10.00"> 0</text>
<polygon fill="#eef4ff" stroke="transparent" points="740,-151 740,-172 794,-172 794,-151 740,-151"/>
<polygon fill="none" stroke="#d0d5dd" points="740,-151 740,-172 794,-172 794,-151 740,-151"/>
<text text-anchor="start" x="745" y="-160" font-family="monospace" font-weight="bold" font-size="10.00">val:</text>
<text text-anchor="start" x="770" y="-160" font-family="monospace" font-size="10.00"> 20</text>
<polygon fill="#eef4ff" stroke="transparent" points="794,-151 794,-172 830,-172 830,-151 794,-151"/>
<polygon fill="none" stroke="#d0d5dd" points="794,-151 794,-172 830,-172 830,-151 794,-151"/>
<text text-anchor="start" x="799" y="-160" font-family="monospace" font-weight="bold" font-size="10.00">n:</text>
<text text-anchor="start" x="812" y="-160" font-family="monospace" font-size="10.00"> 3</text>
<polygon fill="#eef4ff" stroke="transparent" points="830,-151 830,-172 866,-172 866,-151 830,-151"/>
<polygon fill="none" stroke="#d0d5dd" points="830,-151 830,-172 866,-172 866,-151 830,-151"/>
<text text-anchor="start" x="835" y="-160" font-family="monospace" font-weight="bold" font-size="10.00">p:</text>
<text text-anchor="start" x="848" y="-160" font-family="monospace" font-size="10.00"> 1</text>
</g>
<!-- label1&#45;&gt;label2 -->
<g id="edge2" class="edge">
<title>label1&#45;&gt;label2</title>
<path fill="none" stroke="#dce6e3" stroke-width="1.5" stroke-dasharray="5,2" d="M501,-147C554.18,-140.34 628.6,-140.33 681.82,-146.98"/>
</g>
<!-- label1&#45;&gt;label2 -->
<g id="edge9" class="edge">
<title>label1&#45;&gt;label2</title>
<path fill="none" stroke="#22c55e" stroke-width="1.9" d="M559.16,-172C577.82,-172 597.13,-172 615.96,-172"/>
<polygon fill="#22c55e" stroke="#22c55e" stroke-width="1.9" points="623.99,-172 615.99,-175.6 619.99,-172.45 615.99,-172.45 615.99,-172 615.99,-171.55 619.99,-171.55 615.99,-168.4 623.99,-172 623.99,-172"/>
</g>
<!-- label2&#45;&gt;label1 -->
<g id="edge16" class="edge">
<title>label2&#45;&gt;label1</title>
<path fill="none" stroke="#ef4444" stroke-width="1.9" d="M681.82,-197.02C631.3,-203.33 561.68,-203.64 509.26,-197.96"/>
<polygon fill="#ef4444" stroke="#ef4444" stroke-width="1.9" points="501,-197 509.36,-194.35 505.02,-197.02 509,-197.48 508.94,-197.93 508.89,-198.37 504.92,-197.91 508.53,-201.5 501,-197 501,-197"/>
</g>
<!-- label3 -->
<g id="node4" class="node">
<title>label3</title>
<path fill="#ffffff" stroke="#ef4444" stroke-width="2.1" d="M1177,-197C1177,-197 951,-197 951,-197 945,-197 939,-191 939,-185 939,-185 939,-159 939,-159 939,-153 945,-147 951,-147 951,-147 1177,-147 1177,-147 1183,-147 1189,-153 1189,-159 1189,-159 1189,-185 1189,-185 1189,-191 1183,-197 1177,-197"/>
<polygon fill="#eef4ff" stroke="transparent" points="947,-172 947,-193 1181,-193 1181,-172 947,-172"/>
<polygon fill="none" stroke="#d0d5dd" points="947,-172 947,-193 1181,-193 1181,-172 947,-172"/>
<text text-anchor="start" x="997" y="-181" font-family="monospace" font-weight="bold" font-size="10.00">addr:</text>
<text text-anchor="start" x="1028" y="-181" font-family="monospace" font-size="10.00"> 0x0x50300000016c</text>
<polygon fill="#eef4ff" stroke="transparent" points="947,-151 947,-172 1001,-172 1001,-151 947,-151"/>
<polygon fill="none" stroke="#d0d5dd" points="947,-151 947,-172 1001,-172 1001,-151 947,-151"/>
<text text-anchor="start" x="952" y="-160" font-family="monospace" font-weight="bold" font-size="10.00">phys:</text>
<text text-anchor="start" x="983" y="-160" font-family="monospace" font-size="10.00"> 3</text>
<polygon fill="#eef4ff" stroke="transparent" points="1001,-151 1001,-172 1055,-172 1055,-151 1001,-151"/>
<polygon fill="none" stroke="#d0d5dd" points="1001,-151 1001,-172 1055,-172 1055,-151 1001,-151"/>
<text text-anchor="start" x="1006" y="-160" font-family="monospace" font-weight="bold" font-size="10.00">virt:</text>
<text text-anchor="start" x="1037" y="-160" font-family="monospace" font-size="10.00"> 0</text>
<polygon fill="#eef4ff" stroke="transparent" points="1055,-151 1055,-172 1109,-172 1109,-151 1055,-151"/>
<polygon fill="none" stroke="#d0d5dd" points="1055,-151 1055,-172 1109,-172 1109,-151 1055,-151"/>
<text text-anchor="start" x="1060" y="-160" font-family="monospace" font-weight="bold" font-size="10.00">val:</text>
<text text-anchor="start" x="1085" y="-160" font-family="monospace" font-size="10.00"> 30</text>
<polygon fill="#eef4ff" stroke="transparent" points="1109,-151 1109,-172 1145,-172 1145,-151 1109,-151"/>
<polygon fill="none" stroke="#d0d5dd" points="1109,-151 1109,-172 1145,-172 1145,-151 1109,-151"/>
<text text-anchor="start" x="1114" y="-160" font-family="monospace" font-weight="bold" font-size="10.00">n:</text>
<text text-anchor="start" x="1127" y="-160" font-family="monospace" font-size="10.00"> 7</text>
<polygon fill="#eef4ff" stroke="transparent" points="1145,-151 1145,-172 1181,-172 1181,-151 1145,-151"/>
<polygon fill="none" stroke="#d0d5dd" points="1145,-151 1145,-172 1181,-172 1181,-151 1145,-151"/>
<text text-anchor="start" x="1150" y="-160" font-family="monospace" font-weight="bold" font-size="10.00">p:</text>
<text text-anchor="start" x="1163" y="-160" font-family="monospace" font-size="10.00"> 2</text>
</g>
<!-- label2&#45;&gt;label3 -->
<g id="edge3" class="edge">
<title>label2&#45;&gt;label3</title>
<path fill="none" stroke="#dce6e3" stroke-width="1.5" stroke-dasharray="5,2" d="M816,-147C869.18,-140.34 943.6,-140.33 996.82,-146.98"/>
</g>
<!-- label2&#45;&gt;label3 -->
<g id="edge10" class="edge">
<title>label2&#45;&gt;label3</title>
<path fill="none" stroke="#22c55e" stroke-width="1.9" d="M874.16,-172C892.82,-172 912.13,-172 930.96,-172"/>
<polygon fill="#22c55e" stroke="#22c55e" stroke-width="1.9" points="938.99,-172 930.99,-175.6 934.99,-172.45 930.99,-172.45 930.99,-172 930.99,-171.55 934.99,-171.55 930.99,-168.4 938.99,-172 938.99,-172"/>
</g>
<!-- label3&#45;&gt;label2 -->
<g id="edge17" class="edge">
<title>label3&#45;&gt;label2</title>
<path fill="none" stroke="#ef4444" stroke-width="1.9" d="M996.82,-197.02C946.3,-203.33 876.68,-203.64 824.26,-197.96"/>
<polygon fill="#ef4444" stroke="#ef4444" stroke-width="1.9" points="816,-197 824.36,-194.35 820.02,-197.02 824,-197.48 823.94,-197.93 823.89,-198.37 819.92,-197.91 823.53,-201.5 816,-197 816,-197"/>
</g>
<!-- label4 -->
<g id="node5" class="node">
<title>label4</title>
<path fill="#ffffff" stroke="#ef4444" stroke-width="2.1" d="M1807,-197C1807,-197 1581,-197 1581,-197 1575,-197 1569,-191 1569,-185 1569,-185 1569,-159 1569,-159 1569,-153 1575,-147 1581,-147 1581,-147 1807,-147 1807,-147 1813,-147 1819,-153 1819,-159 1819,-159 1819,-185 1819,-185 1819,-191 1813,-197 1807,-197"/>
<polygon fill="#eef4ff" stroke="transparent" points="1577,-172 1577,-193 1811,-193 1811,-172 1577,-172"/>
<polygon fill="none" stroke="#d0d5dd" points="1577,-172 1577,-193 1811,-193 1811,-172 1577,-172"/>
<text text-anchor="start" x="1627" y="-181" font-family="monospace" font-weight="bold" font-size="10.00">addr:</text>
<text text-anchor="start" x="1658" y="-181" font-family="monospace" font-size="10.00"> 0x0x503000000170</text>
<polygon fill="#eef4ff" stroke="transparent" points="1577,-151 1577,-172 1631,-172 1631,-151 1577,-151"/>
<polygon fill="none" stroke="#d0d5dd" points="1577,-151 1577,-172 1631,-172 1631,-151 1577,-151"/>
<text text-anchor="start" x="1582" y="-160" font-family="monospace" font-weight="bold" font-size="10.00">phys:</text>
<text text-anchor="start" x="1613" y="-160" font-family="monospace" font-size="10.00"> 4</text>
<polygon fill="#eef4ff" stroke="transparent" points="1631,-151 1631,-172 1685,-172 1685,-151 1631,-151"/>
<polygon fill="none" stroke="#d0d5dd" points="1631,-151 1631,-172 1685,-172 1685,-151 1631,-151"/>
<text text-anchor="start" x="1636" y="-160" font-family="monospace" font-weight="bold" font-size="10.00">virt:</text>
<text text-anchor="start" x="1667" y="-160" font-family="monospace" font-size="10.00"> 0</text>
<polygon fill="#eef4ff" stroke="transparent" points="1685,-151 1685,-172 1739,-172 1739,-151 1685,-151"/>
<polygon fill="none" stroke="#d0d5dd" points="1685,-151 1685,-172 1739,-172 1739,-151 1685,-151"/>
<text text-anchor="start" x="1690" y="-160" font-family="monospace" font-weight="bold" font-size="10.00">val:</text>
<text text-anchor="start" x="1715" y="-160" font-family="monospace" font-size="10.00"> 40</text>
<polygon fill="#eef4ff" stroke="transparent" points="1739,-151 1739,-172 1775,-172 1775,-151 1739,-151"/>
<polygon fill="none" stroke="#d0d5dd" points="1739,-151 1739,-172 1775,-172 1775,-151 1739,-151"/>
<text text-anchor="start" x="1744" y="-160" font-family="monospace" font-weight="bold" font-size="10.00">n:</text>
<text text-anchor="start" x="1757" y="-160" font-family="monospace" font-size="10.00"> 5</text>
<polygon fill="#eef4ff" stroke="transparent" points="1775,-151 1775,-172 1811,-172 1811,-151 1775,-151"/>
<polygon fill="none" stroke="#d0d5dd" points="1775,-151 1775,-172 1811,-172 1811,-151 1775,-151"/>
<text text-anchor="start" x="1780" y="-160" font-family="monospace" font-weight="bold" font-size="10.00">p:</text>
<text text-anchor="start" x="1793" y="-160" font-family="monospace" font-size="10.00"> 7</text>
</g>
<!-- label3&#45;&gt;label4 -->
<g id="edge4" class="edge">
<title>label3&#45;&gt;label4</title>
<path fill="none" stroke="#dce6e3" stroke-width="1.5" stroke-dasharray="5,2" d="M1189.07,-172C1299.08,-172 1458.91,-172 1568.92,-172"/>
</g>
<!-- label7 -->
<g id="node8" class="node">
<title>label7</title>
<path fill="#ffffff" stroke="#ef4444" stroke-width="2.1" d="M1492,-111C1492,-111 1266,-111 1266,-111 1260,-111 1254,-105 1254,-99 1254,-99 1254,-73 1254,-73 1254,-67 1260,-61 1266,-61 1266,-61 1492,-61 1492,-61 1498,-61 1504,-67 1504,-73 1504,-73 1504,-99 1504,-99 1504,-105 1498,-111 1492,-111"/>
<polygon fill="#eef4ff" stroke="transparent" points="1262,-86 1262,-107 1496,-107 1496,-86 1262,-86"/>
<polygon fill="none" stroke="#d0d5dd" points="1262,-86 1262,-107 1496,-107 1496,-86 1262,-86"/>
<text text-anchor="start" x="1312" y="-95" font-family="monospace" font-weight="bold" font-size="10.00">addr:</text>
<text text-anchor="start" x="1343" y="-95" font-family="monospace" font-size="10.00"> 0x0x50300000017c</text>
<polygon fill="#eef4ff" stroke="transparent" points="1262,-65 1262,-86 1316,-86 1316,-65 1262,-65"/>
<polygon fill="none" stroke="#d0d5dd" points="1262,-65 1262,-86 1316,-86 1316,-65 1262,-65"/>
<text text-anchor="start" x="1267" y="-74" font-family="monospace" font-weight="bold" font-size="10.00">phys:</text>
<text text-anchor="start" x="1298" y="-74" font-family="monospace" font-size="10.00"> 7</text>
<polygon fill="#eef4ff" stroke="transparent" points="1316,-65 1316,-86 1370,-86 1370,-65 1316,-65"/>
<polygon fill="none" stroke="#d0d5dd" points="1316,-65 1316,-86 1370,-86 1370,-65 1316,-65"/>
<text text-anchor="start" x="1321" y="-74" font-family="monospace" font-weight="bold" font-size="10.00">virt:</text>
<text text-anchor="start" x="1352" y="-74" font-family="monospace" font-size="10.00"> 0</text>
<polygon fill="#eef4ff" stroke="transparent" points="1370,-65 1370,-86 1424,-86 1424,-65 1370,-65"/>
<polygon fill="none" stroke="#d0d5dd" points="1370,-65 1370,-86 1424,-86 1424,-65 1370,-65"/>
<text text-anchor="start" x="1375" y="-74" font-family="monospace" font-weight="bold" font-size="10.00">val:</text>
<text text-anchor="start" x="1400" y="-74" font-family="monospace" font-size="10.00"> 35</text>
<polygon fill="#eef4ff" stroke="transparent" points="1424,-65 1424,-86 1460,-86 1460,-65 1424,-65"/>
<polygon fill="none" stroke="#d0d5dd" points="1424,-65 1424,-86 1460,-86 1460,-65 1424,-65"/>
<text text-anchor="start" x="1429" y="-74" font-family="monospace" font-weight="bold" font-size="10.00">n:</text>
<text text-anchor="start" x="1442" y="-74" font-family="monospace" font-size="10.00"> 4</text>
<polygon fill="#eef4ff" stroke="transparent" points="1460,-65 1460,-86 1496,-86 1496,-65 1460,-65"/>
<polygon fill="none" stroke="#d0d5dd" points="1460,-65 1460,-86 1496,-86 1496,-65 1460,-65"/>
<text text-anchor="start" x="1465" y="-74" font-family="monospace" font-weight="bold" font-size="10.00">p:</text>
<text text-anchor="start" x="1478" y="-74" font-family="monospace" font-size="10.00"> 3</text>
</g>
<!-- label3&#45;&gt;label7 -->
<g id="edge11" class="edge">
<title>label3&#45;&gt;label7</title>
<path fill="none" stroke="#22c55e" stroke-width="1.9" d="M1114.94,-146.94C1150.35,-134.25 1199.61,-119.55 1245.94,-107.45"/>
<polygon fill="#22c55e" stroke="#22c55e" stroke-width="1.9" points="1253.95,-105.38 1247.11,-110.87 1250.19,-106.81 1246.32,-107.82 1246.2,-107.38 1246.09,-106.95 1249.96,-105.94 1245.3,-103.9 1253.95,-105.38 1253.95,-105.38"/>
</g>
<!-- label5 -->
<g id="node6" class="node">
<title>label5</title>
<path fill="#ffffff" stroke="#ef4444" stroke-width="2.1" d="M2122,-197C2122,-197 1896,-197 1896,-197 1890,-197 1884,-191 1884,-185 1884,-185 1884,-159 1884,-159 1884,-153 1890,-147 1896,-147 1896,-147 2122,-147 2122,-147 2128,-147 2134,-153 2134,-159 2134,-159 2134,-185 2134,-185 2134,-191 2128,-197 2122,-197"/>
<polygon fill="#eef4ff" stroke="transparent" points="1892,-172 1892,-193 2126,-193 2126,-172 1892,-172"/>
<polygon fill="none" stroke="#d0d5dd" points="1892,-172 1892,-193 2126,-193 2126,-172 1892,-172"/>
<text text-anchor="start" x="1942" y="-181" font-family="monospace" font-weight="bold" font-size="10.00">addr:</text>
<text text-anchor="start" x="1973" y="-181" font-family="monospace" font-size="10.00"> 0x0x503000000174</text>
<polygon fill="#eef4ff" stroke="transparent" points="1892,-151 1892,-172 1946,-172 1946,-151 1892,-151"/>
<polygon fill="none" stroke="#d0d5dd" points="1892,-151 1892,-172 1946,-172 1946,-151 1892,-151"/>
<text text-anchor="start" x="1897" y="-160" font-family="monospace" font-weight="bold" font-size="10.00">phys:</text>
<text text-anchor="start" x="1928" y="-160" font-family="monospace" font-size="10.00"> 5</text>
<polygon fill="#eef4ff" stroke="transparent" points="1946,-151 1946,-172 2000,-172 2000,-151 1946,-151"/>
<polygon fill="none" stroke="#d0d5dd" points="1946,-151 1946,-172 2000,-172 2000,-151 1946,-151"/>
<text text-anchor="start" x="1951" y="-160" font-family="monospace" font-weight="bold" font-size="10.00">virt:</text>
<text text-anchor="start" x="1982" y="-160" font-family="monospace" font-size="10.00"> 0</text>
<polygon fill="#eef4ff" stroke="transparent" points="2000,-151 2000,-172 2054,-172 2054,-151 2000,-151"/>
<polygon fill="none" stroke="#d0d5dd" points="2000,-151 2000,-172 2054,-172 2054,-151 2000,-151"/>
<text text-anchor="start" x="2005" y="-160" font-family="monospace" font-weight="bold" font-size="10.00">val:</text>
<text text-anchor="start" x="2030" y="-160" font-family="monospace" font-size="10.00"> 50</text>
<polygon fill="#eef4ff" stroke="transparent" points="2054,-151 2054,-172 2090,-172 2090,-151 2054,-151"/>
<polygon fill="none" stroke="#d0d5dd" points="2054,-151 2054,-172 2090,-172 2090,-151 2054,-151"/>
<text text-anchor="start" x="2059" y="-160" font-family="monospace" font-weight="bold" font-size="10.00">n:</text>
<text text-anchor="start" x="2072" y="-160" font-family="monospace" font-size="10.00"> 6</text>
<polygon fill="#eef4ff" stroke="transparent" points="2090,-151 2090,-172 2126,-172 2126,-151 2090,-151"/>
<polygon fill="none" stroke="#d0d5dd" points="2090,-151 2090,-172 2126,-172 2126,-151 2090,-151"/>
<text text-anchor="start" x="2095" y="-160" font-family="monospace" font-weight="bold" font-size="10.00">p:</text>
<text text-anchor="start" x="2108" y="-160" font-family="monospace" font-size="10.00"> 4</text>
</g>
<!-- label4&#45;&gt;label5 -->
<g id="edge5" class="edge">
<title>label4&#45;&gt;label5</title>
<path fill="none" stroke="#dce6e3" stroke-width="1.5" stroke-dasharray="5,2" d="M1761,-147C1814.18,-140.34 1888.6,-140.33 1941.82,-146.98"/>
</g>
<!-- label4&#45;&gt;label5 -->
<g id="edge12" class="edge">
<title>label4&#45;&gt;label5</title>
<path fill="none" stroke="#22c55e" stroke-width="1.9" d="M1819.16,-172C1837.82,-172 1857.13,-172 1875.96,-172"/>
<polygon fill="#22c55e" stroke="#22c55e" stroke-width="1.9" points="1883.99,-172 1875.99,-175.6 1879.99,-172.45 1875.99,-172.45 1875.99,-172 1875.99,-171.55 1879.99,-171.55 1875.99,-168.4 1883.99,-172 1883.99,-172"/>
</g>
<!-- label4&#45;&gt;label7 -->
<g id="edge18" class="edge">
<title>label4&#45;&gt;label7</title>
<path fill="none" stroke="#ef4444" stroke-width="1.9" d="M1568.95,-152.62C1523.58,-140.98 1474.41,-126.55 1437.6,-113.76"/>
<polygon fill="#ef4444" stroke="#ef4444" stroke-width="1.9" points="1429.94,-111.06 1438.68,-110.33 1433.86,-111.97 1437.64,-113.3 1437.49,-113.72 1437.34,-114.14 1433.56,-112.81 1436.29,-117.12 1429.94,-111.06 1429.94,-111.06"/>
</g>
<!-- label5&#45;&gt;label4 -->
<g id="edge19" class="edge">
<title>label5&#45;&gt;label4</title>
<path fill="none" stroke="#ef4444" stroke-width="1.9" d="M1941.82,-197.02C1891.3,-203.33 1821.68,-203.64 1769.26,-197.96"/>
<polygon fill="#ef4444" stroke="#ef4444" stroke-width="1.9" points="1761,-197 1769.36,-194.35 1765.02,-197.02 1769,-197.48 1768.94,-197.93 1768.89,-198.37 1764.92,-197.91 1768.53,-201.5 1761,-197 1761,-197"/>
</g>
<!-- label5&#45;&gt;label6 -->
<g id="edge6" class="edge">
<title>label5&#45;&gt;label6</title>
<path fill="none" stroke="#dce6e3" stroke-width="1.5" stroke-dasharray="5,2" d="M2076,-147C2129.18,-140.34 2203.6,-140.33 2256.82,-146.98"/>
</g>
<!-- label5&#45;&gt;label6 -->
<g id="edge13" class="edge">
<title>label5&#45;&gt;label6</title>
<path fill="none" stroke="#22c55e" stroke-width="1.9" d="M2134.16,-172C2152.82,-172 2172.13,-172 2190.96,-172"/>
<polygon fill="#22c55e" stroke="#22c55e" stroke-width="1.9" points="2198.99,-172 2190.99,-175.6 2194.99,-172.45 2190.99,-172.45 2190.99,-172 2190.99,-171.55 2194.99,-171.55 2190.99,-168.4 2198.99,-172 2198.99,-172"/>
</g>
<!-- label6&#45;&gt;label5 -->
<g id="edge20" class="edge">
<title>label6&#45;&gt;label5</title>
<path fill="none" stroke="#ef4444" stroke-width="1.9" d="M2256.82,-197.02C2206.3,-203.33 2136.68,-203.64 2084.26,-197.96"/>
<polygon fill="#ef4444" stroke="#ef4444" stroke-width="1.9" points="2076,-197 2084.36,-194.35 2080.02,-197.02 2084,-197.48 2083.94,-197.93 2083.89,-198.37 2079.92,-197.91 2083.53,-201.5 2076,-197 2076,-197"/>
</g>
<!-- label6&#45;&gt;label7 -->
<g id="edge7" class="edge">
<title>label6&#45;&gt;label7</title>
<path fill="none" stroke="#dce6e3" stroke-width="1.5" stroke-dasharray="5,2" d="M2232.31,-146.92C2201.36,-139.29 2166.38,-131.7 2134,-127 1913.77,-95.06 1654.08,-87.45 1504.09,-85.95"/>
</g>
<!-- label7&#45;&gt;label3 -->
<g id="edge21" class="edge">
<title>label7&#45;&gt;label3</title>
<path fill="none" stroke="#ef4444" stroke-width="1.9" d="M1327.84,-111.14C1292.48,-123.8 1243.36,-138.45 1197.14,-150.53"/>
<polygon fill="#ef4444" stroke="#ef4444" stroke-width="1.9" points="1189.16,-152.6 1196,-147.11 1192.91,-151.16 1196.79,-150.16 1196.9,-150.59 1197.01,-151.03 1193.14,-152.03 1197.8,-154.08 1189.16,-152.6 1189.16,-152.6"/>
</g>
<!-- label7&#45;&gt;label4 -->
<g id="edge14" class="edge">
<title>label7&#45;&gt;label4</title>
<path fill="none" stroke="#22c55e" stroke-width="1.9" d="M1504.16,-105.4C1549.41,-117.02 1598.44,-131.41 1635.19,-144.17"/>
<polygon fill="#22c55e" stroke="#22c55e" stroke-width="1.9" points="1642.84,-146.86 1634.1,-147.6 1638.92,-145.96 1635.15,-144.63 1635.3,-144.21 1635.45,-143.78 1639.22,-145.11 1636.5,-140.81 1642.84,-146.86 1642.84,-146.86"/>
</g>
</g>
</svg>
